<svg xmlns="http://www.w3.org/2000/svg" viewBox="0 0 502.9 164.9"><path d="m88.9 85.6-15.6 3.1c-8.6 5.2 29.1 9.7-6.6 15.1-38.6 2.7 22.6 5-10.3 8-22.7.7-10.8 6.1-.7 6.5l14-.2c10.7 1.6-8 5.5-3.7 8.7 0 0 14.8-1 28-1.3 3.2.9-5.6 4.3-3 4.8 2.6.5 9.7 0 22.8 0l292.2-7c5.8-1.8-8.3-7.7-8.3-7.7-8.5-4.2 29.2-2 .9-7.9-14.2-3 26.8-10 25.2-12.3s-17.7-1.5-18.2-3.3c-.8-2.7 35.5-5.1 28.7-7.8-13.4-5.3-.9-5.8-.9-5.8 27.8-1.7-3-8.1 7.3-10.1l11.6-2.1c4.8-.8-.8-3.3-.8-3.3-6.4-1.6-2.3-4.3-2.3-4.3 4.8-3.6 6.4-2 6.4-3.6 0-3.5-25.9 5.1-7.7-6.8 0 0 1.9-1.9-.2-2.2-15-2.5 19.6-9-6-8.3l-332 5.1c-.6 0-.5.9 0 1.1l13.6 3.4c11 3.4-38.3 4.8-28.9 8.2 0 0 23.4 7.6 12.2 10.2s-33.9 6.7-27 10.4 22.5 6.3 9.1 9.6z" style="fill:#cc7f3a" data-name="Lager_1"/></svg>