<svg width="125" height="38" viewBox="0 0 125 38" fill="none" xmlns="http://www.w3.org/2000/svg">
<g clip-path="url(#clip0_538_2514)">
<path fill-rule="evenodd" clip-rule="evenodd" d="M124.71 12.15C124.48 8.48 123.36 5.85 121.15 3.6C118.75 1.2 115.86 0 112.53 0H112.34C111.55 0 110.73 0.08 109.98 0.23C109.23 0.08 108.44 0 107.62 0H107.43C104.09 0 101.17 1.2 98.81 3.6C96.6 5.81 95.44 8.55 95.25 12.15C95.21 12.45 95.14 13.57 95.14 14.74C95.14 15.91 95.22 17.03 95.25 17.36C95.51 21.11 96.6 23.66 98.81 25.91C101.17 28.27 104.1 29.51 107.43 29.51H107.62C108.41 29.51 109.23 29.43 109.98 29.28C110.73 29.43 111.52 29.51 112.34 29.51H112.53C115.87 29.51 118.79 28.31 121.15 25.91C123.44 23.62 124.56 20.92 124.75 17.32C124.75 17.32 124.83 15.6 124.83 14.7C124.83 13.8 124.72 12.15 124.72 12.15M112.6 17.21H112.45V17.25C112.37 18.67 111.92 19.8 111.02 20.7C110.8 20.93 110.57 21.11 110.31 21.3C110.2 21.38 110.08 21.45 109.97 21.53C109.59 21.3 109.26 21.04 108.92 20.71C108.32 20.11 107.91 19.4 107.68 18.5C107.57 18.12 107.53 17.71 107.49 17.26V17.19C107.49 17.19 107.38 15.91 107.38 14.75C107.38 13.59 107.49 12.35 107.49 12.35C107.6 11.04 107.9 10.1 108.5 9.31C108.65 9.12 108.8 8.97 108.91 8.82C109.25 8.48 109.58 8.22 109.96 8C110 8.04 110.03 8.04 110.07 8.07L110.11 8.11C110.45 8.33 110.75 8.56 111.01 8.82C111.95 9.72 112.4 10.81 112.44 12.31C112.44 12.61 112.55 14.15 112.55 14.75C112.55 15.35 112.47 16.92 112.44 17.22H112.59L112.6 17.21ZM104.46 2.85C104.2 3.07 103.94 3.34 103.67 3.6C101.46 5.81 100.37 8.44 100.07 12.15C100.07 12.3 99.96 13.72 99.96 14.77C99.96 15.71 100.04 16.94 100.07 17.32V17.43C100.11 17.8 100.14 18.18 100.22 18.59C100.48 20.09 101.16 21.36 102.24 22.41C102.35 22.52 102.47 22.63 102.58 22.71L102.62 22.75C103.29 23.35 104.08 23.8 104.91 24.1C105.7 24.36 106.52 24.51 107.38 24.51H107.57C109.22 24.51 110.72 23.98 111.96 23.01C112.11 22.9 112.22 22.79 112.37 22.67L112.45 22.59C112.53 22.52 112.6 22.48 112.68 22.4C112.68 22.4 112.72 22.36 112.75 22.32C114.06 20.97 114.77 19.36 114.85 17.3V17.26C114.85 16.96 114.96 15.39 114.96 14.71C114.96 13.96 114.85 12.16 114.85 12.16C114.77 10.25 114.18 8.67 113.01 7.4C114.1 7.51 115.07 7.96 115.9 8.79C116.84 9.69 117.29 10.78 117.32 12.31C117.32 12.46 117.43 13.7 117.43 14.75C117.43 15.8 117.32 17.75 117.28 17.94C117.17 19.44 116.79 20.71 116.23 21.84C115.85 22.59 115.41 23.23 114.81 23.86C114.7 23.97 114.62 24.09 114.51 24.16C113.16 25.51 111.66 26.37 109.94 26.78C109.19 26.97 108.44 27.04 107.62 27.04H107.43C106.64 27.04 105.89 26.97 105.18 26.78C103.42 26.41 101.92 25.54 100.53 24.16C98.73 22.36 97.91 20.34 97.64 17.22V17.15C97.64 17.15 97.64 16.89 97.6 16.55C97.56 16.1 97.56 15.39 97.56 14.71C97.56 13.47 97.64 12.27 97.64 12.27C97.83 9.23 98.69 7.1 100.53 5.3C101.69 4.1 103 3.28 104.47 2.83M115.45 26.66C115.71 26.44 115.97 26.17 116.24 25.95C118.3 23.89 119.43 21.38 119.73 18.26C119.77 17.92 119.8 17.62 119.8 17.36C119.84 17.02 119.91 15.79 119.91 14.77C119.91 13.61 119.8 12.22 119.8 12.22C119.73 10.12 119.01 8.47 117.66 7.12C116.69 6.15 115.52 5.47 114.21 5.17C113.65 5.06 113.08 4.98 112.56 4.98H112.37C111.55 4.98 110.72 5.13 109.97 5.39C109.41 5.58 108.92 5.84 108.43 6.14C108.02 6.44 107.61 6.74 107.23 7.11C107.23 7.11 107.19 7.15 107.19 7.19C106.1 8.28 105.5 9.59 105.24 11.28C105.2 11.58 105.17 11.88 105.13 12.18C105.13 12.18 105.02 13.49 105.02 14.8C105.02 15.89 105.09 17.01 105.13 17.35V17.39H105.28L105.13 17.43C105.24 19.3 105.84 20.88 106.93 22.15C105.81 22.04 104.87 21.59 104.04 20.76C103.33 20.05 102.92 19.26 102.69 18.32C102.65 18.06 102.62 17.8 102.58 17.49L102.54 17.27C102.54 17.27 102.43 15.77 102.43 14.83C102.43 14.45 102.43 13.97 102.47 13.4C102.51 12.91 102.51 12.5 102.54 12.43C102.69 10.52 103.06 9.02 103.7 7.74C104.08 7.03 104.52 6.35 105.09 5.75C105.2 5.64 105.28 5.53 105.39 5.45C106.74 4.1 108.24 3.24 109.96 2.83C110.71 2.64 111.46 2.57 112.28 2.57H112.47C113.26 2.57 114.01 2.64 114.72 2.83C116.48 3.2 117.98 4.07 119.37 5.45C121.21 7.29 122.03 9.35 122.26 12.42C122.26 12.42 122.33 14.03 122.33 14.86C122.33 15.69 122.26 17.33 122.26 17.33C122.11 20.25 121.21 22.47 119.37 24.3C118.21 25.35 116.9 26.17 115.43 26.62" fill="#33589F"/>
<path fill-rule="evenodd" clip-rule="evenodd" d="M3.04004 29.36H0.790039V28.76H5.92004V29.36H3.67004V35.62H3.04004V29.36Z" fill="#33589F"/>
<path fill-rule="evenodd" clip-rule="evenodd" d="M6.04003 30.7499H6.68003V31.7199C7.05003 31.1199 7.65003 30.6699 8.63003 30.6699H8.74003L8.66003 31.2699H8.47003C7.68003 31.2699 7.05003 31.7199 6.67003 32.4699V35.6199H6.03003V30.7499H6.04003Z" fill="#33589F"/>
<path fill-rule="evenodd" clip-rule="evenodd" d="M9.56006 34.4999C9.56006 33.5199 10.3801 32.8099 12.9001 32.4399V32.1799C12.9001 31.5099 12.5601 31.1699 11.8901 31.1699C11.1001 31.1699 10.5801 31.5099 10.0501 31.9599L9.71006 31.5499C10.3101 31.0299 10.9901 30.6499 11.9601 30.6499C13.0501 30.6499 13.5301 31.2499 13.5301 32.2199V34.4299C13.5301 35.0299 13.5701 35.3999 13.6801 35.6299H13.0101C12.9301 35.4399 12.9001 35.2199 12.9001 34.9199C12.3401 35.4399 11.7001 35.7099 10.9501 35.7099C10.0501 35.7499 9.56006 35.2599 9.56006 34.5099M12.8601 34.4199V32.8799C10.7601 33.2199 10.1601 33.7399 10.1601 34.3799C10.1601 34.8999 10.5001 35.1699 11.0601 35.1699C11.7701 35.2099 12.3701 34.9099 12.8601 34.4199Z" fill="#33589F"/>
<path fill-rule="evenodd" clip-rule="evenodd" d="M15 33.18C15 31.46 15.9 30.63 17.06 30.63C17.7 30.63 18.26 30.97 18.63 31.38V28.72H19.27V34.38C19.27 34.98 19.31 35.35 19.42 35.58H18.74C18.7 35.43 18.63 35.13 18.63 34.87C18.22 35.28 17.73 35.66 16.98 35.66C15.89 35.74 14.99 34.91 14.99 33.19M18.64 34.38V31.98C18.15 31.46 17.66 31.16 17.1 31.16C16.24 31.16 15.6 31.8 15.6 33.18C15.6 34.56 16.27 35.17 17.1 35.17C17.74 35.17 18.19 34.87 18.64 34.38Z" fill="#33589F"/>
<path fill-rule="evenodd" clip-rule="evenodd" d="M20.85 33.1799C20.85 31.4599 21.97 30.6299 22.99 30.6299C24.15 30.6299 24.98 31.4899 24.98 33.1799V33.2899H21.49C21.49 34.4899 22.2 35.1599 23.03 35.1599C23.78 35.1599 24.19 34.8199 24.57 34.2599L24.98 34.5599C24.57 35.2299 23.93 35.6899 23.03 35.6899C21.83 35.7299 20.86 34.8699 20.86 33.1799M24.37 32.8099C24.3 31.8699 23.85 31.1999 22.98 31.1999C22.27 31.1999 21.59 31.7199 21.48 32.8099H24.37Z" fill="#33589F"/>
<path fill-rule="evenodd" clip-rule="evenodd" d="M28.4599 30.75H29.1299L29.8099 33.19C29.9999 33.83 30.11 34.24 30.26 34.84C30.45 34.13 30.5199 33.79 30.7099 33.19L31.3799 30.75H31.9799L32.65 33.22C32.84 33.82 32.91 34.19 33.06 34.83C33.25 34.16 33.3199 33.82 33.5099 33.22L34.22 30.75H34.86L33.36 35.66H32.7599L31.6299 31.65L30.51 35.66H29.91L28.45 30.75H28.4599Z" fill="#33589F"/>
<path fill-rule="evenodd" clip-rule="evenodd" d="M36.26 29.5799H36.94V28.9099H36.26V29.5799ZM36.26 35.6199H36.9V30.7499H36.26V35.6199Z" fill="#33589F"/>
<path fill-rule="evenodd" clip-rule="evenodd" d="M39.11 34.5V31.28H38.25V30.76H39.11V29H39.75V30.76H41.03V31.32H39.75V34.39C39.75 34.91 39.9 35.18 40.54 35.18C40.73 35.18 40.92 35.18 41.07 35.1V35.66C40.92 35.7 40.66 35.7 40.43 35.7C39.49 35.7 39.12 35.33 39.12 34.5" fill="#33589F"/>
<path fill-rule="evenodd" clip-rule="evenodd" d="M42.48 28.76H43.12V31.5C43.61 31.05 44.21 30.64 44.99 30.64C45.97 30.64 46.45 31.16 46.45 32.1V35.62H45.81V32.21C45.81 31.54 45.51 31.2 44.83 31.2C44.19 31.2 43.67 31.54 43.11 32.06V35.62H42.47V28.76H42.48Z" fill="#33589F"/>
<path fill-rule="evenodd" clip-rule="evenodd" d="M50.66 30.7499H51.3V31.4599C51.68 31.0499 52.2 30.6699 52.95 30.6699C54.07 30.6699 54.97 31.4899 54.97 33.2199C54.97 34.9499 54.07 35.7699 52.91 35.7699C52.27 35.7699 51.75 35.4699 51.34 35.0199V37.5299H50.7V30.7399H50.66V30.7499ZM54.33 33.1799C54.33 31.8299 53.66 31.1899 52.83 31.1899C52.23 31.1899 51.78 31.4899 51.29 32.0099V34.4099C51.78 34.9299 52.26 35.1999 52.83 35.1999C53.69 35.1599 54.33 34.5599 54.33 33.1799Z" fill="#33589F"/>
<path fill-rule="evenodd" clip-rule="evenodd" d="M56.47 34.27V30.75H57.11V34.2C57.11 34.87 57.41 35.21 58.09 35.21C58.73 35.21 59.25 34.87 59.78 34.35V30.75H60.42V35.62H59.78V34.87C59.29 35.32 58.69 35.73 57.91 35.73C56.97 35.73 56.49 35.2 56.49 34.27" fill="#33589F"/>
<path fill-rule="evenodd" clip-rule="evenodd" d="M62.24 30.7499H62.88V31.7199C63.26 31.1199 63.85 30.6699 64.83 30.6699H64.94L64.86 31.2699H64.67C63.88 31.2699 63.25 31.7199 62.87 32.4699V35.6199H62.23V30.7499H62.24Z" fill="#33589F"/>
<path fill-rule="evenodd" clip-rule="evenodd" d="M66.22 30.7499H66.86V31.4599C67.24 31.0499 67.76 30.6699 68.51 30.6699C69.64 30.6699 70.53 31.4899 70.53 33.2199C70.53 34.9499 69.63 35.7699 68.47 35.7699C67.83 35.7699 67.31 35.4699 66.9 35.0199V37.5299H66.26V30.7399H66.22V30.7499ZM69.89 33.1799C69.89 31.8299 69.21 31.1899 68.39 31.1899C67.79 31.1899 67.34 31.4899 66.85 32.0099V34.4099C67.34 34.9299 67.82 35.1999 68.39 35.1999C69.25 35.1599 69.89 34.5599 69.89 33.1799Z" fill="#33589F"/>
<path fill-rule="evenodd" clip-rule="evenodd" d="M71.8101 33.1799C71.8101 31.5299 72.8201 30.6299 74.0201 30.6299C75.2201 30.6299 76.2301 31.5299 76.2301 33.1799C76.2301 34.8299 75.2201 35.7299 74.0201 35.7299C72.8201 35.7299 71.8101 34.8299 71.8101 33.1799ZM75.5901 33.1799C75.5901 32.0899 75.0701 31.1899 74.0201 31.1899C72.9701 31.1899 72.4501 32.0099 72.4501 33.1799C72.4501 34.2699 72.9701 35.1999 74.0201 35.1999C74.9901 35.1999 75.5901 34.3399 75.5901 33.1799Z" fill="#33589F"/>
<path fill-rule="evenodd" clip-rule="evenodd" d="M77.3199 34.8699L77.7299 34.4899C78.0999 34.8999 78.5899 35.1999 79.2699 35.1999C80.0899 35.1999 80.5499 34.8999 80.5499 34.3399C80.5499 33.8199 80.1699 33.5899 79.1999 33.3699C78.0699 33.1099 77.5099 32.8099 77.5099 31.9499C77.5099 31.2399 78.11 30.6799 79.16 30.6799C79.98 30.6799 80.5499 30.9399 80.9599 31.3899L80.5799 31.7999C80.1999 31.4199 79.76 31.1999 79.16 31.1999C78.41 31.1999 78.1099 31.5399 78.1099 31.9099C78.1099 32.3999 78.4499 32.5799 79.3099 32.7699C80.5499 33.0699 81.1799 33.3699 81.1799 34.3099C81.1799 35.2499 80.3899 35.6999 79.2699 35.6999C78.3699 35.7399 77.6999 35.3599 77.3199 34.8799" fill="#33589F"/>
<path fill-rule="evenodd" clip-rule="evenodd" d="M82.34 33.1799C82.34 31.4599 83.46 30.6299 84.48 30.6299C85.64 30.6299 86.47 31.4899 86.47 33.1799V33.2899H82.98C82.98 34.4899 83.69 35.1599 84.52 35.1599C85.27 35.1599 85.68 34.8199 86.06 34.2599L86.47 34.5599C86.06 35.2299 85.42 35.6899 84.52 35.6899C83.36 35.7299 82.35 34.8699 82.35 33.1799M85.87 32.8099C85.8 31.8699 85.35 31.1999 84.48 31.1999C83.77 31.1999 83.09 31.7199 82.98 32.8099H85.87Z" fill="#33589F"/>
<path fill-rule="evenodd" clip-rule="evenodd" d="M20.44 22.7201H16.39V13.1201C16.39 9.07011 18.68 6.86011 23.03 6.86011C25.2 6.86011 26.7 7.53011 27.6 8.85011C28.54 7.54011 30.07 6.86011 32.17 6.86011C36.74 6.86011 38.73 8.96011 38.73 13.1201V22.7201H34.68V13.1201C34.68 11.5501 34.3 10.6801 32.17 10.6801C29.92 10.6801 29.55 11.5401 29.55 13.1201V22.7201H25.61V13.1201C25.61 11.5501 25.24 10.6801 23.02 10.6801C20.8 10.6801 20.43 11.5401 20.43 13.1201V22.7201H20.44Z" fill="#33589F"/>
<path fill-rule="evenodd" clip-rule="evenodd" d="M41.02 7.84L43.79 7.2V5.92C43.79 1.27 46.34 0 49.79 0C50.99 0 52.23 0.15 53.09 0.45V4.24C52.3 3.98 51.33 3.83 50.09 3.83C48.74 3.83 47.84 4.28 47.84 5.59V7.2H52.79V11.02H47.84V22.72H43.79V11.06H41.02V7.84Z" fill="#33589F"/>
<path fill-rule="evenodd" clip-rule="evenodd" d="M53.96 16.2401V13.7701C53.96 9.35012 56.55 6.87012 61.38 6.87012C66.48 6.87012 68.77 9.16012 68.77 13.7701V16.2401C68.77 20.6601 66.22 23.1401 61.38 23.1401C56.32 23.1001 53.96 20.8201 53.96 16.2401ZM64.72 13.7601C64.72 11.7701 64.2 10.6901 61.42 10.6901C58.64 10.6901 58.05 11.7801 58.05 13.7601V16.2301C58.05 18.2201 58.65 19.3001 61.42 19.3001C64.19 19.3001 64.72 18.2101 64.72 16.2301V13.7601Z" fill="#33589F"/>
<path fill-rule="evenodd" clip-rule="evenodd" d="M75.63 22.7201H71.58V12.4801C71.58 8.81011 73.79 6.86011 78.03 6.86011C78.85 6.86011 79.38 6.94011 79.94 7.12011V10.9401C79.49 10.8301 78.85 10.6801 78.03 10.6801C76.01 10.6801 75.63 11.4301 75.63 12.8201V22.7201Z" fill="#33589F"/>
<path fill-rule="evenodd" clip-rule="evenodd" d="M84.52 0.149902C85.87 0.149902 86.96 1.2799 86.96 2.5899C86.96 3.8999 85.87 5.0299 84.52 5.0299C83.17 5.0299 82.08 3.9399 82.08 2.5899C82.08 1.2399 83.17 0.149902 84.52 0.149902ZM82.49 7.2399H86.5V22.7299H82.49V7.2399Z" fill="#33589F"/>
<path fill-rule="evenodd" clip-rule="evenodd" d="M5.95999 6.86009C4.34999 6.86009 2.88999 7.01009 1.75999 7.42009V10.8701C2.69999 10.5301 4.34999 10.2701 6.17999 10.2701C8.00999 10.2701 9.39999 10.5301 9.39999 12.1401V13.3001H6.28999C2.61999 13.3801 -0.0100098 14.5701 -0.0100098 18.2101C-0.0100098 21.4001 1.25999 22.9301 6.02999 22.9301C8.31999 22.9301 9.43999 21.0901 9.43999 21.0901V22.7001H13.49V12.1601C13.45 8.11009 10.49 6.84009 5.94999 6.84009M6.66999 19.7201C5.27999 19.7201 4.04999 19.6101 4.04999 18.1101C4.04999 16.9501 4.75999 16.4201 6.25999 16.4201H9.44999V17.3601C9.40999 18.6001 8.05999 19.7201 6.67999 19.7201" fill="#33589F"/>
</g>
<defs>
<clipPath id="clip0_538_2514">
<rect width="124.83" height="37.53" fill="white"/>
</clipPath>
</defs>
</svg>
