<svg width="66" height="50" viewBox="0 0 66 50" fill="none" xmlns="http://www.w3.org/2000/svg">
<g clip-path="url(#clip0_538_2386)">
<path d="M42.51 49.66H38.07V35.67H39.94V47.96H42.51V49.65V49.66ZM37 49.66H32.56V35.67H34.43V47.96H37V49.65V49.66ZM30.81 35.67V47.01C30.81 48.78 30.06 49.66 28.55 49.66H26.97C25.48 49.66 24.73 48.77 24.73 46.99V35.67H26.6V47.05C26.6 47.66 26.87 47.97 27.42 47.97H28.18C28.69 47.97 28.94 47.66 28.94 47.05V35.67H30.81ZM19.17 43.9L20.9 35.68H22.97V49.67H21.1L21.3 40.51L19.9 47.13H18.46L17.06 40.51L17.25 49.67H15.38V35.68H17.45L19.18 43.9H19.17ZM10.15 47.97H11.1C11.59 47.97 11.84 47.7 11.84 47.15V38.19C11.84 37.64 11.56 37.37 11 37.37H10.12C9.57 37.37 9.3 37.64 9.3 38.19V47.15C9.3 47.7 9.58 47.97 10.14 47.97H10.15ZM9.7 49.66C8.19 49.66 7.44 48.87 7.44 47.28V38.06C7.44 36.46 8.19 35.66 9.68 35.66H11.47C12.96 35.66 13.71 36.46 13.71 38.06V47.28C13.71 48.86 12.96 49.66 11.45 49.66H9.7ZM1.97 41.58H2.85C3.57 41.58 3.92 41.24 3.92 40.57V38.39C3.92 37.71 3.64 37.38 3.08 37.38H1.97V41.59V41.58ZM1.97 47.97H3.37C3.86 47.97 4.11 47.77 4.11 47.37V44.27C4.11 43.61 3.74 43.28 3 43.28H1.97V47.98V47.97ZM4.44 42.47C5.47 42.76 5.98 43.29 5.98 44.07V47.58C5.98 48.97 5.27 49.66 3.86 49.66H0.1V35.67H3.3C4.96 35.67 5.79 36.51 5.79 38.2V40.89C5.79 41.69 5.34 42.19 4.45 42.37V42.47H4.44ZM58.18 31.83H56.31L53.97 24.99V24.87L55.92 17.84H57.64L55.67 24.8L58.18 31.83ZM53.87 31.83H52V17.84H53.87V31.83ZM48.57 21.6V20.37C48.57 19.81 48.3 19.53 47.75 19.53H47.46C46.93 19.53 46.66 19.81 46.66 20.37V22.69C46.66 22.95 46.71 23.13 46.82 23.22C46.92 23.31 47.09 23.43 47.33 23.57L49.1 24.52C49.49 24.74 49.77 24.91 49.93 25.04C50.09 25.16 50.22 25.31 50.31 25.49C50.4 25.66 50.45 26 50.45 26.49V29.47C50.45 31.04 49.7 31.83 48.19 31.83H47.04C45.55 31.83 44.8 30.97 44.8 29.26V28.56H46.67V29.32C46.67 29.87 46.95 30.14 47.51 30.14H47.84C48.33 30.14 48.58 29.87 48.58 29.32V26.94C48.58 26.68 48.53 26.5 48.42 26.41C48.32 26.32 48.15 26.2 47.91 26.06L46.14 25.07C45.75 24.86 45.47 24.69 45.29 24.54C45.11 24.4 44.99 24.21 44.91 23.99C44.83 23.76 44.79 23.47 44.79 23.1V20.24C44.79 18.64 45.54 17.84 47.03 17.84H48.2C49.69 17.84 50.44 18.64 50.44 20.24V21.6H48.57ZM41.36 31.83V17.84H43.23V31.83H41.36ZM37 26.7V25H39.85V31.82H36.19C34.75 31.82 34.03 31.03 34.03 29.46V20.22C34.03 18.62 34.75 17.82 36.19 17.82H37.48C39.06 17.82 39.86 18.63 39.86 20.26V21.78H37.99V20.53C37.99 19.85 37.72 19.52 37.19 19.52H36.72C36.18 19.52 35.9 19.86 35.9 20.53V29.1C35.9 29.78 36.17 30.11 36.72 30.11H37.99V26.68H37.01L37 26.7ZM28.9 30.13H29.85C30.34 30.13 30.59 29.86 30.59 29.31V20.35C30.59 19.8 30.31 19.53 29.75 19.53H28.87C28.32 19.53 28.05 19.8 28.05 20.35V29.31C28.05 29.86 28.33 30.13 28.89 30.13H28.9ZM28.45 31.83C26.94 31.83 26.19 31.04 26.19 29.45V20.23C26.19 18.63 26.94 17.83 28.43 17.83H30.22C31.71 17.83 32.46 18.63 32.46 20.23V29.45C32.46 31.03 31.71 31.83 30.2 31.83H28.45ZM25.21 31.83H20.77V17.84H22.64V30.13H25.21V31.82V31.83ZM15.55 30.13H16.5C17 30.13 17.24 29.86 17.24 29.31V20.35C17.24 19.8 16.96 19.53 16.4 19.53H15.52C14.97 19.53 14.7 19.8 14.7 20.35V29.31C14.7 29.86 14.98 30.13 15.54 30.13H15.55ZM15.1 31.83C13.59 31.83 12.84 31.04 12.84 29.45V20.23C12.84 18.63 13.59 17.83 15.08 17.83H16.87C18.36 17.83 19.11 18.63 19.11 20.23V29.45C19.11 31.03 18.36 31.83 16.85 31.83H15.09H15.1ZM12.26 31.83H10.39L8.05 24.99V24.87L10 17.84H11.71L9.74 24.8L12.25 31.83H12.26ZM7.95 31.83H6.08V17.84H7.95V31.83ZM0.1 31.83V17.84H4.74V19.54H1.97V23.79H4.42V25.48H1.97V30.14H4.74V31.83H0.1ZM61.86 12.29H63.26C63.75 12.29 64 12.08 64 11.67V2.71C64 2.03 63.72 1.7 63.16 1.7H61.85V12.3L61.86 12.29ZM59.99 13.99V0H63.24C64.99 0 65.87 0.9 65.87 2.69V11.96C65.87 13.31 65.12 13.99 63.63 13.99H59.99ZM56.47 7.17V2.51C56.47 1.96 56.2 1.69 55.65 1.69H55.14C54.6 1.69 54.32 1.96 54.32 2.51V7.17H56.46H56.47ZM54.32 13.99H52.45V2.4C52.45 0.8 53.2 0 54.69 0H56.09C57.58 0 58.33 0.8 58.33 2.4V13.99H56.46V8.87H54.32V13.99ZM47.06 6.74H48.29C48.85 6.74 49.13 6.4 49.13 5.73V2.71C49.13 2.03 48.85 1.7 48.29 1.7H47.06V6.75V6.74ZM45.18 0H48.84C50.27 0 50.98 0.8 50.98 2.4V5.85C50.98 7.07 50.61 7.84 49.87 8.17L51.18 13.99H49.41L48.18 8.34H47.05V13.99H45.18V0ZM39.2 13.99V0H43.84V1.69H41.07V5.94H43.52V7.63H41.07V12.29H43.84V13.98H39.2V13.99ZM35.58 13.99V1.69H31.84V5.94H34.3V7.63H31.84V13.98H29.97V0H37.45V13.99H35.58ZM26.34 13.99V0H28.21V13.99H26.34ZM23.48 1.69V13.98H21.61V1.69H19.82V0H25.28V1.69H23.49H23.48ZM15 6.74H16.23C16.79 6.74 17.07 6.4 17.07 5.73V2.71C17.07 2.03 16.79 1.7 16.23 1.7H15V6.75V6.74ZM13.13 0H16.79C18.22 0 18.93 0.8 18.93 2.4V5.85C18.93 7.07 18.56 7.84 17.82 8.17L19.13 13.99H17.36L16.13 8.34H15V13.99H13.13V0ZM7.15 13.99V0H11.79V1.69H9.02V5.94H11.47V7.63H9.02V12.29H11.79V13.98H7.15V13.99ZM5.69 10.72V11.62C5.69 13.2 4.94 14 3.45 14H2.24C0.75 14 0 13.21 0 11.62V2.38C0 0.79 0.75 0 2.24 0H3.45C4.94 0 5.69 0.79 5.69 2.38V3.96H3.82V2.52C3.82 1.97 3.54 1.7 2.98 1.7H2.61C2.12 1.7 1.87 1.97 1.87 2.52V11.48C1.87 12.03 2.12 12.3 2.61 12.3H3.08C3.57 12.3 3.82 12.03 3.82 11.48V10.72H5.69Z" fill="#929491"/>
</g>
<defs>
<clipPath id="clip0_538_2386">
<rect width="65.88" height="49.66" fill="white"/>
</clipPath>
</defs>
</svg>
