<svg width="73" height="112" viewBox="0 0 73 112" fill="none" xmlns="http://www.w3.org/2000/svg">
<g clip-path="url(#clip0_538_2488)">
<path fill-rule="evenodd" clip-rule="evenodd" d="M44.15 50.49C44.53 51.37 44.8 52.28 45.06 53.2C46.02 53.2 46.97 53.2 47.93 53.23C47.21 53.84 46.42 54.38 45.65 54.92C45.91 55.85 46.28 56.74 46.49 57.68C45.69 57.14 44.93 56.55 44.14 55.99C43.37 56.57 42.63 57.17 41.82 57.68C42.08 56.75 42.39 55.83 42.69 54.91C41.9 54.37 41.12 53.83 40.38 53.23C41.32 53.2 42.27 53.2 43.21 53.21C43.56 52.31 43.83 51.39 44.16 50.49M56.36 46.78C56.72 47.66 56.99 48.58 57.27 49.49C58.23 49.49 59.2 49.49 60.16 49.53C59.42 50.12 58.67 50.68 57.89 51.22C58.1 52.16 58.5 53.05 58.71 53.99C57.92 53.44 57.15 52.86 56.34 52.33C55.58 52.89 54.84 53.5 54.03 54C54.31 53.07 54.6 52.15 54.88 51.23C54.1 50.68 53.32 50.14 52.58 49.53C53.54 49.5 54.51 49.5 55.47 49.5C55.75 48.59 56.02 47.67 56.36 46.78ZM31.95 46.78C32.27 47.68 32.58 48.58 32.86 49.5C33.82 49.5 34.78 49.5 35.75 49.54C35 50.15 34.2 50.7 33.42 51.27C33.72 52.17 34.11 53.06 34.29 54C33.6 53.57 32.97 53.04 32.3 52.57C32.14 52.47 31.93 52.31 31.76 52.47C31.04 52.97 30.37 53.53 29.62 53.98C29.86 53.05 30.18 52.14 30.48 51.22C29.68 50.69 28.9 50.14 28.16 49.54C29.11 49.5 30.06 49.5 31.01 49.51C31.36 48.61 31.62 47.68 31.97 46.78H31.95ZM65.67 37.7C66.01 38.59 66.31 39.5 66.59 40.41C67.56 40.41 68.54 40.39 69.51 40.43C68.76 41.05 67.94 41.58 67.16 42.16C67.48 43.06 67.74 43.98 68.02 44.89C67.21 44.38 66.44 43.8 65.67 43.24C64.89 43.8 64.14 44.4 63.32 44.9C63.58 43.96 63.94 43.06 64.17 42.11C63.39 41.59 62.6 41.06 61.89 40.44C62.84 40.4 63.78 40.39 64.73 40.39C65.06 39.49 65.34 38.58 65.66 37.68L65.67 37.7ZM21.72 40.41C22.07 39.51 22.32 38.58 22.64 37.67C22.99 38.57 23.26 39.5 23.57 40.42C24.54 40.42 25.5 40.42 26.47 40.43C25.71 41.04 24.92 41.61 24.13 42.18C24.41 43.1 24.77 43.99 25.01 44.92C24.2 44.41 23.44 43.81 22.65 43.27C21.86 43.82 21.1 44.41 20.29 44.92C20.55 44 20.89 43.1 21.17 42.18C20.4 41.58 19.58 41.05 18.83 40.44C19.8 40.41 20.76 40.41 21.73 40.41M68.27 27.77C68.55 26.85 68.88 25.95 69.22 25.05C69.51 25.96 69.82 26.87 70.14 27.78C71.07 27.78 71.99 27.78 72.92 27.78V27.91C72.18 28.45 71.42 28.97 70.69 29.54C70.98 30.45 71.29 31.36 71.56 32.28C70.77 31.75 69.99 31.19 69.22 30.62C68.42 31.16 67.66 31.74 66.86 32.28C67.12 31.34 67.42 30.42 67.71 29.5C66.9 28.98 66.15 28.39 65.39 27.8C66.35 27.78 67.31 27.78 68.27 27.78V27.77ZM19.13 25.05C19.47 25.95 19.74 26.87 20.05 27.77C21.01 27.77 21.97 27.77 22.93 27.79C22.19 28.42 21.38 28.96 20.6 29.54C20.89 30.45 21.27 31.34 21.48 32.27C20.78 31.84 20.15 31.32 19.49 30.84C19.35 30.75 19.18 30.59 19.01 30.71C18.24 31.17 17.58 31.8 16.8 32.26C17.03 31.32 17.41 30.43 17.62 29.48C16.85 28.94 16.07 28.41 15.35 27.81C16.3 27.77 17.25 27.77 18.2 27.78C18.53 26.88 18.77 25.94 19.13 25.05ZM66.02 12.93C66.37 13.82 66.68 14.73 66.95 15.65C67.9 15.65 68.85 15.65 69.8 15.67C69.08 16.29 68.25 16.75 67.55 17.38C67.75 18.31 68.17 19.19 68.37 20.13C67.57 19.59 66.81 19 66.02 18.44C65.26 19.02 64.47 19.57 63.69 20.13C63.94 19.19 64.24 18.27 64.55 17.35C63.77 16.82 62.99 16.27 62.26 15.68C63.21 15.66 64.17 15.65 65.12 15.65C65.39 14.73 65.68 13.82 66.02 12.93ZM21.37 15.65C21.67 14.73 21.94 13.81 22.29 12.91C22.65 13.81 22.9 14.74 23.23 15.65C24.17 15.65 25.1 15.65 26.04 15.66C25.3 16.25 24.54 16.82 23.76 17.36C24.06 18.28 24.41 19.2 24.67 20.13C23.86 19.57 23.07 18.99 22.26 18.42C21.5 19 20.75 19.61 19.93 20.12C20.21 19.19 20.53 18.27 20.81 17.34C20.04 16.79 19.25 16.25 18.49 15.67C19.45 15.65 20.41 15.65 21.37 15.65ZM57.03 3.18C57.36 4.07 57.63 4.99 57.93 5.89C58.9 5.89 59.87 5.89 60.84 5.93C60.09 6.56 59.28 7.1 58.48 7.67C58.77 8.58 59.14 9.47 59.36 10.4C58.54 9.91 57.81 9.29 57.02 8.76C56.24 9.29 55.5 9.89 54.7 10.4C54.91 9.47 55.23 8.57 55.55 7.66C54.78 7.07 53.94 6.58 53.22 5.93C54.17 5.89 55.12 5.89 56.07 5.89C56.41 5 56.69 4.07 57.02 3.17L57.03 3.18ZM31.28 3.18C31.63 4.07 31.9 4.98 32.18 5.89C33.14 5.89 34.1 5.89 35.07 5.93C34.36 6.55 33.6 7.11 32.82 7.64C33.03 8.59 33.39 9.49 33.66 10.42C32.86 9.9 32.08 9.34 31.31 8.76C30.53 9.31 29.76 9.88 28.95 10.4C29.21 9.49 29.51 8.59 29.8 7.69C29.03 7.1 28.21 6.57 27.47 5.94C28.43 5.9 29.4 5.9 30.37 5.9C30.68 5 30.98 4.09 31.28 3.19V3.18ZM44.12 0H44.19C44.56 0.88 44.79 1.8 45.13 2.69C46.07 2.69 47.01 2.7 47.95 2.72C47.19 3.28 46.42 3.83 45.66 4.39C45.97 5.29 46.26 6.19 46.5 7.11C45.7 6.61 44.95 6.03 44.19 5.48C43.41 6.03 42.64 6.6 41.83 7.12C42.05 6.19 42.4 5.3 42.69 4.4C41.91 3.85 41.15 3.27 40.38 2.71C41.33 2.69 42.28 2.69 43.24 2.68C43.53 1.79 43.84 0.9 44.12 0Z" fill="#2DA2D7"/>
<path fill-rule="evenodd" clip-rule="evenodd" d="M41.42 77.37C44.67 76.65 47.9 75.59 51.27 75.69C53.75 75.77 56.22 76.16 58.59 76.88C60.05 77.35 61.53 77.88 62.68 78.94C60.8 78.36 58.9 77.73 56.91 77.7C57.03 77.88 57.16 78.06 57.28 78.24C56.8 78.33 56.33 78.44 55.86 78.59C57.03 78.71 58.22 78.71 59.39 78.91C57.61 79.29 55.82 79.58 54.04 79.94C54.34 80.1 54.64 80.26 54.94 80.43C52.22 80.95 49.67 82.07 47.05 82.92C45.94 83.27 44.8 83.62 43.62 83.62C42 83.68 40.27 83.6 38.82 82.77C37.9 82.26 37.36 81.21 37.38 80.17C37.33 79.66 37.62 79.16 38 78.85C38.96 78.02 40.23 77.7 41.43 77.39M14.12 73.36C16.55 73.24 19.07 73.07 21.42 73.88C22.79 74.39 23.94 75.32 25.1 76.18C25.64 76.61 26.22 77.02 26.66 77.56C27.16 78.33 27.5 79.2 27.76 80.07C26.55 80.36 25.29 80.49 24.06 80.33C23.35 80.07 22.76 79.56 22.18 79.1C20.3 77.5 18.58 75.7 16.51 74.34C15.79 73.86 14.98 73.53 14.13 73.35L14.12 73.36ZM44.45 64.82C47.24 63.53 50.33 63.05 53.38 62.99C56.2 62.98 58.99 63.52 61.66 64.37C62.13 64.53 62.58 64.73 63.04 64.93C61.14 65.1 59.17 64.89 57.32 65.48C57.2 65.54 56.98 65.56 57.01 65.74C57.4 66.02 57.9 66.06 58.35 66.18C59.97 66.49 61.62 66.58 63.26 66.73C62.63 66.37 61.98 66.04 61.27 65.84C62.97 65.58 64.69 65.87 66.27 66.49C68.18 67.23 69.91 68.35 71.84 69.03C70.85 69.13 69.86 69.16 68.87 69.21C69.02 69.37 69.17 69.53 69.31 69.7C67.08 69.2 64.77 69.37 62.51 69.59C61.44 69.68 60.4 69.94 59.35 70.15C58.14 70.3 56.92 70.21 55.71 70.15C55.92 70.35 56.12 70.54 56.33 70.74C53.94 70.43 51.49 70.56 49.16 71.16C48.02 71.41 46.94 71.87 45.85 72.28C46.02 72.04 46.2 71.81 46.38 71.57C44.82 72.1 43.33 72.81 41.86 73.55C41.24 73.84 40.59 74.13 39.9 74.2C39.61 74.2 39.44 73.92 39.31 73.69C38.48 72.33 38.5 70.51 39.31 69.14C40.41 67.12 42.4 65.78 44.44 64.84L44.45 64.82ZM33.79 60.98C33.96 59.99 35.34 59.55 36.05 60.26C36.67 61.12 36.57 62.23 36.46 63.22C34.66 75.05 33.43 87.06 34.32 99.03C34.51 101.91 34.95 104.77 35.41 107.62C34.57 105.59 34.23 103.4 33.87 101.25C33.29 97.22 33.11 93.14 33.16 89.07C33.09 83.32 33.56 77.58 34.16 71.87C33.91 72.91 33.74 73.96 33.59 75.02C32.52 82.84 32.4 90.78 33.12 98.64C33.4 101.45 33.8 104.26 34.41 107.02C34.63 108.06 34.97 109.07 35.16 110.12C35.19 110.25 35.09 110.36 35.03 110.47C34.76 110.87 34.48 111.26 34.18 111.64H33.18C32.95 111.53 32.73 111.41 32.52 111.26C32.24 110.78 32.11 110.23 31.97 109.7C31.5 107.73 31.21 105.73 30.96 103.73C29.98 95.26 29.84 86.69 30.51 78.19C31.02 72.37 31.92 66.55 33.77 60.99L33.79 60.98ZM0 46.87C1.68 46.83 3.52 46.62 5.06 47.47C8.98 49.42 12.67 51.83 16.14 54.49C18.84 56.59 21.4 58.88 23.59 61.52C25.37 63.62 26.89 65.99 27.79 68.6C28.2 69.84 28.38 71.13 28.7 72.39C28.71 72.78 28.94 73.39 28.5 73.63C27.89 73.76 27.3 73.4 26.76 73.17C24.7 72.16 22.45 71.35 20.82 69.68C18.27 67.05 16.2 64 14.04 61.05C11.67 57.71 9.28 54.36 6.46 51.38C4.63 49.5 2.54 47.75 0 46.93V46.86L0 46.87ZM39.08 19.55C42.29 17.65 46.55 17.59 49.76 19.53C50.64 20.23 50.18 21.95 49.05 22.1C48.6 22.24 48.21 21.98 47.82 21.81C45.59 20.7 42.8 20.76 40.66 22.05C39.6 22.68 38.64 23.54 38.02 24.61C39.74 25.23 41.43 25.93 43.15 26.56C43.6 26.74 44.1 26.96 44.3 27.44C44.56 28.14 44.3 29.01 43.64 29.41C43.28 29.59 42.84 29.58 42.47 29.44C40.64 28.74 38.82 28 36.97 27.35C36.3 30.64 38.23 34.17 41.26 35.54C41.93 35.93 42.79 35.92 43.4 36.43C43.99 37.15 43.81 38.46 42.92 38.86C42.28 39.08 41.6 38.79 40.99 38.6C37.42 37.42 34.66 34.15 34.07 30.44C33.89 29.28 33.89 28.1 34.04 26.94C34.55 23.9 36.4 21.07 39.1 19.54L39.08 19.55Z" fill="#43A960"/>
</g>
<defs>
<clipPath id="clip0_538_2488">
<rect width="72.91" height="111.64" fill="white"/>
</clipPath>
</defs>
</svg>
