<svg width="107" height="47" viewBox="0 0 107 47" fill="none" xmlns="http://www.w3.org/2000/svg">
<g clip-path="url(#clip0_538_2378)">
<path d="M39.35 35.29C40.59 33.09 41.84 30.89 43.09 28.68C42.8 30.88 42.5 33.09 42.2 35.29C41.25 35.29 40.3 35.29 39.35 35.29ZM51.8 32.71C52.33 31.16 52.87 29.62 53.41 28.07C53.97 28.07 54.52 28.07 55.08 28.07C55.38 28.09 55.72 28.14 55.93 28.38C56.13 28.64 56.08 29.01 55.99 29.31C55.76 29.98 55.52 30.65 55.29 31.32C55.13 31.78 54.85 32.22 54.41 32.46C53.93 32.73 53.36 32.71 52.83 32.71C52.49 32.71 52.15 32.71 51.8 32.71ZM70.89 14.72C72.13 12.53 73.37 10.33 74.62 8.14C74.34 10.34 74.03 12.53 73.74 14.72C72.79 14.72 71.84 14.72 70.89 14.72ZM91.45 7.5C92.01 7.5 92.57 7.5 93.13 7.5C93.43 7.52 93.77 7.57 93.97 7.82C94.18 8.1 94.11 8.47 94.02 8.78C93.79 9.45 93.55 10.12 93.32 10.78C93.15 11.25 92.85 11.7 92.39 11.92C91.98 12.13 91.52 12.13 91.07 12.14C90.66 12.14 90.25 12.14 89.85 12.14C90.38 10.59 90.92 9.04 91.46 7.5H91.45ZM51.7 25.93C51.43 26.07 51.26 26.34 51.17 26.62C49.65 30.98 48.13 35.35 46.6 39.71C46.51 39.97 46.37 40.27 46.5 40.54C46.65 40.82 47.01 40.86 47.3 40.86C47.69 40.84 48.09 40.9 48.48 40.8C48.81 40.72 49.07 40.46 49.18 40.15C49.8 38.38 50.42 36.61 51.04 34.85C51.54 34.85 52.04 34.85 52.55 34.85C52.68 35.19 52.69 35.56 52.72 35.91C52.76 36.86 52.82 37.81 53.03 38.73C53.19 39.4 53.48 40.08 54.06 40.49C54.54 40.84 55.15 40.93 55.73 40.9C56.11 40.87 56.54 41 56.86 40.73C57.2 40.49 57.22 40.05 57.35 39.69C57.41 39.43 57.6 39.15 57.43 38.9C57.23 38.64 56.87 38.73 56.59 38.72C56.33 38.7 56.01 38.79 55.81 38.57C55.54 38.26 55.48 37.83 55.41 37.43C55.26 36.46 55.32 35.46 55.14 34.49C55.96 34.23 56.7 33.71 57.22 33.02C57.53 32.6 57.77 32.12 57.94 31.62C58.23 30.79 58.52 29.97 58.8 29.14C59 28.6 59.16 28.01 59.03 27.44C58.93 26.96 58.6 26.54 58.18 26.3C57.56 25.93 56.82 25.82 56.11 25.79C54.88 25.79 53.64 25.79 52.41 25.79C52.17 25.79 51.92 25.8 51.7 25.92V25.93ZM42.22 26.22C42.03 26.43 41.91 26.68 41.77 26.92C39.22 31.25 36.67 35.58 34.12 39.91C34 40.12 33.9 40.4 34.05 40.62C34.24 40.87 34.58 40.87 34.86 40.87C35.28 40.86 35.74 40.93 36.13 40.72C36.39 40.59 36.58 40.35 36.71 40.09C37.19 39.23 37.67 38.37 38.15 37.51H41.87C41.75 38.34 41.64 39.17 41.52 40.01C41.48 40.26 41.52 40.56 41.73 40.72C42.01 40.92 42.37 40.88 42.69 40.88C43.07 40.88 43.49 40.93 43.83 40.72C44.1 40.56 44.21 40.25 44.24 39.95C44.7 35.54 45.16 31.12 45.63 26.71C45.65 26.51 45.64 26.3 45.52 26.13C45.36 25.9 45.08 25.81 44.82 25.81C44.29 25.81 43.76 25.81 43.24 25.81C42.86 25.8 42.48 25.95 42.23 26.23L42.22 26.22ZM29.57 26.07C29.36 26.26 29.27 26.54 29.19 26.8C27.66 31.18 26.14 35.56 24.61 39.93C24.53 40.16 24.48 40.45 24.67 40.64C24.84 40.83 25.11 40.85 25.34 40.86C27.1 40.86 28.86 40.86 30.61 40.86C30.9 40.86 31.2 40.8 31.43 40.62C31.7 40.4 31.79 40.05 31.9 39.74C31.98 39.49 32.12 39.21 32.02 38.94C31.92 38.68 31.61 38.59 31.35 38.59H27.83C28.32 37.19 28.82 35.8 29.3 34.4C30.47 34.4 31.63 34.4 32.8 34.4C33.1 34.4 33.41 34.29 33.61 34.07C33.84 33.83 33.89 33.49 34.01 33.19C34.1 32.94 34.21 32.62 34.03 32.38C33.84 32.15 33.5 32.13 33.22 32.13C32.18 32.13 31.13 32.13 30.09 32.13C30.56 30.78 31.02 29.43 31.49 28.08C32.86 28.08 34.22 28.08 35.59 28.08C35.91 28.08 36.26 28.02 36.5 27.79C36.76 27.56 36.82 27.2 36.94 26.89C37.02 26.64 37.15 26.37 37.02 26.12C36.91 25.89 36.62 25.81 36.38 25.81C34.38 25.81 32.37 25.81 30.37 25.81C30.08 25.81 29.79 25.89 29.57 26.09V26.07ZM12.19 25.89C11.9 26.05 11.73 26.36 11.69 26.68C10.9 30.99 10.14 35.31 9.36 39.62C9.3 39.9 9.25 40.19 9.37 40.46C9.52 40.84 9.95 41.04 10.34 41C10.89 40.96 11.39 40.63 11.69 40.18C13.42 37.68 15.15 35.17 16.89 32.67C16.87 34.98 16.79 37.3 16.75 39.61C16.75 39.91 16.69 40.23 16.84 40.5C16.99 40.81 17.34 40.99 17.68 40.99C18.14 40.99 18.58 40.78 18.9 40.45C19.23 40.14 19.38 39.71 19.59 39.33C21.77 35.16 23.95 30.98 26.13 26.81C26.25 26.57 26.38 26.27 26.23 26.01C26.08 25.77 25.77 25.72 25.51 25.72C25.21 25.72 24.9 25.7 24.6 25.74C24.23 25.79 23.9 26.02 23.73 26.35C22.22 29.28 20.7 32.21 19.19 35.15C19.36 32.69 19.57 30.23 19.75 27.76C19.75 27.48 19.62 27.19 19.39 27.02C19.13 26.83 18.77 26.8 18.46 26.87C18 26.98 17.6 27.28 17.34 27.67C15.73 30.15 14.13 32.63 12.51 35.1C13.09 32.27 13.68 29.45 14.27 26.62C14.32 26.39 14.34 26.11 14.16 25.94C13.94 25.71 13.6 25.72 13.3 25.72C12.92 25.72 12.52 25.67 12.18 25.87L12.19 25.89ZM89.47 5.56C89.23 5.83 89.17 6.2 89.04 6.53C87.54 10.82 86.05 15.11 84.55 19.4C84.47 19.62 84.45 19.9 84.62 20.08C84.85 20.3 85.18 20.29 85.47 20.29C85.84 20.28 86.22 20.33 86.58 20.21C86.9 20.11 87.13 19.83 87.23 19.52C87.84 17.77 88.46 16.03 89.06 14.28C89.56 14.28 90.07 14.28 90.58 14.28C90.82 15.01 90.72 15.81 90.82 16.56C90.9 17.37 90.99 18.2 91.33 18.95C91.55 19.46 91.94 19.91 92.46 20.14C93.05 20.41 93.71 20.33 94.33 20.34C94.71 20.37 95.1 20.09 95.2 19.72C95.31 19.37 95.42 19.02 95.52 18.67C95.59 18.44 95.42 18.2 95.19 18.17C94.95 18.13 94.7 18.17 94.45 18.15C94.23 18.15 93.97 18.17 93.82 17.98C93.52 17.6 93.47 17.09 93.41 16.63C93.29 15.73 93.34 14.82 93.17 13.93C93.51 13.81 93.84 13.66 94.15 13.47C94.98 12.96 95.58 12.13 95.91 11.22C96.25 10.24 96.59 9.27 96.94 8.29C97.12 7.74 97.21 7.12 96.97 6.57C96.77 6.09 96.34 5.75 95.87 5.56C95.21 5.29 94.5 5.21 93.79 5.22C92.62 5.22 91.44 5.22 90.27 5.22C89.97 5.22 89.67 5.33 89.47 5.56ZM83.98 5.22C83.5 5.24 83.1 5.6 82.99 6.06C81.44 10.5 79.89 14.94 78.35 19.38C78.26 19.61 78.23 19.91 78.42 20.1C78.67 20.33 79.04 20.29 79.35 20.3C79.78 20.3 80.26 20.36 80.63 20.09C80.9 19.91 81.01 19.59 81.11 19.29C82.61 14.99 84.11 10.68 85.62 6.38C85.71 6.13 85.83 5.87 85.75 5.6C85.66 5.34 85.37 5.24 85.12 5.23C84.74 5.23 84.36 5.23 83.98 5.23V5.22ZM73.77 5.63C73.55 5.87 73.42 6.17 73.25 6.44C70.72 10.75 68.18 15.05 65.65 19.36C65.54 19.55 65.46 19.8 65.58 20.01C65.75 20.27 66.09 20.29 66.37 20.29C66.74 20.28 67.12 20.33 67.48 20.22C67.8 20.12 68.05 19.89 68.21 19.6C68.71 18.71 69.21 17.81 69.71 16.92C70.95 16.92 72.18 16.92 73.42 16.92C73.31 17.77 73.19 18.61 73.07 19.46C73.03 19.7 73.09 19.98 73.3 20.13C73.58 20.33 73.94 20.28 74.27 20.29C74.65 20.29 75.07 20.34 75.4 20.12C75.65 19.97 75.77 19.68 75.79 19.41C76.25 15.06 76.7 10.71 77.16 6.37C77.18 6.13 77.24 5.89 77.14 5.66C77.03 5.36 76.69 5.23 76.39 5.23C75.84 5.23 75.29 5.23 74.75 5.23C74.39 5.23 74.03 5.38 73.78 5.64L73.77 5.63ZM61.92 5.91C60.35 10.4 58.79 14.89 57.22 19.38C57.14 19.61 57.11 19.9 57.3 20.09C57.53 20.3 57.87 20.29 58.17 20.29C58.55 20.28 58.95 20.34 59.32 20.19C59.6 20.08 59.81 19.84 59.9 19.56C60.57 17.65 61.24 15.75 61.91 13.84C62.87 13.84 63.83 13.84 64.78 13.84C65.16 13.84 65.57 13.88 65.9 13.67C66.23 13.48 66.33 13.1 66.45 12.77C66.54 12.52 66.66 12.23 66.52 11.97C66.38 11.73 66.08 11.67 65.82 11.67C64.77 11.67 63.72 11.67 62.67 11.67C63.15 10.29 63.63 8.9 64.11 7.51H68.43C68.76 7.51 69.12 7.43 69.35 7.17C69.6 6.9 69.65 6.52 69.79 6.19C69.88 5.95 69.94 5.62 69.74 5.42C69.52 5.21 69.2 5.22 68.92 5.23C66.92 5.23 64.91 5.23 62.91 5.23C62.48 5.23 62.06 5.51 61.92 5.92V5.91ZM57.49 0C73.89 0 90.3 0 106.7 0C103.99 8.6 101.28 17.21 98.57 25.81C88.1 25.81 77.64 25.81 67.17 25.81C65.04 32.59 62.9 39.36 60.76 46.14C40.51 46.14 20.25 46.14 0 46.14C2.71 37.54 5.42 28.93 8.13 20.33C22.45 20.33 36.76 20.33 51.08 20.33C53.22 13.55 55.35 6.77 57.49 0Z" fill="#EC003B"/>
</g>
<defs>
<clipPath id="clip0_538_2378">
<rect width="106.7" height="46.14" fill="white"/>
</clipPath>
</defs>
</svg>
