<svg width="83" height="110" viewBox="0 0 83 110" fill="none" xmlns="http://www.w3.org/2000/svg">
<g clip-path="url(#clip0_538_2475)">
<path fill-rule="evenodd" clip-rule="evenodd" d="M45.52 17.57C43.01 17.73 40.62 19.1 39.22 21.18C37.78 23.26 37.39 26.02 38.19 28.41C39.06 31.15 41.46 33.34 44.28 33.93C45.89 34.3 47.62 34.15 49.15 33.54C51.22 32.72 52.93 31.03 53.76 28.97C54.81 26.45 54.49 23.41 52.93 21.17C51.33 18.77 48.4 17.34 45.52 17.57ZM36.34 5.98001C44.67 4.13001 53.7 6.28001 60.48 11.4C66.39 15.79 70.61 22.39 72.1 29.59C72.46 31.27 72.67 32.98 72.73 34.7C72.96 38.99 72.41 43.35 70.93 47.4C69.68 50.86 67.83 54.11 65.46 56.93C65.49 54.92 65.3 52.9 64.71 50.98C64.23 49.39 63.47 47.89 62.43 46.6C61.33 45.21 59.95 44.07 58.46 43.14C55.46 41.24 52.15 39.89 48.76 38.89C46.24 38.12 43.66 37.6 41.1 36.99C39.58 36.64 38.07 36.23 36.57 35.83C35.25 35.41 33.92 35.02 32.67 34.41C30.1 33.22 27.77 31.43 26.11 29.11C23.28 25.22 22.73 19.88 24.47 15.43C25.4 13.02 26.95 10.84 29 9.26001C31.15 7.63001 33.7 6.54001 36.34 6.00001V5.98001Z" fill="#00BBE3"/>
<path fill-rule="evenodd" clip-rule="evenodd" d="M18.35 15.26C18.35 15.26 18.41 15.24 18.43 15.23C17.12 18.59 16.55 22.26 16.91 25.86C17.25 29.4 18.64 32.82 20.81 35.63C21.36 36.36 21.96 37.05 22.6 37.71C24.52 39.74 26.46 41.76 28.28 43.89C30.17 46.12 31.94 48.49 33.18 51.15C33.99 52.9 34.56 54.76 34.74 56.68C35.14 60.25 34.19 63.84 32.69 67.05C25.45 65.01 19.02 60.27 14.91 53.97C12.61 50.48 11.02 46.52 10.28 42.4C9.57996 38.52 9.59996 34.51 10.38 30.64C11.51 24.89 14.33 19.51 18.34 15.25" fill="#C0D62E"/>
<path fill-rule="evenodd" clip-rule="evenodd" d="M73.82 100.83C73.44 100.92 73.11 101.16 72.88 101.47C72.48 102.02 72.32 102.69 72.2 103.34C72.13 103.89 72.06 104.5 72.36 105C72.64 105.44 73.24 105.51 73.71 105.41C74.24 105.31 74.66 104.91 74.9 104.45C75.23 103.81 75.38 103.09 75.44 102.38C75.47 101.91 75.44 101.36 75.05 101.02C74.71 100.75 74.23 100.73 73.82 100.82M73.72 99.9901C74.47 99.8401 75.4 99.9101 75.92 100.55C76.41 101.18 76.38 102.03 76.3 102.77C76.16 103.73 75.88 104.74 75.21 105.47C74.57 106.18 73.51 106.43 72.59 106.22C72.12 106.13 71.69 105.82 71.48 105.39C71.18 104.8 71.2 104.12 71.27 103.48C71.38 102.65 71.6 101.82 72.06 101.12C72.43 100.54 73.03 100.11 73.71 99.9801L73.72 99.9901ZM57.59 100.79C57.21 100.84 56.85 101.02 56.59 101.3C56.16 101.78 55.97 102.41 55.83 103.03C55.73 103.55 55.65 104.08 55.76 104.6C55.83 104.92 56.04 105.23 56.36 105.35C56.98 105.58 57.74 105.39 58.16 104.88C58.64 104.32 58.82 103.58 58.94 102.88C59.01 102.33 59.08 101.72 58.79 101.23C58.54 100.83 58.02 100.73 57.58 100.79H57.59ZM57.13 100.03C57.89 99.8401 58.82 99.8601 59.41 100.45C59.97 101.05 59.96 101.93 59.89 102.7C59.76 103.66 59.5 104.65 58.86 105.4C58.17 106.23 56.95 106.49 55.95 106.17C55.37 105.99 54.97 105.43 54.87 104.85C54.71 103.9 54.89 102.91 55.2 102.01C55.51 101.12 56.17 100.28 57.13 100.04V100.03ZM35.21 100.86C34.57 101.05 34.18 101.66 33.97 102.25C34.64 102.45 35.39 102.6 36.05 102.33C36.51 102.15 36.8 101.52 36.5 101.09C36.2 100.71 35.64 100.74 35.22 100.86H35.21ZM33.95 100.7C34.52 100.12 35.37 99.8501 36.17 99.9401C36.6 99.9901 37.02 100.18 37.29 100.54C37.63 100.98 37.65 101.61 37.4 102.1C37.12 102.72 36.48 103.1 35.83 103.24C35.13 103.4 34.41 103.27 33.74 103.08C33.63 103.69 33.54 104.37 33.87 104.93C34.12 105.35 34.67 105.5 35.14 105.45C35.77 105.37 36.38 105.11 36.88 104.71C36.82 105.04 36.76 105.37 36.71 105.7C35.94 106.14 35.03 106.45 34.15 106.25C33.65 106.15 33.22 105.79 33.01 105.32C32.68 104.58 32.74 103.74 32.89 102.96C33.06 102.15 33.36 101.32 33.96 100.72L33.95 100.7ZM8.56997 100.87C7.94997 101.07 7.57998 101.67 7.35998 102.25C8.02998 102.45 8.78998 102.6 9.45998 102.32C9.92998 102.13 10.21 101.48 9.86998 101.06C9.54998 100.7 8.98997 100.74 8.56997 100.87ZM8.05998 100.19C8.69998 99.9001 9.45998 99.8201 10.12 100.1C10.6 100.31 10.95 100.8 10.95 101.33C10.99 102.11 10.43 102.8 9.72997 103.08C8.90997 103.45 7.96998 103.33 7.12998 103.08C7.02998 103.67 6.93997 104.34 7.23997 104.89C7.46997 105.33 7.99998 105.49 8.46998 105.46C9.11998 105.39 9.74998 105.13 10.27 104.71C10.21 105.04 10.15 105.36 10.1 105.69C9.28998 106.16 8.29998 106.48 7.36998 106.19C6.76998 106.01 6.36997 105.44 6.23997 104.85C6.04997 103.95 6.20998 103 6.49998 102.14C6.76998 101.34 7.27997 100.57 8.06997 100.2L8.05998 100.19ZM13.06 100.2C13.39 100.06 13.72 99.9201 14.05 99.7801C13.98 100.16 13.92 100.53 13.85 100.91C14.43 100.37 15.16 99.9801 15.94 99.8401C15.88 100.19 15.82 100.53 15.76 100.88C15.1 100.96 14.45 101.2 13.9 101.57C13.82 101.64 13.7 101.69 13.68 101.81C13.42 103.25 13.17 104.7 12.92 106.15H12.01C12.36 104.17 12.71 102.18 13.06 100.2ZM78.78 100.2C79.11 100.06 79.44 99.9201 79.77 99.7701C79.72 100.02 79.68 100.26 79.63 100.51C80.18 100.24 80.75 99.9901 81.36 99.9301C81.85 99.9001 82.43 100.02 82.7 100.48C82.97 100.96 82.91 101.54 82.84 102.06C82.66 103.02 82.44 103.97 82.24 104.93C82.22 105.12 82.15 105.36 82.29 105.53C82.46 105.68 82.68 105.58 82.87 105.54C82.84 105.73 82.8 105.92 82.78 106.1C82.44 106.24 82.06 106.37 81.69 106.27C81.48 106.22 81.32 106.03 81.28 105.81C81.22 105.48 81.28 105.15 81.35 104.83C81.55 103.94 81.75 103.05 81.92 102.15C81.96 101.81 82.02 101.43 81.85 101.12C81.7 100.84 81.34 100.79 81.05 100.83C80.49 100.91 79.95 101.12 79.47 101.43C79.2 103.01 78.92 104.58 78.64 106.16H77.73C78.08 104.18 78.43 102.2 78.78 100.21V100.2ZM22.34 100.2C22.67 100.06 23 99.9201 23.33 99.7701C23.03 101.46 22.73 103.15 22.43 104.84C22.4 105.06 22.35 105.31 22.49 105.51C22.64 105.67 22.86 105.56 23.04 105.52C23 105.71 22.97 105.9 22.94 106.08C22.57 106.25 22.11 106.4 21.73 106.19C21.45 106.04 21.36 105.7 21.42 105.41C21.73 103.67 22.04 101.93 22.34 100.19V100.2ZM67.82 98.3801C68.15 98.2401 68.48 98.1001 68.81 97.9501C68.68 98.6601 68.56 99.3701 68.43 100.07C69.1 100.07 69.78 100.07 70.45 100.07C70.4 100.33 70.36 100.6 70.31 100.87H68.29C68.1 101.95 67.91 103.03 67.72 104.11C67.68 104.42 67.62 104.75 67.73 105.05C67.84 105.32 68.16 105.39 68.42 105.38C68.81 105.35 69.19 105.25 69.56 105.11C69.51 105.4 69.46 105.69 69.41 105.97C68.86 106.14 68.28 106.34 67.7 106.24C67.36 106.18 67.04 105.97 66.89 105.65C66.67 105.2 66.7 104.67 66.79 104.19C66.99 103.08 67.18 101.97 67.38 100.86H66.41C66.46 100.59 66.5 100.32 66.55 100.06H67.52C67.62 99.4901 67.72 98.9301 67.82 98.3601V98.3801ZM62.97 98.4001C63.27 98.2101 63.63 98.1101 63.95 97.9501C63.82 98.6601 63.7 99.3701 63.57 100.07C64.24 100.07 64.92 100.07 65.59 100.07C65.54 100.34 65.5 100.61 65.45 100.87H63.43C63.24 101.96 63.04 103.05 62.85 104.15C62.82 104.46 62.75 104.8 62.89 105.1C63.03 105.36 63.37 105.4 63.63 105.38C63.99 105.34 64.35 105.24 64.7 105.12C64.65 105.41 64.6 105.7 64.55 105.98C64.03 106.15 63.47 106.33 62.92 106.26C62.56 106.21 62.21 106.02 62.05 105.69C61.81 105.23 61.85 104.69 61.93 104.2C62.13 103.09 62.32 101.98 62.52 100.87H61.55C61.59 100.6 61.64 100.33 61.69 100.07C62.01 100.07 62.34 100.07 62.66 100.07C62.76 99.5101 62.85 98.9501 62.97 98.3901V98.4001ZM17.95 98.4001C18.25 98.2101 18.61 98.1101 18.94 97.9501C18.82 98.6601 18.69 99.3701 18.56 100.07C19.23 100.07 19.9 100.07 20.58 100.07C20.54 100.34 20.49 100.61 20.44 100.87H18.42C18.23 101.97 18.03 103.06 17.85 104.16C17.82 104.47 17.75 104.8 17.89 105.09C18.03 105.36 18.37 105.41 18.64 105.38C19 105.34 19.36 105.24 19.71 105.12C19.66 105.41 19.61 105.69 19.56 105.98C18.89 106.19 18.11 106.47 17.44 106.1C16.87 105.76 16.82 105.01 16.9 104.42C17.09 103.23 17.32 102.05 17.52 100.86H16.55C16.6 100.59 16.64 100.32 16.69 100.06C17.01 100.06 17.34 100.06 17.66 100.06C17.77 99.5001 17.85 98.9401 17.97 98.3801L17.95 98.4001ZM22.91 97.0401C23.21 97.0401 23.52 97.0401 23.82 97.0401C23.75 97.4201 23.68 97.8101 23.61 98.2001H22.7C22.77 97.8101 22.84 97.4301 22.91 97.0401ZM51.03 97.2701C52.06 96.6901 53.42 96.7901 54.36 97.5101C54.3 97.8601 54.24 98.2101 54.18 98.5601C53.87 98.2701 53.53 97.9901 53.12 97.8701C52.51 97.6901 51.79 97.7601 51.28 98.1701C50.82 98.5401 50.55 99.0901 50.33 99.6301C50.05 100.39 49.87 101.19 49.73 101.99C49.61 102.72 49.5 103.47 49.6 104.21C49.66 104.57 49.78 104.94 50.08 105.17C50.41 105.43 50.86 105.46 51.26 105.42C51.94 105.36 52.56 105.03 53.11 104.65C53.04 105 52.98 105.35 52.91 105.7C52.02 106.23 50.9 106.52 49.89 106.15C49.35 105.96 48.97 105.47 48.83 104.93C48.57 103.99 48.7 103 48.83 102.05C48.99 101.02 49.22 99.9901 49.62 99.0401C49.93 98.3401 50.37 97.6701 51.04 97.2801L51.03 97.2701ZM2.04998 97.4701C3.08998 96.6801 4.64998 96.7101 5.67998 97.5101C5.61998 97.8601 5.55998 98.2101 5.49998 98.5601C5.15998 98.2501 4.78998 97.9401 4.32998 97.8401C3.64998 97.6701 2.86998 97.8301 2.38998 98.3701C1.76998 99.0601 1.50998 99.9801 1.29998 100.85C1.08998 101.74 0.909975 102.65 0.889975 103.57C0.889975 104.07 0.929975 104.63 1.26998 105.02C1.56998 105.36 2.05998 105.44 2.48998 105.41C3.20998 105.37 3.86998 105.04 4.43998 104.63C4.36998 104.98 4.30998 105.34 4.22998 105.69C3.42998 106.16 2.46998 106.44 1.53998 106.23C1.04998 106.14 0.579975 105.84 0.339975 105.39C-0.0100248 104.74 -0.0200248 103.97 0.00997521 103.25C0.0899752 102.1 0.289975 100.96 0.629975 99.8501C0.909975 98.9701 1.29998 98.0601 2.05998 97.4701H2.04998ZM30.67 97.2301C31.06 97.2001 31.41 96.9801 31.72 96.7601C31.66 97.0901 31.6 97.4201 31.55 97.7601C30.95 98.1301 30.2 98.1801 29.53 97.9801C28.95 97.8601 28.25 97.5901 27.73 98.0101C27.16 98.5401 27.2 99.3801 27.04 100.09C28.4 100.09 29.77 100.09 31.14 100.09C30.86 101.68 30.57 103.27 30.29 104.85C30.26 105.07 30.21 105.32 30.34 105.51C30.48 105.69 30.72 105.58 30.91 105.54C30.87 105.73 30.83 105.92 30.8 106.11C30.43 106.26 30 106.41 29.62 106.22C29.33 106.08 29.22 105.73 29.29 105.43C29.55 103.92 29.83 102.41 30.09 100.9C29.03 100.9 27.96 100.9 26.9 100.9C26.41 103.67 25.92 106.43 25.43 109.2C25.13 109.2 24.82 109.2 24.52 109.2C25.01 106.44 25.5 103.67 25.99 100.9H25.02C25.06 100.63 25.11 100.36 25.16 100.1H26.15C26.3 99.2801 26.36 98.3901 26.86 97.7001C27.23 97.1701 27.88 96.9001 28.51 96.9201C29.25 96.9201 29.93 97.3301 30.68 97.2601L30.67 97.2301ZM41.16 100.9C40.84 101.02 40.58 101.27 40.39 101.55C40.05 102.08 39.9 102.7 39.79 103.31C39.71 103.86 39.63 104.44 39.89 104.95C40.06 105.28 40.45 105.42 40.81 105.41C41.45 105.39 42.09 105.03 42.43 104.48C42.61 103.56 42.77 102.64 42.92 101.72C42.76 100.96 41.84 100.61 41.16 100.89V100.9ZM43.76 97.0401C44.09 96.9001 44.42 96.7601 44.75 96.6201C44.26 99.3601 43.78 102.1 43.29 104.85C43.26 105.07 43.21 105.31 43.34 105.51C43.49 105.68 43.72 105.58 43.9 105.54C43.87 105.73 43.84 105.92 43.81 106.11C43.44 106.26 43.01 106.41 42.63 106.23C42.4 106.13 42.31 105.89 42.26 105.66C41.7 106.17 40.9 106.43 40.16 106.26C39.64 106.18 39.18 105.81 39 105.31C38.72 104.58 38.81 103.78 38.94 103.03C39.12 102.12 39.44 101.16 40.15 100.52C40.66 100.07 41.37 99.8701 42.05 99.9501C42.48 100 42.86 100.25 43.15 100.58C43.35 99.4001 43.56 98.2301 43.77 97.0501L43.76 97.0401Z" fill="#33302F"/>
<path fill-rule="evenodd" clip-rule="evenodd" d="M18.43 15.23C17.12 18.59 16.55 22.26 16.91 25.86C17.26 29.4 18.64 32.82 20.81 35.63C21.36 36.36 21.96 37.05 22.6 37.71C24.52 39.74 26.47 41.76 28.28 43.89C30.17 46.12 31.94 48.49 33.18 51.15C33.99 52.9 34.56 54.76 34.75 56.68C35.15 60.25 34.2 63.84 32.7 67.05C25.46 65.01 19.03 60.27 14.92 53.97C12.62 50.48 11.03 46.51 10.29 42.4C9.59001 38.52 9.61001 34.51 10.39 30.64C11.52 24.89 14.35 19.51 18.35 15.25L18.43 15.23ZM32.67 34.4C30.1 33.21 27.77 31.42 26.11 29.1C23.28 25.21 22.73 19.87 24.47 15.41C25.4 13.01 26.95 10.82 29 9.24C31.16 7.61 33.7 6.52 36.34 5.98C44.67 4.13 53.7 6.28 60.48 11.4C66.39 15.79 70.61 22.38 72.1 29.59C72.46 31.27 72.67 32.98 72.73 34.7C72.96 38.99 72.41 43.35 70.93 47.39C69.68 50.85 67.83 54.1 65.46 56.92C65.49 54.91 65.3 52.89 64.71 50.97C64.23 49.39 63.47 47.89 62.43 46.59C61.33 45.21 59.95 44.06 58.45 43.13C55.45 41.23 52.14 39.88 48.75 38.88C46.23 38.1 43.65 37.59 41.09 36.98C39.57 36.63 38.06 36.22 36.56 35.82C35.24 35.4 33.91 35.01 32.66 34.4H32.67ZM67.08 72.36H73.47V73.71C71.84 73.71 70.22 73.71 68.59 73.71V76.08C70.07 76.08 71.56 76.08 73.05 76.08C73.05 76.51 73.05 76.94 73.05 77.38C71.56 77.38 70.08 77.38 68.59 77.38C68.59 78.27 68.59 79.16 68.59 80.05C70.21 80.05 71.83 80.05 73.45 80.05C73.45 80.51 73.45 80.96 73.45 81.42C71.33 81.41 69.21 81.42 67.09 81.42C67.09 78.4 67.09 75.39 67.09 72.37L67.08 72.36ZM58.22 72.36H61.44C62.06 72.37 62.7 72.4 63.28 72.62C64.11 72.93 64.81 73.55 65.24 74.31C65.88 75.5 65.99 76.92 65.73 78.23C65.52 79.3 64.93 80.36 63.94 80.89C63.18 81.32 62.29 81.38 61.43 81.4C60.36 81.4 59.29 81.4 58.21 81.4V72.35L58.22 72.36ZM52.5 72.36C53.11 72.36 53.72 72.36 54.32 72.36L57.41 81.41C56.87 81.41 56.32 81.41 55.78 81.41L55.25 79.6H51.63L51.09 81.41C50.54 81.41 50 81.41 49.46 81.41L52.51 72.36H52.5ZM42.03 72.36C43.24 72.37 44.45 72.34 45.66 72.38C46.36 72.38 47.1 72.52 47.66 72.98C48.68 73.75 48.95 75.26 48.43 76.4C48.13 77.06 47.5 77.5 46.82 77.7L48.85 81.42H47.1L45.26 77.99C44.69 77.99 44.12 77.99 43.55 77.99V81.42C43.04 81.42 42.54 81.42 42.03 81.42C42.03 78.4 42.03 75.39 42.03 72.37V72.36ZM34.38 72.36H40.97V73.74H38.41C38.41 76.3 38.41 78.86 38.41 81.42C37.9 81.42 37.39 81.42 36.88 81.42C36.88 78.86 36.88 76.3 36.88 73.74C36.04 73.74 35.21 73.74 34.38 73.74C34.38 73.28 34.38 72.83 34.38 72.36ZM27.21 72.36C28.33 72.36 29.45 72.36 30.57 72.36C31.29 72.37 32.06 72.43 32.67 72.86C33.81 73.6 34.15 75.23 33.58 76.42C33.27 77.06 32.65 77.5 31.98 77.69L34.02 81.41C33.43 81.41 32.85 81.41 32.27 81.41C31.65 80.27 31.05 79.11 30.43 77.97C29.87 77.97 29.3 77.97 28.74 77.97C28.74 79.11 28.74 80.26 28.74 81.4H27.22V72.35L27.21 72.36ZM23.82 72.36C24.32 72.36 24.82 72.36 25.32 72.36C25.32 75.38 25.32 78.4 25.32 81.41C24.82 81.41 24.32 81.41 23.82 81.41V72.36ZM17.82 72.36C18.43 72.36 19.04 72.36 19.65 72.37C20.67 75.39 21.71 78.4 22.73 81.41H21.09L20.55 79.6C19.34 79.6 18.14 79.6 16.93 79.6L16.4 81.41C15.85 81.41 15.31 81.41 14.76 81.41L17.81 72.36H17.82ZM9.35001 72.36H15.27C15.27 72.81 15.27 73.26 15.27 73.71H10.86V76.21C12.15 76.21 13.44 76.21 14.73 76.21V77.49C13.44 77.49 12.15 77.49 10.86 77.49V81.41C10.35 81.41 9.85001 81.41 9.34001 81.41C9.34001 78.39 9.34001 75.38 9.34001 72.36H9.35001ZM78.02 86.65V0H4.76001V86.65H78.01H78.02Z" fill="#1A1A18"/>
<path fill-rule="evenodd" clip-rule="evenodd" d="M20.16 78.3001C19.69 76.7401 19.24 75.1701 18.75 73.6201L17.34 78.3001H20.17" fill="#1A1A18"/>
<path fill-rule="evenodd" clip-rule="evenodd" d="M31.95 76.2099C32.31 75.8099 32.38 75.2199 32.24 74.7199C32.1 74.1999 31.62 73.7999 31.08 73.7199C30.3 73.6099 29.52 73.6699 28.74 73.6499C28.74 74.6799 28.74 75.7099 28.74 76.7499C29.41 76.7499 30.09 76.7499 30.76 76.7099C31.2 76.6799 31.65 76.5499 31.95 76.2099Z" fill="#1A1A18"/>
<path fill-rule="evenodd" clip-rule="evenodd" d="M46.88 76.0599C47.14 75.6499 47.17 75.1099 47.03 74.6499C46.87 74.1499 46.4 73.7999 45.89 73.7199C45.11 73.6099 44.33 73.6599 43.54 73.6499V76.7399C44.24 76.7399 44.94 76.7599 45.64 76.6999C46.11 76.6599 46.6 76.4699 46.87 76.0599" fill="#1A1A18"/>
<path fill-rule="evenodd" clip-rule="evenodd" d="M64.2 77.55C64.26 76.73 64.23 75.87 63.87 75.12C63.54 74.42 62.86 73.9 62.09 73.8C61.31 73.71 60.53 73.75 59.75 73.74C59.75 75.85 59.75 77.96 59.75 80.06C60.55 80.06 61.35 80.09 62.15 79.99C62.66 79.93 63.17 79.74 63.53 79.35C63.98 78.87 64.15 78.19 64.2 77.55Z" fill="#1A1A18"/>
<path fill-rule="evenodd" clip-rule="evenodd" d="M54.84 78.3001L53.44 73.6001L52.02 78.3001C52.96 78.3001 53.9 78.3001 54.84 78.3001Z" fill="#1A1A18"/>
<path fill-rule="evenodd" clip-rule="evenodd" d="M53.77 28.98C54.82 26.46 54.5 23.42 52.94 21.18C51.34 18.78 48.41 17.36 45.53 17.58C43.02 17.73 40.63 19.1 39.23 21.19C37.79 23.27 37.4 26.03 38.2 28.43C39.07 31.17 41.47 33.36 44.29 33.95C45.91 34.32 47.63 34.18 49.17 33.56C51.24 32.74 52.95 31.05 53.77 28.99" fill="#1A1A18"/>
<path fill-rule="evenodd" clip-rule="evenodd" d="M70.4 4.62998V6.07998C70.93 6.06998 71.47 6.12998 71.99 5.98998C72.42 5.86998 72.54 5.29998 72.32 4.95998C72.15 4.70998 71.84 4.64998 71.56 4.62998C71.17 4.61998 70.78 4.62998 70.4 4.62998ZM69.67 3.97998C70.34 3.97998 71.02 3.97998 71.69 3.97998C72.2 3.99998 72.78 4.17998 73 4.67998C73.2 5.13998 73.2 5.71998 72.93 6.14998C72.7 6.50998 72.26 6.62998 71.86 6.68998C72.32 7.36998 72.77 8.04998 73.22 8.73998C72.98 8.73998 72.74 8.73998 72.5 8.73998C72.06 8.07998 71.62 7.40998 71.18 6.73998H70.4C70.4 7.40998 70.4 8.06998 70.4 8.73998H69.68C69.68 7.14998 69.68 5.56998 69.68 3.97998H69.67ZM70.59 2.97998C69.38 3.22998 68.37 4.22998 68.06 5.40998C67.83 6.31998 67.94 7.33998 68.45 8.12998C68.85 8.75998 69.44 9.27998 70.15 9.53998C70.91 9.80998 71.78 9.80998 72.54 9.50998C73.21 9.24998 73.78 8.73998 74.17 8.13998C74.67 7.34998 74.79 6.35998 74.57 5.45998C74.37 4.59998 73.78 3.85998 73.04 3.38998C72.32 2.93998 71.42 2.81998 70.6 2.98998L70.59 2.97998ZM70.99 2.26998C71.83 2.20998 72.7 2.38998 73.42 2.83998C74.31 3.38998 75.01 4.26998 75.26 5.28998C75.52 6.32998 75.39 7.47998 74.83 8.39998C74.27 9.31998 73.36 10.03 72.31 10.29C71.23 10.54 70.04 10.39 69.1 9.76998C68.23 9.18998 67.55 8.29998 67.32 7.26998C67.08 6.18998 67.26 4.98998 67.9 4.06998C68.59 3.04998 69.74 2.32998 70.99 2.26998Z" fill="white"/>
</g>
<defs>
<clipPath id="clip0_538_2475">
<rect width="82.91" height="109.18" fill="white"/>
</clipPath>
</defs>
</svg>
