<svg width="96" height="44" viewBox="0 0 96 44" fill="none" xmlns="http://www.w3.org/2000/svg">
<g clip-path="url(#clip0_538_2389)">
<path d="M48.96 11.9601C44.17 4.73012 36.18 0.120117 26.93 0.120117C12.21 0.120117 0.119995 12.0401 0.119995 26.9301C0.119995 32.2801 1.92 37.2001 4.57 41.4001C2.81 37.7601 1.64 33.6501 1.64 29.3101C1.64 14.3901 13.28 2.55012 27.69 2.55012C35.92 2.55012 43.31 6.24012 48.09 12.4001L44.55 12.6901L52.29 19.2101L51.48 9.12012L48.94 11.9601H48.96Z" fill="#00A8B2"/>
<path d="M48.96 11.9601C44.17 4.73012 36.18 0.120117 26.93 0.120117C12.21 0.120117 0.119995 12.0401 0.119995 26.9301C0.119995 32.2801 1.92 37.2001 4.57 41.4001C2.81 37.7601 1.64 33.6501 1.64 29.3101C1.64 14.3901 13.28 2.55012 27.69 2.55012C35.92 2.55012 43.31 6.24012 48.09 12.4001L44.55 12.6901L52.29 19.2101L51.48 9.12012L48.94 11.9601H48.96Z" stroke="#00A8B2" stroke-width="0.25" stroke-miterlimit="3.86"/>
<path d="M45.31 18.3601C41.7 12.0501 35.14 7.94009 27.52 7.94009C16.05 7.94009 6.65004 17.4001 6.65004 29.2301C6.65004 32.4601 7.13004 35.7801 8.37004 38.5201C6.72004 35.4601 5.79004 31.9501 5.79004 28.2101C5.79004 16.3501 15.25 6.84009 26.88 6.84009C34.99 6.84009 41.95 10.8101 45.31 18.3501V18.3601Z" fill="#B5DEE9"/>
<path d="M45.31 18.3601C41.7 12.0501 35.14 7.94009 27.52 7.94009C16.05 7.94009 6.65004 17.4001 6.65004 29.2301C6.65004 32.4601 7.13004 35.7801 8.37004 38.5201C6.72004 35.4601 5.79004 31.9501 5.79004 28.2101C5.79004 16.3501 15.25 6.84009 26.88 6.84009C34.99 6.84009 41.95 10.8101 45.31 18.3501V18.3601Z" stroke="#B5DEE9" stroke-width="0.25" stroke-miterlimit="3.86"/>
<path fill-rule="evenodd" clip-rule="evenodd" d="M6.65004 28.8901C6.65004 28.8901 7.23004 29.1301 7.81004 29.1801C8.48004 29.2401 9.40004 29.1001 10.83 28.7401C11.69 28.5201 12.94 27.9301 12.94 27.9301C12.94 27.9301 10.3 28.5601 8.84004 28.5201C7.39004 28.4801 6.78004 28.1601 6.75004 27.9501C6.72004 27.7501 7.02004 26.6101 8.53004 25.3401C10.05 24.0801 10.87 23.3301 13.25 21.7601C15.63 20.1901 18.46 18.4101 19.65 17.7401C20.84 17.0701 24.32 15.2001 24.95 14.8801C25.58 14.5601 26 14.3401 26.51 14.1301C27.3 13.8101 31.05 12.3801 32.19 12.0901C33.28 11.8101 34.24 11.6901 35.62 11.4701C37 11.2501 38.35 11.4201 38.47 11.7501C38.58 12.0801 37.9 13.0801 37.32 13.7501C36.64 14.5501 34.85 16.3001 33.77 17.1801C32.64 18.0901 30.23 20.0401 29.64 20.4701C29.05 20.9001 33.53 18.5601 36.48 15.8401C37.83 14.5901 40.37 12.1701 39.24 11.0601C38 9.85011 34.45 10.9001 33.57 11.1401C32.7 11.3801 29.94 12.3501 28.42 12.9901C26.9 13.6201 24.75 14.5601 23.82 14.9201C22.88 15.2901 19.29 17.0101 18.37 17.4501C17.45 17.8901 15.04 19.3201 14.26 19.7901C13.48 20.2601 10.2 22.5301 9.04004 23.5301C7.88004 24.5301 6.93004 25.7201 6.93004 25.7201C6.93004 25.7201 6.22004 26.5001 6.15004 27.5701C6.07004 28.6301 6.67004 28.8901 6.67004 28.8901H6.65004Z" fill="#B5DEE9"/>
<path d="M6.65004 28.8901C6.65004 28.8901 7.23004 29.1301 7.81004 29.1801C8.48004 29.2401 9.40004 29.1001 10.83 28.7401C11.69 28.5201 12.94 27.9301 12.94 27.9301C12.94 27.9301 10.3 28.5601 8.84004 28.5201C7.39004 28.4801 6.78004 28.1601 6.75004 27.9501C6.72004 27.7501 7.02004 26.6101 8.53004 25.3401C10.05 24.0801 10.87 23.3301 13.25 21.7601C15.63 20.1901 18.46 18.4101 19.65 17.7401C20.84 17.0701 24.32 15.2001 24.95 14.8801C25.58 14.5601 26 14.3401 26.51 14.1301C27.3 13.8101 31.05 12.3801 32.19 12.0901C33.28 11.8101 34.24 11.6901 35.62 11.4701C37 11.2501 38.35 11.4201 38.47 11.7501C38.58 12.0801 37.9 13.0801 37.32 13.7501C36.64 14.5501 34.85 16.3001 33.77 17.1801C32.64 18.0901 30.23 20.0401 29.64 20.4701C29.05 20.9001 33.53 18.5601 36.48 15.8401C37.83 14.5901 40.37 12.1701 39.24 11.0601C38 9.85011 34.45 10.9001 33.57 11.1401C32.7 11.3801 29.94 12.3501 28.42 12.9901C26.9 13.6201 24.75 14.5601 23.82 14.9201C22.88 15.2901 19.29 17.0101 18.37 17.4501C17.45 17.8901 15.04 19.3201 14.26 19.7901C13.48 20.2601 10.2 22.5301 9.04004 23.5301C7.88004 24.5301 6.93004 25.7201 6.93004 25.7201C6.93004 25.7201 6.22004 26.5001 6.15004 27.5701C6.07004 28.6301 6.67004 28.8901 6.67004 28.8901H6.65004Z" stroke="#B5DEE9" stroke-width="0.25" stroke-miterlimit="3.86"/>
<path fill-rule="evenodd" clip-rule="evenodd" d="M11.6801 15C11.6801 15 11.8101 15.63 12.5901 15.95C13.3701 16.27 15.0601 16.23 16.1601 15.99C17.2601 15.75 17.8901 15.59 18.7801 15.35C19.6701 15.11 20.7501 14.68 21.7101 14.26C22.6701 13.84 23.9401 12.91 24.2401 12.68C24.5401 12.45 25.9201 11.15 26.1901 10.85C26.4601 10.55 27.0201 9.75995 27.1801 9.28995C27.3301 8.81995 27.0401 7.94995 27.0401 7.94995C27.0401 7.94995 27.3101 8.74995 26.8201 9.55995C26.3401 10.37 24.6501 11.6 24.2501 11.82C23.8601 12.05 21.0601 13.54 20.4601 13.87C19.8501 14.2 17.9401 15.13 17.2601 15.37C16.5801 15.61 15.8701 15.72 15.4801 15.76C15.0901 15.8 13.3701 16.04 12.8601 15.6C12.3501 15.16 12.2901 14.78 12.4201 14.53C12.5501 14.28 12.1001 14.2 12.0201 14.33C11.9301 14.46 11.6901 15.01 11.6901 15.01L11.6801 15Z" fill="#B5DEE9"/>
<path d="M11.6801 15C11.6801 15 11.8101 15.63 12.5901 15.95C13.3701 16.27 15.0601 16.23 16.1601 15.99C17.2601 15.75 17.8901 15.59 18.7801 15.35C19.6701 15.11 20.7501 14.68 21.7101 14.26C22.6701 13.84 23.9401 12.91 24.2401 12.68C24.5401 12.45 25.9201 11.15 26.1901 10.85C26.4601 10.55 27.0201 9.75995 27.1801 9.28995C27.3301 8.81995 27.0401 7.94995 27.0401 7.94995C27.0401 7.94995 27.3101 8.74995 26.8201 9.55995C26.3401 10.37 24.6501 11.6 24.2501 11.82C23.8601 12.05 21.0601 13.54 20.4601 13.87C19.8501 14.2 17.9401 15.13 17.2601 15.37C16.5801 15.61 15.8701 15.72 15.4801 15.76C15.0901 15.8 13.3701 16.04 12.8601 15.6C12.3501 15.16 12.2901 14.78 12.4201 14.53C12.5501 14.28 12.1001 14.2 12.0201 14.33C11.9301 14.46 11.6901 15.01 11.6901 15.01L11.6801 15Z" stroke="#B5DEE9" stroke-width="0.25" stroke-miterlimit="3.86"/>
<path fill-rule="evenodd" clip-rule="evenodd" d="M17.93 10.0799C17.93 10.0799 17.58 11.5099 17.41 12.8399C17.25 14.1699 17.17 14.8899 17.21 16.0399C17.25 17.1899 17.36 17.9499 17.44 18.3899C17.52 18.8299 18.01 20.3999 18.01 20.3999C18.01 20.3999 16.53 18.5899 16.27 16.7599C16.04 15.1999 16.11 14.3399 16.38 13.2599C16.7 11.9999 17.58 9.90991 17.58 9.90991L17.93 10.0899V10.0799Z" fill="#B5DEE9"/>
<path d="M17.93 10.0799C17.93 10.0799 17.58 11.5099 17.41 12.8399C17.25 14.1699 17.17 14.8899 17.21 16.0399C17.25 17.1899 17.36 17.9499 17.44 18.3899C17.52 18.8299 18.01 20.3999 18.01 20.3999C18.01 20.3999 16.53 18.5899 16.27 16.7599C16.04 15.1999 16.11 14.3399 16.38 13.2599C16.7 11.9999 17.58 9.90991 17.58 9.90991L17.93 10.0899V10.0799Z" stroke="#B5DEE9" stroke-width="0.25" stroke-miterlimit="3.86"/>
<path fill-rule="evenodd" clip-rule="evenodd" d="M18.21 9.88995C18.21 9.88995 21.14 11.1 22.26 11.66C23.37 12.22 24.08 12.77 24.59 13.19C25.1 13.61 25.59 13.99 25.99 14.48C26.39 14.97 26.8 15.53 26.8 15.53C26.8 15.53 26.64 14.37 25.91 13.42C25.19 12.47 24.23 11.59 23.29 11.04C22.35 10.5 21.36 10.21 20.67 10.07C19.99 9.92995 18.7 9.73995 18.36 9.72995C18.02 9.71995 17.75 9.69995 17.75 9.69995L18.21 9.88995Z" fill="#B5DEE9"/>
<path d="M18.21 9.88995C18.21 9.88995 21.14 11.1 22.26 11.66C23.37 12.22 24.08 12.77 24.59 13.19C25.1 13.61 25.59 13.99 25.99 14.48C26.39 14.97 26.8 15.53 26.8 15.53C26.8 15.53 26.64 14.37 25.91 13.42C25.19 12.47 24.23 11.59 23.29 11.04C22.35 10.5 21.36 10.21 20.67 10.07C19.99 9.92995 18.7 9.73995 18.36 9.72995C18.02 9.71995 17.75 9.69995 17.75 9.69995L18.21 9.88995Z" stroke="#B5DEE9" stroke-width="0.25" stroke-miterlimit="3.86"/>
<path fill-rule="evenodd" clip-rule="evenodd" d="M18.9199 9.40989C18.9199 9.40989 22.0899 9.41989 24.1199 9.75989C26.1399 10.0999 26.6399 10.3199 27.5299 10.6699C28.4299 11.0199 30.4799 12.0999 31.2199 12.6299C31.9699 13.1599 32.4999 13.6299 33.1199 14.1899C33.7399 14.7499 34.4699 15.5299 34.9199 15.9999C35.3599 16.4699 36.0699 17.4199 36.2599 17.6799C36.4499 17.9499 36.6799 18.2599 36.6799 18.2599C36.6799 18.2599 36.1899 17.2299 35.7899 16.4899C34.3499 13.7799 31.5699 11.7199 31.0399 11.3299C30.5099 10.9399 28.9399 9.98989 26.8199 9.37989C25.4599 8.98989 24.1399 8.88989 23.6299 8.84989C23.1199 8.80989 21.1499 8.74989 20.4199 8.84989C19.9399 8.91989 18.3199 8.95989 18.3199 8.95989L18.9299 9.39989L18.9199 9.40989Z" fill="#B5DEE9"/>
<path d="M18.9199 9.40989C18.9199 9.40989 22.0899 9.41989 24.1199 9.75989C26.1399 10.0999 26.6399 10.3199 27.5299 10.6699C28.4299 11.0199 30.4799 12.0999 31.2199 12.6299C31.9699 13.1599 32.4999 13.6299 33.1199 14.1899C33.7399 14.7499 34.4699 15.5299 34.9199 15.9999C35.3599 16.4699 36.0699 17.4199 36.2599 17.6799C36.4499 17.9499 36.6799 18.2599 36.6799 18.2599C36.6799 18.2599 36.1899 17.2299 35.7899 16.4899C34.3499 13.7799 31.5699 11.7199 31.0399 11.3299C30.5099 10.9399 28.9399 9.98989 26.8199 9.37989C25.4599 8.98989 24.1399 8.88989 23.6299 8.84989C23.1199 8.80989 21.1499 8.74989 20.4199 8.84989C19.9399 8.91989 18.3199 8.95989 18.3199 8.95989L18.9299 9.39989L18.9199 9.40989Z" stroke="#B5DEE9" stroke-width="0.25" stroke-miterlimit="3.86"/>
<path fill-rule="evenodd" clip-rule="evenodd" d="M13.9 13.0401C13.76 13.2901 12.52 15.1401 12 16.3701C11.48 17.6001 11.03 19.3201 10.91 20.2301C10.8 21.1401 10.71 22.5201 10.85 23.7501C10.99 24.9801 11.23 25.8601 11.49 26.8701C11.76 27.8801 12.06 28.6001 12.32 29.1501C12.59 29.6901 13.02 30.2601 13.02 30.2601C13.02 30.2601 12.67 29.5101 12.45 28.6001C12.24 27.6901 11.96 26.1801 11.88 25.4501C11.8 24.7201 11.65 22.9101 11.67 21.9301C11.68 20.9601 12.25 18.5701 12.47 17.8601C12.68 17.1501 13.38 15.4701 14.08 14.3601C14.78 13.2501 16.01 11.4601 16.46 10.8401C16.9 10.2201 14.41 12.1901 14.32 12.3201C14.21 12.5001 14.04 12.7901 13.9 13.0401Z" fill="#B5DEE9"/>
<path d="M13.9 13.0401C13.76 13.2901 12.52 15.1401 12 16.3701C11.48 17.6001 11.03 19.3201 10.91 20.2301C10.8 21.1401 10.71 22.5201 10.85 23.7501C10.99 24.9801 11.23 25.8601 11.49 26.8701C11.76 27.8801 12.06 28.6001 12.32 29.1501C12.59 29.6901 13.02 30.2601 13.02 30.2601C13.02 30.2601 12.67 29.5101 12.45 28.6001C12.24 27.6901 11.96 26.1801 11.88 25.4501C11.8 24.7201 11.65 22.9101 11.67 21.9301C11.68 20.9601 12.25 18.5701 12.47 17.8601C12.68 17.1501 13.38 15.4701 14.08 14.3601C14.78 13.2501 16.01 11.4601 16.46 10.8401C16.9 10.2201 14.41 12.1901 14.32 12.3201C14.21 12.5001 14.04 12.7901 13.9 13.0401Z" stroke="#B5DEE9" stroke-width="0.25" stroke-miterlimit="3.86"/>
<path fill-rule="evenodd" clip-rule="evenodd" d="M18.85 38.3599C18.85 38.3599 24.1 43.3699 32.6 43.6199C37.7 43.7699 40.9401 42.2699 42.7201 41.0399C41.4901 41.2499 39.5 41.4399 36.34 41.4999C28.4 41.6499 20.46 36.9499 20.46 36.9499L23.14 35.7599L13.8 31.9399L17.62 41.3199L18.84 38.3599H18.85Z" fill="#00A8B2"/>
<path d="M18.85 38.3599C18.85 38.3599 24.1 43.3699 32.6 43.6199C37.7 43.7699 40.9401 42.2699 42.7201 41.0399C41.4901 41.2499 39.5 41.4399 36.34 41.4999C28.4 41.6499 20.46 36.9499 20.46 36.9499L23.14 35.7599L13.8 31.9399L17.62 41.3199L18.84 38.3599H18.85Z" stroke="#00A8B2" stroke-width="0.25" stroke-miterlimit="3.86"/>
<path fill-rule="evenodd" clip-rule="evenodd" d="M23.62 24.4199H20.88V25.6899H22.09V27.7399C22.02 27.7699 21.91 27.7999 21.77 27.8199C21.63 27.8399 21.46 27.8499 21.26 27.8599C20.55 27.8599 19.98 27.6199 19.53 27.1299C19.08 26.6399 18.85 25.9099 18.84 24.9499C18.86 23.9399 19.11 23.1999 19.59 22.7199C20.08 22.2399 20.7 22.0099 21.46 22.0099C21.83 22.0099 22.14 22.0399 22.39 22.0999C22.65 22.1599 22.87 22.2299 23.05 22.3199L23.39 20.9899C23.19 20.8899 22.91 20.8099 22.58 20.7399C22.24 20.6799 21.86 20.6399 21.43 20.6399C20.62 20.6399 19.89 20.8099 19.25 21.1399C18.61 21.4699 18.1 21.9599 17.72 22.5999C17.34 23.2399 17.15 24.0399 17.14 24.9799C17.14 25.6499 17.24 26.2599 17.44 26.7999C17.64 27.3499 17.91 27.7999 18.27 28.1599C18.62 28.5099 19.04 28.7599 19.53 28.9299C20.02 29.0999 20.58 29.1799 21.22 29.1799C21.7 29.1799 22.16 29.1299 22.58 29.0399C23.01 28.9499 23.35 28.8599 23.6 28.7599V24.4199H23.62Z" fill="#1A1A18"/>
<path d="M26.59 20.3401H24.98V29.0901H26.59V20.3401Z" fill="#1A1A18"/>
<path fill-rule="evenodd" clip-rule="evenodd" d="M31.71 26.0399C31.71 26.5899 31.61 27.0599 31.41 27.4299C31.21 27.8099 30.92 27.9999 30.54 28.0199C30.15 28.0099 29.85 27.8099 29.65 27.4399C29.45 27.0699 29.35 26.5999 29.35 26.0499C29.35 25.7299 29.39 25.4299 29.46 25.1299C29.54 24.8299 29.67 24.5799 29.84 24.3899C30.02 24.1899 30.25 24.0899 30.55 24.0799C30.82 24.0799 31.05 24.1899 31.22 24.3799C31.39 24.5699 31.52 24.8199 31.6 25.1099C31.68 25.4099 31.72 25.7199 31.72 26.0399M30.58 22.8999C29.74 22.8999 29.06 23.1799 28.53 23.7299C28 24.2799 27.73 25.0599 27.71 26.0899C27.73 27.0799 27.99 27.8499 28.5 28.3899C29.01 28.9299 29.68 29.2099 30.52 29.2099C30.98 29.2099 31.42 29.1099 31.85 28.8899C32.28 28.6799 32.63 28.3299 32.91 27.8599C33.19 27.3899 33.33 26.7699 33.34 26.0099C33.34 25.0799 33.08 24.3299 32.6 23.7599C32.11 23.1999 31.44 22.9099 30.58 22.8899V22.8999Z" fill="#1A1A18"/>
<path fill-rule="evenodd" clip-rule="evenodd" d="M36.12 25.4901C36.13 25.0901 36.24 24.7801 36.46 24.5401C36.67 24.3101 36.92 24.1901 37.21 24.1801C37.62 24.1901 37.93 24.3701 38.14 24.7101C38.34 25.0501 38.45 25.4901 38.44 26.0201C38.44 26.6101 38.33 27.0801 38.12 27.4101C37.91 27.7501 37.61 27.9201 37.21 27.9201C36.88 27.9201 36.62 27.7901 36.42 27.5501C36.22 27.3101 36.12 27.0201 36.12 26.6701V25.4801V25.4901ZM36.12 23.7601V20.3401H34.51V27.3501C34.51 27.6701 34.51 27.9801 34.5 28.2901C34.5 28.6001 34.48 28.8701 34.47 29.0901H35.84L35.92 28.2501H35.95C36.14 28.5901 36.38 28.8301 36.66 28.9901C36.94 29.1401 37.25 29.2101 37.59 29.2101C38.01 29.2101 38.41 29.0901 38.79 28.8501C39.17 28.6101 39.47 28.2501 39.71 27.7701C39.95 27.2901 40.07 26.6801 40.07 25.9501C40.07 25.0301 39.86 24.3001 39.46 23.7501C39.06 23.2001 38.52 22.9201 37.84 22.9001C37.45 22.9001 37.12 22.9801 36.84 23.1301C36.56 23.2801 36.33 23.4901 36.16 23.7601H36.14H36.12Z" fill="#1A1A18"/>
<path fill-rule="evenodd" clip-rule="evenodd" d="M44.1501 27.0099C44.1501 27.2699 44.0901 27.4699 43.9701 27.6199C43.8601 27.7699 43.72 27.8799 43.57 27.9499C43.41 28.0199 43.27 28.0499 43.14 28.0499C42.93 28.0499 42.7501 27.9899 42.6101 27.8499C42.4601 27.7199 42.3901 27.5099 42.3801 27.2199C42.3801 26.9299 42.4701 26.6999 42.6501 26.5499C42.8201 26.3899 43.0401 26.2799 43.3101 26.2199C43.5801 26.1599 43.86 26.1299 44.16 26.1299V26.9999L44.1501 27.0099ZM45.7201 25.4299C45.7201 24.9799 45.6601 24.5699 45.5201 24.1899C45.3801 23.8099 45.1401 23.4999 44.7901 23.2699C44.4401 23.0399 43.9601 22.9199 43.3301 22.9099C42.8501 22.9099 42.4401 22.9699 42.0801 23.0799C41.7201 23.1799 41.44 23.2999 41.23 23.4299L41.53 24.4699C41.73 24.3499 41.96 24.2499 42.21 24.1699C42.47 24.0899 42.7401 24.0499 43.0201 24.0499C43.4501 24.0499 43.7401 24.1599 43.9001 24.3499C44.0501 24.5499 44.1201 24.7999 44.1101 25.0999C43.1301 25.0999 42.34 25.2799 41.73 25.6599C41.13 26.0299 40.82 26.6099 40.8 27.3899C40.8 27.8899 40.9701 28.3199 41.2901 28.6699C41.6101 29.0199 42.05 29.1999 42.62 29.2099C42.96 29.2099 43.27 29.1399 43.55 29.0099C43.83 28.8799 44.06 28.6999 44.23 28.4599H44.26L44.3601 29.0899H45.8101C45.7801 28.8999 45.7601 28.6799 45.7401 28.4299C45.7301 28.1799 45.7201 27.9199 45.7201 27.6499V25.4299Z" fill="#1A1A18"/>
<path d="M48.75 20.3401H47.14V29.0901H48.75V20.3401Z" fill="#1A1A18"/>
<path fill-rule="evenodd" clip-rule="evenodd" d="M54.22 24.4999V21.9499C54.29 21.9299 54.38 21.9099 54.5 21.8999C54.62 21.8899 54.78 21.8799 54.96 21.8799C55.16 21.8799 55.37 21.9099 55.58 21.9699C55.79 22.0399 55.97 22.1599 56.12 22.3499C56.27 22.5399 56.34 22.8099 56.35 23.1599C56.35 23.5599 56.22 23.8799 55.96 24.1199C55.7 24.3599 55.34 24.4799 54.88 24.4899H54.22V24.4999ZM56.53 25.1099C56.93 24.9499 57.27 24.6999 57.54 24.3399C57.81 23.9799 57.95 23.5499 57.96 23.0299C57.96 22.4699 57.84 22.0399 57.61 21.7099C57.39 21.3899 57.1 21.1499 56.76 20.9999C56.42 20.8499 56.07 20.7499 55.71 20.7099C55.35 20.6699 55.04 20.6499 54.77 20.6499C54.36 20.6499 53.97 20.6699 53.6 20.6999C53.23 20.7299 52.9 20.7699 52.62 20.8199V29.0799H54.22V25.6799H54.76C55.13 25.6799 55.42 25.7699 55.62 25.9799C55.82 26.1899 55.97 26.5599 56.07 27.0899C56.17 27.5999 56.27 28.0299 56.36 28.3699C56.45 28.7099 56.53 28.9499 56.59 29.0699H58.24C58.16 28.8999 58.06 28.5999 57.96 28.1699C57.85 27.7399 57.74 27.2699 57.62 26.7599C57.52 26.3299 57.39 25.9799 57.21 25.7099C57.03 25.4299 56.8 25.2399 56.51 25.1199V25.0899L56.53 25.1099Z" fill="#1A1A18"/>
<path fill-rule="evenodd" clip-rule="evenodd" d="M60.43 25.4199C60.44 25.2099 60.49 24.9999 60.57 24.7899C60.65 24.5799 60.78 24.3899 60.94 24.2499C61.1 24.0999 61.31 24.0299 61.57 24.0199C61.83 24.0199 62.04 24.0999 62.19 24.2399C62.34 24.3799 62.45 24.5599 62.51 24.7799C62.57 24.9899 62.6 25.2099 62.6 25.4299H60.42L60.43 25.4199ZM63.56 27.7399C63.36 27.8099 63.13 27.8699 62.89 27.9199C62.65 27.9699 62.38 27.9899 62.08 27.9899C61.63 27.9899 61.25 27.8799 60.94 27.6499C60.63 27.4199 60.46 27.0499 60.42 26.5399H64.04C64.06 26.4499 64.07 26.3499 64.07 26.2399C64.07 26.1299 64.07 26.0199 64.07 25.8899C64.07 24.9099 63.84 24.1599 63.41 23.6499C62.98 23.1399 62.39 22.8899 61.65 22.8799C61.06 22.8799 60.55 23.0399 60.14 23.3299C59.73 23.6199 59.41 24.0199 59.2 24.4999C58.98 24.9899 58.88 25.5299 58.88 26.1099C58.88 27.0599 59.14 27.8099 59.65 28.3399C60.16 28.8799 60.88 29.1499 61.82 29.1599C62.2 29.1599 62.56 29.1299 62.89 29.0699C63.23 29.0099 63.52 28.9199 63.77 28.8099L63.54 27.6999L63.56 27.7399Z" fill="#1A1A18"/>
<path fill-rule="evenodd" clip-rule="evenodd" d="M69.1 27.7299C68.97 27.7899 68.82 27.8399 68.66 27.8699C68.5 27.8999 68.32 27.9199 68.12 27.9199C67.65 27.9199 67.26 27.7499 66.97 27.4299C66.67 27.1099 66.52 26.6499 66.51 26.0499C66.51 25.4999 66.65 25.0599 66.93 24.7099C67.21 24.3599 67.6 24.1799 68.11 24.1699C68.33 24.1699 68.52 24.1899 68.67 24.2299C68.82 24.2699 68.95 24.3099 69.05 24.3599L69.31 23.1299C69.18 23.0699 69 23.0199 68.78 22.9699C68.56 22.9199 68.32 22.8999 68.05 22.8999C67.38 22.8999 66.81 23.0499 66.34 23.3299C65.87 23.6099 65.51 23.9899 65.26 24.4699C65.01 24.9499 64.88 25.4999 64.88 26.1099C64.89 27.0799 65.16 27.8399 65.68 28.3699C66.2 28.9099 66.91 29.1799 67.81 29.1899C68.14 29.1899 68.43 29.1599 68.68 29.1099C68.94 29.0599 69.14 28.9999 69.28 28.9299L69.11 27.7199L69.1 27.7299Z" fill="#1A1A18"/>
<path fill-rule="evenodd" clip-rule="evenodd" d="M73.64 23.03L72.88 26.2C72.84 26.39 72.79 26.59 72.75 26.79C72.71 26.99 72.67 27.17 72.63 27.34H72.6C72.56 27.17 72.52 26.98 72.47 26.79C72.42 26.59 72.37 26.4 72.32 26.21L71.43 23.04H69.67L71.7 28.61C71.74 28.73 71.77 28.82 71.77 28.88C71.77 28.96 71.7 29.11 71.57 29.34C71.44 29.57 71.23 29.79 70.97 30C70.83 30.1 70.68 30.19 70.54 30.27C70.39 30.35 70.26 30.41 70.12 30.45L70.52 31.81C70.71 31.78 70.94 31.7 71.22 31.57C71.5 31.44 71.79 31.24 72.09 30.96C72.43 30.63 72.74 30.17 73.03 29.58C73.32 28.99 73.63 28.22 73.96 27.25L75.33 23.04H73.65L73.64 23.03Z" fill="#1A1A18"/>
<path fill-rule="evenodd" clip-rule="evenodd" d="M79.99 27.7299C79.86 27.7899 79.71 27.8399 79.55 27.8699C79.39 27.8999 79.21 27.9199 79.01 27.9199C78.54 27.9199 78.15 27.7499 77.86 27.4299C77.56 27.1099 77.41 26.6499 77.4 26.0499C77.4 25.4999 77.54 25.0599 77.82 24.7099C78.1 24.3599 78.49 24.1799 79 24.1699C79.22 24.1699 79.41 24.1899 79.56 24.2299C79.71 24.2699 79.84 24.3099 79.94 24.3599L80.2 23.1299C80.07 23.0699 79.89 23.0199 79.67 22.9699C79.45 22.9199 79.21 22.8999 78.94 22.8999C78.27 22.8999 77.7 23.0499 77.23 23.3299C76.76 23.6099 76.4 23.9899 76.15 24.4699C75.9 24.9499 75.77 25.4999 75.77 26.1099C75.78 27.0799 76.05 27.8399 76.57 28.3699C77.09 28.9099 77.8 29.1799 78.7 29.1899C79.03 29.1899 79.32 29.1599 79.57 29.1099C79.83 29.0599 80.03 28.9999 80.17 28.9299L80 27.7199L79.99 27.7299Z" fill="#1A1A18"/>
<path d="M82.7901 20.3401H81.1801V29.0901H82.7901V20.3401Z" fill="#1A1A18"/>
<path fill-rule="evenodd" clip-rule="evenodd" d="M85.46 25.4199C85.47 25.2099 85.52 24.9999 85.6 24.7899C85.68 24.5799 85.81 24.3899 85.97 24.2499C86.13 24.0999 86.34 24.0299 86.6 24.0199C86.86 24.0199 87.07 24.0999 87.22 24.2399C87.37 24.3799 87.48 24.5599 87.54 24.7799C87.6 24.9899 87.63 25.2099 87.63 25.4299H85.45L85.46 25.4199ZM88.59 27.7399C88.39 27.8099 88.16 27.8699 87.92 27.9199C87.68 27.9699 87.41 27.9899 87.11 27.9899C86.66 27.9899 86.28 27.8799 85.97 27.6499C85.66 27.4199 85.49 27.0499 85.45 26.5399H89.07C89.09 26.4499 89.1 26.3499 89.1 26.2399C89.1 26.1299 89.1 26.0199 89.1 25.8899C89.1 24.9099 88.87 24.1599 88.44 23.6499C88.01 23.1399 87.42 22.8899 86.68 22.8799C86.09 22.8799 85.58 23.0399 85.17 23.3299C84.76 23.6199 84.44 24.0199 84.23 24.4999C84.01 24.9899 83.91 25.5299 83.9 26.1099C83.9 27.0599 84.16 27.8099 84.67 28.3399C85.18 28.8799 85.9 29.1499 86.84 29.1599C87.22 29.1599 87.58 29.1299 87.91 29.0699C88.25 29.0099 88.54 28.9199 88.8 28.8099L88.57 27.6999L88.59 27.7399Z" fill="#1A1A18"/>
<path fill-rule="evenodd" clip-rule="evenodd" d="M93.84 26.6101C93.82 27.0801 93.7 27.4201 93.48 27.6201C93.25 27.8201 93.01 27.9201 92.76 27.9101C92.38 27.9101 92.08 27.7401 91.86 27.4101C91.65 27.0801 91.54 26.6401 91.54 26.0801C91.54 25.5401 91.64 25.0901 91.85 24.7301C92.06 24.3701 92.37 24.1901 92.78 24.1701C93.06 24.1701 93.3 24.2801 93.51 24.5001C93.72 24.7201 93.83 25.0501 93.84 25.4901V26.6001V26.6101ZM95.45 20.3401H93.84V23.6101H93.82C93.7 23.4001 93.51 23.2301 93.27 23.1001C93.02 22.9701 92.72 22.9101 92.36 22.9001C91.92 22.9001 91.51 23.0201 91.14 23.2701C90.77 23.5201 90.48 23.8801 90.25 24.3501C90.02 24.8201 89.91 25.4101 89.91 26.1001C89.92 27.0301 90.14 27.7801 90.57 28.3401C91 28.9001 91.56 29.1901 92.26 29.2001C92.64 29.2001 92.97 29.1101 93.27 28.9401C93.57 28.7701 93.8 28.5301 93.97 28.2301H94L94.08 29.0901H95.49C95.48 28.8601 95.47 28.5901 95.46 28.2901C95.46 27.9801 95.45 27.6701 95.45 27.3601V20.3401Z" fill="#1A1A18"/>
<path fill-rule="evenodd" clip-rule="evenodd" d="M44.2201 30.5499C44.0201 30.4499 43.7701 30.3599 43.4701 30.2899C43.1701 30.2199 42.8201 30.1799 42.4201 30.1699C41.5101 30.1899 40.8001 30.4199 40.3001 30.8699C39.8001 31.3199 39.5401 31.8999 39.5401 32.5999C39.5401 33.1399 39.7301 33.6099 40.0901 34.0099C40.4501 34.4099 40.9501 34.7399 41.5901 35.0099C42.0501 35.2099 42.3901 35.4099 42.6001 35.6199C42.8101 35.8299 42.9201 36.0799 42.9201 36.3699C42.9201 36.6899 42.8001 36.9399 42.5701 37.1299C42.3401 37.3199 42.0001 37.4099 41.5501 37.4199C41.2101 37.4199 40.8801 37.3699 40.5601 37.2799C40.2401 37.1899 39.9701 37.0799 39.7501 36.9499L39.4301 38.2999C39.6401 38.4199 39.9201 38.5299 40.2901 38.6199C40.6601 38.7099 41.0601 38.7599 41.4801 38.7599C42.4601 38.7499 43.2101 38.5099 43.7301 38.0499C44.2501 37.5899 44.5201 36.9799 44.5201 36.2399C44.5201 35.6899 44.3701 35.2199 44.0501 34.8199C43.7401 34.4199 43.2501 34.0699 42.5801 33.7699C42.0701 33.5499 41.7001 33.3399 41.4801 33.1499C41.2501 32.9599 41.1401 32.7199 41.1501 32.4299C41.1501 32.1899 41.2501 31.9699 41.4501 31.7899C41.6501 31.6099 41.9601 31.5099 42.3801 31.4999C42.7201 31.4999 43.0201 31.5499 43.2701 31.6199C43.5201 31.6999 43.7201 31.7799 43.8701 31.8599L44.2101 30.5399L44.2201 30.5499Z" fill="#1A1A18"/>
<path fill-rule="evenodd" clip-rule="evenodd" d="M45.92 32.6H45.13V33.78H45.92V36.58C45.91 36.82 45.93 37.11 45.99 37.45C46.05 37.79 46.2 38.09 46.46 38.35C46.71 38.61 47.12 38.75 47.69 38.77C47.93 38.77 48.14 38.76 48.32 38.73C48.51 38.71 48.65 38.67 48.77 38.63L48.75 37.4C48.67 37.42 48.59 37.43 48.51 37.44C48.43 37.44 48.34 37.45 48.22 37.45C47.98 37.45 47.8 37.37 47.68 37.21C47.56 37.05 47.5 36.78 47.5 36.42V33.79H48.84V32.61H47.5V31.03L45.91 31.5V32.61L45.92 32.6Z" fill="#1A1A18"/>
<path fill-rule="evenodd" clip-rule="evenodd" d="M52.82 36.58C52.82 36.84 52.76 37.04 52.64 37.19C52.53 37.34 52.39 37.45 52.24 37.52C52.08 37.59 51.94 37.62 51.81 37.62C51.6 37.62 51.42 37.56 51.28 37.42C51.13 37.29 51.06 37.08 51.05 36.79C51.05 36.5 51.14 36.27 51.32 36.12C51.49 35.96 51.71 35.85 51.98 35.79C52.25 35.73 52.53 35.7 52.83 35.7V36.57L52.82 36.58ZM54.38 35C54.38 34.55 54.32 34.14 54.18 33.76C54.04 33.38 53.8 33.07 53.45 32.84C53.1 32.61 52.61 32.49 51.99 32.48C51.51 32.48 51.09 32.54 50.74 32.65C50.39 32.76 50.1 32.87 49.89 33L50.19 34.04C50.39 33.92 50.62 33.82 50.87 33.74C51.13 33.66 51.4 33.62 51.68 33.62C52.11 33.62 52.4 33.73 52.56 33.92C52.71 34.12 52.78 34.37 52.77 34.67C51.79 34.67 51 34.85 50.39 35.23C49.79 35.6 49.48 36.18 49.46 36.96C49.46 37.46 49.63 37.89 49.95 38.24C50.27 38.59 50.71 38.77 51.28 38.78C51.62 38.78 51.93 38.71 52.21 38.58C52.49 38.45 52.72 38.27 52.89 38.03H52.92L53.02 38.66H54.47C54.44 38.47 54.42 38.25 54.4 38C54.39 37.75 54.38 37.49 54.38 37.22V35Z" fill="#1A1A18"/>
<path fill-rule="evenodd" clip-rule="evenodd" d="M60.98 34.94C60.97 34.1 60.78 33.48 60.41 33.07C60.04 32.67 59.58 32.47 59.01 32.47C58.57 32.48 58.2 32.58 57.9 32.78C57.61 32.97 57.39 33.19 57.25 33.42H57.22L57.14 32.59H55.75C55.76 32.86 55.77 33.14 55.78 33.43C55.78 33.73 55.79 34.05 55.79 34.41V38.65H57.4V35.04C57.42 34.59 57.53 34.26 57.75 34.07C57.97 33.88 58.2 33.78 58.43 33.79C58.77 33.79 59.01 33.93 59.15 34.18C59.29 34.43 59.36 34.74 59.36 35.12V38.66H60.97V34.94H60.98Z" fill="#1A1A18"/>
<path fill-rule="evenodd" clip-rule="evenodd" d="M66.01 36.1799C65.99 36.6499 65.87 36.9899 65.65 37.1899C65.42 37.3899 65.18 37.4899 64.93 37.4799C64.55 37.4799 64.25 37.3099 64.03 36.9799C63.82 36.6499 63.71 36.2099 63.71 35.6499C63.71 35.1099 63.81 34.6599 64.02 34.2999C64.23 33.9399 64.54 33.7599 64.95 33.7399C65.23 33.7399 65.47 33.8499 65.68 34.0699C65.89 34.2899 66 34.6199 66.01 35.0599V36.1699V36.1799ZM67.62 29.9099H66.01V33.1799H65.99C65.87 32.9699 65.68 32.7999 65.44 32.6699C65.19 32.5399 64.89 32.4799 64.53 32.4699C64.09 32.4699 63.68 32.5899 63.32 32.8399C62.95 33.0899 62.66 33.4499 62.43 33.9199C62.21 34.3999 62.09 34.9799 62.09 35.6699C62.1 36.5999 62.32 37.3499 62.75 37.9099C63.18 38.4699 63.74 38.7599 64.44 38.7699C64.82 38.7699 65.15 38.6799 65.45 38.4999C65.75 38.3299 65.98 38.0899 66.15 37.7899H66.18L66.26 38.6499H67.67C67.66 38.4199 67.65 38.1499 67.64 37.8499C67.64 37.5399 67.63 37.2299 67.63 36.9199V29.8999L67.62 29.9099Z" fill="#1A1A18"/>
<path fill-rule="evenodd" clip-rule="evenodd" d="M72.06 36.58C72.06 36.84 72 37.04 71.88 37.19C71.77 37.34 71.63 37.45 71.48 37.52C71.32 37.59 71.18 37.62 71.05 37.62C70.84 37.62 70.66 37.56 70.52 37.42C70.37 37.29 70.3 37.08 70.29 36.79C70.29 36.5 70.38 36.27 70.56 36.12C70.73 35.96 70.95 35.85 71.22 35.79C71.49 35.73 71.77 35.7 72.07 35.7V36.57L72.06 36.58ZM73.62 35C73.62 34.55 73.56 34.14 73.42 33.76C73.28 33.38 73.04 33.07 72.69 32.84C72.34 32.61 71.85 32.49 71.23 32.48C70.75 32.48 70.34 32.54 69.98 32.65C69.62 32.75 69.34 32.87 69.13 33L69.43 34.04C69.63 33.92 69.86 33.82 70.11 33.74C70.37 33.66 70.64 33.62 70.92 33.62C71.35 33.62 71.64 33.73 71.8 33.92C71.95 34.12 72.02 34.37 72.01 34.67C71.03 34.67 70.24 34.85 69.63 35.23C69.03 35.6 68.72 36.18 68.7 36.96C68.7 37.46 68.87 37.89 69.19 38.24C69.51 38.59 69.95 38.77 70.52 38.78C70.86 38.78 71.17 38.71 71.45 38.58C71.73 38.45 71.96 38.27 72.13 38.03H72.16L72.26 38.66H73.71C73.68 38.47 73.65 38.25 73.64 38C73.63 37.75 73.62 37.49 73.62 37.22V35Z" fill="#1A1A18"/>
<path fill-rule="evenodd" clip-rule="evenodd" d="M78.35 32.5C78.3 32.49 78.24 32.48 78.19 32.48C78.13 32.48 78.07 32.48 77.99 32.48C77.7 32.48 77.41 32.58 77.13 32.78C76.85 32.98 76.64 33.27 76.49 33.67H76.45L76.38 32.62H75C75.01 32.89 75.02 33.18 75.03 33.49C75.03 33.8 75.04 34.14 75.04 34.51V38.68H76.65V35.55C76.65 35.03 76.78 34.65 77.02 34.4C77.26 34.15 77.56 34.02 77.94 34.03C78.02 34.03 78.1 34.03 78.16 34.03C78.23 34.03 78.29 34.04 78.35 34.05V32.52V32.5Z" fill="#1A1A18"/>
<path fill-rule="evenodd" clip-rule="evenodd" d="M82.84 36.1799C82.82 36.6499 82.7 36.9899 82.48 37.1899C82.25 37.3899 82.01 37.4899 81.76 37.4799C81.38 37.4799 81.08 37.3099 80.86 36.9799C80.65 36.6499 80.54 36.2099 80.54 35.6499C80.54 35.1099 80.64 34.6599 80.85 34.2999C81.06 33.9399 81.37 33.7599 81.78 33.7399C82.06 33.7399 82.3 33.8499 82.51 34.0699C82.72 34.2899 82.83 34.6199 82.84 35.0599V36.1699V36.1799ZM84.45 29.9099H82.84V33.1799H82.82C82.7 32.9699 82.51 32.7999 82.27 32.6699C82.02 32.5399 81.72 32.4799 81.36 32.4699C80.92 32.4699 80.51 32.5899 80.14 32.8399C79.77 33.0899 79.48 33.4499 79.25 33.9199C79.03 34.3999 78.91 34.9799 78.91 35.6699C78.92 36.5999 79.14 37.3499 79.57 37.9099C80 38.4699 80.56 38.7599 81.26 38.7699C81.64 38.7699 81.97 38.6799 82.27 38.4999C82.57 38.3299 82.8 38.0899 82.97 37.7899H83L83.08 38.6499H84.49C84.48 38.4199 84.47 38.1499 84.46 37.8499C84.46 37.5399 84.45 37.2299 84.45 36.9199V29.8999V29.9099Z" fill="#1A1A18"/>
</g>
<defs>
<clipPath id="clip0_538_2389">
<rect width="95.49" height="43.76" fill="white"/>
</clipPath>
</defs>
</svg>
