<svg width="72" height="72" viewBox="0 0 72 72" fill="none" xmlns="http://www.w3.org/2000/svg">
<g clip-path="url(#clip0_538_2539)">
<path d="M71.66 0H0V71.66H71.66V0Z" fill="#003398"/>
<path fill-rule="evenodd" clip-rule="evenodd" d="M8.88995 33.9001C8.41995 32.9501 8.00995 31.9701 7.46995 31.0601C7.09995 31.8601 6.69995 32.6301 6.34995 33.4401C6.22995 33.7101 6.10995 33.9801 5.93995 34.2201C5.37995 34.4201 4.76995 34.4701 4.17995 34.5601C3.59995 34.6201 3.02995 34.7701 2.44995 34.8501C3.12995 35.5601 3.85995 36.2201 4.55995 36.9101C4.69995 37.0701 4.90995 37.2201 4.87995 37.4601C4.88995 38.6301 4.55995 39.7701 4.43995 40.9401C5.36995 40.4301 6.29995 39.9201 7.22995 39.4101C7.46995 39.2701 7.76995 39.3201 7.98995 39.4601C8.85995 39.9401 9.73995 40.4101 10.63 40.8701C10.66 40.3201 10.49 39.7901 10.41 39.2501C10.33 38.5801 10.08 37.9301 10.16 37.2501C10.88 36.4501 11.67 35.7001 12.44 34.9501L12.41 34.6401C11.33 34.6401 10.26 34.4601 9.19995 34.2701C9.01995 34.2601 8.98995 34.0301 8.89995 33.9201" fill="#FFCC04"/>
<path fill-rule="evenodd" clip-rule="evenodd" d="M11.3401 45.53C10.7701 46.56 10.3101 47.65 9.80005 48.71C8.97005 48.8 8.16005 49.01 7.33005 49.08C7.02005 49.12 6.72005 49.22 6.43005 49.32C7.09005 50.12 7.90005 50.78 8.63005 51.51C9.03005 51.89 8.71005 52.48 8.67005 52.94C8.59005 53.71 8.35005 54.47 8.36005 55.25C9.36005 54.84 10.2501 54.23 11.2201 53.74C11.3301 53.68 11.4401 53.67 11.5501 53.72C12.5401 54.19 13.4701 54.81 14.4901 55.23C14.5101 54.61 14.2901 54.01 14.2201 53.4C14.1501 52.86 13.9601 52.33 13.9401 51.78C14.3301 51.21 14.8901 50.78 15.3501 50.28C15.6701 49.91 16.1801 49.62 16.2401 49.09C15.7201 49.08 15.2101 49.06 14.7001 48.95C14.1501 48.82 13.5801 48.84 13.0401 48.69C12.8801 48.55 12.7701 48.36 12.6801 48.17C12.2501 47.28 11.8501 46.38 11.3501 45.53" fill="#FFCC04"/>
<path fill-rule="evenodd" clip-rule="evenodd" d="M19.1 59.45C18.36 59.52 17.65 59.74 16.91 59.74C17.57 60.7 18.55 61.38 19.3 62.27C19.42 62.62 19.3 63.0099 19.25 63.3699C19.07 64.1899 19.02 65.0399 18.81 65.8499C19.59 65.5799 20.28 65.11 21 64.73C21.39 64.52 21.83 64.1499 22.3 64.3899C23.24 64.8799 24.15 65.42 25.12 65.86C24.97 65.25 24.91 64.61 24.77 64C24.63 63.4 24.59 62.77 24.65 62.15C25.38 61.31 26.22 60.5899 26.97 59.7599C25.83 59.5699 24.68 59.4 23.54 59.25C22.98 58.26 22.52 57.23 22.03 56.2H21.77C21.48 56.96 21.11 57.67 20.78 58.4C20.64 58.68 20.53 58.9899 20.32 59.2299C19.93 59.3499 19.52 59.3899 19.12 59.4599" fill="#FFCC04"/>
<path fill-rule="evenodd" clip-rule="evenodd" d="M31.48 63.5702C31.48 64.0702 31.96 64.3102 32.26 64.6402C32.75 65.1602 33.3 65.6302 33.77 66.1702C33.84 66.5202 33.7 66.8602 33.65 67.2002C33.49 68.0402 33.26 68.8802 33.34 69.7402C33.77 69.4702 34.2 69.1802 34.67 68.9602C35.24 68.6902 35.75 68.2902 36.35 68.0902C36.77 68.2002 37.14 68.4602 37.52 68.6702C38.11 69.0402 38.75 69.3302 39.37 69.6602C39.43 68.8902 39.18 68.1502 39.09 67.3902C39.04 66.9802 38.86 66.5702 38.9 66.1602C39.66 65.2902 40.58 64.5402 41.27 63.6002C40.53 63.5302 39.81 63.3702 39.07 63.2802C38.68 63.2002 38.26 63.2502 37.9 63.0502C37.25 62.0802 36.96 60.8902 36.23 59.9702C35.8 60.9202 35.36 61.8602 34.91 62.7902C34.82 62.9902 34.67 63.2002 34.43 63.2002C33.44 63.2802 32.48 63.5702 31.48 63.5702Z" fill="#FFCC04"/>
<path fill-rule="evenodd" clip-rule="evenodd" d="M46.92 61.05C47.3 61.44 47.7 61.8 48.06 62.2C48.24 62.36 48.15 62.63 48.14 62.84C47.96 63.84 47.83 64.85 47.64 65.85C48.65 65.47 49.54 64.83 50.51 64.35C50.67 64.28 50.86 64.3 51.02 64.35C52 64.83 52.92 65.42 53.93 65.85C53.81 65.26 53.69 64.67 53.61 64.08C53.53 63.47 53.3 62.88 53.36 62.26C54.07 61.42 54.91 60.69 55.67 59.89L55.59 59.7C54.51 59.54 53.43 59.39 52.36 59.24C51.73 58.22 51.32 57.07 50.71 56.04C50.16 57.09 49.7 58.18 49.16 59.24C48.31 59.43 47.43 59.5 46.57 59.68C46.29 59.73 46.01 59.73 45.73 59.75C46.03 60.26 46.51 60.64 46.92 61.06" fill="#FFCC04"/>
<path fill-rule="evenodd" clip-rule="evenodd" d="M58.71 51.95C58.65 53.1 58.3 54.22 58.23 55.37C59.07 54.88 59.9401 54.44 60.7701 53.95C61.0801 53.75 61.5101 53.73 61.8301 53.92C62.4701 54.27 63.12 54.59 63.76 54.95C63.98 55.08 64.2201 55.17 64.4701 55.22C64.3101 54.02 63.9 52.84 64 51.63C64.35 51.18 64.8 50.8 65.2 50.38C65.58 49.97 66.05 49.62 66.32 49.11C65.4 49.11 64.5 48.87 63.59 48.8C63.32 48.73 62.93 48.78 62.8 48.48C62.26 47.51 61.83 46.49 61.34 45.49C61.26 45.53 61.2 45.6 61.16 45.68C60.67 46.69 60.2501 47.74 59.7001 48.72C58.8101 48.8 57.9501 49.04 57.0601 49.09C56.7901 49.12 56.54 49.22 56.3 49.32C57.01 49.93 57.63 50.63 58.32 51.27C58.49 51.47 58.7901 51.64 58.7401 51.94" fill="#FFCC04"/>
<path fill-rule="evenodd" clip-rule="evenodd" d="M64.73 39.4799C64.95 39.3399 65.23 39.2699 65.47 39.3899C66.41 39.8899 67.34 40.4199 68.31 40.8599C68.18 39.6499 67.76 38.4699 67.83 37.2499C68.54 36.3599 69.49 35.6899 70.15 34.7599C69.01 34.5699 67.87 34.4499 66.73 34.2499C66.22 33.2399 65.69 32.2399 65.24 31.1899L64.96 31.2399C64.61 32.2099 64.14 33.1299 63.69 34.0499C63.59 34.3199 63.28 34.3199 63.04 34.3799C62.07 34.5499 61.08 34.6499 60.11 34.8699C60.89 35.6899 61.73 36.4499 62.52 37.2599C62.64 37.9499 62.43 38.6199 62.32 39.2999C62.27 39.8599 62.13 40.3999 62.06 40.9599C62.95 40.4699 63.85 39.9999 64.73 39.4899" fill="#FFCC04"/>
<path fill-rule="evenodd" clip-rule="evenodd" d="M61.66 24.9799C62.55 25.4699 63.44 25.9399 64.34 26.4099C64.41 25.2299 63.95 24.0899 63.87 22.9199C64.59 21.9999 65.56 21.2999 66.26 20.3599C65.35 20.1999 64.44 20.0399 63.51 19.9599C63.21 19.8899 62.81 19.8799 62.69 19.5299C62.28 18.6599 61.84 17.8099 61.45 16.9299H61.11C60.68 17.7999 60.3 18.6799 59.89 19.5399C59.78 19.8299 59.47 19.9399 59.19 19.9699C58.24 20.0599 57.32 20.2799 56.37 20.3599C56.61 20.8599 57.06 21.1899 57.44 21.5799C57.87 22.0399 58.38 22.4399 58.76 22.9499C58.69 24.1099 58.29 25.2499 58.32 26.4299C59.27 25.9699 60.17 25.4199 61.1 24.9199C61.28 24.7999 61.49 24.8599 61.66 24.9699" fill="#FFCC04"/>
<path fill-rule="evenodd" clip-rule="evenodd" d="M53.93 15.9399C53.72 14.7399 53.45 13.5599 53.34 12.3499C53.96 11.7099 54.59 11.0699 55.22 10.4399C55.42 10.2399 55.58 10.0099 55.69 9.75988C54.86 9.63988 54.02 9.57988 53.19 9.40988C52.87 9.33988 52.42 9.47988 52.23 9.13988C51.7 8.14988 51.28 7.09988 50.71 6.12988C50.23 7.02988 49.82 7.95988 49.38 8.87988C49.28 9.05988 49.2 9.26988 49 9.34988C47.92 9.57988 46.81 9.63988 45.74 9.90988C46.27 10.5799 46.94 11.1199 47.54 11.7199C47.82 12.0199 48.29 12.2999 48.17 12.7799C47.99 13.8499 47.86 14.9299 47.64 15.9899C48.63 15.5099 49.57 14.9399 50.55 14.4299C50.75 14.2899 50.98 14.4099 51.18 14.4999C52.11 14.9799 53.02 15.4899 53.95 15.9599" fill="#FFCC04"/>
<path fill-rule="evenodd" clip-rule="evenodd" d="M38.91 8.47007C39.67 7.62007 40.57 6.89007 41.28 5.99007C40.64 5.71007 39.93 5.80007 39.27 5.63007C38.86 5.53007 38.43 5.55007 38.01 5.49007C37.27 4.53007 37.03 3.26007 36.24 2.32007C35.84 3.21007 35.41 4.09007 35.01 4.97007C34.92 5.15007 34.83 5.34007 34.69 5.48007C34.33 5.55007 33.96 5.57007 33.59 5.65007C32.86 5.82007 32.07 5.75007 31.39 6.10007C32.17 6.91007 33.03 7.65007 33.78 8.49007C33.87 8.96007 33.65 9.43007 33.6 9.90007C33.53 10.6101 33.3 11.3101 33.33 12.0301C34.37 11.5601 35.33 10.9201 36.36 10.4201C37.4 10.8701 38.33 11.5301 39.38 11.9701C39.43 11.1601 39.19 10.3901 39.08 9.60007C39.02 9.23007 38.87 8.86007 38.92 8.48007" fill="#FFCC04"/>
<path fill-rule="evenodd" clip-rule="evenodd" d="M26.95 9.74996C25.86 9.69996 24.79 9.44996 23.7 9.33996C23.45 9.28996 23.37 9.01996 23.25 8.81996C22.83 7.94996 22.37 7.09996 22 6.20996L21.76 6.22996C21.47 7.05996 21.01 7.81996 20.68 8.62996C20.54 8.87996 20.47 9.22996 20.17 9.31996C19.09 9.52996 17.99 9.62996 16.91 9.85996C17.6 10.67 18.43 11.36 19.16 12.14C19.47 12.4 19.31 12.84 19.28 13.18C19.08 14.09 19.02 15.03 18.79 15.94C19.83 15.5 20.76 14.84 21.79 14.36C22 14.24 22.22 14.41 22.41 14.49C23.3 14.99 24.2 15.45 25.1 15.93C24.91 15.15 24.85 14.35 24.67 13.57C24.64 13.14 24.43 12.69 24.57 12.28C25.33 11.4 26.26 10.67 26.95 9.72996" fill="#FFCC04"/>
<path fill-rule="evenodd" clip-rule="evenodd" d="M12.86 19.7C12.27 18.75 12.01 17.6 11.26 16.76C10.96 17.43 10.64 18.08 10.33 18.74C10.15 19.11 10.03 19.51 9.77002 19.84C9.35002 20.05 8.87001 19.99 8.42001 20.08C7.75001 20.21 7.07001 20.31 6.39001 20.38C6.67001 20.88 7.12002 21.24 7.51002 21.64C7.95002 22.07 8.37001 22.52 8.83001 22.94C8.74001 24.13 8.35002 25.28 8.35002 26.48C9.31002 25.98 10.25 25.43 11.2 24.92C11.36 24.82 11.54 24.88 11.69 24.97C12.62 25.45 13.51 26 14.47 26.42C14.43 25.41 14.14 24.44 14 23.45C14 23.21 13.91 22.9 14.12 22.72C14.86 21.93 15.63 21.18 16.36 20.38C15.42 20.21 14.48 20.08 13.54 19.97C13.31 19.91 13.02 19.93 12.86 19.71" fill="#FFCC04"/>
<path fill-rule="evenodd" clip-rule="evenodd" d="M36.87 38.4299C36.9 40.4699 36.78 42.5099 36.97 44.5399C37.11 45.8799 37.49 47.2699 38.41 48.2999C39.3 49.3499 40.66 49.8599 42 50.0699C42.83 50.1099 43.66 50.1299 44.49 50.0599C45.5 49.8699 46.51 49.4599 47.22 48.6899C48.28 47.6399 48.65 46.1199 48.83 44.6899C48.89 42.5799 48.83 40.4599 48.86 38.3499H49.88C49.88 37.4999 49.88 36.6699 49.88 35.8299C47.95 35.8299 46.01 35.8299 44.08 35.8299C43.94 36.4499 44.02 37.0799 44 37.7099C44.01 37.9499 43.94 38.2399 44.14 38.4299C44.46 38.4499 44.79 38.4399 45.11 38.4499C45.12 40.1199 45.11 41.7999 45.11 43.4699C45.05 44.3099 45.03 45.2199 44.58 45.9599C43.88 47.0599 41.9 46.8799 41.47 45.6299C41.09 44.8499 41.19 43.9699 41.07 43.1399C41.05 41.5399 41.07 39.9499 41.07 38.3499C41.44 38.3499 41.81 38.3499 42.18 38.3299C42.18 37.4999 42.18 36.6699 42.18 35.8299C40.07 35.8099 37.96 35.8299 35.84 35.8299C35.84 36.6599 35.84 37.4999 35.84 38.3299C36.19 38.3799 36.54 38.4299 36.89 38.4399" fill="#FFCC04"/>
<path fill-rule="evenodd" clip-rule="evenodd" d="M28.27 41.16V39.06C28.27 38.85 28.23 38.6 28.42 38.46C29.41 38.42 30.4 38.44 31.38 38.46L31.51 38.62C31.55 39.14 31.51 39.67 31.53 40.2C32.56 40.31 33.61 40.23 34.64 40.25C35.06 40.23 35.04 39.73 35.03 39.42C34.99 38.23 35.1 37.03 34.97 35.85C30.96 35.83 26.95 35.85 22.94 35.85C22.81 36.51 22.87 37.18 22.85 37.84C22.86 38.04 22.8 38.29 23 38.43C23.36 38.47 23.72 38.45 24.08 38.45C24.13 38.69 24.19 38.93 24.19 39.19C24.19 41.61 24.19 44.02 24.19 46.44C24.19 46.69 24.16 46.93 24.11 47.18C23.72 47.18 23.33 47.18 22.95 47.19C22.82 48.07 22.81 48.99 22.95 49.87C26.98 49.87 31 49.88 35.03 49.86C35.04 48.33 35.03 46.8 35.03 45.27C33.86 45.25 32.69 45.29 31.51 45.24C31.87 45.35 32.25 45.31 32.62 45.31C33.39 45.28 34.16 45.31 34.93 45.33C35.01 46.8 34.99 48.28 34.95 49.75C34.86 48.29 35.07 46.81 34.84 45.36C33.74 45.33 32.64 45.36 31.54 45.35C31.54 45.96 31.54 46.57 31.54 47.18C30.46 47.18 29.39 47.19 28.31 47.18C28.25 46.18 28.29 45.18 28.28 44.18C28.25 43.98 28.51 43.9 28.66 43.91C29.81 43.91 30.96 43.92 32.1 43.91C32.1 43.04 32.1 42.17 32.1 41.3C31.59 41.29 31.08 41.3 30.58 41.23C29.81 41.18 29.04 41.23 28.27 41.2" fill="#FFCC04"/>
<path fill-rule="evenodd" clip-rule="evenodd" d="M48.53 26.3501H48.7C49.29 27.1801 49.79 28.0601 50.42 28.8401C50.88 28.8301 51.33 28.8401 51.79 28.8401C51.82 27.5701 51.79 26.2901 51.8 25.0201L52.27 24.7801C52.26 24.5501 52.26 24.3201 52.23 24.0901C51.58 24.0601 50.93 24.0801 50.28 24.0901C50.28 24.3401 50.28 24.5901 50.32 24.8401L50.74 25.0201C50.74 25.5101 50.74 26.0101 50.74 26.5001C50.06 25.7801 49.62 24.8701 49.02 24.0801C48.36 24.0701 47.69 24.0801 47.03 24.0801V24.7901L47.47 25.0401C47.47 25.9601 47.47 26.8801 47.47 27.8001L47.02 28.0801C47.02 28.3401 47.03 28.6001 47.04 28.8601C47.72 28.8501 48.39 28.8601 49.07 28.8601V28.0401C48.9 27.9801 48.71 27.9101 48.53 27.8501C48.53 27.3601 48.53 26.8701 48.53 26.3801" fill="#FFCC04"/>
<path fill-rule="evenodd" clip-rule="evenodd" d="M46.23 27.7899C46.23 26.8599 46.23 25.9299 46.23 24.9999L46.7001 24.7399C46.6701 24.4799 46.7201 24.1599 46.4701 23.9899C45.7701 23.9499 45.0701 23.9899 44.3601 23.9899C44.3301 24.2399 44.32 24.4999 44.3 24.7499L44.78 25.0099C44.77 25.9399 44.78 26.8699 44.78 27.7999C44.63 27.8999 44.48 27.9899 44.35 28.0999C44.31 28.3499 44.3301 28.5899 44.3301 28.8399C45.0801 28.8499 45.83 28.8499 46.57 28.8399C46.61 28.5999 46.71 28.3499 46.67 28.0999C46.53 27.9899 46.38 27.8999 46.23 27.7999" fill="#FFCC04"/>
<path fill-rule="evenodd" clip-rule="evenodd" d="M41.13 26.7801C41.33 26.5301 41.24 26.19 41.26 25.9C40.81 25.88 40.36 25.9001 39.91 25.8701C39.91 25.5401 39.91 25.22 39.91 24.89C40.31 24.89 40.71 24.89 41.11 24.89V25.4501H42.18C42.18 24.9801 42.18 24.52 42.18 24.05C40.81 24.05 39.45 24.05 38.09 24.05C38.09 24.31 38.09 24.58 38.09 24.85L38.53 24.9C38.53 25.8 38.54 26.7101 38.53 27.6101C38.54 27.8601 38.23 27.92 38.08 28.06L38.1 28.82C39.45 28.82 40.81 28.81 42.16 28.82C42.29 28.3 42.29 27.75 42.15 27.23C41.82 27.23 41.5 27.23 41.17 27.23L40.92 27.92C40.6 27.85 40.14 28.06 39.92 27.74C39.92 27.42 39.81 27.0301 40.05 26.7801C40.41 26.7501 40.76 26.79 41.12 26.76" fill="#FFCC04"/>
<path fill-rule="evenodd" clip-rule="evenodd" d="M35.5 24.9499C35.92 25.1399 36.22 25.5899 36.18 26.0599C36.18 26.5799 36.28 27.2199 35.84 27.6099C35.62 27.8799 35.28 27.9999 34.94 27.9199C34.89 26.9499 34.92 25.9799 34.92 25.0199L35 24.9399C35.12 24.7899 35.35 24.9099 35.5 24.9599M37.24 28.0899C37.81 27.3999 38.05 26.3999 37.71 25.5499C37.43 24.8299 36.78 24.2399 36.01 24.0899C35.05 24.0299 34.08 24.0799 33.11 24.0699V24.7899L33.56 25.0199C33.56 25.9499 33.56 26.8699 33.56 27.7999L33.03 28.0699V28.7699C33.67 28.9199 34.34 28.8199 35 28.8499C35.8 28.8799 36.67 28.6899 37.24 28.0999V28.0899Z" fill="#FFCC04"/>
<path fill-rule="evenodd" clip-rule="evenodd" d="M29.89 25.3099C30 25.7399 30.12 26.1599 30.23 26.5899C29.97 26.5899 29.72 26.5899 29.46 26.5899C29.46 26.1199 29.59 25.6699 29.89 25.3099ZM32.26 27.8699C31.98 26.8699 31.65 25.8799 31.35 24.8799C31.27 24.6099 31.19 24.3299 31.05 24.0799C30.19 24.0199 29.32 24.0599 28.45 24.0599C28.44 24.4199 28.45 24.7799 28.66 25.0799C28.37 25.9099 28.12 26.7499 27.88 27.5899C27.83 27.8599 27.53 27.9199 27.33 28.0399C27.34 28.2699 27.36 28.4999 27.39 28.7399C28.09 28.7199 28.79 28.7399 29.49 28.7199V28.0399C29.29 27.9499 29.08 27.8599 28.88 27.7699C29.04 27.6099 29.2 27.3899 29.45 27.3799C29.79 27.3599 30.13 27.3799 30.47 27.3799L30.67 27.8799L30.04 27.9499L30.06 28.8199C30.92 28.8199 31.77 28.8399 32.63 28.8199C32.91 28.6599 32.75 28.2899 32.79 28.0299L32.26 27.8599V27.8699Z" fill="#FFCC04"/>
<path fill-rule="evenodd" clip-rule="evenodd" d="M26.6 27.4199C26.58 26.5799 26.62 25.7499 26.58 24.9099L26.92 24.8599L26.94 24.0499C26.13 23.8899 25.3 23.9799 24.49 23.9799C24.32 24.1899 24.25 24.4599 24.18 24.7199C24.05 25.2899 23.87 25.8499 23.82 26.4399L23.68 26.4099C23.44 25.6899 23.29 24.9499 23.06 24.2299C22.97 23.9199 22.6 23.9599 22.34 23.9599C21.67 23.9899 20.98 23.8699 20.33 24.0799C20.34 24.2399 20.36 24.3999 20.39 24.5499C20.5 24.8299 20.83 25.0199 20.8 25.3599C20.8 26.1599 20.8 26.9599 20.8 27.7599C20.66 27.8599 20.52 27.9499 20.39 28.0699C20.35 28.3199 20.37 28.5699 20.37 28.8199C20.97 28.8199 21.57 28.8199 22.17 28.8199C22.22 28.5899 22.28 28.3699 22.32 28.1399L21.84 27.7599C21.86 27.1499 21.81 26.5299 21.89 25.9199C22.42 26.7999 22.47 27.8699 22.87 28.8099C23.32 28.8099 23.77 28.8099 24.22 28.8099C24.59 27.8399 24.77 26.8199 25.07 25.8299C25.31 26.3199 25.23 26.8699 25.24 27.3999C25.28 27.6899 25.03 27.8899 24.92 28.1299C24.88 28.3599 24.9 28.5899 24.9 28.8099C25.58 28.8099 26.26 28.7999 26.95 28.8099C26.98 28.5999 27.05 28.3999 27.04 28.1899C26.9 27.9299 26.63 27.7099 26.64 27.3899" fill="#FFCC04"/>
</g>
<defs>
<clipPath id="clip0_538_2539">
<rect width="71.66" height="71.66" fill="white"/>
</clipPath>
</defs>
</svg>
