<svg width="65" height="65" viewBox="0 0 65 65" fill="none" xmlns="http://www.w3.org/2000/svg">
<g clip-path="url(#clip0_538_2381)">
<path d="M26.42 64.29C27.64 64.45 28.87 64.64 30.1 64.7C32.88 64.98 35.68 64.7 38.43 64.29C37.63 64.57 36.76 64.57 35.92 64.7C35.12 64.7 34.34 64.89 33.54 64.86C32.4 64.85 31.26 64.9 30.12 64.82C28.89 64.63 27.6 64.68 26.41 64.29M17.96 61.45C18.55 61.66 19.12 61.91 19.66 62.25C19.07 62.04 18.47 61.82 17.96 61.45ZM54.95 55.74C55.2 55.43 55.48 55.1599 55.79 54.9199C55.58 55.2499 55.28 55.53 54.95 55.74ZM5.92999 51.13C6.22999 51.43 6.47999 51.7699 6.68999 52.1399C6.35999 51.8599 6.10999 51.51 5.92999 51.13ZM60.41 48.81C60.74 48.13 61.09 47.45 61.49 46.81C61.22 47.52 60.85 48.19 60.41 48.81ZM2.99999 46.08C3.36999 46.65 3.68999 47.24 3.92999 47.88C3.53999 47.32 3.23999 46.71 2.99999 46.08ZM1.55999 42.4C1.90999 43.1 2.12999 43.84 2.35999 44.58C1.99999 43.89 1.75999 43.15 1.55999 42.4ZM0.379987 37.2799C0.529987 37.9099 0.659987 38.55 0.719987 39.2C0.549987 38.57 0.379987 37.9399 0.379987 37.2799ZM0.149987 35.61C0.269987 36.13 0.319987 36.66 0.359987 37.18C0.219987 36.67 0.149987 36.14 0.149987 35.61ZM59.62 25.98C58.68 26.2 57.72 26.29 56.78 26.53C56.71 27.02 56.85 27.52 57 27.99C57.21 28.67 57.94 29.11 58.64 29.03C59.39 28.98 60.23 28.66 60.56 27.93C60.72 27.25 60.54 26.55 60.41 25.88C60.14 25.9 59.87 25.91 59.61 25.97L59.62 25.98ZM56.4 25.47C58.03 25.14 59.68 24.91 61.29 24.52C61.35 25.62 61.81 26.67 61.7 27.78C61.6 28.79 60.84 29.69 59.86 29.97C59.26 30.16 58.61 30.32 57.99 30.14C57.11 29.92 56.26 29.33 56.01 28.42C55.78 27.54 55.62 26.64 55.49 25.74C55.74 25.52 56.1 25.55 56.4 25.47ZM5.13999 25.33C4.03999 25.5 3.54999 26.88 3.99999 27.82C4.29999 28.33 4.86999 28.59 5.40999 28.76C6.04999 28.86 6.77999 28.89 7.29999 28.44C7.97999 27.85 8.12999 26.67 7.47999 26C6.86999 25.41 5.95999 25.2 5.13999 25.33ZM4.56999 24.31C6.01999 23.82 7.84999 24.33 8.62999 25.7C9.18999 26.68 9.00999 27.93 8.42999 28.86C7.95999 29.49 7.20999 29.89 6.42999 29.96C5.38999 30.03 4.28999 29.75 3.51999 29.02C2.39999 27.86 2.54999 25.71 3.85999 24.74C4.07999 24.56 4.30999 24.41 4.56999 24.31ZM54.25 21.15C55.87 20.5 57.46 19.76 59.08 19.11C59.44 19.71 59.65 20.38 59.94 21.01C60.15 21.53 60.39 22.04 60.55 22.58C60.23 22.67 59.89 22.97 59.56 22.84C59.2 22.09 58.92 21.31 58.6 20.55C58.22 20.7 57.84 20.86 57.46 21.03C57.66 21.67 58 22.25 58.21 22.9C57.91 23.06 57.62 23.25 57.29 23.34C57.02 22.74 56.75 22.13 56.51 21.51C56.03 21.6 55.6 21.84 55.16 22.06C55.42 22.9 55.92 23.67 56.12 24.53C55.86 24.72 55.53 24.87 55.21 24.86C54.73 24.01 54.46 23.07 54.03 22.19C53.93 21.95 53.75 21.7 53.83 21.42C53.93 21.28 54.11 21.23 54.26 21.15H54.25ZM6.32999 19.73C5.97999 20.11 5.80999 20.61 5.59999 21.07C6.12999 21.34 6.64999 21.6 7.19999 21.83C7.46999 21.28 7.80999 20.69 7.65999 20.05C7.44999 19.57 6.69999 19.3 6.31999 19.73H6.32999ZM6.34999 18.47C7.03999 18.27 7.76999 18.56 8.25999 19.04C8.57999 19.35 8.66999 19.81 8.75999 20.23C9.67999 20.23 10.59 20.04 11.51 20.12C11.39 20.44 11.33 20.82 11.04 21.04C10.23 21.2 9.39999 21.15 8.58999 21.26C8.43999 21.58 8.28999 21.91 8.13999 22.23C8.75999 22.58 9.40999 22.88 10.08 23.12C10.02 23.47 9.85999 23.79 9.69999 24.11C9.28999 24.02 8.90999 23.82 8.52999 23.64C7.13999 22.99 5.75999 22.33 4.34999 21.71C4.55999 21.03 4.91999 20.42 5.19999 19.77C5.46999 19.26 5.76999 18.68 6.33999 18.47H6.34999ZM51.9 16.78C52.3 17.36 52.66 18.04 53.32 18.37C53.8 18.53 54.37 18.5 54.81 18.23C55.44 17.91 56.04 17.35 56.06 16.6C56.06 15.8 55.5 15.16 54.99 14.62C53.95 15.33 52.98 16.12 51.91 16.78H51.9ZM54.77 13.43C54.94 13.32 55.13 13.13 55.35 13.22C55.74 13.75 56.08 14.31 56.48 14.83C56.91 15.36 57.14 16.03 57.15 16.71C57.04 18.6 54.86 20.11 53.07 19.43C52.59 19.25 52.14 18.95 51.85 18.53C51.39 17.87 50.9 17.23 50.44 16.56C51.85 15.48 53.33 14.48 54.76 13.43H54.77ZM8.04999 15.31C8.18999 14.17 9.08999 13.31 9.98999 12.68C10.25 12.91 10.51 13.15 10.72 13.43C9.97999 13.92 9.24999 14.61 9.09999 15.53C9.19999 16.79 10.54 17.81 11.78 17.62C12.46 17.44 12.89 16.84 13.17 16.24C12.92 16 12.66 15.77 12.37 15.58C12.23 15.72 12.11 15.88 11.99 16.04C11.76 15.88 11.31 15.79 11.34 15.44C11.59 15.04 11.89 14.66 12.19 14.3C12.39 14.22 12.55 14.38 12.7 14.49C13.23 14.93 13.78 15.34 14.36 15.73C14.35 16.34 14.03 16.88 13.74 17.4C13.31 18.04 12.68 18.62 11.9 18.76C11 18.97 10.06 18.65 9.34999 18.1C8.46999 17.49 7.90999 16.4 8.05999 15.32L8.04999 15.31ZM32.87 12.44C32.36 13.18 31.86 13.93 31.38 14.69C29.81 17 28.24 19.29 26.92 21.77C26.39 22.61 25.88 23.46 25.44 24.34C25.04 25.19 24.52 25.98 24.15 26.85C23.65 27.99 23.03 29.08 22.68 30.28C22.28 31.62 21.78 32.9499 21.63 34.3499C21.53 35.3699 21.39 36.3999 21.54 37.4199C21.62 38.3699 21.9 39.2899 22.27 40.1699C22.96 41.6299 24.1 42.89 25.51 43.68C26.21 44.08 27.02 44.2299 27.8 44.4199C28.05 44.4499 28.31 44.56 28.55 44.47C28.74 43.91 28.85 43.3299 29.02 42.7599C29.35 41.3699 29.9 40.0399 30.41 38.7099C30.5 38.4799 30.54 38.23 30.56 37.99C29.58 37.44 28.81 36.57 28.21 35.63C27.42 34.56 26.92 33.3299 26.36 32.1399C26.1 31.4899 25.82 30.85 25.7 30.17C25.99 30.67 26.27 31.18 26.57 31.67C26.97 32.3 27.27 33 27.78 33.56C28.23 34.06 28.64 34.59 29.12 35.07C29.57 35.49 30.05 35.8799 30.51 36.2999C30.66 36.4399 30.84 36.5199 31.02 36.5999C31.23 35.6599 31.49 34.74 31.63 33.79C31.82 32.66 32.06 31.54 32.09 30.39C31.87 30.04 31.54 29.79 31.28 29.46C30.3 28.39 29.85 26.97 29.47 25.6C29.35 25.22 29.32 24.82 29.34 24.43C29.72 25.04 29.96 25.74 30.36 26.35C30.9 27.11 31.47 27.87 32.15 28.51C32.26 27.17 32.11 25.82 32.28 24.48C32.28 23.52 32.41 22.56 32.43 21.6C32.56 20.65 32.56 19.69 32.75 18.74C33.19 21.97 33.48 25.23 33.51 28.5C34.31 27.96 34.94 27.2 35.55 26.46C35.97 25.95 36.18 25.31 36.6 24.81C36.48 25.78 36.1 26.69 35.71 27.57C35.24 28.54 34.57 29.44 33.69 30.08C33.4 30.25 33.41 30.6 33.39 30.89C33.37 32.09 33.1 33.2699 32.93 34.4599C32.83 35.2499 32.59 36.03 32.52 36.83C33.39 36.55 34.12 35.9499 34.85 35.4199C35.55 34.9399 36.1 34.29 36.72 33.72C37.19 33.28 37.57 32.74 38.07 32.33C37.31 33.8 36.37 35.1799 35.25 36.3899C34.75 36.9699 34.11 37.4099 33.49 37.8499C33.08 38.1499 32.53 38.2 32.12 38.49C31.58 40.48 31.06 42.4899 30.75 44.5299C33.27 44.7099 35.77 43.8399 37.82 42.4199C38.42 42.0399 38.9 41.52 39.43 41.06C41.01 39.54 42.04 37.47 42.29 35.29C42.32 34.09 42.39 32.87 42.11 31.7C41.28 27.36 39.34 23.34 37.23 19.5C35.83 17.13 34.41 14.76 32.88 12.46L32.87 12.44ZM30.57 15.39C31.42 14.19 32.05 12.84 32.9 11.63C35.45 15.41 38.08 19.16 40.07 23.27C40.93 25.03 41.73 26.83 42.29 28.71C43.13 31.15 43.51 33.81 43.08 36.38C42.68 38.78 41.26 40.91 39.43 42.47C37.55 44.1 35.19 45.19 32.72 45.54C31.99 45.61 31.26 45.62 30.53 45.59C30.18 46.89 30.01 48.22 29.91 49.56C29.88 49.84 29.87 50.28 29.51 50.33C28.76 50.36 28.04 50.08 27.37 49.77C27.72 48.8 27.86 47.78 28.09 46.79C28.22 46.36 28.29 45.9199 28.29 45.4799C27.12 45.3499 25.96 45.03 24.93 44.47C23.07 43.37 21.65 41.53 21.1 39.43C20.96 38.77 20.75 38.1099 20.75 37.4199C20.73 36.3199 20.7 35.21 20.94 34.13C21.15 32.62 21.66 31.18 22.18 29.75C22.86 27.93 23.84 26.26 24.76 24.56C26.61 21.45 28.68 18.47 30.58 15.39H30.57ZM14.15 11.01C14.29 11.56 14.5 12.08 14.74 12.6C15.05 12.38 15.34 12.13 15.61 11.85C15.15 11.53 14.67 11.23 14.15 11.01ZM12.63 9.95995C12.86 9.65995 13.25 9.16995 13.66 9.46995C15.36 10.45 17.07 11.41 18.74 12.42C18.48 12.65 18.22 12.89 17.96 13.12C17.49 12.96 17.11 12.63 16.65 12.46C16.1 12.81 15.64 13.3 15.14 13.71C15.34 14.15 15.48 14.61 15.66 15.06C15.38 15.29 15.13 15.58 14.8 15.75C14.28 14.47 13.84 13.16 13.31 11.88C13.09 11.24 12.79 10.62 12.64 9.94995L12.63 9.95995ZM46.21 12.69C47.46 11.22 48.7 9.73995 49.99 8.29995C50.35 8.37995 50.63 8.69995 50.84 8.98995C50.7 10.01 50.58 11.04 50.46 12.07C50.38 12.5 50.34 12.94 50.34 13.38C51.2 12.49 51.86 11.42 52.8 10.6C53.01 10.85 53.43 10.99 53.48 11.34C52.28 12.84 50.96 14.25 49.72 15.72C49.47 15.5 49.01 15.33 49.07 14.93C49.21 13.81 49.31 12.68 49.49 11.56C49.55 11.22 49.56 10.88 49.54 10.53C49.01 10.93 48.68 11.52 48.23 11.99C47.82 12.42 47.43 12.86 47.07 13.33C47.01 13.33 46.88 13.31 46.82 13.31C46.62 13.1 46.41 12.9 46.22 12.68L46.21 12.69ZM44.69 5.83995C44.79 5.65995 44.88 5.44995 45.09 5.37995C46.19 5.85995 47.18 6.55995 48.28 7.04995C48.15 7.36995 47.99 7.68995 47.84 7.99995C47.17 7.69995 46.54 7.30995 45.89 6.95995C45.76 6.87995 45.61 6.83995 45.46 6.86995C45.21 7.16995 45.01 7.50995 44.87 7.86995C45.44 8.20995 46.03 8.50995 46.61 8.81995C46.57 9.15995 46.42 9.49995 46.14 9.71995C45.53 9.46995 44.98 9.08995 44.36 8.84995C44.11 9.24995 43.89 9.66995 43.67 10.09C44.4 10.62 45.24 10.96 46.01 11.41C45.89 11.72 45.74 12.02 45.59 12.31C44.42 11.83 43.39 11.09 42.24 10.56C42.32 10.02 42.72 9.59995 42.94 9.10995C43.47 7.99995 44.16 6.96995 44.69 5.84995V5.83995ZM19.64 5.26995C19.96 5.12995 20.27 4.96995 20.57 4.77995C21.19 6.05995 21.84 7.31995 22.52 8.56995C22.74 9.05995 23.06 9.51995 23.2 10.05C23.03 10.27 22.76 10.4 22.48 10.44C21.88 10.2 21.35 9.78995 20.77 9.50995C19.93 9.09995 19.14 8.58995 18.3 8.17995C18.82 9.40995 19.6 10.53 20.08 11.77C19.76 11.93 19.45 12.08 19.11 12.19C18.65 11.12 18.04 10.13 17.52 9.08995C17.25 8.52995 16.97 7.97995 16.66 7.43995C16.58 7.26995 16.42 7.08995 16.56 6.90995C16.8 6.72995 17.08 6.60995 17.36 6.47995C18.71 7.11995 19.95 7.93995 21.28 8.61995C20.8 7.46995 20.1 6.42995 19.63 5.27995L19.64 5.26995ZM22.64 4.09995C22.96 4.00995 23.27 3.90995 23.58 3.79995C24.08 4.84995 24.3 5.99995 24.7 7.07995C24.96 7.85995 25.25 8.61995 25.43 9.41995C25.1 9.54995 24.75 9.64995 24.41 9.71995C24.26 9.29995 24.12 8.87995 24 8.45995C23.58 6.99995 23 5.58995 22.64 4.10995V4.09995ZM39.68 5.14995C39.84 4.61995 40.01 4.08995 40.19 3.56995C40.51 3.64995 40.82 3.73995 41.14 3.81995C41.12 3.97995 41.12 4.13995 41.08 4.29995C40.65 5.66995 40.12 7.01995 39.77 8.40995L39.83 8.51995C40.53 8.78995 41.3 8.91995 41.97 9.26995C41.93 9.57995 41.82 9.86995 41.72 10.17C41.11 10.14 40.56 9.86995 39.99 9.67995C39.48 9.49995 38.96 9.35995 38.44 9.17995C38.72 7.79995 39.3 6.49995 39.7 5.14995H39.68ZM34.77 5.92995C34.63 6.46995 34.6 7.03995 34.53 7.59995C35.11 7.67995 35.69 7.81995 36.28 7.70995C36.9 7.51995 37.01 6.53995 36.46 6.18995C35.94 5.91995 35.34 5.90995 34.77 5.92995ZM35.06 3.57995C34.96 4.04995 34.88 4.52995 34.87 5.01995C35.43 5.07995 36.03 5.24995 36.57 4.99995C36.68 4.61995 36.83 4.10995 36.46 3.81995C36.03 3.60995 35.53 3.63995 35.06 3.58995V3.57995ZM34.08 2.54995C35.07 2.62995 36.1 2.64995 37.02 3.03995C37.52 3.25995 37.75 3.82995 37.67 4.34995C37.73 4.86995 37.42 5.29995 37.13 5.68995C37.49 5.92995 37.89 6.24995 37.91 6.71995C37.91 7.08995 37.96 7.49995 37.74 7.81995C37.39 8.50995 36.53 8.74995 35.81 8.67995C34.98 8.59995 34.17 8.44995 33.35 8.35995C33.42 7.28995 33.63 6.23995 33.73 5.17995C33.82 4.29995 33.96 3.41995 34.08 2.54995ZM26.86 3.13995C27.71 2.52995 28.82 2.49995 29.81 2.69995C29.82 3.03995 29.83 3.37995 29.84 3.72995C29.19 3.67995 28.52 3.57995 27.89 3.78995C27.11 4.10995 26.71 5.02995 26.89 5.82995C26.97 6.61995 27.39 7.48995 28.22 7.69995C29.02 7.89995 29.73 7.41995 30.47 7.20995C30.52 7.51995 30.61 7.82995 30.75 8.10995C30.02 8.63995 29.08 8.84995 28.19 8.77995C27.29 8.70995 26.5 8.06995 26.09 7.27995C25.42 5.94995 25.54 4.01995 26.87 3.12995L26.86 3.13995ZM28.65 0.199952C30.47 -0.0700482 32.31 0.00995182 34.14 0.0199518C35.01 0.139952 35.88 0.109952 36.75 0.249952C38.54 0.569952 40.34 0.869952 42.08 1.42995C47.46 3.10995 52.39 6.20995 56.21 10.36C59.52 13.9 62.02 18.2 63.43 22.85C64.23 25.31 64.64 27.88 64.83 30.45C64.88 30.83 64.86 31.22 64.86 31.6C64.85 32.92 64.93 34.24 64.71 35.54C64.74 34.51 64.86 33.48 64.81 32.45C64.77 32.44 64.68 32.41 64.64 32.4C64.81 31.87 64.74 31.32 64.68 30.78C64.39 24.36 62.06 18.05 58.17 12.94C56.56 10.84 54.7 8.92995 52.65 7.25995C51.08 6.00995 49.4 4.89995 47.64 3.93995C46.17 3.21995 44.71 2.46995 43.15 1.98995C40.74 1.07995 38.19 0.579952 35.63 0.319952C34.03 0.0399518 32.41 0.159952 30.81 0.149952C27.72 0.429952 24.61 0.889952 21.69 1.99995C20.38 2.40995 19.15 3.01995 17.92 3.59995C11.77 6.67995 6.66999 11.8 3.57999 17.95C2.79999 19.43 2.23999 21.02 1.66999 22.59C1.04999 24.6 0.629987 26.67 0.319987 28.75C0.299987 29.96 0.0599868 31.16 0.179987 32.38H0.0799868C0.0499868 33.28 0.0999868 34.18 0.0999868 35.08C-0.0600132 32.23 -0.0400132 29.33 0.549987 26.52C1.06999 23.55 2.07999 20.68 3.38999 17.96C3.96999 16.93 4.47999 15.85 5.16999 14.88C7.61999 11.05 10.9 7.75995 14.71 5.26995C18.86 2.49995 23.69 0.779952 28.65 0.199952Z" fill="#339D46"/>
<path d="M41.68 58.65C42.04 58.33 42.5 58.13 42.87 57.82C43.07 58.32 43.29 58.94 42.92 59.42C42.65 59.69 42.27 59.91 41.88 59.83C41.44 59.64 41.31 58.97 41.68 58.65ZM16.17 53.49C16.43 53.26 16.76 53.04 17.12 53.08C17.53 53.19 17.92 53.47 18.08 53.88C18.26 54.19 18.08 54.54 17.96 54.84C17.35 54.5 16.83 54.02 16.24 53.64C16.23 53.6 16.19 53.53 16.18 53.49H16.17ZM51.09 50.23C51.35 50.18 51.64 50.17 51.89 50.27C52.59 50.62 53.24 51.24 53.33 52.05C53.28 52.65 52.62 53.27 52 52.98C51.39 52.71 50.83 52.22 50.54 51.61C50.3 51.08 50.57 50.46 51.09 50.22V50.23ZM55.62 48C55.59 47.38 55.92 46.82 56.1 46.25C56.47 46.53 57 46.76 57.04 47.29C57.11 47.74 56.82 48.11 56.57 48.45C56.19 48.5 55.79 48.38 55.62 48ZM7.29997 41.41C7.73997 41.35 8.29997 41.25 8.62997 41.64C9.08997 42.05 9.15997 42.85 8.72997 43.31C8.39997 43.69 7.89997 43.86 7.41997 43.99C6.89997 44.13 6.21997 43.98 5.97997 43.45C5.76997 43.08 5.73997 42.58 5.99997 42.23C6.30997 41.8 6.81997 41.58 7.29997 41.41ZM58.35 36.92C59.11 36.81 59.99 36.97 60.49 37.6C60.84 38.14 60.55 38.96 59.91 39.13C59.16 39.27 58.3 39.12 57.75 38.56C57.24 38.02 57.61 37 58.35 36.92ZM32.15 57.21C31.26 57.58 30.74 58.86 31.44 59.63C32.23 60.34 33.39 60.14 34.3 60.58C34.44 60.64 34.46 60.82 34.48 60.95C34.24 61.47 33.55 61.38 33.09 61.34C32.71 61.32 32.46 61.01 32.38 60.67C31.94 60.66 31.51 60.67 31.08 60.67C31.08 61.32 31.46 61.97 32.07 62.23C32.72 62.51 33.45 62.45 34.14 62.39C34.8 62.33 35.43 61.94 35.7 61.33C35.91 60.78 35.84 60.05 35.35 59.67C34.77 59.23 34.02 59.18 33.33 59.06C33 58.99 32.59 58.95 32.43 58.6C32.49 58.45 32.56 58.31 32.64 58.17C33.08 58.09 33.55 58 33.97 58.19C34.15 58.31 34.24 58.51 34.39 58.67C34.78 58.69 35.17 58.67 35.57 58.66C35.61 57.93 35.03 57.27 34.34 57.11C33.63 56.94 32.86 56.95 32.17 57.21H32.15ZM40.24 55.9C39.77 56.24 39.46 56.82 39.54 57.41C39.58 57.54 39.5 57.78 39.66 57.84C39.99 57.81 40.3 57.68 40.61 57.56C40.93 57.44 40.79 57.04 40.91 56.79C41.28 56.49 41.78 56.26 42.26 56.42C42.38 56.57 42.47 56.73 42.56 56.9C41.99 57.53 41.13 57.74 40.53 58.32C39.93 58.93 40.1 59.95 40.62 60.56C41.15 61.12 42.06 61.08 42.67 60.7C43.09 60.49 43.26 60.03 43.53 59.68C43.66 59.79 43.78 59.92 43.91 60.02C44.38 59.93 44.81 59.71 45.25 59.54C45.03 59.35 44.78 59.17 44.7 58.88C44.34 57.95 44.04 56.99 43.65 56.08C43.48 55.69 43.15 55.3 42.7 55.26C41.83 55.15 40.94 55.4 40.23 55.9H40.24ZM36.28 55.46C36.32 55.94 36.48 56.41 36.49 56.9C36.27 56.94 36.05 56.97 35.82 57.01C35.87 57.33 35.93 57.66 36 57.98C36.23 57.94 36.45 57.89 36.68 57.83C36.94 58.53 36.99 59.29 37.16 60.01C37.3 60.56 37.23 61.28 37.76 61.62C38.38 61.9 39.08 61.66 39.68 61.43C39.6 61.16 39.54 60.87 39.52 60.59C39.24 60.58 38.96 60.59 38.68 60.59C38.41 59.61 38.27 58.6 38.08 57.6C38.32 57.54 38.55 57.48 38.8 57.44C38.81 57.12 38.75 56.8 38.66 56.49C38.41 56.53 38.16 56.58 37.91 56.63C37.72 56.2 37.66 55.73 37.62 55.27C37.17 55.31 36.73 55.4 36.28 55.47V55.46ZM26.34 54.93C26.23 55.38 26.16 55.84 26.05 56.29C25.8 56.32 25.53 56.18 25.3 56.29C25.19 56.54 25.16 56.82 25.13 57.09C25.36 57.12 25.58 57.16 25.81 57.2C25.68 57.97 25.46 58.72 25.29 59.48C25.16 60.01 24.87 60.63 25.17 61.15C25.62 61.64 26.32 61.78 26.97 61.77C27.06 61.47 27.13 61.16 27.14 60.84C26.92 60.79 26.71 60.74 26.5 60.65C26.4 60.27 26.55 59.87 26.66 59.51C26.87 58.89 26.91 58.21 27.14 57.6C27.4 57.63 27.65 57.69 27.9 57.74C27.99 57.43 28.07 57.12 28.14 56.82C27.88 56.76 27.61 56.71 27.35 56.65C27.42 56.17 27.55 55.7 27.67 55.23C27.23 55.1 26.8 54.96 26.35 54.92L26.34 54.93ZM20.64 54.2C20.41 54.68 20.21 55.17 20.01 55.66C19.56 56.76 18.99 57.83 18.6 58.95C19.01 59.12 19.41 59.31 19.84 59.44C20.18 58.56 20.59 57.72 20.97 56.86C21.16 56.43 21.51 55.97 22.02 55.93C22.33 55.96 22.63 56.11 22.85 56.32C23.06 56.6 22.98 56.99 22.86 57.29C22.47 58.25 22.01 59.19 21.6 60.15C21.93 60.49 22.43 60.57 22.84 60.77C23.26 59.76 23.73 58.78 24.17 57.78C24.42 57.22 24.6 56.54 24.27 55.98C23.74 55.12 22.53 54.8 21.64 55.3C21.69 55.1 21.75 54.91 21.75 54.71C21.41 54.48 21.02 54.36 20.65 54.21L20.64 54.2ZM45.47 54.17C45.47 54.17 45.34 54.14 45.3 54.13C45.22 54 45.14 53.87 45.04 53.75C44.65 53.89 44.28 54.14 44 54.45C44.13 54.81 44.38 55.11 44.57 55.42C45.31 56.52 45.99 57.65 46.75 58.73C47.14 58.51 47.51 58.27 47.88 58.02C47.37 57.27 46.91 56.48 46.4 55.72C46.16 55.36 45.88 54.91 46.05 54.46C46.23 53.9 47.07 53.5 47.5 54.02C48.14 54.83 48.66 55.73 49.21 56.6C49.29 56.71 49.37 56.84 49.5 56.91C49.92 56.77 50.27 56.46 50.63 56.21C50.02 55.18 49.31 54.21 48.68 53.2C48.47 52.91 48.23 52.61 47.89 52.47C46.81 52.12 45.44 52.96 45.47 54.16V54.17ZM14.29 53.86C13.98 54.44 13.97 55.17 14.25 55.77C14.83 57.15 16.74 57.92 18.02 57C18.02 56.97 18.02 56.9 18.02 56.87C17.69 56.63 17.36 56.36 17 56.18C16.7 56.2 16.38 56.36 16.09 56.19C15.7 55.98 15.35 55.61 15.32 55.15C15.29 54.84 15.46 54.56 15.59 54.28C16.59 54.97 17.57 55.69 18.56 56.41C18.86 55.98 19.2 55.56 19.34 55.05C19.4 54.61 19.41 54.17 19.34 53.73C18.93 52.55 17.59 51.69 16.34 52C15.39 52.21 14.73 53.03 14.31 53.87L14.29 53.86ZM14.62 49.26C14.37 49.31 14.22 48.98 14.03 48.85C13.81 49.07 13.58 49.29 13.35 49.5C13.49 49.68 13.92 49.9 13.68 50.16C12.95 50.94 12.17 51.67 11.44 52.44C11.1 52.83 11.29 53.42 11.61 53.76C11.87 54.02 12.12 54.37 12.47 54.48C12.7 54.28 12.89 54.05 13.1 53.83C12.95 53.64 12.79 53.46 12.69 53.24C12.92 52.7 13.46 52.4 13.85 51.99C14.2 51.68 14.47 51.27 14.86 51.02C15.06 51.19 15.25 51.38 15.44 51.57C15.64 51.35 15.84 51.13 16.06 50.93C15.91 50.71 15.66 50.54 15.59 50.28C15.82 49.92 16.16 49.66 16.49 49.38C16.49 49.32 16.46 49.2 16.46 49.14C16.15 48.89 15.87 48.61 15.59 48.32C15.27 48.63 14.97 48.97 14.62 49.25V49.26ZM49.5 47.77C50.09 48.28 50.61 48.86 51.19 49.37C50.89 49.41 50.57 49.41 50.28 49.52C49.9 49.66 49.64 50 49.41 50.32C49.06 50.79 49.11 51.43 49.21 51.98C49.63 53.02 50.46 53.96 51.57 54.27C52.82 54.76 54.39 53.53 54.05 52.18C54.19 52.3 54.34 52.42 54.48 52.54C54.78 52.26 55.07 51.96 55.37 51.67C55.23 51.45 55.07 51.24 54.88 51.06C53.38 49.65 51.92 48.19 50.42 46.77C50.1 47.1 49.8 47.43 49.49 47.77H49.5ZM10.23 45.28C9.12997 46.07 7.99997 46.8 6.90997 47.59C7.10997 48 7.35997 48.38 7.67997 48.7C8.40997 48.15 9.17997 47.65 9.91997 47.12C10.19 46.93 10.48 46.75 10.82 46.74C11.45 46.67 12.02 47.43 11.76 48.01C11.39 48.52 10.79 48.78 10.3 49.16C9.80997 49.55 9.20997 49.8 8.77997 50.27C8.90997 50.7 9.23997 51.03 9.48997 51.38C10.5 50.72 11.48 50 12.48 49.32C12.93 48.99 13.3 48.46 13.21 47.88C13.09 47.33 12.84 46.75 12.35 46.44C12.06 46.23 11.69 46.21 11.36 46.14C11.51 46 11.66 45.86 11.82 45.72C11.59 45.37 11.37 45.02 11.13 44.68C10.81 44.85 10.52 45.06 10.23 45.27V45.28ZM54.22 44.42C53.48 44.92 52.95 45.72 52.76 46.6C52.64 47.23 52.93 47.98 53.52 48.27C53.8 48.06 53.96 47.74 54.13 47.45C54.33 47.13 53.86 46.85 53.94 46.51C54.01 46.14 54.24 45.82 54.53 45.59C54.83 45.45 55.22 45.65 55.23 46C55.01 46.83 54.4 47.57 54.51 48.47C54.58 49.11 55.13 49.58 55.73 49.73C56.19 49.94 56.7 49.72 57.09 49.45C57.71 48.9 57.82 48.02 57.7 47.24C57.88 47.28 58.07 47.42 58.27 47.35C58.55 46.99 58.76 46.58 58.99 46.19C58.73 46.19 58.47 46.19 58.25 46.04C57.37 45.52 56.51 44.99 55.65 44.46C55.23 44.19 54.62 44.11 54.21 44.43L54.22 44.42ZM55.78 39.98C55.4 40.62 55.59 41.38 56.01 41.95C55.78 41.87 55.56 41.76 55.32 41.72C55 42.01 54.88 42.5 54.86 42.93C55.47 43.09 56.03 43.37 56.62 43.59C57.36 43.88 58.11 44.16 58.84 44.47C59.08 44.56 59.32 44.67 59.58 44.66C59.8 44.3 59.93 43.9 60.09 43.51C59.41 43.23 58.72 42.94 58.03 42.68C57.58 42.51 57.09 42.31 56.82 41.89C56.68 41.43 56.87 40.98 56.97 40.54C56.6 40.31 56.17 40.19 55.79 39.98H55.78ZM7.18997 40.02C6.12997 40.19 5.13997 40.89 4.72997 41.89C4.56997 42.54 4.62997 43.25 4.94997 43.84C5.22997 44.41 5.60997 44.98 6.22997 45.2C7.61997 45.68 9.30997 45.04 9.99997 43.74C10.41 42.82 10.15 41.72 9.57997 40.93C9.04997 40.19 8.07997 39.85 7.19997 40.01L7.18997 40.02ZM55.16 34.82C55.11 35.14 55.01 35.45 54.98 35.78C54.96 35.94 54.96 36.16 55.18 36.16C55.86 36.3 56.55 36.44 57.23 36.55C56.98 36.76 56.71 36.95 56.53 37.22C56.23 37.61 56.26 38.14 56.29 38.61C56.39 39.28 56.94 39.79 57.5 40.11C58.45 40.59 59.65 40.82 60.61 40.26C61.28 39.95 61.72 39.23 61.66 38.49C61.69 38.04 61.42 37.66 61.15 37.33C61.35 37.34 61.54 37.36 61.74 37.37C61.85 36.94 61.94 36.51 61.96 36.07C59.68 35.71 57.43 35.15 55.14 34.83L55.16 34.82ZM4.58997 34.99C3.90997 35.25 3.25997 35.82 3.16997 36.58C3.08997 37.32 3.18997 38.14 3.69997 38.71C4.15997 39.26 4.88997 39.54 5.59997 39.49C5.52997 39.05 5.42997 38.62 5.39997 38.19C5.08997 38.1 4.68997 38.11 4.46997 37.84C4.25997 37.48 4.20997 36.99 4.46997 36.65C4.79997 36.3 5.29997 36.2 5.74997 36.1C6.24997 36 6.84997 35.98 7.23997 36.38C7.53997 36.66 7.51997 37.12 7.43997 37.49C7.29997 37.72 7.05997 37.85 6.83997 38C6.91997 38.42 6.99997 38.85 7.04997 39.28C7.61997 39.19 8.14997 38.87 8.41997 38.36C8.70997 37.75 8.65997 37.03 8.51997 36.39C8.32997 35.48 7.45997 34.8 6.53997 34.75C5.87997 34.72 5.19997 34.75 4.58997 35.01V34.99ZM0.0699715 32.36H0.169972C3.86997 32.36 7.57997 32.37 11.28 32.36C11.32 34.33 11.53 36.31 12.09 38.21C12.54 39.58 13.02 40.96 13.72 42.23C15.01 44.7 16.81 46.9 18.96 48.67C21.78 51.03 25.24 52.6 28.85 53.24C32.26 53.83 35.8 53.55 39.08 52.46C45.02 50.54 49.99 45.82 52.18 39.97C53.18 37.57 53.57 34.95 53.59 32.36C55.47 32.33 57.35 32.36 59.23 32.35C61.03 32.37 62.83 32.31 64.63 32.38C64.67 32.39 64.76 32.42 64.8 32.43C64.85 33.46 64.73 34.49 64.7 35.52C64.5 37.75 64.07 39.96 63.39 42.09C62.89 43.71 62.28 45.3 61.48 46.8C61.08 47.44 60.73 48.12 60.4 48.8C59.88 49.86 59.14 50.8 58.48 51.78C57.64 52.87 56.76 53.94 55.78 54.91C55.47 55.16 55.19 55.42 54.94 55.73C54.42 56.37 53.73 56.82 53.15 57.4C52.61 57.9 51.97 58.29 51.39 58.75C50.5 59.46 49.47 59.97 48.53 60.62C46.99 61.44 45.44 62.25 43.78 62.81C42.04 63.46 40.25 64.02 38.41 64.29C35.66 64.69 32.86 64.98 30.08 64.7C28.84 64.64 27.62 64.45 26.4 64.29C25.21 64.11 24.04 63.83 22.9 63.44C21.8 63.09 20.69 62.74 19.64 62.25C19.11 61.91 18.53 61.66 17.94 61.45C17 61.05 16.12 60.52 15.27 59.96C13.58 58.96 12.06 57.72 10.57 56.44C9.75997 55.63 8.87997 54.86 8.15997 53.96C7.60997 53.39 7.09997 52.8 6.66997 52.13C6.45997 51.76 6.19997 51.42 5.90997 51.12C5.61997 50.79 5.40997 50.41 5.16997 50.04C4.73997 49.33 4.23997 48.65 3.89997 47.87C3.66997 47.23 3.33997 46.64 2.96997 46.07C2.71997 45.59 2.50997 45.08 2.32997 44.57C2.09997 43.83 1.87997 43.08 1.52997 42.39C1.16997 41.35 0.899972 40.27 0.689972 39.2C0.629972 38.55 0.499972 37.91 0.349972 37.28L0.329972 37.18C0.289972 36.65 0.239972 36.13 0.119972 35.61C0.0899715 35.43 0.0599715 35.24 0.0499715 35.06C0.0499715 34.16 -2.84584e-05 33.26 0.0299715 32.36H0.0699715Z" fill="#4F5355"/>
</g>
<defs>
<clipPath id="clip0_538_2381">
<rect width="64.87" height="64.87" fill="white"/>
</clipPath>
</defs>
</svg>
