<svg width="69" height="65" viewBox="0 0 69 65" fill="none" xmlns="http://www.w3.org/2000/svg">
<g clip-path="url(#clip0_538_2504)">
<path d="M14.19 44.5C13.33 45.8 12.43 47.06 11.6 48.37C10.87 49.82 10.59 51.55 11.04 53.13C11.53 55.09 12.88 56.94 14.83 57.64C16.14 58.14 17.57 57.98 18.94 58.01C23.08 58.01 27.22 58.01 31.36 58.01C31.36 53.5 31.36 48.98 31.36 44.47C25.64 44.47 19.92 44.49 14.2 44.51M5.77001 22.22C6.92001 23.04 8.06001 23.87 9.20001 24.7C6.81001 28.25 4.44001 31.81 2.06001 35.37C0.710006 37.57 0.940006 40.59 2.49001 42.63C4.89001 45.84 7.27001 49.05 9.68001 52.24C9.56001 50.74 9.74001 49.17 10.52 47.86C11.53 46.29 12.66 44.79 13.62 43.19C16.15 39.37 18.66 35.54 21.19 31.72C22.24 32.48 23.32 33.21 24.38 33.95C22.34 30.24 20.3 26.55 18.25 22.85C14.09 22.67 9.93001 22.41 5.76001 22.21L5.77001 22.22ZM3.83001 20.94C8.88001 21.2 13.92 21.48 18.97 21.76C21.53 26.35 24.07 30.96 26.63 35.56C26.34 35.82 26.06 36.08 25.77 36.34C24.35 35.35 22.93 34.37 21.51 33.37C19.32 36.68 17.13 40 14.95 43.31C20.81 43.3 26.67 43.29 32.53 43.28C32.53 48.59 32.53 53.89 32.53 59.19C27.37 59.19 22.22 59.19 17.07 59.19C15.51 59.17 13.93 58.74 12.69 57.77C11.98 57.24 11.42 56.54 10.91 55.82C7.85001 51.73 4.79001 47.64 1.73001 43.55C-0.179993 41.21 -0.569993 37.7 0.900007 35.05C3.11001 31.68 5.38001 28.35 7.59001 24.98C6.21001 24 4.85001 22.99 3.47001 22.01C3.59001 21.65 3.72001 21.3 3.83001 20.94ZM36.71 51.28C38.83 54.88 40.95 58.47 43.08 62.06C43.13 60.72 43.2 59.38 43.23 58.04C47.42 57.97 51.61 58.03 55.81 58.01C57.76 58.12 59.53 56.92 60.74 55.48C61.74 54.33 62.11 52.82 62.63 51.42C63.73 48.34 64.81 45.25 65.93 42.18C65.16 42.76 64.33 43.28 63.4 43.58C62.49 43.9 61.51 43.95 60.55 43.93C54.52 43.94 48.5 43.95 42.47 43.97C42.47 42.69 42.51 41.4 42.51 40.12C40.55 43.83 38.66 47.57 36.7 51.29L36.71 51.28ZM48.37 28.94C51.22 33.54 54.09 38.14 56.95 42.74C58.49 42.74 60.03 42.76 61.57 42.75C62.57 42.75 63.54 42.37 64.38 41.85C66.15 40.73 67.47 38.82 67.68 36.71C67.82 35.31 67.29 33.94 66.56 32.76C64.26 29 61.96 25.22 59.64 21.46C55.89 23.96 52.13 26.45 48.38 28.94H48.37ZM46.78 28.6C51.18 25.65 55.59 22.73 59.99 19.78C62.45 23.82 64.93 27.85 67.4 31.88C67.98 32.79 68.51 33.76 68.71 34.83C69.02 36.29 68.74 37.81 68.22 39.18C66.47 44.1 64.73 49.02 62.97 53.94C62.25 55.91 60.67 57.49 58.84 58.46C58 58.91 57.06 59.19 56.11 59.19C52.2 59.19 48.28 59.19 44.37 59.19C44.31 60.83 44.22 62.47 44.17 64.11C43.81 64.2 43.45 64.3 43.08 64.36C40.57 60.12 38.07 55.87 35.55 51.63C35.49 51.5 35.34 51.35 35.46 51.21C37.85 46.58 40.26 41.98 42.63 37.34C43.01 37.41 43.38 37.5 43.76 37.62C43.71 39.34 43.69 41.07 43.67 42.8C47.65 42.8 51.62 42.74 55.59 42.74C52.65 38.03 49.75 33.31 46.79 28.61L46.78 28.6ZM32.14 1.16C33.04 1.74 33.85 2.47 34.45 3.36C35.06 4.22 35.41 5.21 35.85 6.16C37.82 10.63 39.81 15.08 41.77 19.55C40.53 19.95 39.29 20.39 38.05 20.79C42.22 21.41 46.41 21.96 50.58 22.55C53.26 19.35 55.93 16.15 58.61 12.96C57.28 13.35 55.96 13.77 54.63 14.17C53.07 10.97 51.48 7.78 49.93 4.57C48.81 2.5 46.5 1.15 44.15 1.17C40.15 1.17 36.14 1.17 32.14 1.17V1.16ZM24.24 2.39C23.52 2.94 23.04 3.71 22.49 4.41C20.11 7.58 17.72 10.75 15.34 13.92C18.96 16.61 22.56 19.33 26.16 22.03C29.41 17.74 32.63 13.44 35.9 9.16C35.31 7.77 34.66 6.4 34.05 5.02C33.14 2.96 31.1 1.49 28.89 1.16C27.26 0.88 25.52 1.33 24.24 2.37V2.39ZM25.21 0.47C26.2 0.09 27.26 0 28.31 0C33.69 0 39.06 0 44.43 0C47.15 0.03 49.72 1.7 50.99 4.08C52.38 6.99 53.82 9.87 55.22 12.77C56.87 12.25 58.52 11.75 60.17 11.23C60.38 11.54 60.59 11.86 60.79 12.18C57.54 16.04 54.31 19.92 51.06 23.78C45.85 23.04 40.64 22.32 35.43 21.6C35.39 21.23 35.35 20.86 35.31 20.49C36.93 19.93 38.56 19.38 40.19 18.84C38.95 16.01 37.69 13.2 36.44 10.38C33.07 14.8 29.74 19.25 26.37 23.66C22.17 20.48 17.94 17.33 13.72 14.17C16.58 10.26 19.54 6.44 22.43 2.56C23.15 1.63 24.12 0.89 25.21 0.45V0.47Z" fill="#0C0F0A"/>
<path fill-rule="evenodd" clip-rule="evenodd" d="M37.8301 20.0701H47.1601V23.8601H44.6401V29.8801H40.3601V23.8601H38.4601V26.2601H38.8801V29.8801H30.3201V25.3901C30.1801 25.6001 30.0201 25.8001 29.8301 25.9901C29.0601 26.7101 28.0001 26.9201 26.9901 26.9201H26.5401V29.8901H22.2501V20.0801H27.2701C28.2201 20.0801 29.2001 20.2901 29.9001 20.9701C30.0701 21.1301 30.2101 21.3001 30.3301 21.4901V20.0801H37.8501L37.8301 20.0701ZM63.1901 36.3201V38.8601C63.3401 38.8601 63.5001 38.8401 63.5701 38.8001C63.5701 38.8001 63.6601 38.6801 63.6701 38.6401C63.7701 38.4001 63.7801 37.8601 63.7801 37.6101C63.7801 37.3801 63.7501 36.6501 63.6001 36.4701C63.5201 36.3801 63.3501 36.3401 63.1901 36.3201ZM40.1401 37.4201L39.9101 36.7001C39.8901 36.6301 39.8501 36.4901 39.8001 36.4301C39.7501 36.3601 39.6901 36.3001 39.6101 36.2701C39.5301 36.2301 39.4401 36.2201 39.3501 36.2201C39.1101 36.2201 38.9501 36.2801 38.8201 36.4901C38.6601 36.7401 38.6301 37.2901 38.6301 37.5701C38.6301 37.8301 38.6601 38.6101 38.8301 38.8201C38.9401 38.9601 39.1001 38.9801 39.2701 38.9801C39.3801 38.9801 39.5901 38.9701 39.6801 38.8801C39.8501 38.7001 39.9401 38.3701 39.9901 38.1401L40.1501 37.4301L40.1401 37.4201ZM23.4201 37.4201L23.1901 36.7001C23.1701 36.6301 23.1301 36.4901 23.0801 36.4301C23.0301 36.3601 22.9701 36.3001 22.8901 36.2701C22.8101 36.2301 22.7201 36.2201 22.6301 36.2201C22.3901 36.2201 22.2301 36.2801 22.1001 36.4901C21.9401 36.7401 21.9101 37.2901 21.9101 37.5701C21.9101 37.8301 21.9401 38.6101 22.1101 38.8201C22.2201 38.9601 22.3701 38.9801 22.5401 38.9801C22.6501 38.9801 22.8601 38.9701 22.9501 38.8801C23.1101 38.7001 23.2101 38.3701 23.2601 38.1401L23.4101 37.4301L23.4201 37.4201ZM9.84005 37.3601C9.84005 37.3601 9.82005 37.4001 9.81005 37.4201C9.63005 37.7301 9.40005 37.9901 9.13005 38.2201C9.29005 38.4201 9.46005 38.6401 9.57005 38.8601L9.84005 39.3901V37.3601ZM43.3401 36.7901L40.8001 37.3601L43.3401 38.1301V36.7901ZM58.9001 32.6801H63.4801C64.1901 32.6801 64.9401 32.7601 65.6001 33.0501C66.1701 33.3101 66.6601 33.6801 67.0501 34.1701C67.4301 34.6501 67.6901 35.1901 67.8501 35.7801C68.0101 36.3601 68.0801 36.9601 68.0801 37.5601C68.0801 38.3201 68.0101 39.1901 67.7201 39.8901C67.4901 40.4601 67.1401 40.9801 66.6801 41.3901C66.2501 41.7901 65.7501 42.0901 65.1901 42.2401C64.6301 42.3901 64.0601 42.4901 63.4801 42.4901H43.3301V40.6501C43.2501 40.7801 43.1601 40.9101 43.0701 41.0401C42.6701 41.5701 42.1601 41.9701 41.5601 42.2401C40.9001 42.5401 40.1401 42.6301 39.4201 42.6301C38.5801 42.6301 37.6801 42.5201 36.9101 42.1701C36.1301 41.8101 35.5401 41.2101 35.0901 40.4901C34.5401 39.6101 34.3501 38.5901 34.3501 37.5601C34.3501 37.2801 34.3601 37.0101 34.3901 36.7301L33.2101 38.5001V42.4801H28.9301V38.5001L27.1901 35.9101L27.4201 36.5901L24.0801 37.3301L27.4101 38.3401L27.2101 39.1701C27.0501 39.8401 26.7801 40.4801 26.3601 41.0301C25.9601 41.5601 25.4501 41.9601 24.8501 42.2301C24.1801 42.5301 23.4301 42.6201 22.7101 42.6201C21.8701 42.6201 20.9701 42.5101 20.2001 42.1601C19.4401 41.8101 18.8601 41.2201 18.4101 40.5301V42.4801H6.62005L5.47005 40.3501V42.4801H1.18005V32.6701H6.21005C6.86005 32.6701 7.62005 32.7101 8.24005 32.9101C8.84005 33.1001 9.32005 33.4701 9.68005 33.9801C9.74005 34.0601 9.79005 34.1501 9.84005 34.2401V32.6701H18.2801V34.7601C18.4601 34.4401 18.6801 34.1401 18.9501 33.8701C19.9201 32.8901 21.2301 32.5301 22.5801 32.5301C23.5701 32.5301 24.5901 32.7101 25.4201 33.2701L25.0201 32.6701H29.9801L31.0801 34.5101L32.1801 32.6701H37.1201L36.8801 33.0201C37.6201 32.6701 38.4501 32.5301 39.3001 32.5301C40.3101 32.5301 41.3601 32.7101 42.2001 33.3101C42.6801 33.6401 43.0501 34.0701 43.3401 34.5601V32.6701H47.6201V38.7001H50.7901V32.6701H58.9001V32.6801Z" fill="white"/>
<path d="M62.28 35.4V39.77H62.89C63.41 39.77 63.77 39.72 63.99 39.6C64.21 39.49 64.38 39.29 64.51 39C64.63 38.72 64.69 38.25 64.69 37.61C64.69 36.76 64.55 36.18 64.28 35.87C64 35.56 63.55 35.4 62.9 35.4H62.28ZM59.81 33.59H63.49C64.21 33.59 64.8 33.69 65.24 33.88C65.69 34.08 66.05 34.36 66.35 34.73C66.64 35.1 66.85 35.53 66.98 36.01C67.11 36.5 67.18 37.02 67.18 37.56C67.18 38.41 67.08 39.08 66.89 39.55C66.7 40.02 66.43 40.42 66.08 40.73C65.73 41.05 65.36 41.26 64.97 41.37C64.43 41.51 63.93 41.59 63.49 41.59H59.81V33.59ZM51.7 33.59H58.33V35.3H54.18V36.57H58.03V38.2H54.18V39.78H58.45V41.59H51.7V33.59ZM44.24 33.59H46.72V39.62H50.58V41.59H44.24V33.59ZM40.88 38.32L43.05 38.98C42.9 39.59 42.67 40.09 42.36 40.5C42.05 40.91 41.66 41.21 41.19 41.42C40.73 41.63 40.13 41.73 39.42 41.73C38.55 41.73 37.84 41.6 37.29 41.35C36.74 41.1 36.26 40.65 35.86 40.02C35.46 39.38 35.26 38.57 35.26 37.58C35.26 36.25 35.61 35.23 36.32 34.52C37.02 33.81 38.02 33.45 39.31 33.45C40.32 33.45 41.11 33.65 41.69 34.06C42.27 34.47 42.7 35.09 42.98 35.94L40.79 36.43C40.71 36.18 40.63 36.01 40.55 35.89C40.41 35.7 40.24 35.56 40.04 35.46C39.84 35.36 39.61 35.31 39.37 35.31C38.81 35.31 38.38 35.54 38.08 35.99C37.85 36.33 37.74 36.85 37.74 37.57C37.74 38.46 37.87 39.06 38.14 39.4C38.41 39.73 38.79 39.89 39.27 39.89C39.75 39.89 40.1 39.76 40.34 39.49C40.58 39.23 40.76 38.84 40.87 38.33L40.88 38.32ZM26.71 33.59H29.46L31.07 36.29L32.69 33.59H35.42L32.31 38.24V41.59H29.83V38.24L26.71 33.59ZM24.15 38.32L26.32 38.98C26.18 39.59 25.95 40.09 25.63 40.5C25.32 40.91 24.93 41.21 24.46 41.42C24 41.63 23.41 41.73 22.69 41.73C21.82 41.73 21.11 41.6 20.56 41.35C20.01 41.1 19.53 40.65 19.13 40.02C18.73 39.38 18.53 38.57 18.53 37.58C18.53 36.25 18.88 35.23 19.59 34.52C20.3 33.81 21.29 33.45 22.58 33.45C23.59 33.45 24.38 33.65 24.96 34.06C25.54 34.47 25.96 35.09 26.24 35.94L24.06 36.43C23.98 36.18 23.9 36.01 23.82 35.89C23.68 35.7 23.51 35.56 23.31 35.46C23.11 35.36 22.88 35.31 22.64 35.31C22.08 35.31 21.65 35.54 21.35 35.99C21.12 36.33 21.01 36.85 21.01 37.57C21.01 38.46 21.15 39.06 21.41 39.4C21.68 39.73 22.06 39.89 22.55 39.89C23.04 39.89 23.38 39.76 23.62 39.49C23.86 39.23 24.04 38.84 24.15 38.33V38.32ZM10.74 33.59H17.37V35.3H13.22V36.57H17.07V38.2H13.22V39.78H17.49V41.59H10.74V33.59ZM4.56997 36.83H5.60997C5.71997 36.83 5.93997 36.79 6.25997 36.72C6.41997 36.69 6.55997 36.6 6.65997 36.47C6.75997 36.34 6.80997 36.18 6.80997 36.01C6.80997 35.75 6.72997 35.55 6.55997 35.42C6.39997 35.28 6.08997 35.21 5.63997 35.21H4.54997V36.84L4.56997 36.83ZM2.08997 41.59V33.59H6.20997C6.96997 33.59 7.55997 33.65 7.95997 33.79C8.35997 33.92 8.68997 34.16 8.93997 34.52C9.18997 34.87 9.30997 35.31 9.30997 35.81C9.30997 36.26 9.20997 36.64 9.02997 36.96C8.83997 37.28 8.57997 37.54 8.24997 37.75C8.03997 37.88 7.74997 37.98 7.37997 38.06C7.66997 38.16 7.88997 38.26 8.01997 38.36C8.10997 38.42 8.23997 38.56 8.41997 38.78C8.58997 39 8.70997 39.16 8.76997 39.28L9.96997 41.6H7.17997L5.85997 39.15C5.68997 38.84 5.54997 38.63 5.40997 38.53C5.22997 38.41 5.02997 38.34 4.80997 38.34H4.58997V41.59H2.10997H2.08997ZM38.74 20.98H46.26V22.96H43.73V28.99H41.26V22.96H38.74V20.98ZM31.22 20.98H37.85V22.69H33.7V23.96H37.55V25.59H33.7V27.17H37.97V28.99H31.22V20.99V20.98ZM25.62 24.39H26.23C26.71 24.39 27.04 24.31 27.24 24.14C27.43 23.97 27.53 23.76 27.53 23.51C27.53 23.26 27.45 23.04 27.28 22.87C27.11 22.69 26.8 22.61 26.34 22.61H25.63V24.39H25.62ZM23.14 20.98H27.25C28.14 20.98 28.82 21.19 29.26 21.62C29.71 22.04 29.93 22.65 29.93 23.44C29.93 24.23 29.69 24.88 29.2 25.34C28.71 25.79 27.97 26.02 26.98 26.02H25.63V28.99H23.15V20.99L23.14 20.98Z" fill="#1A1A18"/>
</g>
<defs>
<clipPath id="clip0_538_2504">
<rect width="68.84" height="64.36" fill="white"/>
</clipPath>
</defs>
</svg>
