<svg width="101" height="37" viewBox="0 0 101 37" fill="none" xmlns="http://www.w3.org/2000/svg">
<g clip-path="url(#clip0_538_2431)">
<path d="M15.38 18.13C15.92 18.13 16.46 18.13 17 18.13C17.61 19.64 18.23 21.15 18.83 22.67L20.47 26.67L23.76 18.39C23.81 18.3 23.83 18.14 23.95 18.14C24.46 18.14 24.97 18.14 25.49 18.14C24.88 19.74 24.18 21.31 23.55 22.9C22.56 25.29 21.58 27.68 20.6 30.07C20.57 30.16 20.54 30.25 20.51 30.34C20.46 30.34 20.41 30.34 20.36 30.34C20.26 29.91 20.05 29.52 19.88 29.12C18.47 25.7 17.06 22.29 15.65 18.87C15.55 18.63 15.42 18.41 15.37 18.15M31.11 18.09C33.17 18.09 35.24 18.09 37.3 18.09C37.35 18.55 37.31 19.02 37.32 19.49C35.72 19.49 34.13 19.49 32.53 19.49C32.52 20.56 32.53 21.64 32.53 22.71C34.08 22.71 35.63 22.71 37.18 22.71C37.18 23.16 37.18 23.61 37.18 24.06C35.63 24.06 34.08 24.06 32.53 24.06C32.53 25.51 32.53 26.96 32.53 28.4C34.13 28.4 35.72 28.4 37.32 28.4C37.32 28.85 37.32 29.3 37.32 29.75H31.15L31.1 18.06L31.11 18.09ZM43.44 21.45C44.28 19.56 46.15 18.17 48.21 17.93C49.76 17.74 51.43 18.18 52.66 19.15C53.03 19.43 53.35 19.77 53.67 20.12C53.67 20.14 53.67 20.19 53.67 20.21C53.35 20.5 53.03 20.79 52.73 21.1C52.7 21.1 52.63 21.1 52.59 21.09C51.49 19.65 49.56 18.95 47.79 19.42C45.98 19.89 44.57 21.59 44.44 23.46C44.44 24.02 44.38 24.61 44.57 25.15C44.58 25.22 44.6 25.29 44.61 25.37C44.99 26.39 45.63 27.34 46.56 27.94C46.99 28.23 47.48 28.44 47.99 28.55C50.11 29.09 52.49 27.45 52.69 25.27C51.68 25.26 50.67 25.27 49.66 25.27C49.66 24.84 49.66 24.4 49.66 23.97C51.21 23.97 52.77 23.97 54.33 23.97C54.33 24.37 54.34 24.77 54.26 25.17C54.13 26.51 53.5 27.81 52.48 28.71C52.06 29.08 51.57 29.37 51.06 29.61C49.86 30.1 48.49 30.2 47.24 29.83C45.11 29.21 43.43 27.32 43.02 25.15C42.84 24.33 42.9 23.48 43.02 22.65C43.17 22.26 43.27 21.84 43.45 21.46L43.44 21.45ZM64.55 20.97L62.59 25.47H66.6L64.64 20.95L64.54 20.97H64.55ZM64.55 17.72L64.66 17.69L70.18 29.76H68.57L67.28 26.85H62L60.69 29.75H59.06L64.56 17.71L64.55 17.72ZM75.57 17.63L75.69 17.66L84.24 26.66V18.14H85.78V30.2L85.62 30.18L84.24 28.71L77.19 21.3L76.98 21.2L76.96 29.78H75.56V17.62L75.57 17.63ZM31.32 10.09C31.68 10.01 32.05 10.06 32.42 10.04C32.57 10.04 32.77 10.02 32.86 10.17C32.88 10.38 32.86 10.59 32.86 10.8C32.33 10.82 31.8 10.83 31.27 10.8C31.27 10.56 31.26 10.32 31.32 10.09ZM83.12 8.67998C83.12 9.64998 83.12 10.63 83.12 11.6C83.39 11.61 83.67 11.56 83.93 11.5C84.33 11.32 84.65 10.93 84.68 10.48C84.7 9.99998 84.74 9.42998 84.36 9.05998C84.05 8.69998 83.55 8.64998 83.11 8.66998L83.12 8.67998ZM82.2 7.89998C82.8 7.89998 83.41 7.87998 84.01 7.91998C85.02 8.10998 85.75 9.13998 85.67 10.15C85.75 11.26 84.84 12.32 83.73 12.43C83.22 12.45 82.71 12.43 82.2 12.43C82.19 10.92 82.2 9.40998 82.2 7.89998ZM69.01 7.91998L69.96 7.84998L70.2 8.40998L70.6 9.50998L70.67 9.71998L71.03 10.72L71.11 10.79L71.32 10.15L72.07 7.85998H73.04V8.01998L72.3 9.92998L71.32 12.56H70.75L69.01 7.92998V7.91998ZM56.33 8.60998C56.33 9.03998 56.33 9.47998 56.33 9.90998C56.6 9.90998 56.88 9.89998 57.09 9.70998C57.2 9.47998 57.23 9.21998 57.17 8.96998C57.03 8.63998 56.64 8.58998 56.33 8.59998V8.60998ZM55.4 8.93998C55.46 8.57998 55.3 8.19998 55.43 7.84998C56.1 7.88998 56.81 7.75998 57.45 8.01998C58.09 8.28998 58.24 9.11998 58.05 9.71998C57.95 10.09 57.65 10.41 57.26 10.49C57.26 10.52 57.26 10.57 57.26 10.6C57.67 11.15 58.01 11.76 58.44 12.3C58.44 12.33 58.44 12.4 58.45 12.44C58.09 12.44 57.72 12.44 57.36 12.43C57.03 11.85 56.68 11.27 56.33 10.7C56.3 11.28 56.33 11.85 56.32 12.43C56.02 12.44 55.72 12.43 55.42 12.44C55.35 12.05 55.37 11.65 55.41 11.26C55.41 10.49 55.41 9.70998 55.41 8.93998H55.4ZM50.13 8.66998C50.14 9.09998 50.13 9.52998 50.14 9.94998C50.47 9.94998 50.92 9.92998 51.04 9.55998C51.09 9.30998 51.12 8.99998 50.93 8.79998C50.76 8.63998 50.4 8.64998 50.13 8.65998V8.66998ZM49.22 12.42C49.21 10.9 49.21 9.36998 49.22 7.84998C49.89 7.87998 50.59 7.76998 51.25 7.97998C51.77 8.14998 52.04 8.69998 52.04 9.21998C52.06 9.74998 51.85 10.35 51.32 10.57C50.95 10.77 50.53 10.73 50.14 10.73C50.14 11.29 50.14 11.85 50.14 12.41C49.84 12.41 49.53 12.41 49.23 12.41L49.22 12.42ZM43.95 8.62998C43.95 9.06998 43.95 9.50998 43.95 9.94998C44.23 9.97998 44.6 9.96998 44.76 9.78998C45 9.52998 44.93 8.95998 44.77 8.77998C44.62 8.60998 44.31 8.59998 43.95 8.61998V8.62998ZM43.03 7.92998C43.03 7.92998 43.09 7.86998 43.11 7.84998C43.72 7.84998 44.35 7.79998 44.95 7.92998C45.39 8.03998 45.74 8.41998 45.81 8.86998C45.91 9.41998 45.83 10.09 45.34 10.44C44.94 10.74 44.42 10.73 43.94 10.72C43.94 11.28 43.94 11.84 43.94 12.41C43.66 12.41 43.38 12.42 43.1 12.41C43.08 12.39 43.05 12.35 43.03 12.33C43.03 10.86 43.03 9.38998 43.03 7.91998V7.92998ZM76.24 7.85998H78.68V8.66998H77.21V9.59998H78.61V10.43H77.21V11.59H78.68V12.41H76.25V7.85998H76.24ZM26.51 10.66H27.02V9.55998L26.51 10.66ZM25.59 10.13L26.71 7.78998H28.08V12.37H27.02L27.01 11.61H26.07L25.71 12.41H24.49L25.58 10.13H25.59ZM22.88 7.77998L25.95 7.75998L25.66 8.81998L24.65 8.83998L23.66 12.41H22.49L23.44 8.82998H22.56L22.87 7.77998H22.88ZM21.17 8.04998C20.89 8.26998 20.69 8.56998 20.53 8.87998C20.38 9.18998 20.21 9.48998 20.15 9.83998C20.53 9.67998 20.97 9.64998 21.29 9.36998C21.51 9.19998 21.71 8.98998 21.81 8.72998C21.87 8.56998 21.88 8.37998 21.82 8.20998C21.79 8.10998 21.69 8.01998 21.59 7.97998C21.46 7.93998 21.3 7.94998 21.18 8.03998L21.17 8.04998ZM20.29 8.36998C20.54 8.09998 20.88 7.93998 21.2 7.77998C21.36 7.70998 21.74 7.69998 21.92 7.77998C22.13 7.90998 22.37 8.03998 22.44 8.28998C22.5 8.69998 22.33 9.11998 22.01 9.37998C21.44 9.89998 20.63 9.93998 19.93 10.19C19.87 10.58 19.77 10.99 19.89 11.39C20.09 12.36 21.22 11.71 21.61 11.07C21.67 11.07 21.74 11.07 21.81 11.07C21.81 11.1 21.81 11.17 21.81 11.21C21.38 11.76 20.92 12.42 20.17 12.55C19.71 12.65 19.32 12.29 19.15 11.9C18.83 10.62 19.4 9.26998 20.3 8.36998H20.29ZM17.41 8.86998C17.33 9.20998 17.23 9.54998 17.15 9.88998C17.4 9.88998 17.68 9.88998 17.87 9.68998C18.09 9.51998 18.08 9.32998 18.17 9.08998C18.22 8.83998 18.01 8.76998 17.77 8.78998C17.64 8.78998 17.47 8.78998 17.41 8.86998ZM16.6 7.77998C17.22 7.79998 17.84 7.75998 18.46 7.78998C18.74 7.81998 18.92 7.98998 19.07 8.18998C19.3 8.47998 19.36 8.86998 19.32 9.22998C19.19 9.62998 19.09 10.07 18.76 10.37C18.26 10.84 17.53 10.92 16.87 10.86L16.42 12.42H15.37L16.59 7.77998H16.6ZM63.55 8.66998C62.75 8.81998 62.32 9.74998 62.52 10.5C62.6 10.95 62.88 11.4 63.33 11.55C63.82 11.77 64.43 11.58 64.75 11.17C65.2 10.54 65.22 9.55998 64.64 8.99998C64.36 8.71998 63.94 8.56998 63.55 8.66998ZM62.8 7.93998C63.78 7.45998 65.11 7.78998 65.67 8.74998C66.06 9.34998 66.09 10.1 65.97 10.78C65.84 11.34 65.53 11.88 65.03 12.19C64.09 12.84 62.64 12.62 61.98 11.67C61.54 11.07 61.46 10.29 61.57 9.57998C61.7 8.88998 62.14 8.23998 62.79 7.94998L62.8 7.93998ZM37.62 9.19998C37.56 9.72998 37.31 10.2 37.23 10.73C37.55 10.73 37.87 10.73 38.19 10.73C38.11 10.2 37.86 9.71998 37.73 9.19998C37.71 9.19998 37.65 9.19998 37.63 9.19998H37.62ZM37.35 7.71998C37.59 7.70998 37.83 7.70998 38.07 7.71998C38.37 8.35998 38.56 9.04998 38.82 9.70998C39.11 10.5 39.4 11.29 39.71 12.08C39.76 12.2 39.78 12.32 39.8 12.44C39.47 12.44 39.14 12.44 38.81 12.44C38.81 12.4 38.78 12.31 38.77 12.27C38.66 12.02 38.57 11.77 38.49 11.52C37.96 11.52 37.44 11.5 36.91 11.52C36.82 11.83 36.67 12.12 36.57 12.43C36.24 12.44 35.92 12.43 35.6 12.43C35.71 11.96 35.95 11.52 36.1 11.06C36.25 10.65 36.41 10.26 36.55 9.84998C36.6 9.70998 36.66 9.56998 36.71 9.42998C36.91 8.85998 37.15 8.29998 37.34 7.72998L37.35 7.71998ZM93.3 -1.95317e-05C93.88 -0.0200195 94.44 0.11998 95 0.23998C95.84 0.44998 96.63 0.87998 97.22 1.49998C97.97 2.27998 98.32 3.34998 98.48 4.39998C98.54 5.58998 98.64 6.76998 98.62 7.95998C98.62 10.14 98.6 12.33 98.64 14.51C98.74 15.58 98.94 16.7 99.64 17.55C99.99 17.98 100.51 18.21 100.99 18.44V18.68C100.5 18.88 99.96 19.04 99.61 19.46C99.09 20.04 98.86 20.81 98.76 21.57C98.7 22.13 98.61 22.68 98.63 23.24C98.63 25.54 98.63 27.84 98.63 30.14C98.66 30.91 98.56 31.68 98.47 32.45C98.31 33.53 97.96 34.64 97.2 35.46C96.68 36.01 96.07 36.52 95.32 36.72C94.82 36.84 94.32 36.9 93.82 36.98H93.22C93.31 36.87 93.4 36.74 93.55 36.71C94.14 36.56 94.72 36.31 95.22 35.96C95.75 35.61 96.12 35.06 96.35 34.47C96.59 33.85 96.62 33.19 96.7 32.54C96.7 32.07 96.75 31.6 96.78 31.13C96.8 28.99 96.78 26.86 96.78 24.72C96.8 24.08 96.75 23.44 96.85 22.81C96.94 22.13 96.97 21.44 97.13 20.77C97.3 20.07 97.75 19.46 98.31 19.02C98.63 18.77 99.04 18.7 99.37 18.47C98.8 18.27 98.23 17.97 97.86 17.48C97.38 16.93 97.03 16.24 96.91 15.51C96.83 14.89 96.76 14.27 96.79 13.65C96.8 13.16 96.79 12.66 96.73 12.17C96.71 9.69998 96.75 7.22998 96.7 4.75998C96.6 3.97998 96.59 3.15998 96.23 2.42998C95.97 1.84998 95.54 1.35998 95.04 0.95998C94.57 0.61998 94.02 0.44998 93.48 0.25998C93.34 0.22998 93.31 0.10998 93.29 -0.0200195L93.3 -1.95317e-05ZM6.34 0.15998C6.79 0.0799805 7.24 -0.0300195 7.71 0.00998047C7.71 0.0499805 7.71 0.12998 7.71 0.16998C7.14 0.44998 6.49 0.57998 5.95 0.92998C5.23 1.43998 4.68 2.20998 4.49 3.06998C4.39 3.42998 4.4 3.80998 4.33 4.16998C4.21 4.75998 4.3 5.36998 4.23 5.96998C4.17 6.38998 4.2 6.81998 4.2 7.23998C4.2 9.41998 4.2 11.61 4.19 13.79C4.05 14.84 4.12 15.96 3.6 16.91C3.2 17.64 2.55 18.32 1.68 18.45C1.67 18.5 1.66 18.55 1.65 18.6C2.13 18.73 2.59 18.96 2.96 19.3C3.58 19.92 4 20.75 4.11 21.62C4.27 22.44 4.15 23.27 4.21 24.1C4.3 24.73 4.26 25.36 4.27 25.99C4.27 28.08 4.27 30.17 4.28 32.26C4.28 32.6 4.37 32.93 4.4 33.27C4.51 34.17 4.89 35.04 5.53 35.69C6.04 36.23 6.76 36.52 7.47 36.72C7.62 36.74 7.69 36.87 7.75 36.99H7.14C6.76 36.93 6.38 36.87 5.99 36.8C5.08 36.64 4.29 36.09 3.65 35.44C3.08 34.88 2.81 34.1 2.63 33.33C2.45 32.59 2.4 31.83 2.41 31.07C2.33 30.41 2.36 29.75 2.36 29.09C2.36 26.95 2.36 24.81 2.34 22.68C2.31 22.35 2.27 22.03 2.24 21.7C2.19 21.01 1.97 20.34 1.58 19.77C1.22 19.22 0.66 18.81 0.03 18.63C0.01 18.53 0.01 18.42 0 18.32C0.62 18.2 1.23 17.89 1.57 17.34C2.2 16.43 2.27 15.29 2.28 14.22C2.37 13.5 2.34 12.77 2.35 12.05C2.35 10.12 2.35 8.19998 2.35 6.26998C2.42 5.24998 2.52 4.22998 2.78 3.23998C3.09 2.24998 3.8 1.41998 4.64 0.82998C5.14 0.46998 5.74 0.27998 6.34 0.16998V0.15998Z" fill="black"/>
</g>
<defs>
<clipPath id="clip0_538_2431">
<rect width="100.99" height="36.99" fill="white"/>
</clipPath>
</defs>
</svg>
