<svg width="49" height="49" viewBox="0 0 49 49" fill="none" xmlns="http://www.w3.org/2000/svg">
<g clip-path="url(#clip0_538_2434)">
<path d="M40.87 40.87C45.14 36.6 47.78 30.7 47.78 24.18C47.78 17.66 45.14 11.76 40.87 7.49C36.6 3.23 30.7 0.58 24.18 0.58C17.66 0.58 11.77 3.23 7.5 7.5C3.23 11.77 0.58 17.67 0.58 24.18C0.58 30.69 3.22 36.6 7.49 40.87C11.76 45.14 17.66 47.78 24.18 47.78C30.7 47.78 36.6 45.14 40.87 40.87ZM48.37 24.18C48.37 30.86 45.66 36.9 41.29 41.28C36.91 45.66 30.87 48.36 24.19 48.36C17.51 48.36 11.47 45.65 7.09 41.28C2.71 36.91 0 30.86 0 24.18C0 17.5 2.71 11.46 7.08 7.08C11.46 2.71 17.51 0 24.18 0C30.85 0 36.9 2.71 41.28 7.08C45.66 11.46 48.36 17.5 48.36 24.18H48.37Z" fill="#00969E"/>
<path fill-rule="evenodd" clip-rule="evenodd" d="M24.18 39.9501C15.55 39.9501 8.56 32.9601 8.56 24.3301H0C0 37.5301 10.95 48.3701 24.14 48.3701C37.33 48.3701 48.37 37.5301 48.37 24.3301H39.81C39.81 32.9601 32.82 39.9501 24.19 39.9501" fill="#1A1A18"/>
<path fill-rule="evenodd" clip-rule="evenodd" d="M4.36004 21.3999L3.30004 21.1799L3.38004 20.8199C3.45004 20.4799 3.54004 20.2399 3.66004 20.1199C3.78004 19.9899 3.92004 19.9499 4.11004 19.9999C4.30004 20.0399 4.43004 20.1399 4.48004 20.2999C4.53004 20.4599 4.53004 20.6699 4.47004 20.9399L4.37004 21.4099L4.36004 21.3999ZM6.54004 22.8299L6.74004 21.8999L5.06004 21.5399L5.15004 21.1199L7.05004 20.3999L7.28004 19.3299L5.23004 20.1399C5.20004 19.8399 5.09004 19.5899 4.92004 19.3999C4.75004 19.2099 4.52004 19.0899 4.24004 19.0299C3.90004 18.9599 3.63004 18.9899 3.40004 19.1199C3.18004 19.2499 3.00004 19.4399 2.87004 19.6999C2.74004 19.9599 2.64004 20.2499 2.57004 20.5799L2.29004 21.9099L6.53004 22.8099L6.54004 22.8299Z" fill="#00969E"/>
<path fill-rule="evenodd" clip-rule="evenodd" d="M7.35003 19.29L8.29003 16.71L7.51003 16.43L6.90003 18.11L5.93003 17.76L6.44003 16.36L5.69003 16.09L5.18003 17.49L4.39003 17.2L4.98003 15.58L4.19003 15.29L3.28003 17.81L7.35003 19.29Z" fill="#00969E"/>
<path fill-rule="evenodd" clip-rule="evenodd" d="M6.45004 15.54C6.82004 15.74 7.20004 15.84 7.59004 15.83C7.98004 15.82 8.34004 15.71 8.68004 15.49C9.02004 15.28 9.31004 14.96 9.54004 14.56C9.65004 14.37 9.73004 14.17 9.80004 13.95C9.87004 13.74 9.90004 13.52 9.91004 13.31L9.06004 12.84C9.08004 13.06 9.07004 13.27 9.03004 13.49C8.99004 13.71 8.92004 13.91 8.81004 14.11C8.58004 14.5 8.30004 14.74 7.94004 14.84C7.59004 14.94 7.24004 14.89 6.89004 14.71C6.54004 14.51 6.32004 14.24 6.22004 13.89C6.12004 13.54 6.17004 13.18 6.37004 12.81C6.48004 12.62 6.62004 12.44 6.78004 12.3C6.94004 12.15 7.11004 12.04 7.28004 11.95L6.44004 11.48C6.28004 11.59 6.13004 11.72 5.99004 11.88C5.85004 12.04 5.73004 12.21 5.62004 12.4C5.40004 12.81 5.29004 13.22 5.29004 13.62C5.29004 14.02 5.39004 14.39 5.59004 14.73C5.79004 15.07 6.07004 15.34 6.44004 15.55" fill="#00969E"/>
<path fill-rule="evenodd" clip-rule="evenodd" d="M11.02 12.29L11.63 11.56L10.13 10.3L9.38 7.51001L8.69 8.33001L8.95 9.23001C9.04 9.54001 9.14 9.85001 9.23 10.14C9.07 10.13 8.91 10.11 8.75 10.09C8.59 10.07 8.43 10.05 8.28 10.04L7.34 9.94001L6.63 10.79L9.52001 11.04L11.02 12.3V12.29Z" fill="#00969E"/>
<path fill-rule="evenodd" clip-rule="evenodd" d="M11.07 8.86995C11.32 9.20995 11.63 9.45995 11.98 9.60995C12.34 9.75995 12.71 9.81995 13.11 9.76995C13.51 9.71995 13.9 9.55995 14.28 9.28995C14.46 9.15995 14.62 9.00995 14.77 8.84995C14.92 8.67995 15.04 8.49995 15.14 8.30995L14.57 7.52995C14.5 7.73995 14.4 7.92995 14.27 8.10995C14.14 8.28995 13.99 8.43995 13.81 8.57995C13.44 8.83995 13.08 8.93995 12.72 8.87995C12.36 8.81995 12.06 8.62995 11.83 8.31995C11.6 7.98995 11.51 7.64995 11.57 7.29995C11.63 6.94995 11.83 6.63995 12.17 6.37995C12.35 6.24995 12.55 6.14995 12.76 6.08995C12.97 6.02995 13.17 5.98995 13.36 5.97995L12.79 5.19995C12.6 5.22995 12.41 5.28995 12.22 5.36995C12.03 5.44995 11.84 5.55995 11.66 5.68995C11.28 5.96995 11.01 6.28995 10.84 6.65995C10.67 7.02995 10.6 7.39995 10.64 7.78995C10.68 8.17995 10.82 8.53995 11.07 8.88995" fill="#00969E"/>
<path fill-rule="evenodd" clip-rule="evenodd" d="M15.45 8.40004L18.08 7.28004L17.75 6.52004L16 7.26004L14.63 4.04004L13.76 4.41004L15.45 8.40004Z" fill="#00969E"/>
<path fill-rule="evenodd" clip-rule="evenodd" d="M18.18 7.22993L20.86 6.65993L20.68 5.83993L18.93 6.21993L18.72 5.20993L20.17 4.89993L20.01 4.12993L18.55 4.42993L18.38 3.59993L20.06 3.23993L19.89 2.42993L17.27 2.98993L18.18 7.22993Z" fill="#00969E"/>
<path fill-rule="evenodd" clip-rule="evenodd" d="M22.05 5.6899L21.96 3.0199H22.22C22.46 2.9999 22.69 3.0099 22.89 3.0399C23.09 3.0699 23.27 3.1299 23.43 3.2299C23.6 3.3399 23.73 3.4799 23.82 3.6599C23.91 3.8399 23.96 4.0399 23.97 4.2699C23.99 4.6999 23.87 5.0399 23.6 5.2799C23.34 5.5199 22.91 5.6499 22.31 5.6699H22.05V5.6899ZM21.13 6.5599L22.3 6.5199C23.22 6.4799 23.9 6.2599 24.32 5.8599C24.74 5.4599 24.94 4.9199 24.92 4.2499C24.89 3.5499 24.65 3.0299 24.18 2.6699C23.72 2.3199 23.05 2.1499 22.19 2.1799L20.98 2.2199L21.13 6.5499V6.5599Z" fill="#00969E"/>
<path fill-rule="evenodd" clip-rule="evenodd" d="M27.63 5.99988L27.83 4.94988L28.39 5.05988C28.64 5.10988 28.81 5.18988 28.93 5.29988C29.04 5.40988 29.08 5.55988 29.05 5.72988C29.02 5.91988 28.93 6.03988 28.78 6.09988C28.63 6.15988 28.36 6.14988 27.98 6.06988L27.63 5.99988ZM27.96 4.30988L28.15 3.34988L28.44 3.40988C28.76 3.46988 28.98 3.54988 29.09 3.65988C29.2 3.75988 29.24 3.89988 29.2 4.05988C29.16 4.22988 29.08 4.33988 28.95 4.38988C28.82 4.43988 28.65 4.44988 28.46 4.40988L27.97 4.30988H27.96ZM26.54 6.61988L27.8 6.86988C28.45 6.98988 28.96 6.96988 29.32 6.80988C29.68 6.64988 29.9 6.35988 29.98 5.95988C30.03 5.70988 30 5.47988 29.9 5.27988C29.8 5.07988 29.62 4.90988 29.36 4.77988C29.57 4.73988 29.75 4.65988 29.89 4.54988C30.03 4.42988 30.12 4.26988 30.17 4.04988C30.24 3.69988 30.15 3.39988 29.9 3.15988C29.65 2.91988 29.22 2.73988 28.61 2.61988L27.37 2.37988L26.54 6.63988V6.61988Z" fill="#00969E"/>
<path fill-rule="evenodd" clip-rule="evenodd" d="M29.89 7.32008L32.51 8.43008L32.83 7.67008L31.09 6.93008L32.45 3.70008L31.58 3.33008L29.89 7.32008Z" fill="#00969E"/>
<path fill-rule="evenodd" clip-rule="evenodd" d="M32.64 8.4901L34.94 9.9801L35.39 9.2901L33.89 8.3101L34.45 7.4501L35.69 8.2501L36.12 7.5901L34.88 6.7801L35.34 6.0701L36.79 7.0101L37.24 6.3101L35 4.8501L32.64 8.4901Z" fill="#00969E"/>
<path fill-rule="evenodd" clip-rule="evenodd" d="M37.3 12.21L37.93 12.84L41 9.76998L40.35 9.11998L39.21 10.26C38.91 10.56 38.62 10.86 38.33 11.15H38.32C38.36 10.92 38.4 10.69 38.43 10.46C38.47 10.23 38.5 10.01 38.53 9.76998L38.85 7.60998L38.22 6.97998L35.15 10.05L35.8 10.7L36.94 9.55998C37.09 9.40998 37.24 9.25998 37.38 9.10998C37.53 8.95998 37.67 8.80998 37.82 8.65998H37.83C37.79 8.88998 37.75 9.11998 37.72 9.34998C37.68 9.57998 37.65 9.79998 37.62 10.04L37.3 12.2V12.21Z" fill="#00969E"/>
<path fill-rule="evenodd" clip-rule="evenodd" d="M39.31 13.5001L41.58 12.0801L41.72 12.3001C41.85 12.5101 41.96 12.7001 42.03 12.8901C42.11 13.0801 42.14 13.2701 42.13 13.4601C42.12 13.6601 42.06 13.8401 41.95 14.0101C41.84 14.1801 41.69 14.3301 41.49 14.4501C41.13 14.6801 40.78 14.7401 40.44 14.6401C40.1 14.5301 39.77 14.2301 39.45 13.7201L39.31 13.5001ZM38.1 13.1301L38.72 14.1201C39.22 14.9001 39.74 15.3701 40.3 15.5401C40.86 15.7101 41.42 15.6101 41.99 15.2501C42.58 14.8801 42.91 14.4001 42.99 13.8301C43.07 13.2501 42.87 12.6001 42.42 11.8601L41.78 10.8301L38.1 13.1301Z" fill="#00969E"/>
<path fill-rule="evenodd" clip-rule="evenodd" d="M40.17 16.66L41.2 19.2L41.97 18.89L41.3 17.23L42.25 16.85L42.81 18.22L43.54 17.93L42.98 16.55L43.77 16.23L44.42 17.83L45.19 17.52L44.19 15.04L40.17 16.66Z" fill="#00969E"/>
<path fill-rule="evenodd" clip-rule="evenodd" d="M42.3299 20.2201L44.9399 19.6601L44.9899 19.9101C45.0399 20.1501 45.0699 20.3701 45.0799 20.5801C45.0799 20.7901 45.0499 20.9801 44.9799 21.1501C44.8999 21.3301 44.7799 21.4901 44.6199 21.6101C44.4599 21.7301 44.2699 21.8201 44.0399 21.8701C43.6199 21.9601 43.2699 21.9001 42.9899 21.6801C42.7099 21.4601 42.4999 21.0601 42.3799 20.4801L42.3199 20.2201H42.3299ZM41.3199 19.4701L41.5599 20.6201C41.7599 21.5201 42.0899 22.1501 42.5599 22.5001C43.0299 22.8501 43.5899 22.9501 44.2499 22.8101C44.9299 22.6601 45.4099 22.3301 45.6799 21.8101C45.9499 21.2901 45.9899 20.6101 45.8199 19.7601L45.5699 18.5701L41.3299 19.4701H41.3199Z" fill="#00969E"/>
<path fill-rule="evenodd" clip-rule="evenodd" d="M5.89004 32.04L5.41004 31.14C5.59004 31.05 5.71004 30.93 5.77004 30.78C5.83004 30.63 5.83004 30.47 5.77004 30.29C5.69004 30.05 5.55004 29.88 5.33004 29.79C5.12004 29.7 4.81004 29.72 4.42004 29.85C3.98004 29.99 3.70004 30.17 3.57004 30.37C3.44004 30.57 3.41004 30.8 3.49004 31.05C3.55004 31.23 3.65004 31.37 3.80004 31.45C3.94004 31.53 4.15004 31.56 4.42004 31.52L4.57004 32.53C4.10004 32.57 3.70004 32.49 3.39004 32.28C3.07004 32.07 2.84004 31.73 2.69004 31.26C2.52004 30.72 2.55004 30.24 2.78004 29.81C3.02004 29.38 3.43004 29.07 4.03004 28.87C4.64004 28.67 5.16004 28.68 5.61004 28.89C6.05004 29.1 6.36004 29.48 6.54004 30.02C6.69004 30.47 6.70004 30.85 6.60004 31.18C6.49004 31.51 6.26004 31.79 5.90004 32.03" fill="white"/>
<path d="M8.67242 31.7604L3.8418 34.0129L4.27287 34.9374L9.10349 32.6848L8.67242 31.7604Z" fill="white"/>
<path fill-rule="evenodd" clip-rule="evenodd" d="M7.78998 37.08C7.67998 37 7.51998 36.86 7.30998 36.66C7.09998 36.46 6.93998 36.34 6.83998 36.31C6.68998 36.25 6.54998 36.27 6.42998 36.35C6.30998 36.43 6.23998 36.55 6.21998 36.69C6.19998 36.84 6.22998 36.98 6.32998 37.11C6.43998 37.26 6.58998 37.37 6.77998 37.44C6.92998 37.49 7.06998 37.49 7.19998 37.44C7.28998 37.41 7.42998 37.33 7.62998 37.19L7.79998 37.07L7.78998 37.08ZM7.67998 35.48L7.27998 34.63C7.64998 34.5 7.97998 34.49 8.27998 34.59C8.56998 34.69 8.86998 34.95 9.14998 35.36C9.40998 35.73 9.55999 36.04 9.59999 36.29C9.63999 36.53 9.61998 36.74 9.52998 36.91C9.44998 37.08 9.21998 37.29 8.85998 37.55L7.86998 38.22C7.58998 38.41 7.39998 38.57 7.27998 38.69C7.16998 38.81 7.05998 38.96 6.95998 39.14L6.37998 38.31C6.41998 38.25 6.47998 38.17 6.56998 38.06C6.60998 38.01 6.62998 37.98 6.64998 37.96C6.40998 37.92 6.19998 37.84 6.00998 37.72C5.82998 37.61 5.66998 37.46 5.53998 37.27C5.30998 36.95 5.21998 36.63 5.26998 36.32C5.31998 36.01 5.46998 35.76 5.73998 35.57C5.91998 35.45 6.10998 35.38 6.30998 35.36C6.50998 35.35 6.69998 35.39 6.87998 35.49C7.05998 35.59 7.27998 35.77 7.53998 36.02C7.88998 36.36 8.14999 36.58 8.30999 36.69L8.38999 36.63C8.54999 36.52 8.63998 36.39 8.65998 36.27C8.66998 36.14 8.59998 35.97 8.44998 35.75C8.34998 35.6 8.22998 35.51 8.11998 35.46C7.99998 35.42 7.84998 35.42 7.65998 35.48H7.67998Z" fill="white"/>
<path fill-rule="evenodd" clip-rule="evenodd" d="M7.96997 40.1101L10.7 37.3801L11.42 38.1001L8.68997 40.8301L7.96997 40.1101ZM11.07 37.0101L11.74 36.3401L12.46 37.0601L11.79 37.7301L11.07 37.0101Z" fill="white"/>
<path fill-rule="evenodd" clip-rule="evenodd" d="M11.88 38.79L12.69 39.26L12.43 39.72C12.92 39.54 13.37 39.56 13.78 39.79C13.99 39.91 14.15 40.07 14.26 40.24C14.37 40.42 14.42 40.63 14.42 40.86C14.67 40.77 14.91 40.72 15.13 40.73C15.35 40.73 15.56 40.8 15.75 40.91C16 41.05 16.17 41.22 16.29 41.42C16.4 41.62 16.45 41.84 16.42 42.08C16.4 42.26 16.3 42.51 16.11 42.83L14.88 44.97L14 44.46L15.1 42.55C15.29 42.22 15.38 41.99 15.38 41.86C15.38 41.69 15.28 41.55 15.11 41.45C14.99 41.38 14.85 41.35 14.69 41.36C14.54 41.37 14.39 41.44 14.26 41.56C14.13 41.68 13.97 41.89 13.79 42.21L12.86 43.82L11.98 43.31L13.04 41.48C13.23 41.15 13.33 40.94 13.36 40.82C13.38 40.71 13.37 40.61 13.34 40.52C13.3 40.44 13.22 40.36 13.11 40.3C12.97 40.22 12.83 40.19 12.68 40.2C12.53 40.21 12.39 40.27 12.26 40.38C12.13 40.49 11.98 40.71 11.79 41.03L10.85 42.65L9.96997 42.14L11.9 38.79H11.88Z" fill="white"/>
<path fill-rule="evenodd" clip-rule="evenodd" d="M18.86 44.8799H19.9C19.92 45.0699 19.98 45.2299 20.1 45.3499C20.22 45.4699 20.4 45.5499 20.63 45.5799C20.89 45.6199 21.1 45.5999 21.24 45.5199C21.34 45.4699 21.4 45.3799 21.41 45.2699C21.42 45.1899 21.41 45.1299 21.36 45.0699C21.32 45.0099 21.21 44.9499 21.04 44.8899C20.25 44.5899 19.75 44.3599 19.56 44.1799C19.29 43.9299 19.17 43.6199 19.23 43.2499C19.28 42.9199 19.45 42.6599 19.74 42.4699C20.03 42.2799 20.46 42.2199 21.01 42.2999C21.53 42.3699 21.91 42.5099 22.14 42.7199C22.37 42.9299 22.51 43.2099 22.56 43.5499L21.58 43.5899C21.56 43.4299 21.5 43.3099 21.39 43.2099C21.29 43.1099 21.13 43.0499 20.92 43.0199C20.65 42.9799 20.45 42.9899 20.33 43.0499C20.25 43.0899 20.2 43.1599 20.19 43.2399C20.18 43.3099 20.2 43.3799 20.27 43.4399C20.35 43.5199 20.65 43.6599 21.18 43.8599C21.7 44.0599 22.06 44.2599 22.25 44.4699C22.44 44.6799 22.51 44.9499 22.46 45.2699C22.41 45.6199 22.22 45.8999 21.89 46.1099C21.56 46.3199 21.11 46.3899 20.53 46.3099C20.01 46.2399 19.61 46.0699 19.34 45.8199C19.07 45.5699 18.91 45.2499 18.86 44.8799Z" fill="white"/>
<path fill-rule="evenodd" clip-rule="evenodd" d="M25.49 42.67V43.48L24.78 43.47L24.75 45.04C24.75 45.36 24.75 45.54 24.76 45.59C24.77 45.64 24.8 45.69 24.85 45.72C24.9 45.76 24.95 45.77 25.02 45.77C25.11 45.77 25.25 45.74 25.43 45.68L25.5 46.48C25.26 46.58 24.99 46.62 24.69 46.62C24.51 46.62 24.34 46.58 24.19 46.52C24.04 46.46 23.94 46.37 23.87 46.27C23.8 46.17 23.76 46.04 23.73 45.87C23.71 45.75 23.7 45.51 23.71 45.15L23.74 43.46H23.27L23.28 42.64H23.75L23.76 41.88L24.79 41.29L24.77 42.66H25.47L25.49 42.67Z" fill="white"/>
<path fill-rule="evenodd" clip-rule="evenodd" d="M28.38 44.4299C28.26 44.4899 28.06 44.5699 27.78 44.6599C27.51 44.7499 27.33 44.8399 27.25 44.8999C27.13 45.0099 27.08 45.1399 27.1 45.2799C27.12 45.4199 27.19 45.5399 27.3 45.6299C27.42 45.7199 27.56 45.7599 27.72 45.7399C27.9 45.7199 28.07 45.6399 28.22 45.4999C28.33 45.3899 28.4 45.2699 28.42 45.1299C28.44 45.0399 28.42 44.8699 28.4 44.6299L28.38 44.4299ZM26.91 43.7799L25.97 43.7299C26.03 43.3399 26.17 43.0399 26.4 42.8299C26.63 42.6199 27 42.4799 27.49 42.4199C27.94 42.3599 28.29 42.3799 28.52 42.4599C28.75 42.5399 28.93 42.6599 29.04 42.8099C29.15 42.9599 29.23 43.2599 29.29 43.6999L29.42 44.8899C29.46 45.2299 29.51 45.4699 29.56 45.6299C29.61 45.7899 29.69 45.9499 29.8 46.1199L28.79 46.2399C28.76 46.1799 28.71 46.0799 28.66 45.9599C28.64 45.8999 28.62 45.8599 28.61 45.8499C28.46 46.0399 28.29 46.1899 28.1 46.2999C27.91 46.4099 27.71 46.4799 27.49 46.5099C27.1 46.5599 26.77 46.4899 26.52 46.2999C26.27 46.1099 26.12 45.8599 26.08 45.5299C26.05 45.3099 26.08 45.1099 26.16 44.9299C26.24 44.7499 26.37 44.5999 26.55 44.4899C26.73 44.3799 26.98 44.2699 27.33 44.1499C27.79 43.9999 28.11 43.8799 28.28 43.7799V43.6799C28.24 43.4799 28.18 43.3499 28.07 43.2799C27.96 43.2099 27.78 43.1899 27.51 43.2199C27.33 43.2399 27.19 43.2999 27.1 43.3799C27.01 43.4599 26.94 43.5999 26.9 43.7899L26.91 43.7799Z" fill="white"/>
<path fill-rule="evenodd" clip-rule="evenodd" d="M34.57 44.6199L33.6 44.9499L32.96 43.0899C32.82 42.6999 32.72 42.4499 32.63 42.3499C32.55 42.2499 32.45 42.1799 32.33 42.1499C32.21 42.1199 32.09 42.1199 31.96 42.1699C31.79 42.2299 31.66 42.3299 31.55 42.4599C31.45 42.5999 31.4 42.7499 31.4 42.9199C31.4 43.0899 31.47 43.3799 31.61 43.7799L32.18 45.4299L31.22 45.7599L29.96 42.0999L30.85 41.7899L31.03 42.3299C31.21 41.8099 31.54 41.4699 32.03 41.2999C32.24 41.2299 32.45 41.1999 32.66 41.2099C32.86 41.2299 33.03 41.2799 33.16 41.3699C33.29 41.4599 33.4 41.5699 33.49 41.7099C33.58 41.8499 33.67 42.0599 33.77 42.3399L34.55 44.6099L34.57 44.6199Z" fill="white"/>
<path fill-rule="evenodd" clip-rule="evenodd" d="M35.66 41.53C35.9 41.87 36.13 42.07 36.33 42.16C36.62 42.28 36.89 42.25 37.12 42.08C37.31 41.94 37.41 41.74 37.43 41.48C37.45 41.22 37.34 40.93 37.1 40.61C36.84 40.25 36.58 40.04 36.34 39.97C36.1 39.91 35.87 39.95 35.67 40.09C35.47 40.23 35.37 40.43 35.35 40.68C35.33 40.93 35.44 41.21 35.66 41.53ZM39.05 41.55L38.28 42.11L37.95 41.65C37.95 41.92 37.9 42.17 37.79 42.38C37.68 42.6 37.54 42.77 37.36 42.9C37 43.16 36.59 43.24 36.12 43.14C35.65 43.04 35.23 42.73 34.85 42.21C34.46 41.68 34.3 41.19 34.35 40.73C34.4 40.27 34.61 39.9 35 39.63C35.35 39.38 35.76 39.3 36.22 39.41L35.09 37.85L35.92 37.25L39.06 41.57L39.05 41.55Z" fill="white"/>
<path fill-rule="evenodd" clip-rule="evenodd" d="M40.21 37.4599C40.16 37.5899 40.07 37.7799 39.93 38.0399C39.79 38.2999 39.72 38.4799 39.71 38.5799C39.7 38.7399 39.75 38.8699 39.86 38.9599C39.97 39.0499 40.1 39.0899 40.25 39.0799C40.4 39.0699 40.53 38.9899 40.63 38.8699C40.75 38.7299 40.82 38.5599 40.83 38.3499C40.83 38.1999 40.8 38.0599 40.73 37.9499C40.68 37.8699 40.56 37.7599 40.37 37.5999L40.21 37.4699V37.4599ZM38.7 37.9799L37.98 38.5799C37.76 38.2599 37.66 37.9399 37.68 37.6299C37.71 37.3199 37.88 36.9699 38.2 36.5899C38.49 36.2399 38.75 36.0199 38.98 35.9099C39.21 35.8099 39.41 35.7799 39.6 35.8099C39.79 35.8499 40.05 36.0099 40.39 36.2899L41.29 37.0699C41.55 37.2899 41.75 37.4399 41.9 37.5199C42.04 37.5999 42.22 37.6599 42.41 37.7099L41.76 38.4899C41.69 38.4699 41.59 38.4299 41.47 38.3699C41.41 38.3399 41.37 38.3299 41.36 38.3199C41.38 38.5599 41.36 38.7899 41.3 38.9999C41.24 39.2099 41.13 39.3999 40.99 39.5699C40.74 39.8699 40.45 40.0399 40.14 40.0799C39.83 40.1199 39.55 40.0299 39.29 39.8199C39.12 39.6799 39.01 39.5199 38.94 39.3299C38.88 39.1399 38.87 38.9399 38.92 38.7399C38.97 38.5399 39.08 38.2799 39.26 37.9599C39.5 37.5399 39.65 37.2299 39.71 37.0399L39.63 36.9699C39.48 36.8399 39.34 36.7899 39.21 36.8099C39.08 36.8299 38.93 36.9399 38.76 37.1499C38.64 37.2899 38.58 37.4199 38.57 37.5499C38.57 37.6699 38.6 37.8199 38.7 37.9899V37.9799Z" fill="white"/>
<path fill-rule="evenodd" clip-rule="evenodd" d="M43.61 35.63L43.12 36.52L39.74 34.65L40.2 33.82L40.68 34.09C40.53 33.82 40.45 33.61 40.45 33.46C40.45 33.31 40.48 33.16 40.56 33.01C40.67 32.81 40.84 32.64 41.06 32.51L41.69 33.22C41.51 33.32 41.38 33.43 41.31 33.56C41.24 33.69 41.22 33.81 41.24 33.94C41.26 34.07 41.35 34.2 41.5 34.35C41.65 34.5 42.02 34.73 42.59 35.05L43.63 35.63H43.61Z" fill="white"/>
<path fill-rule="evenodd" clip-rule="evenodd" d="M43.1801 32C43.5701 32.15 43.8701 32.2 44.0801 32.16C44.3901 32.1 44.6001 31.94 44.7001 31.66C44.7801 31.44 44.7601 31.22 44.6301 30.99C44.5001 30.76 44.2501 30.58 43.8801 30.44C43.4601 30.28 43.1401 30.24 42.9001 30.32C42.6601 30.4 42.4901 30.55 42.4101 30.79C42.3201 31.02 42.3401 31.24 42.4601 31.46C42.5801 31.68 42.8201 31.86 43.1801 32ZM46.0301 30.18L45.6901 31.06L45.1601 30.86C45.3101 31.09 45.4001 31.32 45.4201 31.56C45.4501 31.8 45.4201 32.02 45.3401 32.23C45.1801 32.65 44.8801 32.94 44.4301 33.1C43.9801 33.27 43.4601 33.24 42.8601 33.01C42.2501 32.78 41.8401 32.45 41.6301 32.04C41.4201 31.63 41.4001 31.2 41.5701 30.76C41.7201 30.36 42.0301 30.07 42.4801 29.9L40.6801 29.21L41.0501 28.26L46.0301 30.17V30.18Z" fill="white"/>
<path fill-rule="evenodd" clip-rule="evenodd" d="M14.3599 30.92C13.9899 31.58 14.1599 32.12 14.2299 32.38L10.5599 26.06C10.1399 25.45 10.2499 25.06 10.4899 24.68L12.3699 21.45L10.3999 20.29H16.7099L19.9199 25.8L17.9499 24.66L14.3399 30.91L14.3599 30.92Z" fill="#00969E"/>
<path fill-rule="evenodd" clip-rule="evenodd" d="M17.77 35.2301C14.95 34.9501 14.41 32.0601 14.89 31.1701L16.24 28.8301H23.23V35.2501H17.9L17.77 35.2301Z" fill="#00969E"/>
<path fill-rule="evenodd" clip-rule="evenodd" d="M35.25 28.8501C36.02 28.8301 36.41 28.4101 36.58 28.2401L32.95 34.5501C32.64 35.2301 32.23 35.3401 31.79 35.2901H28.05L28.03 37.5601L24.88 32.1001L28.05 26.5701V28.8401H35.24L35.25 28.8501Z" fill="#00969E"/>
<path fill-rule="evenodd" clip-rule="evenodd" d="M37.28 23.74C38.44 26.32 36.21 28.24 35.2 28.26H32.49L29.02 22.21L34.57 19L37.24 23.61L37.28 23.74Z" fill="#00969E"/>
<path fill-rule="evenodd" clip-rule="evenodd" d="M22.9901 11.7999C22.6001 11.1399 22.0501 11.0299 21.8101 10.9699L29.0601 10.9499C29.8001 10.8799 30.1101 11.1699 30.3101 11.5799L32.1701 14.8099L34.1401 13.6699L30.9901 19.1499L24.6301 19.1699L26.5701 18.0299L22.9901 11.7799V11.7999Z" fill="#00969E"/>
<path fill-rule="evenodd" clip-rule="evenodd" d="M17.5499 12.61C19.2099 10.32 21.9899 11.28 22.5099 12.15L23.8699 14.49L20.3699 20.54L14.8199 17.33L17.4899 12.72L17.5599 12.61H17.5499Z" fill="#00969E"/>
</g>
<defs>
<clipPath id="clip0_538_2434">
<rect width="48.37" height="48.37" fill="white"/>
</clipPath>
</defs>
</svg>
