<svg width="62" height="62" viewBox="0 0 62 62" fill="none" xmlns="http://www.w3.org/2000/svg">
<g clip-path="url(#clip0_538_2472)">
<path d="M24.6001 54.58C25.0301 54.66 25.6001 54.65 25.8001 55.12C25.8701 55.46 25.8001 55.89 25.4701 56.08C25.1001 56.32 24.6601 56.07 24.2701 56.02C24.3801 55.54 24.4901 55.06 24.6001 54.59M42.1101 52.55C42.5601 52.36 43.0801 51.95 43.5501 52.32C44.1501 52.87 44.5701 53.64 44.7201 54.43C44.8201 55.04 44.2001 55.33 43.7701 55.58C43.2201 54.57 42.6701 53.56 42.1101 52.55ZM4.03005 36.94C4.39005 36.83 4.75005 36.83 5.11005 36.94C5.23005 37.29 5.34005 37.65 5.44005 38.01C4.95005 38.15 4.46005 38.28 3.96005 38.36C3.88005 38.02 3.82005 37.69 3.76005 37.35C3.83005 37.25 3.96005 37.05 4.03005 36.95V36.94ZM54.8501 37.17C54.3301 36.85 54.5101 36.19 54.6201 35.7C55.7301 35.95 56.8401 36.24 57.9601 36.49C57.8401 36.95 57.7801 37.61 57.2001 37.74C56.3901 37.81 55.5401 37.6 54.8501 37.17ZM57.1601 33.17C56.8501 32.82 57.0301 32.34 57.0701 31.92C57.5601 31.98 58.0501 32.02 58.5401 32.05C58.4801 32.45 58.5501 32.91 58.2801 33.24C57.9701 33.51 57.4601 33.41 57.1701 33.16L57.1601 33.17ZM36.4301 32.69C35.7101 33.19 35.0801 33.86 34.7501 34.68C34.3401 34.82 33.9201 35.05 33.4801 34.91C33.1401 34.82 32.7901 34.87 32.4701 35.02C31.9701 35.29 31.3901 35.12 30.8501 35.2C29.3301 35.32 27.8501 34.87 26.3501 34.74C25.6601 34.84 24.8401 34.6 24.2701 35.11C24.1601 35.1 23.9501 35.07 23.8401 35.05C23.2701 35.46 22.5601 35.7 22.1001 36.25C21.5901 36.82 21.0101 37.38 20.8301 38.15C20.7201 38.43 20.7501 38.74 20.9601 38.97C21.5001 38.97 21.5901 38.38 21.7401 37.98C21.5401 39.12 22.4401 40.05 22.4201 41.17C22.3901 41.68 22.8101 42.02 23.0801 42.4C22.9501 43.87 23.6201 45.27 23.6001 46.73C23.7201 47.06 23.8201 47.4 23.9801 47.72C24.3201 47.79 24.6701 47.79 25.0101 47.8C24.6701 46.63 24.3201 45.46 24.3501 44.23C24.8001 44 24.7901 43.42 25.1801 43.15C25.1301 44.18 25.8301 45.01 26.0101 45.99C26.1701 46.75 26.6101 47.39 26.9501 48.07C27.2801 48.04 27.7301 48.27 27.9401 47.92C27.7301 47.52 27.2001 47.14 27.5001 46.64C27.3001 46.12 27.0401 45.6 26.9701 45.04C26.7701 44.33 27.2001 43.68 27.3901 43.02C28.0901 43.23 28.8401 42.94 29.5201 43.23C29.9401 43.39 30.3901 43.25 30.8201 43.26C30.9601 43.41 31.1001 43.56 31.2701 43.68C31.4501 44.16 31.5401 44.67 31.5701 45.18C31.4501 45.59 31.2401 45.98 31.1301 46.39C31.0901 46.91 31.1701 47.43 31.2701 47.94C31.5801 47.96 31.8901 47.98 32.2001 48C31.8201 46.69 32.3501 45.29 33.3301 44.39C33.4601 44.49 33.5901 44.58 33.7201 44.68C33.6101 45.3 34.0501 45.79 34.1401 46.37C34.2501 46.97 34.4401 47.54 34.6501 48.11C35.0001 48.16 35.3601 48.21 35.7201 48.24C35.4901 47.58 35.2401 46.93 35.2001 46.23C35.2001 45.75 35.0001 45.31 34.8401 44.87C35.0101 44.37 35.2301 43.88 35.3001 43.35C35.8701 43.1 36.3401 42.66 36.7501 42.2C37.0001 42.08 37.2201 41.9 37.3601 41.65C37.6601 41.18 38.1701 40.86 38.3501 40.31C38.5501 39.63 38.8701 38.97 39.3301 38.42C39.4801 37.71 39.5601 36.99 39.7301 36.28C40.1801 36.34 40.6201 36.44 41.0801 36.47C41.1801 36.34 41.2801 36.2 41.3701 36.06C41.4401 36 41.5801 35.89 41.6501 35.84C41.5801 34.89 40.6301 34.44 40.0001 33.88C39.9701 33.45 39.6901 33.19 39.3001 33.06C39.3101 32.93 39.3401 32.67 39.3501 32.54C39.1301 32.52 38.9101 32.49 38.6901 32.47C38.6201 32.4 38.4801 32.27 38.4101 32.2C37.7601 32.41 37.0601 32.46 36.4201 32.67L36.4301 32.69ZM10.5001 30.56C23.9101 30.56 37.3201 30.56 50.7301 30.56C50.7301 34.75 49.4001 38.94 46.9201 42.33C44.4501 45.77 40.8501 48.39 36.8201 49.68C32.2001 51.18 27.0401 50.94 22.5901 48.99C18.7101 47.31 15.4001 44.37 13.2701 40.72C11.4501 37.66 10.5201 34.11 10.5001 30.56ZM56.1901 28.02C56.8701 28.14 57.5501 28.26 58.2201 28.42C57.5801 28.68 56.9301 28.91 56.2701 29.12C56.2401 28.75 56.2101 28.38 56.1801 28.01L56.1901 28.02ZM3.44005 25.22C3.53005 24.83 3.53005 24.17 4.05005 24.14C4.49005 24.05 5.08005 24.28 5.13005 24.78C5.11005 25.06 5.05005 25.33 5.00005 25.6C4.47005 25.5 3.94005 25.43 3.44005 25.23V25.22ZM54.2001 23.99C55.3201 23.69 56.4401 23.4 57.5801 23.15C57.6601 23.64 57.8801 24.27 57.3801 24.62C56.6801 25.04 55.8101 25.27 54.9901 25.16C54.4401 25.04 54.3401 24.44 54.2001 23.99ZM37.4701 23.01C38.3001 22.68 39.3101 23.37 39.2301 24.27C39.2801 25.31 37.8901 25.92 37.1201 25.24C36.3301 24.67 36.5801 23.32 37.4701 23V23.01ZM23.9201 23.04C24.7101 22.68 25.7201 23.23 25.7701 24.11C25.9201 25.13 24.6501 25.91 23.8001 25.34C22.9101 24.86 23.0301 23.44 23.9301 23.04H23.9201ZM4.85005 20.34C5.16005 20.03 5.67005 20.19 6.05005 20.28C6.71005 20.51 7.45005 20.71 7.95005 21.24C8.29005 21.65 7.98005 22.37 7.43005 22.35C6.57005 22.3 5.73005 21.94 5.01005 21.49C4.60005 21.23 4.53005 20.7 4.87005 20.35L4.85005 20.34ZM25.5201 18.27C26.2301 18.27 26.9501 18.27 27.6601 18.27C28.0401 20.94 28.4501 23.61 28.8601 26.28C29.3101 23.61 29.7101 20.93 30.1501 18.26C30.8601 18.26 31.5701 18.26 32.2801 18.26C32.7001 20.93 33.1001 23.6 33.5701 26.26C33.9701 23.59 34.3601 20.92 34.7801 18.25C35.4801 18.26 36.1901 18.25 36.8901 18.25C36.2501 21.89 35.5601 25.51 34.9101 29.15C34.0901 29.15 33.2601 29.15 32.4401 29.15C32.0001 26.51 31.6301 23.87 31.2001 21.23C30.7801 23.87 30.4101 26.52 29.9501 29.16C29.1301 29.13 28.3101 29.13 27.4901 29.16C26.8501 25.52 26.1601 21.89 25.5101 18.25L25.5201 18.27ZM17.6001 19.95C17.6201 20.97 17.6001 22 17.6001 23.02C18.1101 23.02 18.6301 23.05 19.1401 22.94C20.3301 22.71 20.4901 20.93 19.6901 20.2C19.0801 19.77 18.2901 19.89 17.5901 19.96L17.6001 19.95ZM15.4001 18.26C16.8701 18.27 18.3401 18.25 19.8101 18.27C20.6901 18.29 21.6001 18.71 22.0401 19.51C22.5101 20.44 22.4901 21.6 22.1101 22.56C21.8701 23.19 21.2801 23.57 20.6701 23.76C21.1001 23.89 21.6001 24 21.8601 24.4C22.7801 25.83 21.8401 27.76 22.8201 29.16C22.0101 29.16 21.2001 29.16 20.4001 29.17C19.8501 27.9 20.3801 26.44 19.9101 25.15C19.4901 24.3 18.3801 24.59 17.6201 24.54C17.6201 26.08 17.6201 27.62 17.6201 29.16C16.8801 29.14 16.1401 29.15 15.4101 29.16C15.4201 25.52 15.4101 21.89 15.4101 18.25L15.4001 18.26ZM42.3001 18.08C43.4401 17.97 44.7701 18.05 45.6301 18.9C46.2901 19.51 46.3901 20.45 46.4101 21.29C45.7001 21.29 44.9801 21.29 44.2701 21.3C44.2201 20.76 44.1701 20.04 43.6001 19.79C43.1601 19.56 42.6701 19.73 42.2301 19.84C41.7201 20.49 41.6301 21.61 42.4001 22.1C43.5101 22.77 44.8601 23.02 45.8801 23.85C46.8801 24.7 46.8801 26.21 46.5301 27.38C46.1701 28.56 44.9501 29.23 43.7801 29.34C42.6001 29.44 41.2401 29.43 40.3101 28.59C39.5201 27.88 39.4301 26.74 39.4701 25.74C40.2001 25.74 40.9301 25.74 41.6701 25.74C41.7101 26.29 41.6501 26.92 42.0301 27.37C42.4501 27.79 43.1201 27.81 43.6601 27.65C44.6501 27.24 44.6801 25.65 43.7701 25.14C42.7001 24.5 41.3301 24.37 40.4201 23.46C39.5301 22.6 39.4801 21.21 39.7701 20.08C40.0701 18.95 41.1601 18.18 42.3001 18.09V18.08ZM51.7701 16.05C52.4401 15.84 53.1001 15.62 53.7701 15.42C53.3101 15.95 52.8501 16.49 52.3801 17.01C52.1801 16.69 51.9801 16.37 51.7801 16.05H51.7701ZM14.9701 9.97003C15.2301 9.78003 15.4801 9.58003 15.7701 9.44003C16.3301 9.26003 16.8301 9.84003 16.8301 10.36C16.7201 10.81 16.2401 10.99 15.9201 11.28C15.5901 10.85 15.2801 10.42 14.9601 9.98003L14.9701 9.97003ZM13.9201 8.49003C14.2101 8.29003 14.4901 8.10003 14.7801 7.91003C15.0701 8.04003 15.4101 8.17003 15.5201 8.51003C15.7401 9.05003 15.0701 9.35003 14.7601 9.67003C14.4701 9.28003 14.1901 8.89003 13.9201 8.50003V8.49003ZM37.6601 4.23003C37.8501 3.87003 38.3001 3.73003 38.6601 3.92003C39.0301 4.12003 39.0401 4.60003 38.9801 4.97003C38.8401 5.76003 38.6101 6.56003 38.1401 7.23003C37.9401 7.28003 37.7501 7.33003 37.5601 7.39003C37.2201 7.21003 36.9201 6.91003 36.9801 6.49003C37.0701 5.71003 37.2701 4.92003 37.6601 4.23003ZM33.9501 3.04003C34.1601 2.97003 34.3901 2.99003 34.5901 3.08003C35.1601 3.54003 34.9401 4.36003 34.8901 4.99003C34.7701 5.56003 34.7401 6.39003 34.0601 6.58003C33.7701 6.56003 33.3801 6.47003 33.2901 6.14003C33.1101 5.51003 33.2401 4.85003 33.3301 4.22003C33.4201 3.79003 33.5201 3.26003 33.9501 3.04003ZM31.2201 54.84C31.2201 56.27 31.3001 57.71 31.3201 59.15C31.4501 59.15 31.7201 59.17 31.8601 59.17C31.8401 57.72 31.8001 56.28 31.7301 54.83C31.6001 54.83 31.3501 54.83 31.2201 54.83V54.84ZM27.4401 54.68V55.16C27.7901 55.18 28.1301 55.21 28.4801 55.23C28.4201 56.51 28.2801 57.78 28.2101 59.06C28.3901 59.06 28.5701 59.07 28.7501 59.08C28.8201 57.82 28.9501 56.56 29.0201 55.29C29.3901 55.31 29.7601 55.32 30.1301 55.34C30.1301 55.22 30.1301 54.98 30.1301 54.86C29.2301 54.83 28.3301 54.71 27.4301 54.67L27.4401 54.68ZM33.0901 54.74C33.2601 56.17 33.4701 57.6 33.6601 59.03C33.7901 59.01 34.0601 58.98 34.2001 58.96C34.1201 58.28 34.0001 57.61 33.9501 56.93C34.4701 56.88 34.9901 56.82 35.5001 56.74C35.5001 56.63 35.4801 56.4 35.4701 56.28C34.9301 56.33 34.3901 56.41 33.8401 56.44C33.8001 56 33.7601 55.57 33.7301 55.13C34.2701 55.06 34.8001 54.99 35.3401 54.93C35.3401 54.81 35.3301 54.57 35.3201 54.45C34.5801 54.53 33.8401 54.64 33.0901 54.73V54.74ZM36.4001 54.15C36.6501 55.58 37.0901 56.96 37.3901 58.38C37.5201 58.35 37.7801 58.3 37.9101 58.27C37.6301 56.88 37.2201 55.51 36.9201 54.12C36.7901 54.12 36.5301 54.15 36.4001 54.15ZM24.1501 54C23.8601 55.41 23.5301 56.82 23.2301 58.23C23.4101 58.25 23.5901 58.26 23.7701 58.28C23.9101 57.67 24.0501 57.07 24.1701 56.46C24.5301 56.54 24.9001 56.62 25.2601 56.71C25.4401 57.35 25.2101 58.01 25.2101 58.66C25.4001 58.7 25.5901 58.74 25.7701 58.78C25.7801 58.15 25.9101 57.54 25.9501 56.92C25.8401 56.8 25.7301 56.68 25.6201 56.57C26.3401 56.28 26.6901 55.24 26.1601 54.63C25.6001 54.17 24.8201 54.19 24.1501 54.01V54ZM38.2201 53.69C38.6301 55.07 39.1801 56.42 39.6801 57.77C40.4001 57.51 41.1201 57.23 41.8401 56.97C41.8001 56.85 41.7101 56.62 41.6701 56.51C41.1201 56.72 40.5601 56.92 40.0101 57.11C39.8401 56.64 39.6601 56.16 39.4901 55.69C39.9701 55.5 40.4501 55.33 40.9401 55.17C40.9001 55 40.8701 54.84 40.8301 54.68C40.3201 54.88 39.8101 55.07 39.2701 55.2C39.1401 54.79 39.0001 54.38 38.8601 53.97C39.3701 53.79 39.8801 53.6 40.4001 53.42C40.3801 53.3 40.3401 53.06 40.3201 52.94C39.6101 53.16 38.9101 53.44 38.2101 53.68L38.2201 53.69ZM19.3901 56.88C20.1201 57.18 20.8601 57.44 21.5901 57.73C21.6101 57.56 21.6401 57.4 21.6701 57.24C21.1401 57.04 20.6101 56.83 20.0801 56.63C20.2701 56.16 20.4601 55.68 20.6301 55.21C21.1301 55.42 21.6401 55.61 22.1501 55.78C22.1801 55.66 22.2301 55.42 22.2501 55.3C21.7601 55.14 21.2901 54.95 20.8001 54.78C20.9501 54.36 21.1001 53.94 21.2601 53.52C21.8001 53.73 22.3401 53.94 22.9001 54.11C22.9101 53.99 22.9401 53.75 22.9601 53.63C22.2801 53.39 21.6001 53.14 20.9301 52.87C20.4201 54.21 19.9101 55.56 19.3901 56.9V56.88ZM41.4301 52.43C42.1101 53.7 42.8101 54.97 43.5301 56.22C44.0201 55.91 44.5701 55.69 45.0001 55.29C45.4701 54.76 45.2601 53.97 45.0001 53.39C44.6801 52.74 44.3101 52.03 43.6401 51.7C42.8201 51.44 42.1401 52.11 41.4401 52.42L41.4301 52.43ZM17.4601 51.74C16.7701 52.29 16.3401 53.1 16.0401 53.91C15.8201 54.48 15.9101 55.24 16.5001 55.54C17.1401 56.02 18.0301 55.67 18.4101 55.03C18.5401 54.76 18.2001 54.72 18.0401 54.6C17.7901 54.91 17.5401 55.3 17.1001 55.32C16.6101 55.25 16.3401 54.74 16.5001 54.28C16.7301 53.58 17.1101 52.92 17.5601 52.34C17.8101 51.98 18.3701 51.82 18.7001 52.17C19.0601 52.44 18.8501 52.91 18.7901 53.27C18.9701 53.33 19.1501 53.39 19.3301 53.45C19.3901 53.04 19.5601 52.58 19.3501 52.18C18.9701 51.57 18.0601 51.26 17.4501 51.73L17.4601 51.74ZM5.28005 36.58C4.70005 36.01 3.52005 36.27 3.31005 37.07C3.23005 37.74 3.57005 38.37 3.68005 39.02C5.08005 38.7 6.46005 38.3 7.85005 37.95C7.83005 37.77 7.80005 37.59 7.77005 37.42C7.13005 37.57 6.50005 37.77 5.84005 37.85C5.77005 37.5 5.66005 37.16 5.66005 36.81C6.06005 36.31 6.80005 36.3 7.35005 36.01C7.30005 35.8 7.24005 35.59 7.19005 35.38C6.60005 35.87 5.54005 35.72 5.28005 36.58ZM53.9901 36.67C54.0101 37.35 54.6301 37.8 55.2301 37.99C55.9701 38.23 56.8101 38.47 57.5701 38.19C58.3301 37.8 58.3001 36.79 58.5301 36.07C57.1301 35.71 55.7201 35.4 54.3201 35.05C54.2001 35.58 54.0401 36.11 53.9901 36.66V36.67ZM6.29005 31.96C6.35005 32.55 6.42005 33.14 6.48005 33.73C5.97005 33.78 5.47005 33.84 4.96005 33.9C4.90005 33.38 4.85005 32.85 4.80005 32.32C4.64005 32.33 4.47005 32.34 4.31005 32.36C4.37005 32.89 4.43005 33.42 4.48005 33.95C4.04005 34 3.59005 34.04 3.15005 34.08C3.09005 33.53 3.03005 32.97 2.98005 32.41C2.82005 32.41 2.66005 32.41 2.49005 32.42C2.56005 33.16 2.66005 33.89 2.70005 34.64C4.14005 34.57 5.58005 34.35 7.02005 34.22C6.95005 33.45 6.85005 32.69 6.78005 31.92C6.66005 31.92 6.41005 31.94 6.29005 31.95V31.96ZM54.7101 31.22C54.7101 31.35 54.7101 31.62 54.7101 31.75C55.3401 31.82 55.9701 31.87 56.6101 31.9C56.5701 32.29 56.5301 32.67 56.4701 33.05C55.8701 33.26 55.2201 33.17 54.6001 33.21C54.5701 33.4 54.5501 33.59 54.5201 33.78C55.2501 33.66 56.2001 34.06 56.7101 33.37C57.1301 34.05 58.2801 34.23 58.7601 33.53C59.0201 32.9 58.9501 32.21 59.0101 31.54C57.5801 31.44 56.1501 31.31 54.7101 31.22ZM2.55005 28.41C2.36005 28.91 2.31005 29.56 2.70005 29.99C3.08005 30.35 3.70005 30.45 4.18005 30.23C4.69005 29.91 4.78005 29.26 5.08005 28.79C5.32005 28.29 6.15005 28.33 6.38005 28.83C6.58005 29.15 6.38005 29.52 6.29005 29.85C6.00005 29.91 5.71005 29.97 5.41005 30.03C5.41005 30.16 5.43005 30.42 5.44005 30.55C5.84005 30.48 6.32005 30.49 6.62005 30.16C6.95005 29.75 6.95005 29.17 6.84005 28.68C6.64005 27.95 5.73005 27.68 5.08005 27.96C4.44005 28.32 4.49005 29.22 3.97005 29.66C3.51005 29.97 2.95005 29.63 2.81005 29.15C2.87005 28.66 3.23005 28.39 3.70005 28.34C3.69005 28.17 3.68005 27.99 3.67005 27.82C3.26005 27.89 2.74005 27.96 2.56005 28.41H2.55005ZM54.5201 27.15C54.5201 27.34 54.5201 27.52 54.5201 27.71C54.9201 27.79 55.3301 27.86 55.7301 27.94C55.7601 28.39 55.8001 28.85 55.8201 29.3C55.4401 29.43 55.0701 29.56 54.7001 29.69C54.7001 29.88 54.7201 30.08 54.7301 30.27C56.1401 29.79 57.5201 29.24 58.9401 28.78C58.9301 28.54 58.9001 28.3 58.8801 28.07C57.4501 27.7 55.9701 27.49 54.5301 27.16L54.5201 27.15ZM3.39005 23.92C3.03005 24.44 3.01005 25.1 2.87005 25.7C4.28005 26.01 5.69005 26.35 7.12005 26.61C7.14005 26.48 7.17005 26.22 7.18005 26.09C6.59005 25.96 6.01005 25.84 5.43005 25.7C5.51005 25.17 5.76005 24.57 5.41005 24.08C4.96005 23.49 3.89005 23.28 3.39005 23.91V23.92ZM53.6701 23.54C53.7901 24.12 53.8701 24.72 54.1601 25.24C54.6101 25.85 55.4801 25.79 56.1401 25.67C56.8401 25.51 57.6601 25.32 58.0701 24.67C58.3201 23.95 57.9701 23.21 57.8401 22.5C56.4401 22.83 55.0601 23.21 53.6601 23.54H53.6701ZM4.66005 19.86C4.27005 20.19 4.09005 20.75 4.20005 21.24C4.36005 21.77 4.86005 22.08 5.32005 22.32C6.05005 22.66 6.85005 22.97 7.66005 22.83C8.44005 22.59 8.82005 21.49 8.29005 20.84C7.87005 20.32 7.21005 20.08 6.60005 19.85C5.98005 19.65 5.23005 19.46 4.65005 19.85L4.66005 19.86ZM52.1801 19.87C52.2501 20.04 52.3201 20.21 52.3901 20.38C53.4301 19.93 54.4701 19.47 55.5201 19.04C54.6601 19.93 53.7401 20.76 52.9201 21.69C53.0301 21.9 53.1501 22.12 53.2601 22.33C54.5601 21.72 55.8901 21.19 57.2001 20.6C57.1201 20.44 57.0401 20.27 56.9601 20.11C55.9001 20.57 54.8501 21.05 53.7801 21.46C54.6501 20.55 55.5601 19.69 56.4101 18.76C56.3101 18.57 56.2201 18.37 56.1201 18.18C54.7901 18.71 53.4901 19.32 52.1701 19.87H52.1801ZM7.12005 15.1C7.01005 15.23 6.91005 15.37 6.80005 15.52C7.80005 16.13 8.81005 16.71 9.80005 17.33C8.54005 17.2 7.30005 16.92 6.04005 16.77C5.95005 16.98 5.86005 17.18 5.77005 17.39C7.03005 18.09 8.22005 18.9 9.50005 19.55C9.57005 19.4 9.64005 19.25 9.71005 19.1C8.79005 18.52 7.85005 17.98 6.92005 17.43C6.79005 17.38 6.82005 17.25 6.83005 17.13L6.97005 17.4C8.14005 17.46 9.27005 17.8 10.4301 17.87C10.6301 17.72 10.6801 17.45 10.8001 17.24C9.55005 16.57 8.37005 15.75 7.12005 15.1ZM49.7901 16.19C50.1601 16.81 50.8201 16.35 51.3301 16.23C51.5701 16.61 51.8201 16.98 52.0601 17.34C51.7901 17.65 51.5301 17.96 51.2601 18.26C51.3501 18.42 51.4501 18.58 51.5401 18.73C52.5701 17.65 53.5201 16.5 54.5101 15.39C54.3901 15.19 54.2801 14.99 54.1701 14.79C52.7001 15.22 51.2201 15.66 49.7801 16.19H49.7901ZM9.54005 11.97C9.05005 12.25 8.64005 12.8 8.72005 13.39C8.85005 13.93 9.34005 14.39 9.92005 14.4C10.5401 14.34 10.9901 13.8 11.6001 13.71C12.0701 13.69 12.2601 14.15 12.4301 14.51C12.2501 14.79 12.1101 15.14 11.7701 15.27C11.4201 15.37 11.1501 15.09 10.8701 14.93C10.7501 15.08 10.6401 15.23 10.5201 15.38C10.9001 15.58 11.2901 15.92 11.7501 15.79C12.5001 15.57 13.0901 14.67 12.7701 13.91C12.5501 13.47 12.1001 13.08 11.5801 13.13C10.9701 13.19 10.5301 13.75 9.92005 13.82C9.32005 13.82 8.94005 12.99 9.46005 12.6C9.73005 12.24 10.1601 12.49 10.4801 12.61C10.5701 12.45 10.6601 12.28 10.7501 12.12C10.3601 11.98 9.93005 11.74 9.52005 11.97H9.54005ZM50.8501 11.37C50.9901 11.69 51.2701 11.91 51.4601 12.2C50.5601 13.07 49.5501 13.82 48.6601 14.7C48.7501 14.85 48.8501 15.01 48.9501 15.16C49.9101 14.31 50.8701 13.46 51.8501 12.62C52.0801 12.89 52.3201 13.16 52.5501 13.43C52.6701 13.32 52.8001 13.2 52.9201 13.09C52.3101 12.42 51.7201 11.73 51.1201 11.05C51.0501 11.13 50.9101 11.3 50.8401 11.39L50.8501 11.37ZM11.3601 10.09C12.2901 11.11 13.2301 12.12 14.1701 13.13C14.2601 13.13 14.4501 13.13 14.5401 13.13C14.5501 13.03 14.5701 12.84 14.5801 12.74C13.6301 11.74 12.6801 10.73 11.7501 9.70003C11.6201 9.83003 11.4901 9.96003 11.3601 10.09ZM28.0601 9.05003C23.8701 9.54003 19.8401 11.29 16.6301 14.02C12.8301 17.2 10.1801 21.72 9.28005 26.59C8.41005 31.23 9.09005 36.16 11.2501 40.36C13.5001 44.83 17.3601 48.47 21.9501 50.46C26.4201 52.43 31.5801 52.81 36.2901 51.51C40.6301 50.35 44.5701 47.77 47.4101 44.29C50.5601 40.48 52.3401 35.56 52.3101 30.61C52.3401 26.82 51.3201 23.04 49.4201 19.77C47.3601 16.18 44.2501 13.22 40.5801 11.32C36.7601 9.32003 32.3301 8.52003 28.0501 9.04003L28.0601 9.05003ZM47.1601 10C47.2001 10.57 47.6601 10.99 47.8001 11.53C47.9001 12.01 47.4301 12.5 46.9501 12.42C46.7301 12.33 46.4801 12.21 46.3701 11.98C46.0901 11.58 46.5001 11.17 46.6201 10.79C46.0201 10.45 45.7301 11.21 45.7201 11.68C45.8801 12.43 46.7101 13.08 47.4901 12.89C47.9601 12.74 48.3401 12.32 48.4301 11.82C48.4901 11.08 47.6901 10.58 47.7501 9.84003C47.8701 9.59003 48.1101 9.42003 48.3001 9.22003C48.7201 9.32003 49.0901 9.55003 49.2301 9.98003C49.1301 10.16 49.0201 10.35 48.9201 10.53C49.0801 10.64 49.2501 10.74 49.4201 10.85C49.5301 10.58 49.6701 10.31 49.7101 10.01C49.6201 9.45003 49.1901 9.00003 48.6601 8.82003C47.9401 8.59003 47.1301 9.25003 47.1801 10H47.1601ZM13.2301 8.43003C14.0001 9.64003 14.9101 10.76 15.7101 11.95C16.2001 11.61 16.7401 11.31 17.1301 10.86C17.8201 10.08 16.9301 8.71003 15.9301 8.96003C16.2501 8.23003 15.5901 7.26003 14.7701 7.45003C14.1801 7.64003 13.7301 8.10003 13.2301 8.44003V8.43003ZM17.0301 5.92003C17.6701 7.21003 18.3401 8.47003 18.9701 9.76003C19.6601 9.44003 20.3201 9.07003 21.0101 8.75003C20.9301 8.60003 20.9101 8.37003 20.7001 8.36003C20.2001 8.55003 19.7401 8.84003 19.2601 9.09003C18.6701 7.96003 18.0901 6.82003 17.5301 5.68003C17.3601 5.76003 17.1901 5.84003 17.0201 5.92003H17.0301ZM39.8501 8.50003C40.5501 8.81003 41.2401 9.14003 41.9401 9.46003C41.9901 9.35003 42.1001 9.12003 42.1501 9.01003C41.6201 8.77003 41.1001 8.53003 40.5701 8.30003C41.0601 7.12003 41.6201 5.98003 42.1501 4.82003C42.0301 4.76003 41.8001 4.63003 41.6901 4.57003C41.0401 5.86003 40.4601 7.19003 39.8601 8.51003L39.8501 8.50003ZM20.8001 4.17003C21.1901 5.56003 21.7001 6.91003 22.1301 8.29003C22.8501 8.04003 23.5701 7.81003 24.2901 7.57003C24.2601 7.41003 24.2301 7.25003 24.2101 7.09003C23.6401 7.29003 23.0701 7.49003 22.4801 7.63003C22.3401 7.16003 22.1801 6.69003 22.0201 6.22003C22.5001 6.05003 22.9901 5.89003 23.4701 5.74003C23.4701 5.63003 23.4501 5.41003 23.4401 5.31003C22.9001 5.40003 22.3801 5.57003 21.8701 5.77003C21.7101 5.35003 21.5601 4.91003 21.4701 4.46003C21.9601 4.31003 22.4601 4.15003 22.9601 4.01003C22.9601 3.88003 22.9501 3.62003 22.9501 3.50003C22.2301 3.71003 21.5201 3.97003 20.7901 4.18003L20.8001 4.17003ZM37.9801 3.41003C37.3301 3.53003 37.0301 4.20003 36.8101 4.75003C36.5701 5.41003 36.3701 6.13003 36.5001 6.84003C36.6201 7.70003 37.8201 8.11003 38.4801 7.58003C38.9601 7.20003 39.1601 6.59003 39.3301 6.03003C39.4901 5.43003 39.6701 4.76003 39.4401 4.15003C39.2401 3.57003 38.5501 3.32003 37.9801 3.42003V3.41003ZM33.8101 2.59003C33.2201 2.72003 33.0001 3.37003 32.8401 3.88003C32.6801 4.65003 32.5301 5.48003 32.8001 6.24003C33.0801 7.07003 34.3201 7.29003 34.8901 6.65003C35.2601 6.18003 35.3901 5.59003 35.4701 5.01003C35.5501 4.37003 35.6001 3.67003 35.2901 3.08003C34.9901 2.60003 34.3401 2.45003 33.8101 2.59003ZM31.2301 2.40003C30.9901 3.53003 30.9101 4.69003 30.6901 5.82003C30.4101 4.70003 30.2101 3.56003 29.9401 2.43003C29.7801 2.43003 29.4501 2.43003 29.2901 2.43003C29.1501 3.60003 28.9801 4.77003 28.8401 5.95003C28.5301 4.82003 28.3001 3.66003 28.0401 2.52003C27.9001 2.52003 27.6301 2.52003 27.5001 2.52003C27.8101 3.94003 28.1801 5.36003 28.5001 6.78003C28.7201 6.78003 28.9401 6.78003 29.1601 6.78003C29.3401 5.63003 29.4501 4.47003 29.6801 3.32003C29.8901 4.45003 30.1501 5.57003 30.3701 6.70003C30.5901 6.70003 30.8201 6.70003 31.0501 6.70003C31.2601 5.23003 31.5301 3.78003 31.7601 2.31003C31.6301 2.33003 31.3601 2.37003 31.2301 2.39003V2.40003ZM29.0801 0.0400305C34.1201 -0.20997 39.2301 0.78003 43.7801 2.98003C48.7801 5.36003 53.1101 9.11003 56.1601 13.74C58.9801 17.96 60.7001 22.9 61.1301 27.95C61.5701 32.89 60.7701 37.94 58.8301 42.51C55.2701 50.98 47.7101 57.65 38.8301 60.07C34.4201 61.3 29.7201 61.51 25.2101 60.71C19.3801 59.68 13.8601 56.88 9.58005 52.79C6.67005 50.05 4.31005 46.73 2.67005 43.09C0.0500529 37.29 -0.659947 30.66 0.620053 24.44C1.69005 19.22 4.15005 14.28 7.72005 10.31C13.0701 4.20003 20.9701 0.41003 29.0801 0.0400305Z" fill="#253573"/>
</g>
<defs>
<clipPath id="clip0_538_2472">
<rect width="61.24" height="61.18" fill="white"/>
</clipPath>
</defs>
</svg>
