<svg width="66" height="99" viewBox="0 0 66 99" fill="none" xmlns="http://www.w3.org/2000/svg">
<g clip-path="url(#clip0_538_2492)">
<path d="M63.35 97.0901C63.32 97.3501 63.3 97.6201 63.26 97.8701C63.11 97.9101 62.97 97.9501 62.82 98.0001C63.05 98.1101 63.28 98.2601 63.55 98.2801C63.86 98.3101 64.14 98.1401 64.42 98.0301C64.27 97.9701 64.12 97.9301 63.99 97.8401C63.74 97.6301 63.68 97.2201 63.35 97.0901ZM62.84 95.8401C62.8 96.4201 62.79 97.0001 62.84 97.5801C62.89 97.6301 62.99 97.7201 63.05 97.7701C63.14 97.4901 63.16 97.1901 63.19 96.9001C63.34 96.9501 63.49 96.9901 63.63 97.0801C63.86 97.3301 63.95 97.7701 64.37 97.7801C64.29 97.4901 64.15 97.2301 63.99 96.9701C64.13 96.7801 64.3 96.6001 64.36 96.3701C64.39 96.1101 64.18 95.8201 63.91 95.8201C63.56 95.7901 63.2 95.7901 62.85 95.8501L62.84 95.8401ZM62.13 96.6401C62.12 97.1101 62.33 97.5501 62.62 97.9101C62.63 97.1801 62.64 96.4401 62.62 95.7101C62.37 95.9601 62.18 96.2901 62.14 96.6401H62.13ZM62.78 95.6101C63.12 95.6501 63.47 95.6101 63.81 95.6601C64.07 95.7001 64.36 95.8401 64.43 96.1201C64.53 96.4401 64.32 96.7201 64.17 96.9801C64.33 97.2601 64.47 97.5601 64.59 97.8701C64.79 97.6401 64.97 97.4001 65.04 97.1001C65.25 96.3001 64.65 95.4101 63.84 95.2901C63.45 95.1601 63.08 95.3801 62.77 95.6001L62.78 95.6101ZM63.23 95.1901C64.16 94.9101 65.15 95.6901 65.23 96.6301C65.3 97.3901 64.76 98.1301 64.04 98.3301C63.77 98.3801 63.49 98.3801 63.22 98.3301C62.54 98.1701 62 97.5101 62.01 96.8101C61.97 96.0701 62.51 95.3501 63.23 95.1901ZM0 41.6301C0.19 41.5601 0.39 41.5001 0.59 41.4901C20.44 41.4901 40.3 41.4901 60.15 41.4901C60.3 41.4901 60.47 41.5101 60.6 41.6001C60.72 41.7101 60.7 41.8901 60.71 42.0401C60.71 59.9501 60.71 77.8501 60.71 95.7601C60.71 96.4901 60.73 97.2201 60.7 97.9501C60.48 97.8901 60.25 97.8101 60.09 97.6501C58.86 96.5201 57.61 95.4201 56.38 94.3001C55.86 93.8901 55.43 93.3901 54.94 92.9601C53.66 91.8901 52.48 90.7101 51.23 89.6101C50.52 88.9201 49.73 88.3301 49.04 87.6201C48.48 87.0401 47.81 86.5901 47.25 86.0101C46.6 85.3501 45.87 84.7701 45.2 84.1401C44.55 83.5701 43.95 82.9501 43.29 82.3901C42.64 81.8601 42.06 81.2401 41.42 80.7001C39.78 79.2401 38.18 77.7301 36.54 76.2601C35.95 75.7401 35.35 75.2401 34.81 74.6901C34.32 74.1901 33.76 73.7701 33.24 73.3001C32.24 72.3301 31.17 71.4301 30.15 70.4701C30.13 68.8301 30.15 67.1901 30.15 65.5501C29.99 64.0701 30.13 62.5901 30.06 61.1101C30.03 60.0101 30.06 58.9001 30.05 57.8001C29.92 56.5201 30.01 55.2401 29.98 53.9501C29.58 53.9401 29.18 53.9301 28.79 54.0301C28.75 54.3801 28.77 54.7401 28.77 55.1001C28.77 60.7901 28.77 66.4801 28.77 72.1701C28.76 72.4701 28.48 72.6601 28.28 72.8501C26.82 74.0301 25.4 75.2501 23.94 76.4301C23.43 76.8201 23 77.3301 22.39 77.6001C22.35 77.3601 22.33 77.1201 22.33 76.8801C22.34 69.2001 22.33 61.5301 22.34 53.8501C21.87 53.8301 21.4 53.8301 20.93 53.8501C20.92 62.1401 20.93 70.4201 20.93 78.7101C20.9 79.0601 21.05 79.5101 20.75 79.7801C20.45 80.0701 20.1 80.2901 19.79 80.5601C18.35 81.8601 16.81 83.0301 15.36 84.3101C15.2 84.4701 14.98 84.5101 14.76 84.5601C14.73 80.6701 14.76 76.7701 14.75 72.8801C14.75 67.5101 14.75 62.1401 14.75 56.7701C14.73 55.8401 14.79 54.9101 14.72 53.9801C13.63 53.9201 12.53 53.9801 11.43 53.9501C11.4 54.1601 11.38 54.3801 11.38 54.5901C11.38 65.8401 11.38 77.0901 11.38 88.3301C10.54 88.9701 9.69 89.6001 8.88 90.2701C8.49 90.5801 8.11 90.9301 7.65 91.1401C8.52 90.2801 9.55 89.6201 10.48 88.8201C10.78 88.5501 11.23 88.3101 11.22 87.8501C11.22 77.1401 11.22 66.4301 11.22 55.7101C11.22 55.0601 11.19 54.4001 11.33 53.7601C12.32 53.7601 13.32 53.7601 14.31 53.7601C14.51 53.7601 14.74 53.7601 14.91 53.8901C14.94 54.0001 14.95 54.1201 14.96 54.2301C14.96 63.4001 14.96 72.5701 14.96 81.7501C14.98 82.6201 14.9 83.4901 15.03 84.3501C15.71 83.9001 16.31 83.3201 16.95 82.8101C17.98 81.9201 19.02 81.0501 20.08 80.2001C20.42 79.9301 20.83 79.6301 20.8 79.1501C20.8 71.1401 20.8 63.1301 20.8 55.1201C20.8 54.6801 20.77 54.2501 20.83 53.8101C21.11 53.6801 21.42 53.6901 21.72 53.6901C21.98 53.6901 22.26 53.6901 22.5 53.8001C22.54 53.9201 22.54 54.0401 22.55 54.1601C22.54 61.0401 22.55 67.9201 22.55 74.8001C22.57 75.6401 22.48 76.4901 22.63 77.3301C24.07 76.3001 25.35 75.0701 26.74 73.9801C27.24 73.5801 27.73 73.1701 28.23 72.7701C28.46 72.5901 28.68 72.3401 28.65 72.0201C28.65 66.1201 28.65 60.2301 28.65 54.3301C28.65 54.1801 28.65 54.0401 28.69 53.8901C29.05 53.6901 29.5 53.7701 29.89 53.7801C30.16 53.7801 30.18 54.1201 30.2 54.3301C30.23 55.4601 30.14 56.6001 30.28 57.7301C30.28 61.4201 30.31 65.1001 30.31 68.7901C30.31 69.2601 30.28 69.7201 30.33 70.1901C30.36 70.4801 30.6 70.6701 30.81 70.8501C31.76 71.6001 32.59 72.5001 33.52 73.2801C34.07 73.7401 34.56 74.2701 35.11 74.7301C36.02 75.5001 36.86 76.3501 37.76 77.1301C38.4 77.7101 39.05 78.2701 39.66 78.8801C40.13 79.3401 40.67 79.7201 41.14 80.1901C41.83 80.8701 42.6 81.4601 43.28 82.1501C44.04 82.9001 44.87 83.5801 45.67 84.2901C46.41 85.0101 47.18 85.6801 47.94 86.3701C48.87 87.2701 49.89 88.0801 50.81 88.9801C51.43 89.5901 52.11 90.1101 52.73 90.7201C53.32 91.3001 53.97 91.8001 54.56 92.3801C55.21 93.0101 55.92 93.5701 56.58 94.1901C57.65 95.1801 58.75 96.1401 59.79 97.1601C60.03 97.3801 60.29 97.5701 60.56 97.7501C60.65 96.8601 60.59 95.9701 60.61 95.0801C60.61 80.3701 60.61 65.6501 60.61 50.9401C60.6 47.8601 60.63 44.7701 60.59 41.6901C58.55 41.6501 56.51 41.6901 54.47 41.6701C38.04 41.6701 21.62 41.6701 5.19 41.6701C3.52 41.6601 1.84 41.7001 0.17 41.6501H0.06L0 41.6301ZM44.72 39.3901C44.95 39.4701 45.17 39.3201 45.36 39.2101C45.24 38.9501 45.12 38.6901 44.99 38.4301C44.87 38.7301 44.49 39.0601 44.72 39.3801V39.3901ZM44.62 38.4201C44.73 38.1001 44.92 37.8101 45.17 37.5801C45.62 38.5601 46.01 39.5801 46.51 40.5401C46.2 40.6001 45.88 40.6101 45.56 40.6001C45.62 40.3601 45.78 40.0601 45.58 39.8401C45.38 39.5901 45.02 39.6601 44.74 39.6701C44.52 39.6701 44.36 39.8801 44.26 40.0601C44.26 40.2501 44.32 40.4401 44.36 40.6201C44.1 40.6101 43.85 40.5801 43.59 40.5501C44.06 39.9101 44.33 39.1601 44.61 38.4301L44.62 38.4201ZM47.38 37.6001C47.61 37.5701 47.83 37.6101 48.06 37.6501C47.75 38.2001 47.86 38.8401 47.84 39.4501C47.84 39.7401 47.8 40.0601 47.95 40.3301C48.47 40.4501 49.02 40.3601 49.46 40.0501C49.5 40.1001 49.58 40.2101 49.62 40.2601C49.49 40.4301 49.34 40.6201 49.1 40.6001C48.48 40.6201 47.86 40.6301 47.25 40.5601C47.31 40.3701 47.39 40.1801 47.4 39.9701C47.41 39.1801 47.39 38.3901 47.39 37.6001H47.38ZM40.18 37.6101C40.46 37.5801 40.79 37.5501 40.99 37.7901C41.51 38.3701 41.88 39.0801 42.51 39.5601C42.52 39.0901 42.55 38.6201 42.51 38.1501C42.5 37.9301 42.29 37.7901 42.18 37.6301C42.46 37.5901 42.73 37.6001 43.01 37.6301C42.92 37.8201 42.79 38.0001 42.78 38.2101C42.73 39.0001 42.86 39.7901 42.68 40.5701C42 39.9801 41.53 39.2001 40.97 38.5101H40.78C40.78 39.0301 40.75 39.5601 40.8 40.0901C40.8 40.2701 41 40.3201 41.12 40.4201C41.12 40.4701 41.12 40.5301 41.13 40.5801C40.73 40.6101 40.34 40.5901 39.95 40.5101C40.1 40.4301 40.26 40.3501 40.41 40.2701C40.45 39.6401 40.43 39.0101 40.44 38.3801C40.46 38.1001 40.32 37.8501 40.19 37.6001L40.18 37.6101ZM37.82 37.8401C37.37 38.0201 37.19 38.5501 37.21 39.0001C37.18 39.4901 37.31 40.0501 37.74 40.3301C37.99 40.3901 38.26 40.3801 38.52 40.3301C38.9 40.1201 39 39.6501 39.04 39.2501C39.05 38.8401 39.01 38.3701 38.74 38.0401C38.52 37.7601 38.13 37.7801 37.82 37.8401ZM37.48 37.6501C37.85 37.5201 38.26 37.5301 38.64 37.6001C39.07 37.7601 39.4 38.1401 39.54 38.5701C39.62 39.1501 39.63 39.8601 39.12 40.2601C38.71 40.6801 38.07 40.6701 37.54 40.5601C36.96 40.3201 36.7 39.6601 36.6 39.0901C36.69 38.5301 36.94 37.9101 37.48 37.6501ZM35.08 37.6501C35.39 37.6101 35.69 37.5901 36 37.6201C35.88 37.7701 35.7 37.9101 35.72 38.1301C35.72 38.8601 35.72 39.5901 35.72 40.3201C35.85 40.3801 35.97 40.4401 36.1 40.5101C35.76 40.6101 35.41 40.6201 35.07 40.5501C35.37 40.1501 35.28 39.6501 35.29 39.1801C35.29 38.6601 35.37 38.1101 35.08 37.6501ZM31.92 37.6301C32.76 37.5401 33.61 37.5901 34.45 37.6001C34.45 37.9301 34.44 38.2601 34.41 38.5801C34.28 38.3601 34.18 38.1001 33.98 37.9301C33.81 37.9001 33.64 37.8901 33.47 37.8901C33.35 38.6101 33.4 39.3301 33.4 40.0601C33.39 40.3001 33.65 40.4101 33.79 40.5601C33.42 40.6101 33.04 40.6201 32.66 40.5601C32.78 40.2801 32.88 39.9801 32.87 39.6701C32.86 39.1401 32.89 38.6101 32.86 38.0901C32.86 37.8601 32.58 37.8901 32.42 37.9201C32.22 37.9901 32.06 38.1501 31.89 38.2701C31.9 38.0601 31.91 37.8401 31.92 37.6301ZM29.95 39.2601C30.11 39.5101 30.41 39.3401 30.64 39.3101C30.55 39.0401 30.44 38.7801 30.33 38.5101C30.12 38.7001 29.92 38.9501 29.95 39.2501V39.2601ZM30.29 37.5701C30.41 37.6601 30.54 37.7501 30.61 37.8901C31.02 38.7601 31.36 39.6701 31.8 40.5201C31.54 40.5501 31.28 40.5801 31.02 40.6101C31.06 40.2601 31.04 39.8601 30.7 39.6701C30.34 39.6101 29.96 39.6601 29.6 39.7101C29.56 39.9801 29.59 40.2601 29.63 40.5301C29.41 40.5501 29.19 40.5701 28.97 40.5901C29.41 39.5801 29.82 38.5601 30.28 37.5601L30.29 37.5701ZM25.51 37.6401C25.74 37.6301 26.01 37.5101 26.2 37.7001C26.66 38.1301 26.96 38.6801 27.38 39.1401C27.49 39.2601 27.65 39.3101 27.8 39.3701C27.83 38.7801 27.82 38.1701 27.55 37.6301C27.81 37.6001 28.07 37.6001 28.33 37.6201C28.22 37.8401 28.08 38.0501 28.08 38.3001C28.07 39.1201 28.11 39.9301 28.05 40.7501C27.29 40.0901 26.85 39.1401 26.1 38.4601C26.07 38.4701 26.02 38.4901 25.99 38.5001C25.96 38.9601 25.98 39.4201 25.99 39.8701C25.97 40.1301 26.14 40.3401 26.26 40.5601C25.97 40.6001 25.68 40.5801 25.4 40.5301C25.51 40.4001 25.73 40.3201 25.74 40.1201C25.77 39.5101 25.74 38.9001 25.74 38.3001C25.76 38.0601 25.63 37.8401 25.52 37.6401H25.51ZM23.01 37.8201C23.01 38.2401 23.01 38.6501 23.03 39.0701C23.26 39.0201 23.51 38.9801 23.71 38.8601C23.97 38.7101 23.9 38.3501 23.85 38.1101C23.67 37.8301 23.31 37.8201 23.01 37.8201ZM22.2 37.6401C22.86 37.5801 23.63 37.4201 24.21 37.8401C24.49 38.0201 24.58 38.4101 24.45 38.7101C24.33 38.9501 24.06 39.0501 23.84 39.1801C24.05 39.7401 24.54 40.1101 24.94 40.5201C24.73 40.5501 24.51 40.6201 24.3 40.5901C23.79 40.2301 23.58 39.5701 23.03 39.2401C23 39.6801 22.98 40.1301 23.13 40.5401C22.84 40.5901 22.54 40.5901 22.25 40.5501C22.58 39.9101 22.48 39.1701 22.49 38.4801C22.51 38.1701 22.36 37.8901 22.2 37.6401ZM19.33 37.5901C20.06 37.6201 20.82 37.4801 21.54 37.6901C21.54 37.8601 21.51 38.0201 21.49 38.1901C21.33 38.0801 21.19 37.9301 21.01 37.8601C20.69 37.8101 20.37 37.8401 20.05 37.8401C20.05 38.1901 20.05 38.5401 20.05 38.8901C20.48 38.9101 20.92 38.9001 21.29 38.6701C21.29 38.9001 21.29 39.1401 21.29 39.3701C20.91 39.1801 20.5 39.1101 20.07 39.1201C20 39.5301 19.98 39.9501 20.07 40.3601C20.39 40.3601 20.71 40.3901 21.03 40.3401C21.28 40.2501 21.47 40.0601 21.69 39.9201C21.65 40.1701 21.57 40.4001 21.46 40.6201C20.76 40.5901 20.06 40.6501 19.36 40.5901C19.45 39.6001 19.55 38.5801 19.34 37.6001L19.33 37.5901ZM16.14 37.6201C16.73 37.5501 17.33 37.5801 17.92 37.5701C18.2 37.5701 18.49 37.5501 18.75 37.6801C18.75 37.8801 18.73 38.0801 18.71 38.2701C18.46 38.0701 18.21 37.7801 17.85 37.8201C17.62 37.9401 17.73 38.2501 17.7 38.4701C17.75 39.1601 17.58 39.8901 17.85 40.5501C17.59 40.5801 17.34 40.6101 17.08 40.5701C17.11 39.6601 17.13 38.7501 17.1 37.8501C16.78 37.8301 16.49 37.9601 16.23 38.1401C16.2 37.9701 16.17 37.7901 16.15 37.6101L16.14 37.6201ZM11.08 37.6301C11.39 37.5801 11.71 37.5901 12.02 37.6401C11.68 38.0801 11.79 38.6601 11.78 39.1801C11.78 39.6401 11.69 40.1601 12.01 40.5501C11.72 40.6001 11.42 40.6001 11.13 40.5501C11.24 40.2801 11.36 40.0001 11.34 39.7101C11.34 39.2201 11.34 38.7301 11.34 38.2401C11.34 38.0101 11.19 37.8301 11.08 37.6401V37.6301ZM14.72 37.6301C15.07 37.5601 15.42 37.5801 15.77 37.6601C15.63 37.7601 15.5 37.8601 15.36 37.9501C15.34 38.8701 15.39 39.7801 15.32 40.7001C15.08 40.5301 14.85 40.3201 14.69 40.0701C14.29 39.4501 13.82 38.8701 13.27 38.3601C13.26 38.8701 13.25 39.3701 13.26 39.8801C13.25 40.1501 13.45 40.3401 13.59 40.5501C13.3 40.5901 13.02 40.6001 12.73 40.5601C12.85 40.4101 13.04 40.2701 13.01 40.0601C13.01 39.3501 13 38.6401 13.01 37.9301C12.91 37.8401 12.8 37.7501 12.7 37.6601C12.95 37.6201 13.25 37.5201 13.46 37.7201C13.95 38.1701 14.23 38.8101 14.75 39.2301C14.84 39.3201 14.95 39.3501 15.07 39.3101C15.1 38.9801 15.12 38.6401 15.07 38.3001C15.01 38.0501 14.84 37.8401 14.7 37.6301H14.72ZM33.45 33.5601C33.28 33.3501 33.4 33.0601 33.59 32.9101C33.84 32.9401 33.9 33.2101 34 33.3901C34.32 34.1501 34.66 34.9001 34.99 35.6601C34.81 35.7101 34.58 35.9401 34.43 35.7501C34.25 35.5001 34.26 35.1701 34.13 34.9001C33.76 34.8301 33.37 34.8701 33 34.8601C32.86 35.1301 32.76 35.4301 32.75 35.7401C32.61 35.7401 32.46 35.7401 32.32 35.7401C32.7 35.0201 32.9 34.2001 33.39 33.5401C33.39 33.9101 33.26 34.2601 33.17 34.6101C33.43 34.6101 33.69 34.6101 33.95 34.6101C33.88 34.2201 33.69 33.8801 33.46 33.5601H33.45ZM39.28 32.8601C39.44 32.8601 39.6 32.8601 39.76 32.8601C39.77 33.8201 39.68 34.7901 39.82 35.7401C39.64 35.7401 39.46 35.7401 39.29 35.7501C39.32 34.7901 39.34 33.8201 39.29 32.8601H39.28ZM48.65 32.8301C48.89 32.8701 49.25 32.7701 49.39 33.0301C49.59 33.3801 49.78 33.7301 50.05 34.0301C50.38 33.7101 50.62 33.2901 50.64 32.8201C50.86 32.8201 51.08 32.8401 51.3 32.8601C51.02 33.2901 50.7 33.7001 50.39 34.1201C50.02 34.5901 50.22 35.2201 50.19 35.7601C50 35.7301 49.82 35.7101 49.63 35.6801C49.69 35.2701 49.84 34.8301 49.63 34.4401C49.34 33.8801 48.86 33.4401 48.65 32.8301ZM44.01 32.9001C44.17 32.8101 44.37 32.8401 44.54 32.8801C44.57 33.7301 44.47 34.6001 44.6 35.4401C44.67 35.6701 44.38 35.7401 44.25 35.8601C44.19 35.8201 44.06 35.7301 43.99 35.6901C44.03 34.7601 43.99 33.8201 44.01 32.8901V32.9001ZM29.59 32.7901C30.03 32.7701 30.46 32.7901 30.9 32.8101C31.31 32.8101 31.79 32.6601 32.14 32.9701C32.19 33.2101 32.11 33.4601 32.06 33.6901C31.91 33.5001 31.77 33.2901 31.57 33.1601C31.42 33.1001 31.25 33.1201 31.09 33.1001C30.95 33.9901 31.13 34.8801 31.04 35.7701C30.84 35.7201 30.55 35.8201 30.43 35.5901C30.56 34.7801 30.48 33.9501 30.51 33.1401C30.32 33.1201 30.13 33.1201 29.94 33.1101C29.81 33.2701 29.68 33.4201 29.54 33.5701C29.45 33.3101 29.52 33.0401 29.59 32.7801V32.7901ZM26.33 32.8901C26.52 32.8201 26.76 32.8201 26.89 32.9901C27.43 33.6001 27.89 34.2801 28.48 34.8501C28.49 34.2001 28.64 33.4801 28.24 32.9101C28.42 32.8801 28.59 32.8601 28.77 32.8501C28.7 33.8601 28.85 34.8801 28.65 35.8801C27.89 35.2001 27.38 34.3001 26.67 33.5701C26.5 34.3001 26.65 35.0301 26.69 35.7601C26.57 35.8101 26.43 35.7901 26.31 35.7801C26.47 34.8301 26.43 33.8501 26.33 32.9001V32.8901ZM22.83 32.8101C23.04 32.8101 23.25 32.8101 23.46 32.8101C23.45 33.5701 23.42 34.3201 23.45 35.0801C23.45 35.3301 23.68 35.5001 23.9 35.5601C24.22 35.6101 24.62 35.5601 24.83 35.2801C24.92 35.0901 24.93 34.8601 24.93 34.6501C24.93 34.0501 24.94 33.4401 24.84 32.8501C24.99 32.8501 25.15 32.8501 25.3 32.8701C25.3 33.1501 25.19 33.4201 25.15 33.6901C25.06 34.2501 25.18 34.8301 25.1 35.3901C24.66 36.0601 23.44 36.1101 23.06 35.3501C22.71 34.5501 22.92 33.6501 22.84 32.8101H22.83ZM10.33 33.8301C10.21 34.0801 10.15 34.3501 10.08 34.6201C10.37 34.6201 10.66 34.6101 10.96 34.5901C10.84 34.3101 10.73 34.0101 10.56 33.7501C10.48 33.7501 10.37 33.7401 10.34 33.8401L10.33 33.8301ZM9.62 34.8501C10 34.1801 10.18 33.4201 10.6 32.7701C10.89 33.3101 11.15 33.8601 11.38 34.4301C11.56 34.8601 11.8 35.2601 11.93 35.7001C11.8 35.8001 11.65 35.8501 11.49 35.8301C11.2 35.6101 11.17 35.2001 11.07 34.8701C10.68 34.8701 10.29 34.8701 9.89 34.8701C9.82 35.1901 9.76 35.5201 9.69 35.8401C9.53 35.8401 9.37 35.8401 9.21 35.8301C9.3 35.4901 9.44 35.1701 9.61 34.8701L9.62 34.8501ZM45.42 32.8101C46.06 32.7401 46.71 32.8101 47.36 32.7801C47.56 32.8001 47.83 32.7201 47.97 32.9001C48.04 33.1601 48 33.4301 47.99 33.7001C47.81 33.5101 47.64 33.3101 47.43 33.1601C47.28 33.1301 47.13 33.1201 46.97 33.1101C46.99 34.0201 46.88 34.9401 47.06 35.8301C46.79 35.8301 46.52 35.8301 46.25 35.8301C46.41 35.2201 46.34 34.5801 46.36 33.9501C46.36 33.6801 46.36 33.4001 46.33 33.1401C45.91 33.0301 45.62 33.4101 45.31 33.6301C45.31 33.3601 45.28 33.0601 45.43 32.8101H45.42ZM40.66 32.7801C41 32.7801 41.33 32.7801 41.67 32.7901C41.56 33.0801 41.46 33.3701 41.47 33.6901C41.47 34.2901 41.48 34.8801 41.47 35.4801C41.83 35.4801 42.19 35.5401 42.55 35.4501C42.78 35.3401 42.95 35.1501 43.13 34.9901C43.2 35.2701 43.25 35.7401 42.87 35.8001C42.16 35.8501 41.45 35.8001 40.74 35.8001C41.16 35.2001 41.01 34.4501 41.03 33.7601C41.06 33.3801 40.85 33.0601 40.65 32.7701L40.66 32.7801ZM13.03 33.2301C13.57 32.6001 14.49 32.7001 15.19 32.9501C15.35 33.1701 15.25 33.4901 15.28 33.7501C14.99 33.5101 14.74 33.1801 14.37 33.0401C13.91 32.9101 13.48 33.3101 13.3 33.7001C13.22 34.0901 13.23 34.5001 13.28 34.8901C13.45 35.3001 13.9 35.6201 14.35 35.5601C14.7 35.4601 15.01 35.2501 15.37 35.1901C15.36 35.4501 15.12 35.5901 14.92 35.7001C14.51 35.9401 14.01 35.9501 13.56 35.8301C12.55 35.4601 12.22 33.9501 13.03 33.2201V33.2301ZM36.6 34.4201C36.6 34.7601 36.57 35.1001 36.61 35.4301C36.7 35.5301 36.83 35.6001 36.97 35.5501C37.21 35.4901 37.52 35.4201 37.62 35.1601C37.63 34.9801 37.68 34.7601 37.52 34.6201C37.29 34.3401 36.9 34.4301 36.59 34.4101L36.6 34.4201ZM36.6 33.1101C36.6 33.4301 36.58 33.7601 36.62 34.0801C36.86 34.1101 37.14 34.1201 37.34 33.9701C37.54 33.8401 37.49 33.5601 37.44 33.3601C37.32 33.0101 36.87 33.1501 36.59 33.1101H36.6ZM35.52 32.8401C35.97 32.7101 36.44 32.7901 36.91 32.7801C37.3 32.7801 37.75 32.8601 38.02 33.1701C38.18 33.5301 38.05 33.9301 37.83 34.2301C38.02 34.4501 38.3 34.6701 38.27 35.0001C38.3 35.4701 37.81 35.7601 37.41 35.8101C36.88 35.8501 36.35 35.8101 35.82 35.8301C36.04 34.9801 35.88 34.1001 35.93 33.2301C35.8 33.1001 35.66 32.9701 35.52 32.8401ZM20.38 33.0501C20.23 33.1001 20.09 33.1901 19.97 33.3001C19.42 33.9601 19.55 35.0601 20.26 35.5501C20.6 35.8101 21.03 35.5401 21.22 35.2301C21.59 34.6301 21.58 33.7501 21.09 33.2201C20.89 33.0701 20.63 32.9701 20.38 33.0401V33.0501ZM20.32 32.7201C20.87 32.6501 21.51 32.8701 21.8 33.3701C21.95 33.6601 22.09 33.9701 22.12 34.3001C22.03 34.7401 21.96 35.2301 21.6 35.5401C21.23 35.8701 20.7 35.9801 20.21 35.9001C19.73 35.7901 19.34 35.3801 19.2 34.9201C19.15 34.5201 19.16 34.1101 19.21 33.7201C19.32 33.1901 19.8 32.8301 20.31 32.7301L20.32 32.7201ZM16.78 32.8301C17.32 32.6101 17.91 32.7601 18.46 32.8301C18.68 33.1401 18.54 33.5401 18.46 33.8801C18.23 33.6201 18.05 33.3001 17.75 33.1301C17.44 33.1001 17.05 33.0201 16.83 33.2901C16.37 33.7901 16.23 34.6501 16.68 35.2001C16.92 35.5301 17.36 35.6301 17.75 35.5601C18.03 35.4601 18.27 35.2701 18.51 35.1001C18.55 35.5501 18.1 35.8001 17.73 35.8901C17.3 35.9401 16.82 35.9601 16.46 35.6801C15.94 35.2801 15.65 34.5401 15.86 33.9101C16.01 33.4501 16.3 33.0001 16.77 32.8401L16.78 32.8301ZM32.87 30.9701C33.56 30.1001 33.72 28.9401 34.37 28.0501C35.01 28.9501 35.21 30.0701 35.83 30.9801C35.57 31.0101 35.32 31.0301 35.06 31.0401C35.03 30.7501 34.96 30.4501 34.82 30.1901C34.62 29.7901 34.5 29.3601 34.34 28.9401C33.92 29.2201 33.95 29.7601 33.71 30.1601C33.54 30.4301 33.53 30.7401 33.54 31.0501C33.31 31.0301 33.09 31.0101 32.86 30.9801L32.87 30.9701ZM36.57 28.0701C36.82 28.0701 37.08 28.0701 37.33 28.0701C37.12 28.9601 37.24 29.8801 37.23 30.7901C37.55 30.7901 37.88 30.8201 38.2 30.7701C38.47 30.6901 38.67 30.4701 38.9 30.3201C38.89 30.6001 38.83 31.0001 38.48 31.0301C37.82 31.0501 37.16 31.0701 36.51 31.0001C36.86 30.0601 36.6 29.0501 36.57 28.0801V28.0701ZM31.1 28.0801C31.52 28.0701 31.95 28.0601 32.37 28.0701C32.23 28.2701 32.05 28.4701 32.07 28.7301C32.07 29.2601 32.07 29.7801 32.07 30.3101C32.07 30.5801 32.23 30.7901 32.34 31.0301C31.93 31.0601 31.53 31.0401 31.12 31.0301C31.12 31.0001 31.14 30.9501 31.15 30.9201C31.28 30.7901 31.5 30.7001 31.48 30.4801C31.5 29.7701 31.48 29.0701 31.48 28.3601C31.36 28.3101 31.25 28.2701 31.13 28.2201C31.13 28.1901 31.11 28.1201 31.1 28.0801ZM28.69 28.1201C29.3 27.8701 29.96 28.0801 30.59 28.1001C30.59 28.4401 30.59 28.7801 30.57 29.1101C30.3 28.8501 30.1 28.5001 29.76 28.3001C29.36 28.1201 28.92 28.3701 28.7 28.7101C28.43 29.0301 28.49 29.4701 28.52 29.8601C28.57 30.3501 28.98 30.8301 29.5 30.7901C29.93 30.8201 30.26 30.5001 30.61 30.3101C30.58 30.5701 30.48 30.8701 30.2 30.9601C29.64 31.1601 28.92 31.2501 28.43 30.8501C28.21 30.6801 27.99 30.4601 27.92 30.1801C27.87 29.9001 27.89 29.6101 27.89 29.3301C27.87 28.8101 28.24 28.3201 28.7 28.1201H28.69ZM25.63 28.2601C25.05 28.5001 24.85 29.2501 24.95 29.8201C25.05 30.1501 25.12 30.5701 25.45 30.7501C25.81 30.8101 26.27 30.8601 26.53 30.5401C26.9 30.0501 26.93 29.3601 26.69 28.8101C26.52 28.4001 26.07 28.1201 25.62 28.2501L25.63 28.2601ZM25.45 28.0501C25.82 27.9301 26.23 28.0101 26.58 28.1601C27.09 28.4001 27.34 28.9901 27.39 29.5201C27.38 29.9801 27.18 30.4401 26.84 30.7601C26.5 31.0601 26.02 31.0701 25.59 31.0401C24.95 31.0001 24.46 30.3701 24.49 29.7501C24.49 29.4001 24.44 29.0301 24.61 28.7101C24.79 28.3901 25.11 28.1601 25.45 28.0501ZM22.33 28.0201C22.76 27.9601 23.19 28.0201 23.62 27.9901C23.62 28.3201 23.63 28.6401 23.63 28.9701C23.6 28.9601 23.53 28.9401 23.49 28.9201C23.33 28.6701 23.18 28.3501 22.87 28.2701C22.7 28.2501 22.53 28.2701 22.37 28.2701C22.37 28.4601 22.37 28.6601 22.41 28.8401C22.71 29.2901 23.32 29.3801 23.61 29.8401C23.87 30.2501 23.67 30.9501 23.15 31.0101C22.68 31.0701 22.21 31.0101 21.75 30.9601C21.72 30.6801 21.72 30.3901 21.79 30.1201C21.97 30.3301 22.14 30.5501 22.3 30.7801C22.56 30.7801 22.82 30.8101 23.08 30.7501C23.26 30.5601 23.17 30.2701 23.19 30.0301C22.83 29.8401 22.46 29.6501 22.14 29.3901C21.7 29.0501 21.8 28.2301 22.33 28.0201ZM29.44 17.5401C29.54 17.3001 29.62 17.0201 29.87 16.8801C30.08 17.1401 30.2 17.4601 30.31 17.7801C30.66 18.7301 31.13 19.6201 31.42 20.5901C30.38 20.6001 29.33 20.6101 28.29 20.5901C28.38 20.0201 28.66 19.5101 28.86 18.9801C29.05 18.5001 29.26 18.0301 29.44 17.5401ZM37.4 13.8101C37.4 14.0301 37.4 14.2401 37.4 14.4601C37.87 14.4901 38.34 14.5601 38.76 14.7801C38.91 14.9101 38.87 15.1401 38.89 15.3201C38.89 18.1101 38.89 20.9001 38.89 23.6901C38.89 23.9101 38.89 24.2001 38.66 24.3201C38.27 24.5401 37.8 24.5301 37.39 24.6901C37.29 24.8701 37.35 25.0801 37.42 25.2501C37.56 25.2801 37.71 25.2801 37.86 25.2901C39.32 25.2901 40.77 25.2901 42.23 25.2901C42.38 25.2901 42.53 25.2901 42.67 25.2401C42.87 25.0801 42.72 24.8201 42.7 24.6201C42.26 24.5801 41.79 24.5501 41.4 24.3401C41 24.0501 41.04 23.5001 41.05 23.0701C41.05 20.5401 41.05 18.0201 41.05 15.4901C41.04 15.1801 41.18 14.8701 41.45 14.7101C41.83 14.5001 42.28 14.4801 42.71 14.4801C42.71 14.2601 42.71 14.0401 42.71 13.8201C40.94 13.8201 39.18 13.8201 37.41 13.8201L37.4 13.8101ZM29.6 14.5701C28.85 16.3201 28.15 18.1001 27.37 19.8401C26.96 20.8401 26.54 21.8401 26.1 22.8201C25.87 23.3201 25.68 23.8601 25.3 24.2701C25.03 24.5501 24.63 24.6201 24.3 24.8001C24.31 24.9401 24.29 25.1001 24.4 25.2101C24.61 25.3001 24.84 25.2901 25.06 25.2901C25.79 25.2901 26.51 25.2901 27.24 25.2901C27.49 25.2901 27.75 25.2901 27.99 25.2101C28.12 25.0601 28 24.8601 27.99 24.7001C27.58 24.7101 27.18 24.5801 26.84 24.3601C26.83 23.7401 27.12 23.1801 27.33 22.6001C27.45 22.2801 27.56 21.9501 27.76 21.6701C28.66 21.6001 29.57 21.6701 30.47 21.6501C31 21.6501 31.53 21.6101 32.05 21.7301C32.22 22.3201 32.48 22.8701 32.69 23.4401C32.82 23.7901 32.78 24.1601 32.78 24.5301C32.43 24.6001 32.08 24.6601 31.73 24.7001C31.73 24.8901 31.73 25.0901 31.73 25.2801C33.05 25.2801 34.37 25.2801 35.69 25.2801C35.89 25.2801 36.09 25.2801 36.29 25.2301C36.34 25.0601 36.35 24.8801 36.37 24.7101C36.08 24.6501 35.77 24.6301 35.52 24.4501C35.27 24.2701 35.1 24.0101 34.97 23.7301C34.37 22.3801 33.8 21.0201 33.19 19.6701C32.37 17.7401 31.49 15.8501 30.68 13.9201C30.61 13.6601 30.37 13.5501 30.12 13.6201C29.85 13.8701 29.76 14.2401 29.62 14.5701H29.6ZM17.69 14.4701C17.27 14.9501 16.84 15.5101 16.84 16.1801C16.84 16.7501 16.76 17.3801 17.07 17.8901C17.51 18.7801 18.39 19.3101 19.21 19.7901C20.02 20.3301 20.91 20.7801 21.62 21.4501C22.32 22.1301 22.37 23.3901 21.67 24.0901C21.14 24.5701 20.36 24.6801 19.68 24.5101C18.88 24.3601 18.2 23.8301 17.75 23.1701C17.41 22.6901 17.23 22.1201 16.9 21.6301C16.74 21.6101 16.57 21.6101 16.41 21.6001C16.41 21.9101 16.41 22.2201 16.43 22.5401C16.46 23.0401 16.68 23.5101 16.67 24.0201C16.67 24.5101 16.82 24.9901 16.88 25.4701C17.03 25.4701 17.17 25.4601 17.31 25.4301C17.48 25.2501 17.59 25.0201 17.78 24.8601C18.54 25.0001 19.24 25.3701 20.01 25.4501C20.6 25.4801 21.21 25.5001 21.77 25.2801C22.62 25.0401 23.34 24.4301 23.79 23.6901C24.18 23.0501 24.07 22.2801 24.06 21.5701C23.95 20.8301 23.44 20.2101 22.87 19.7601C21.9 18.9901 20.8 18.4101 19.77 17.7201C19.25 17.3601 18.68 16.9201 18.57 16.2501C18.54 15.9101 18.51 15.5201 18.72 15.2201C19 14.8101 19.5 14.5401 20 14.5201C20.84 14.5901 21.72 14.8801 22.26 15.5701C22.65 16.1201 23.02 16.7301 23.06 17.4301C23.32 17.4301 23.57 17.4301 23.83 17.4301C23.79 17.2001 23.73 16.9701 23.69 16.7301C23.57 16.1601 23.71 15.5701 23.56 15.0101C23.44 14.5501 23.45 14.0701 23.38 13.6001C23.21 13.6001 23.05 13.6001 22.89 13.6101C22.75 13.8301 22.63 14.1901 22.3 14.1301C21.64 14.0501 21.04 13.6701 20.38 13.6101C19.43 13.5101 18.38 13.7501 17.7 14.4601L17.69 14.4701ZM0.3 10.8401C20.32 10.8401 40.33 10.8401 60.35 10.8401C60.41 11.7001 60.37 12.5501 60.38 13.4101C60.38 18.0101 60.39 22.6101 60.38 27.2101C55.93 27.2401 51.47 27.2101 47.02 27.2201C31.58 27.2201 16.14 27.2201 0.7 27.2201C0.57 27.2001 0.3 27.2301 0.32 27.0301C0.32 21.6301 0.32 16.2301 0.32 10.8301L0.3 10.8401ZM0.32 8.0401C0.79 7.9401 1.26 8.0301 1.73 8.0401C21.28 8.0401 40.82 8.0401 60.37 8.0401C60.48 8.7401 60.48 9.46011 60.37 10.1701C60.15 10.2001 59.93 10.2201 59.7 10.2201C40.52 10.2201 21.33 10.2201 2.15 10.2201C1.53 10.2201 0.9 10.2601 0.28 10.1701C0.28 9.46011 0.27 8.7501 0.3 8.0401H0.32ZM0.3 5.1001C16.94 5.1001 33.58 5.1001 50.22 5.1001C53.65 5.1001 57.09 5.0901 60.53 5.1001C60.53 5.7401 60.55 6.38011 60.53 7.03011C60.55 7.23011 60.31 7.26011 60.16 7.26011C40.21 7.26011 20.26 7.26011 0.31 7.26011C0.31 6.54011 0.31 5.8201 0.31 5.1001H0.3ZM0.31 2.22011C20.33 2.22011 40.35 2.22011 60.37 2.22011C60.42 2.61011 60.57 3.05011 60.35 3.41011C60.3 3.52011 60.17 3.52011 60.07 3.53011C40.25 3.53011 20.44 3.53011 0.62 3.53011C0.5 3.53011 0.34 3.50011 0.33 3.36011C0.28 2.99011 0.32 2.61011 0.32 2.23011L0.31 2.22011ZM0.29 0.0201051C5.47 -0.00989486 10.66 0.0101051 15.84 0.000105136C29.33 0.000105136 42.83 0.000105136 56.32 0.000105136C57.73 0.0201051 59.13 -0.0398949 60.54 0.0401051C60.51 0.230105 60.48 0.420105 60.42 0.610105C60.3 0.640105 60.19 0.640105 60.07 0.650105C40.15 0.650105 20.23 0.650105 0.3 0.650105C0.3 0.440105 0.3 0.230105 0.29 0.0201051Z" fill="#A09589"/>
<path d="M63.24 96.1499C63.26 96.2899 63.17 96.5299 63.36 96.5999C63.53 96.5999 63.7 96.5999 63.86 96.5899C63.86 96.4499 63.86 96.3099 63.86 96.1599C63.65 96.1599 63.44 96.1499 63.24 96.1599M62.84 95.8399C63.19 95.7799 63.55 95.7799 63.9 95.8099C64.17 95.8099 64.37 96.1099 64.35 96.3599C64.29 96.5899 64.12 96.7699 63.98 96.9599C64.14 97.2099 64.28 97.4799 64.36 97.7699C63.94 97.7699 63.85 97.3299 63.62 97.0699C63.49 96.9799 63.33 96.9399 63.18 96.8899C63.15 97.1799 63.13 97.4799 63.04 97.7599C62.99 97.7099 62.89 97.6199 62.83 97.5699C62.78 96.9899 62.79 96.4099 62.83 95.8299L62.84 95.8399ZM63.23 95.1899C62.51 95.3499 61.96 96.0699 62.01 96.8099C62 97.5099 62.54 98.1699 63.22 98.3299C63.49 98.3799 63.77 98.3799 64.04 98.3299C64.76 98.1299 65.31 97.3899 65.23 96.6299C65.16 95.6899 64.16 94.9099 63.23 95.1899ZM62.99 94.8599C63.75 94.5499 64.62 94.8799 65.15 95.4599C65.45 95.8699 65.65 96.3799 65.6 96.8899C65.57 98.1099 64.21 99.0899 63.05 98.6899C62.39 98.4699 61.83 97.9299 61.67 97.2399C61.63 96.7999 61.61 96.3399 61.8 95.9299C62.01 95.4199 62.46 95.0199 62.99 94.8499V94.8599ZM28.57 48.2999C28.92 48.2299 29.32 48.2299 29.58 48.5099C29.88 48.7499 29.95 49.2499 29.68 49.5399C29.34 49.8099 28.87 49.7699 28.46 49.7599C28.08 49.7599 27.66 49.4299 27.71 49.0199C27.71 48.5799 28.21 48.3899 28.57 48.2999ZM19.45 48.2399C19.57 47.6299 19.8 47.0299 20.2 46.5499C20.48 47.0299 20.7 47.5399 20.84 48.0799C20.92 48.2599 20.75 48.3999 20.61 48.4999C20.36 48.6499 20.06 48.7599 19.77 48.7299C19.59 48.6499 19.39 48.4699 19.45 48.2599V48.2399ZM40.14 45.9299C40.51 45.8899 40.88 45.8799 41.25 45.9299C41.58 46.0499 41.75 46.4099 41.86 46.7299C42.01 47.1499 41.79 47.5899 41.89 48.0099C41.99 48.5199 41.85 49.0499 41.55 49.4699C41.35 49.7699 40.95 49.6799 40.63 49.6899C40.25 49.6899 39.76 49.6499 39.6 49.2399C39.28 48.6399 39.6 47.9899 39.55 47.3599C39.55 47.0099 39.5 46.6599 39.57 46.3199C39.69 46.1199 39.91 45.9799 40.14 45.9299ZM46.07 45.7999C46.74 45.6399 47.64 45.8599 47.9 46.5599C47.98 47.1699 47.85 47.7999 47.97 48.4099C48.07 48.8299 47.88 49.2899 47.55 49.5599C47.19 49.8199 46.72 49.7499 46.3 49.7499C45.96 49.7399 45.49 49.6699 45.43 49.2599C45.35 48.4599 45.25 47.6499 45.32 46.8399C45.38 46.3999 45.57 45.8799 46.07 45.7999ZM28.14 45.8199C28.64 45.6999 29.22 45.7099 29.68 45.9599C30.06 46.2399 29.84 46.8099 29.53 47.0499C29.17 47.2199 28.75 47.1399 28.36 47.1399C27.72 47.1199 27.45 46.0099 28.13 45.8199H28.14ZM34.33 45.7599C34.85 45.7399 35.49 45.7299 35.88 46.1299C36.33 46.7999 36.14 47.6599 36.1 48.4099C36.06 48.7599 36.17 49.1899 35.89 49.4699C35.64 49.7399 35.26 49.7699 34.91 49.7699C34.48 49.7699 33.98 49.8199 33.63 49.5099C33.41 49.3299 33.47 49.0099 33.46 48.7599C33.49 47.9899 33.44 47.2099 33.48 46.4399C33.6 46.0799 33.97 45.8399 34.33 45.7599ZM39.99 44.6899C39.65 44.7299 39.29 44.7499 38.97 44.8899C38.63 45.0799 38.45 45.4499 38.31 45.7999C38.14 46.2399 38.18 46.7199 38.11 47.1799C38.02 47.7799 38.2 48.3799 38.16 48.9899C38.12 49.7199 38.55 50.5099 39.29 50.7199C40.19 50.9599 41.16 50.9699 42.05 50.6699C42.35 50.5699 42.7 50.4699 42.85 50.1599C43.08 49.6899 43.24 49.1799 43.23 48.6599C43.21 47.7199 43.29 46.7499 43.05 45.8299C42.93 45.4499 42.66 45.1099 42.29 44.9499C41.56 44.6699 40.76 44.5299 39.99 44.6899ZM19.7 44.7199C19.38 44.7599 19.09 44.9699 18.98 45.2699C18.82 45.6899 18.77 46.1399 18.59 46.5499C18.37 47.0399 18.33 47.5899 18.11 48.0799C17.9 48.5599 17.77 49.0699 17.59 49.5599C17.47 49.8899 17.37 50.2499 17.47 50.5999C17.64 50.8799 18.03 50.8299 18.3 50.7999C18.61 50.5399 18.67 50.0799 18.96 49.7999C19.27 49.7199 19.6 49.7599 19.92 49.7599C20.31 49.7799 20.7 49.7399 21.08 49.7899C21.58 50.0099 21.63 50.8399 22.27 50.8199C22.63 50.8699 22.91 50.4999 22.83 50.1599C22.73 49.6999 22.5 49.2799 22.39 48.8199C22.17 47.9699 21.78 47.1799 21.59 46.3199C21.44 45.8499 21.38 45.3199 21.06 44.9399C20.67 44.6599 20.16 44.6999 19.7 44.7299V44.7199ZM13 44.7199C12.39 44.8499 11.86 45.4299 11.88 46.0699C11.88 46.5599 11.86 47.0899 12.1 47.5399C12.38 47.9799 12.92 48.1499 13.4 48.2399C13.96 48.3699 14.56 48.0599 15.07 48.3799C15.51 48.5999 15.59 49.2999 15.17 49.5699C14.7 49.8299 14.13 49.7599 13.62 49.7499C13.15 49.6799 13.18 49.0399 12.83 48.8199C12.5 48.7699 12.02 48.8099 11.92 49.1899C11.76 49.7499 12.06 50.3699 12.57 50.6399C13.2 50.9799 13.94 50.8799 14.62 50.8999C15.03 50.8899 15.47 50.9499 15.86 50.7899C16.34 50.5899 16.67 50.1199 16.75 49.6199C16.84 49.0999 16.96 48.5099 16.65 48.0399C16.41 47.6299 15.93 47.4499 15.51 47.2699C14.94 47.0199 14.29 47.2899 13.71 47.0699C13.46 46.9799 13.23 46.7699 13.18 46.4999C13.18 46.2499 13.36 46.0199 13.59 45.9099C13.96 45.7299 14.39 45.7299 14.78 45.7999C15.22 45.8999 15.37 46.3899 15.72 46.6199C16.04 46.6799 16.46 46.6599 16.64 46.3499C16.72 45.9499 16.56 45.5399 16.35 45.1999C16.03 44.7999 15.46 44.6999 14.97 44.7199C14.31 44.7399 13.65 44.6999 13 44.7399V44.7199ZM46.09 44.6499C45.82 44.6899 45.55 44.6999 45.28 44.7299C44.86 44.7799 44.56 45.1399 44.33 45.4699C43.92 46.1399 44.18 46.9499 44.04 47.6899C43.96 48.1199 44.08 48.5499 44.12 48.9699C44.19 49.3899 44.14 49.8699 44.4 50.2399C44.61 50.5099 44.87 50.7699 45.22 50.8499C45.75 50.9699 46.3 51.0099 46.83 50.9199C47.42 50.8999 48.07 50.8899 48.54 50.4699C48.83 50.2399 48.99 49.8899 49.05 49.5299C49.15 48.9599 49.29 48.3699 49.17 47.7799C49.08 47.3199 49.3 46.8599 49.16 46.4099C49.03 45.9399 48.85 45.4799 48.59 45.0699C48.45 44.8199 48.14 44.8099 47.89 44.7499C47.3 44.6199 46.69 44.5799 46.09 44.6499ZM34.25 44.6399C33.75 44.7099 33.22 44.7199 32.79 44.9899C32.52 45.1499 32.44 45.4699 32.37 45.7399C32.22 46.2899 32.26 46.8699 32.26 47.4399C32.26 47.9099 32.26 48.3699 32.31 48.8299C32.37 49.2799 32.28 49.7699 32.54 50.1799C32.81 50.5799 33.29 50.7499 33.74 50.8399C34.25 50.9199 34.77 51.0299 35.28 50.9199C35.63 50.8499 35.98 50.7699 36.32 50.6599C36.53 50.5899 36.76 50.4999 36.88 50.2899C37.18 49.7099 37.38 49.0599 37.32 48.3999C37.26 47.4999 37.48 46.5399 37.09 45.6899C36.93 45.2999 36.69 44.8499 36.23 44.7699C35.59 44.6399 34.92 44.5699 34.27 44.6299L34.25 44.6399ZM28.32 44.6499C27.76 44.7499 27.08 44.7599 26.72 45.2699C26.43 45.6099 26.5 46.0799 26.5 46.4899C26.5 46.9099 26.7 47.2899 26.75 47.6999C26.67 47.9999 26.48 48.2699 26.42 48.5799C26.39 48.8699 26.4 49.1499 26.41 49.4399C26.41 49.9799 26.74 50.4999 27.22 50.7299C27.87 50.9499 28.57 50.8499 29.24 50.8799C29.82 50.9099 30.44 50.7899 30.88 50.3999C31.16 49.9399 31.22 49.3699 31.2 48.8399C31.2 48.4299 30.92 48.0999 30.85 47.7099C30.92 47.2899 31.15 46.9099 31.19 46.4799C31.25 45.9699 31.1 45.3899 30.67 45.0699C30.35 44.8399 29.99 44.6099 29.59 44.6199C29.17 44.6199 28.74 44.5999 28.32 44.6499ZM0.109995 41.6399C1.78 41.6899 3.46 41.6399 5.13 41.6599C21.56 41.6599 37.98 41.6599 54.41 41.6599C56.45 41.6699 58.49 41.6299 60.53 41.6799C60.57 44.7599 60.53 47.8499 60.55 50.9299C60.55 65.6399 60.55 80.3599 60.55 95.0699C60.53 95.9599 60.59 96.8499 60.5 97.7399C60.23 97.5599 59.97 97.3699 59.73 97.1499C58.68 96.1399 57.58 95.1799 56.52 94.1799C55.86 93.5599 55.15 92.9999 54.5 92.3699C53.91 91.7999 53.26 91.2899 52.67 90.7099C52.06 90.0999 51.37 89.5699 50.75 88.9699C49.83 88.0599 48.81 87.2499 47.88 86.3599C47.12 85.6699 46.34 84.9999 45.61 84.2799C44.82 83.5599 43.98 82.8899 43.22 82.1399C42.54 81.4499 41.77 80.8599 41.08 80.1799C40.61 79.7099 40.07 79.3299 39.6 78.8699C38.99 78.2599 38.33 77.6999 37.7 77.1199C36.8 76.3399 35.96 75.4899 35.05 74.7199C34.5 74.2599 34.01 73.7299 33.46 73.2699C32.53 72.4899 31.71 71.5899 30.75 70.8399C30.55 70.6599 30.3 70.4699 30.27 70.1799C30.22 69.7099 30.26 69.2499 30.25 68.7799C30.25 65.0899 30.23 61.4099 30.22 57.7199C30.08 56.5899 30.17 55.4499 30.14 54.3199C30.12 54.1199 30.1 53.7799 29.83 53.7699C29.43 53.7599 28.99 53.6799 28.63 53.8799C28.6 54.0199 28.59 54.1699 28.59 54.3199C28.59 60.2199 28.59 66.1099 28.59 72.0099C28.62 72.3299 28.4 72.5699 28.17 72.7599C27.67 73.1599 27.18 73.5699 26.68 73.9699C25.29 75.0599 24.01 76.2899 22.57 77.3199C22.42 76.4899 22.51 75.6299 22.49 74.7899C22.49 67.9099 22.49 61.0299 22.49 54.1499C22.49 54.0299 22.48 53.9099 22.44 53.7899C22.2 53.6799 21.92 53.6899 21.66 53.6799C21.36 53.6799 21.04 53.6799 20.77 53.7999C20.71 54.2299 20.74 54.6699 20.74 55.1099C20.74 63.1199 20.74 71.1299 20.74 79.1399C20.77 79.6299 20.36 79.9299 20.02 80.1899C18.96 81.0399 17.92 81.9099 16.89 82.7999C16.25 83.3099 15.66 83.8799 14.97 84.3399C14.84 83.4799 14.92 82.6099 14.9 81.7399C14.9 72.5699 14.9 63.3999 14.9 54.2199C14.9 54.0999 14.89 53.9899 14.85 53.8799C14.68 53.7399 14.46 53.7599 14.25 53.7499C13.26 53.7499 12.26 53.7599 11.27 53.7499C11.13 54.3899 11.16 55.0499 11.16 55.6999C11.16 66.4099 11.16 77.1199 11.16 87.8399C11.17 88.2999 10.72 88.5399 10.42 88.8099C9.49 89.5999 8.46 90.2699 7.59 91.1299C7.48 91.2599 7.3 91.2899 7.15 91.3199C7.15 78.8899 7.15 66.4699 7.15 54.0399C7.12 54.0099 7.07 53.9499 7.04 53.9199C5.6 53.9099 4.17 53.9199 2.73 53.9199C2.58 53.9899 2.64 54.1799 2.63 54.3099C2.63 67.5199 2.63 80.7199 2.63 93.9299C2.63 94.6499 2.65 95.3699 2.62 96.0899C1.84 96.6499 1.25 97.4299 0.559996 98.0899C0.439996 98.2099 0.279995 98.2499 0.119995 98.2799C0.109995 79.3999 0.0699955 60.5199 0.0899955 41.6399H0.109995Z" fill="#013E7F"/>
<path d="M40.14 45.93C39.91 45.98 39.69 46.12 39.57 46.32C39.51 46.66 39.55 47.01 39.55 47.36C39.6 47.99 39.28 48.6501 39.6 49.2401C39.76 49.6601 40.25 49.69 40.63 49.69C40.94 49.68 41.34 49.77 41.55 49.47C41.85 49.05 41.99 48.52 41.89 48.01C41.79 47.58 42.01 47.15 41.86 46.73C41.75 46.41 41.58 46.06 41.25 45.93C40.88 45.88 40.51 45.89 40.14 45.93ZM39.99 44.69C40.76 44.53 41.56 44.66 42.29 44.95C42.66 45.11 42.93 45.4501 43.05 45.8301C43.29 46.7601 43.21 47.72 43.23 48.66C43.23 49.18 43.07 49.7 42.85 50.16C42.7 50.47 42.35 50.57 42.05 50.67C41.17 50.97 40.19 50.96 39.29 50.72C38.56 50.51 38.13 49.7201 38.16 48.9901C38.19 48.3801 38.02 47.78 38.11 47.18C38.18 46.72 38.13 46.24 38.31 45.8C38.44 45.45 38.63 45.08 38.97 44.89C39.29 44.75 39.65 44.73 39.99 44.69ZM19.45 48.2401C19.39 48.4601 19.58 48.64 19.77 48.71C20.07 48.74 20.36 48.64 20.61 48.48C20.75 48.39 20.92 48.2501 20.84 48.0601C20.7 47.5301 20.48 47.01 20.2 46.53C19.8 47.02 19.57 47.61 19.45 48.22V48.2401ZM19.7 44.72C20.15 44.69 20.67 44.65 21.06 44.93C21.38 45.32 21.45 45.8401 21.59 46.3101C21.79 47.1701 22.18 47.96 22.39 48.8101C22.5 49.2701 22.73 49.6901 22.83 50.1501C22.91 50.4901 22.63 50.8601 22.27 50.8101C21.64 50.8301 21.59 50 21.08 49.78C20.69 49.73 20.3 49.76 19.92 49.75C19.6 49.75 19.27 49.72 18.96 49.79C18.67 50.07 18.62 50.53 18.3 50.79C18.02 50.82 17.63 50.87 17.47 50.59C17.37 50.24 17.47 49.88 17.59 49.55C17.78 49.06 17.9 48.55 18.11 48.07C18.33 47.58 18.37 47.04 18.59 46.54C18.77 46.13 18.82 45.68 18.98 45.26C19.09 44.96 19.38 44.75 19.7 44.71V44.72ZM13 44.72C13.66 44.68 14.32 44.72 14.97 44.7C15.46 44.68 16.03 44.78 16.35 45.18C16.55 45.52 16.72 45.9301 16.64 46.3301C16.46 46.6401 16.04 46.66 15.72 46.6C15.37 46.37 15.22 45.88 14.78 45.78C14.39 45.71 13.95 45.71 13.59 45.89C13.37 46 13.18 46.23 13.18 46.48C13.23 46.75 13.45 46.96 13.71 47.05C14.29 47.27 14.94 47 15.51 47.25C15.93 47.43 16.4 47.61 16.65 48.02C16.96 48.49 16.84 49.08 16.75 49.6C16.67 50.1 16.34 50.57 15.86 50.77C15.47 50.94 15.03 50.87 14.62 50.88C13.93 50.87 13.19 50.97 12.57 50.62C12.06 50.36 11.76 49.73 11.92 49.17C12.02 48.79 12.51 48.75 12.83 48.8C13.18 49.02 13.15 49.66 13.62 49.73C14.14 49.75 14.7 49.82 15.17 49.55C15.59 49.27 15.51 48.57 15.07 48.36C14.55 48.04 13.95 48.35 13.4 48.22C12.91 48.13 12.38 47.96 12.1 47.52C11.86 47.07 11.87 46.54 11.88 46.05C11.87 45.41 12.4 44.83 13 44.7V44.72ZM46.07 45.8C45.57 45.88 45.38 46.4 45.32 46.84C45.24 47.65 45.35 48.46 45.43 49.26C45.49 49.67 45.96 49.74 46.3 49.75C46.72 49.75 47.19 49.8201 47.55 49.5601C47.88 49.29 48.07 48.84 47.97 48.41C47.85 47.8 47.97 47.1701 47.9 46.5601C47.64 45.8601 46.73 45.63 46.07 45.8ZM46.09 44.6501C46.69 44.5801 47.3 44.62 47.89 44.75C48.14 44.81 48.45 44.82 48.59 45.07C48.85 45.48 49.03 45.94 49.16 46.41C49.3 46.86 49.08 47.32 49.17 47.78C49.28 48.36 49.14 48.95 49.05 49.53C48.99 49.89 48.83 50.24 48.54 50.47C48.07 50.89 47.42 50.89 46.83 50.92C46.29 51.01 45.75 50.97 45.22 50.85C44.88 50.77 44.61 50.5101 44.4 50.2401C44.15 49.8701 44.19 49.39 44.12 48.97C44.07 48.55 43.95 48.12 44.04 47.69C44.18 46.96 43.93 46.15 44.33 45.47C44.56 45.14 44.85 44.78 45.28 44.73C45.55 44.7 45.82 44.6901 46.09 44.6501ZM34.33 45.76C33.97 45.83 33.6 46.08 33.48 46.44C33.44 47.21 33.48 47.99 33.46 48.76C33.46 49.01 33.41 49.32 33.63 49.51C33.98 49.82 34.48 49.76 34.91 49.77C35.25 49.77 35.64 49.75 35.89 49.47C36.18 49.19 36.07 48.76 36.1 48.41C36.15 47.66 36.33 46.8 35.88 46.13C35.49 45.73 34.85 45.74 34.33 45.76ZM34.25 44.64C34.91 44.58 35.57 44.65 36.21 44.78C36.67 44.86 36.91 45.31 37.07 45.7C37.46 46.55 37.24 47.51 37.3 48.41C37.37 49.07 37.16 49.72 36.86 50.3C36.75 50.51 36.51 50.59 36.3 50.67C35.96 50.78 35.61 50.86 35.26 50.93C34.75 51.04 34.23 50.93 33.72 50.85C33.27 50.76 32.79 50.59 32.52 50.19C32.26 49.79 32.35 49.29 32.29 48.84C32.23 48.38 32.24 47.91 32.24 47.45C32.24 46.88 32.2 46.3 32.35 45.75C32.42 45.47 32.51 45.15 32.77 45C33.21 44.73 33.74 44.7101 34.23 44.6501L34.25 44.64ZM28.57 48.3C28.21 48.38 27.71 48.57 27.71 49.02C27.66 49.43 28.08 49.75 28.46 49.76C28.87 49.77 29.34 49.82 29.68 49.54C29.95 49.25 29.88 48.75 29.58 48.51C29.32 48.23 28.92 48.24 28.57 48.3ZM28.14 45.82C27.46 46.01 27.73 47.12 28.37 47.14C28.75 47.14 29.18 47.22 29.54 47.05C29.85 46.81 30.06 46.24 29.69 45.96C29.23 45.71 28.65 45.7 28.15 45.82H28.14ZM28.32 44.6501C28.74 44.6101 29.17 44.63 29.59 44.62C30 44.61 30.36 44.84 30.67 45.07C31.1 45.39 31.25 45.96 31.19 46.48C31.15 46.91 30.92 47.29 30.85 47.71C30.92 48.1 31.19 48.44 31.2 48.84C31.22 49.37 31.16 49.9401 30.88 50.4001C30.44 50.7901 29.81 50.91 29.24 50.88C28.57 50.86 27.87 50.96 27.22 50.73C26.74 50.5 26.41 49.97 26.41 49.44C26.41 49.15 26.39 48.8701 26.42 48.5801C26.47 48.2701 26.66 48 26.75 47.7C26.7 47.29 26.5 46.9101 26.5 46.4901C26.5 46.0801 26.43 45.61 26.72 45.27C27.08 44.76 27.76 44.7501 28.32 44.6501Z" fill="#AF1B52"/>
</g>
<defs>
<clipPath id="clip0_538_2492">
<rect width="65.61" height="98.79" fill="white"/>
</clipPath>
</defs>
</svg>
