<svg width="73" height="73" viewBox="0 0 73 73" fill="none" xmlns="http://www.w3.org/2000/svg">
<g clip-path="url(#clip0_538_2373)">
<path d="M47.24 33.61C48.14 33.3 49.31 33.32 49.99 34.07C50.43 34.52 50.57 35.16 50.73 35.75C49.07 35.75 47.41 35.75 45.75 35.75C45.89 34.86 46.36 33.94 47.24 33.61ZM36.09 33.6C37.02 33.25 38.22 33.39 38.89 34.19C39.6 35.04 39.73 36.21 39.69 37.27C39.64 38.19 39.45 39.19 38.79 39.87C37.82 40.85 35.99 40.72 35.18 39.58C34.36 38.43 34.25 36.91 34.56 35.57C34.76 34.74 35.24 33.9 36.08 33.59L36.09 33.6ZM24.83 33.64C25.68 33.32 26.75 33.3 27.49 33.89C28.04 34.35 28.23 35.08 28.41 35.75C26.74 35.76 25.08 35.76 23.42 35.75C23.57 34.9 23.99 34 24.84 33.64H24.83ZM65.66 31.58C65.9 31.6 66.14 31.63 66.38 31.65C66.38 31.77 66.39 32.01 66.4 32.14C66.15 32.15 65.9 32.16 65.65 32.18V31.59L65.66 31.58ZM65.28 31.31C65.28 31.97 65.28 32.64 65.28 33.3H65.65C65.65 33.01 65.65 32.72 65.66 32.43C66.19 32.59 66.23 33.38 66.85 33.35C66.69 33.08 66.52 32.81 66.35 32.55C66.61 32.33 66.91 32.04 66.75 31.66C66.48 31.13 65.75 31.39 65.27 31.32L65.28 31.31ZM65.35 31.08C66.22 30.55 67.43 31.35 67.33 32.35C67.38 33.31 66.24 34.05 65.39 33.58C64.41 33.12 64.37 31.55 65.35 31.08ZM52.49 31.37C53.72 33.14 54.94 34.91 56.17 36.67C54.84 38.65 53.47 40.62 52.13 42.6C53.3 42.6 54.47 42.6 55.64 42.6C56.42 41.43 57.2 40.26 57.98 39.1C58.75 40.27 59.52 41.45 60.31 42.61C61.49 42.6 62.68 42.61 63.86 42.6C62.49 40.6 61.1 38.61 59.71 36.63C60.93 34.88 62.17 33.13 63.39 31.38C62.23 31.36 61.08 31.38 59.93 31.38C59.29 32.34 58.65 33.3 58.01 34.26C57.36 33.3 56.71 32.34 56.06 31.38C54.87 31.38 53.67 31.38 52.48 31.38L52.49 31.37ZM65.34 30.74C64.19 31.11 63.9 32.8 64.81 33.57C65.67 34.46 67.42 33.97 67.63 32.73C68.02 31.44 66.55 30.19 65.33 30.74H65.34ZM9.45004 28.47C7.86004 30.06 7.83004 33.11 9.71004 34.49C11.58 35.87 14.02 35.92 16.13 36.76C16.8 37.03 17.52 37.59 17.47 38.4C17.51 39.32 16.63 39.95 15.81 40.12C14.51 40.41 12.98 40.34 11.92 39.44C11.33 38.94 11.13 38.16 11.09 37.42C9.98004 37.42 8.87004 37.42 7.75004 37.42C7.78004 38.49 8.00004 39.6 8.63004 40.49C9.54004 41.81 11.08 42.54 12.61 42.81C14.36 43.07 16.21 43.01 17.86 42.33C19.19 41.79 20.28 40.66 20.67 39.26C21.19 40.77 22.39 42.07 23.93 42.56C25.58 43.09 27.49 43.04 29.03 42.19C30.21 41.53 30.93 40.31 31.36 39.07C30.45 39.07 29.54 39.07 28.64 39.07C27.89 40.58 25.72 40.98 24.4 40.01C23.71 39.48 23.55 38.56 23.43 37.75C26.07 37.74 28.7 37.75 31.34 37.75C31.52 39.07 31.93 40.4 32.84 41.41C34.57 43.39 38.23 43.5 39.78 41.24C39.77 41.7 39.76 42.16 39.76 42.62C40.75 42.62 41.74 42.62 42.74 42.62C42.75 41.17 42.72 39.72 42.77 38.27C43.05 39.95 44.06 41.53 45.61 42.29C47.23 43.07 49.19 43.12 50.86 42.47C52.3 41.9 53.25 40.53 53.71 39.09C52.81 39.07 51.91 39.09 51.02 39.08C50.26 40.61 48.06 41.01 46.74 40.01C46.07 39.47 45.9 38.58 45.8 37.77C48.5 37.76 51.21 37.77 53.91 37.77C53.97 36.11 53.64 34.37 52.61 33.03C51.07 30.96 47.98 30.61 45.75 31.7C44.13 32.49 43.06 34.15 42.78 35.91C42.75 33 42.75 30.09 42.78 27.18C41.74 27.14 40.69 27.16 39.65 27.16C39.65 29 39.65 30.84 39.65 32.69C38.14 30.67 34.89 30.62 33.11 32.3C32.16 33.17 31.66 34.42 31.42 35.67C31.11 33.89 29.98 32.17 28.25 31.5C26.18 30.71 23.6 31.1 22.02 32.73C21.13 33.61 20.62 34.81 20.42 36.04C19.77 34.93 18.63 34.21 17.43 33.83C15.92 33.36 14.36 33.09 12.87 32.57C12.45 32.4 11.98 32.21 11.77 31.78C11.49 31.06 11.8 30.16 12.51 29.82C13.52 29.31 14.77 29.38 15.8 29.8C16.6 30.14 16.95 30.99 17.04 31.8C18.15 31.78 19.25 31.8 20.36 31.78C20.34 30.6 20 29.38 19.15 28.53C17.96 27.29 16.19 26.85 14.53 26.79C12.73 26.72 10.8 27.2 9.50004 28.52L9.45004 28.47ZM32.51 0.200004C38.96 -0.469996 45.58 0.590004 51.47 3.31C57.93 6.27 63.47 11.18 67.2 17.22C70.75 22.91 72.63 29.62 72.61 36.32C72.61 41.77 71.38 47.22 69 52.12C66.39 57.52 62.41 62.26 57.54 65.76C53.08 68.99 47.87 71.18 42.44 72.09C35.61 73.25 28.43 72.45 22.05 69.71C16.16 67.21 10.98 63.1 7.16004 57.97C3.39004 52.93 0.980039 46.88 0.250039 40.63C-0.569961 33.66 0.610039 26.43 3.78004 20.16C6.86004 13.92 11.8 8.61 17.79 5.07C22.26 2.4 27.33 0.730004 32.51 0.200004Z" fill="#E40E35"/>
<path d="M36.09 33.6C35.25 33.91 34.77 34.75 34.57 35.58C34.26 36.92 34.37 38.44 35.19 39.59C35.99 40.72 37.82 40.86 38.8 39.88C39.47 39.2 39.66 38.2 39.7 37.28C39.73 36.21 39.61 35.04 38.9 34.2C38.23 33.4 37.03 33.27 36.1 33.61M24.83 33.64C23.98 33.99 23.56 34.89 23.41 35.75C25.08 35.76 26.74 35.76 28.4 35.75C28.23 35.08 28.04 34.36 27.48 33.89C26.74 33.3 25.67 33.32 24.82 33.64H24.83ZM9.44996 28.47C10.75 27.15 12.68 26.67 14.48 26.74C16.14 26.8 17.91 27.25 19.1 28.48C19.95 29.34 20.29 30.56 20.31 31.73C19.2 31.74 18.09 31.73 16.99 31.75C16.91 30.94 16.55 30.09 15.75 29.75C14.72 29.33 13.47 29.26 12.46 29.77C11.75 30.11 11.45 31.01 11.72 31.73C11.93 32.15 12.4 32.35 12.82 32.52C14.31 33.04 15.88 33.32 17.38 33.78C18.59 34.16 19.72 34.88 20.37 35.99C20.57 34.77 21.07 33.57 21.97 32.68C23.55 31.06 26.13 30.66 28.2 31.45C29.93 32.12 31.06 33.83 31.37 35.62C31.61 34.37 32.11 33.12 33.06 32.25C34.84 30.57 38.09 30.63 39.6 32.64C39.59 30.79 39.6 28.95 39.6 27.11C40.64 27.11 41.69 27.09 42.73 27.13C42.71 30.04 42.7 32.95 42.73 35.86C42.65 36.65 42.65 37.45 42.73 38.24C42.68 39.69 42.71 41.14 42.7 42.59C41.71 42.59 40.72 42.59 39.72 42.59C39.72 42.13 39.72 41.67 39.74 41.21C38.19 43.47 34.53 43.36 32.8 41.38C31.89 40.37 31.48 39.04 31.3 37.72C28.66 37.72 26.03 37.72 23.39 37.72C23.51 38.53 23.68 39.44 24.36 39.98C25.69 40.96 27.85 40.56 28.6 39.04C29.51 39.03 30.41 39.04 31.32 39.04C30.89 40.28 30.18 41.5 28.99 42.16C27.45 43.01 25.54 43.06 23.89 42.53C22.35 42.04 21.15 40.75 20.63 39.23C20.25 40.63 19.15 41.76 17.82 42.3C16.17 42.98 14.32 43.04 12.57 42.78C11.03 42.5 9.48996 41.77 8.58996 40.46C7.95996 39.57 7.73996 38.47 7.70996 37.39C8.81996 37.39 9.92996 37.39 11.05 37.39C11.09 38.13 11.29 38.92 11.88 39.41C12.94 40.31 14.47 40.38 15.77 40.09C16.59 39.92 17.47 39.29 17.43 38.37C17.49 37.56 16.77 37 16.09 36.73C13.99 35.89 11.55 35.85 9.66996 34.46C7.78996 33.08 7.81996 30.03 9.40996 28.44L9.44996 28.47Z" fill="#F2BABD"/>
<path d="M65.6601 31.5801V32.1701C65.9101 32.1601 66.1601 32.1501 66.4101 32.1301C66.4101 32.0101 66.3901 31.7601 66.3901 31.6401C66.1501 31.6201 65.9101 31.5901 65.6701 31.5701M65.2801 31.3101C65.7601 31.3801 66.4901 31.1201 66.7601 31.6501C66.9201 32.0301 66.6201 32.3201 66.3601 32.5401C66.5301 32.8101 66.7001 33.0701 66.8601 33.3401C66.2401 33.3701 66.2001 32.5801 65.6701 32.4201C65.6701 32.7101 65.6601 33.0001 65.6601 33.2901H65.2901C65.2901 32.6201 65.2901 31.9601 65.2901 31.3001L65.2801 31.3101ZM52.4901 31.3701C53.6801 31.3601 54.8701 31.3701 56.0701 31.3701C56.7201 32.3301 57.3601 33.2901 58.0201 34.2501C58.6601 33.2901 59.3001 32.3301 59.9401 31.3701C61.0901 31.3701 62.2401 31.3701 63.4001 31.3701C62.1801 33.1301 60.9401 34.8701 59.7201 36.6201C61.1101 38.6101 62.5001 40.5901 63.8701 42.5901C62.6801 42.6001 61.5001 42.5901 60.3201 42.6001C59.5301 41.4401 58.7601 40.2601 57.9901 39.0901C57.2101 40.2601 56.4301 41.4301 55.6501 42.5901C54.4801 42.5901 53.3101 42.5901 52.1401 42.5901C53.4901 40.6201 54.8501 38.6501 56.1801 36.6601C54.9501 34.8901 53.7301 33.1301 52.5001 31.3601L52.4901 31.3701ZM47.2401 33.6101C46.3501 33.9501 45.8901 34.8601 45.7501 35.7501C47.4101 35.7501 49.0701 35.7501 50.7301 35.7501C50.5701 35.1601 50.4301 34.5201 49.9901 34.0701C49.3101 33.3201 48.1401 33.3001 47.2401 33.6101ZM45.7001 31.6601C47.9301 30.5701 51.0201 30.9201 52.5601 32.9901C53.5901 34.3301 53.9201 36.0701 53.8601 37.7301C51.1601 37.7301 48.4501 37.7301 45.7501 37.7301C45.8501 38.5301 46.0201 39.4301 46.6901 39.9701C48.0201 40.9801 50.2101 40.5701 50.9701 39.0401C51.8701 39.0401 52.7601 39.0401 53.6601 39.0501C53.2101 40.4901 52.2601 41.8601 50.8101 42.4301C49.1401 43.0801 47.1801 43.0301 45.5601 42.2501C44.0101 41.4901 43.0001 39.9101 42.7201 38.2301C42.6401 37.4401 42.6301 36.6401 42.7201 35.8501C43.0001 34.0901 44.0701 32.4401 45.6901 31.6401L45.7001 31.6601ZM65.3501 31.0801C64.3701 31.5501 64.4101 33.1201 65.3901 33.5801C66.2401 34.0601 67.3801 33.3101 67.3301 32.3501C67.4401 31.3501 66.2301 30.5501 65.3501 31.0801ZM65.34 30.7401C66.55 30.1901 68.0301 31.4401 67.6401 32.7301C67.4301 33.9801 65.6801 34.4601 64.8201 33.5701C63.9101 32.8001 64.2001 31.1101 65.3501 30.7401H65.34Z" fill="white"/>
</g>
<defs>
<clipPath id="clip0_538_2373">
<rect width="72.61" height="72.61" fill="white"/>
</clipPath>
</defs>
</svg>
