<svg width="64" height="104" viewBox="0 0 64 104" fill="none" xmlns="http://www.w3.org/2000/svg">
<g clip-path="url(#clip0_538_2497)">
<path fill-rule="evenodd" clip-rule="evenodd" d="M33.79 103.7C35.98 103.77 38.18 103.77 40.37 103.55C40.08 83.7301 38.98 63.9001 38.69 44.1501C38.69 42.6901 38.25 41.37 37.74 40.05C36.94 40.71 36.13 41.31 35.4 42.1C34.64 63.48 33.59 83.5901 33.79 103.69" fill="#1A1A18"/>
<path fill-rule="evenodd" clip-rule="evenodd" d="M34.87 41.48C35.9 40.74 36.49 40.04 37.6 39.33C38.55 40.13 39.57 41.01 40.53 41.82C40.75 41.53 41.11 40.87 41.26 40.5C38.11 38.01 35.12 34.43 30.8 34.28C30.87 35.6 30.8 36.91 31.09 38.16C31.89 39.26 33.92 40.61 34.87 41.49" fill="#1A1A18"/>
<path fill-rule="evenodd" clip-rule="evenodd" d="M30.12 38.0601C30.06 36.5801 30.13 36.8201 30.05 34.3701C21.68 38.1201 6.1 47.3001 0 54.6101C3.8 53.3701 7.02 51.0301 10.46 49.1201C15 46.4901 25.58 40.6901 30.12 38.0601Z" fill="#1A1A18"/>
<path fill-rule="evenodd" clip-rule="evenodd" d="M33.72 33.25C42.86 40.57 52.96 46.78 63.42 52.12C56.46 44.8 48.12 39.23 41.79 35.01C39.52 33.4 36.29 33.47 33.73 33.25" fill="#1A1A18"/>
<path fill-rule="evenodd" clip-rule="evenodd" d="M32.6301 33.7C36.6101 23.63 41.7501 9.86 43.4101 0C38.9001 10.03 33.6801 22.68 30.6801 33.43L32.6301 33.7Z" fill="#1A1A18"/>
</g>
<defs>
<clipPath id="clip0_538_2497">
<rect width="63.42" height="103.74" fill="white"/>
</clipPath>
</defs>
</svg>
