<svg xmlns="http://www.w3.org/2000/svg" viewBox="0 0 340.142 301.498">
  <g id="chatt" fill="#fff">
    <path d="M113.94,296.05c20.816,2.32,41.743,4.441,62.675,5.285,29.273,1.181,58.717-4.033,85.045-17.134,52.086-25.917,82.112-81.976,78.128-139.628-4.231-61.241-46.717-112.343-103.317-133.747C177.884-11.329,108.831,1.086,62.126,42.879c-21.862,19.563-38.208,45.526-45.696,73.94-3.824,14.51-5.871,30.265-4.402,45.251,1.79,18.261,7.643,35.693,15.009,52.404,3.335,7.565,7.086,14.937,11.249,22.08l-.907-6.935c1.057-2.559.778-1.762.128-.346s-1.286,2.835-1.956,4.241c-2.111,4.426-4.381,8.778-6.775,13.059-7.414,13.259-16.011,25.811-26.208,37.089-5.664,6.265-1.253,14.368,6.364,15.364,8.25,1.079,16.711,1.126,25.012,1.201,26.709.239,53.427-1.602,79.996-4.176,4.838-.469,9-3.801,9-9,0-4.504-4.133-9.472-9-9-26.569,2.574-53.288,4.415-79.996,4.176-8.301-.074-16.762-.122-25.012-1.201l6.364,15.364c12.166-13.455,22.526-28.527,31.089-44.507,2.338-4.363,4.564-8.794,6.573-13.318.58-1.307,1.354-2.7,1.734-4.055,1.268-4.519-1.575-8.171-3.63-11.909-8.585-15.618-15.466-32.429-19.256-49.879-3.301-15.196-2.625-30.902.746-46.035,13.163-59.074,66.815-101.718,126.111-107.845,60.717-6.273,122.845,23.219,150.405,78.874,25.389,51.271,13.027,116.843-30.601,154.094-21.565,18.413-49.69,28.63-77.75,31.054-26.547,2.293-53.704-1.33-80.098-4.096-2.227-.233-4.453-.469-6.678-.717-4.838-.539-9,4.522-9,9,0,5.314,4.148,8.459,9,9Z"/>
  </g>
</svg>