<svg xmlns="http://www.w3.org/2000/svg" viewBox="0 0 277.578 277.578">
    <g id="fb_inverted" fill="#606f4a">
        <path d="M244.306,277.578H33.272c-18.347,0-33.272-14.926-33.272-33.272V33.272C0,14.926,14.926,0,33.272,0h211.033c18.347,0,33.272,14.926,33.272,33.272v211.033c0,18.347-14.926,33.272-33.272,33.272ZM33.272,19c-7.87,0-14.272,6.403-14.272,14.272v211.033c0,7.87,6.403,14.272,14.272,14.272h211.033c7.87,0,14.272-6.403,14.272-14.272V33.272c0-7.87-6.403-14.272-14.272-14.272H33.272Z"/>
        <path d="M117.376,268.991h42.167v-102.046h29.352l9.301-36.156-40.41-.462v-15.567c0-5.322,4.314-9.636,9.636-9.636h30.773v-40.214l-48.917.101c-3.255.007-10.731-.478-17.697,3.775,0,0-13.296,7.43-14.205,28.353,0,0,0,33.363,0,33.363h-28.697l-.39,36.443h29.282l-.195,102.046Z"/>
        <path d="M160.542,269.991h-44.168l.195-102.046h-29.291l.412-38.443h28.686v-32.363c.923-21.279,14.154-28.911,14.717-29.226,6.576-4.015,13.529-3.942,17.258-3.908.337.003.643.006.925.006l49.919-.104v42.217h-31.773c-4.762,0-8.636,3.874-8.636,8.636v14.578l40.695.465-9.811,38.142h-29.127v102.046ZM118.378,267.991h40.165v-102.046h29.577l8.79-34.171-40.123-.458v-16.556c0-5.865,4.771-10.636,10.636-10.636h29.773v-38.213l-47.915.1c-.28,0-.602-.002-.949-.006-3.535-.041-10.11-.101-16.229,3.635-.16.091-12.855,7.475-13.727,27.542v34.32s-28.707,0-28.707,0l-.369,34.443h29.273l-.195,102.046Z"/>
      </g>
</svg>