<svg xmlns="http://www.w3.org/2000/svg" viewBox="0 0 126.359 83.188">
    <g id="ham_menu" fill="#606f4a">
      <path d="m2.415,5.076h106.573c4.905,0,9.846.172,14.749,0,.069-.002.138,0,.206,0,3.217,0,3.223-5,0-5H17.37C12.465.076,7.524-.095,2.621.076c-.069.002-.138,0-.206,0C-.802.076-.808,5.076,2.415,5.076h0Z"/>
      <path d="m2.415,83.112h106.573c4.905,0,9.846.172,14.749,0,.069-.002.138,0,.206,0,3.217,0,3.223-5,0-5H17.37c-4.905,0-9.846-.172-14.749,0-.069.002-.138,0-.206,0-3.217,0-3.223,5,0,5h0Z"/>
      <path d="m2.415,44.094h106.573c4.905,0,9.846.172,14.749,0,.069-.002.138,0,.206,0,3.217,0,3.223-5,0-5H17.37c-4.905,0-9.846-.172-14.749,0-.069.002-.138,0-.206,0-3.217,0-3.223,5,0,5h0Z"/>
    </g>
</svg>