<svg xmlns="http://www.w3.org/2000/svg" viewBox="0 0 307.685 205.582">
    <g id="ham_menu" fill="#606f4a">
      <path d="M285.433,21.019c-3.928,0-7.838-.046-11.684-.09-3.798-.044-7.724-.09-11.564-.09H10.128C4.354,20.839,0,16.4,0,10.513S4.354.181,10.128.181l.344.003C18.298-.092,26.248,0,33.936.09c3.797.044,7.724.09,11.563.09h252.059c5.774,0,10.127,4.439,10.127,10.325s-4.353,10.333-10.127,10.333l-.344-.003c-3.912.138-7.855.183-11.78.183Z"/>
      <path d="M285.431,205.582c-3.927,0-7.837-.046-11.681-.091-3.798-.044-7.724-.09-11.564-.09H10.128c-5.774,0-10.128-4.439-10.128-10.326s4.354-10.333,10.128-10.333l.344.003c7.826-.274,15.776-.182,23.464-.092,3.797.044,7.724.09,11.563.09h252.059c5.774,0,10.127,4.439,10.127,10.325s-4.353,10.333-10.127,10.333l-.339-.003c-3.915.137-7.861.183-11.788.183Z"/>
      <path d="M285.433,113.3c-3.928,0-7.838-.046-11.684-.091-3.798-.044-7.724-.09-11.564-.09H10.128c-5.774,0-10.128-4.439-10.128-10.325s4.354-10.333,10.128-10.333l.344.003c7.826-.275,15.776-.182,23.464-.093,3.797.044,7.724.09,11.563.09h252.059c5.774,0,10.127,4.439,10.127,10.325s-4.353,10.333-10.127,10.333l-.344-.003c-3.912.137-7.855.183-11.78.183Z"/>
    </g>
</svg>