<svg xmlns="http://www.w3.org/2000/svg" viewBox="0 0 272.625 272.625">
    <g id="ig_inverted" fill="#606f4a">
        <path d="M222.535,272.625H50.09c-27.62,0-50.09-22.47-50.09-50.09V50.09C0,22.47,22.47,0,50.09,0h172.444c27.62,0,50.09,22.47,50.09,50.09v172.444c0,27.62-22.47,50.09-50.09,50.09ZM50.09,19c-17.143,0-31.09,13.947-31.09,31.09v172.444c0,17.143,13.947,31.09,31.09,31.09h172.444c17.143,0,31.09-13.947,31.09-31.09V50.09c0-17.143-13.947-31.09-31.09-31.09H50.09Z"/>
        <circle cx="136.313" cy="136.312" r="56.75"/>
        <circle cx="214.893" cy="57.99" r="19.77"/>
      </g>
</svg>