<svg id="Lager_2" data-name="Lager 2" xmlns="http://www.w3.org/2000/svg" viewBox="0 0 275.963 275.963">
  <g id="ig_filled" fill="#606f4a">
    <path d="M231.798,0H44.165C19.875,0,0,19.874,0,44.165v187.633c0,24.291,19.875,44.165,44.165,44.165h187.632c24.291,0,44.165-19.874,44.165-44.165V44.165c0-24.291-19.874-44.165-44.165-44.165ZM137.982,196.808c-32.489,0-58.826-26.337-58.826-58.826s26.337-58.826,58.826-58.826,58.826,26.337,58.826,58.826-26.337,58.826-58.826,58.826ZM221.395,72.508c-10.579,0-19.156-8.576-19.156-19.156s8.576-19.156,19.156-19.156,19.156,8.576,19.156,19.156-8.576,19.156-19.156,19.156Z"/>
  </g>
</svg>