<svg xmlns="http://www.w3.org/2000/svg" viewBox="0 0 272.262 272.262">
    <g id="li_inverted" fill="#606f4a">
        <path d="M235.199,272.262H37.063c-20.437,0-37.063-16.626-37.063-37.063V37.063C0,16.626,16.626,0,37.063,0h198.136c20.437,0,37.063,16.626,37.063,37.063v198.136c0,20.437-16.626,37.063-37.063,37.063ZM37.063,19c-9.96,0-18.063,8.103-18.063,18.063v198.136c0,9.96,8.103,18.063,18.063,18.063h198.136c9.96,0,18.063-8.103,18.063-18.063V37.063c0-9.96-8.103-18.063-18.063-18.063H37.063Z"/>
          <rect x="43.238" y="99.803" width="38.298" height="131.076"/>
          <path d="M82.536,231.878h-40.298V98.803h40.298v133.076ZM44.238,229.878h36.298V100.803h-36.298v129.076Z"/>
          <circle cx="62.387" cy="61.599" r="20.215"/>
          <path d="M146.613,99.803l.311,12.815s15.291-17.755,51.54-9.821c17.297,3.786,31.626,19.019,31.626,35.852v92.132h-34.329l-.447-77.823c-.118-20.515-30.677-25.247-41.6-10.89-1.658,2.18-2.845,6.323-2.845,9.062,0,15.911,0,79.652,0,79.652h-36.97s.352-130.979.352-130.979h32.361Z"/>
          <path d="M231.091,231.782h-36.323l-.453-78.818c-.045-7.887-4.854-14.008-13.195-16.793-8.585-2.869-20.479-1.553-26.609,6.503-1.432,1.882-2.641,5.754-2.641,8.457v80.652s-38.973,0-38.973,0l.358-132.979h34.334l.279,11.495c4.93-4.338,20.709-15.064,50.811-8.477,18.175,3.979,32.412,20.156,32.412,36.829v93.132ZM196.756,229.782h32.335v-91.132c0-15.771-13.546-31.09-30.84-34.875-35.171-7.701-50.42,9.324-50.57,9.497l-1.692,1.952-.351-14.42h-30.388l-.346,128.979h34.967v-78.652c0-2.722,1.166-7.191,3.049-9.667,6.699-8.805,19.575-10.28,28.834-7.189,9.068,3.029,14.511,10.012,14.561,18.679l.441,76.83Z"/>
        </g>
</svg>