<svg xmlns="http://www.w3.org/2000/svg" viewBox="0 0 273.939 273.939">
  <g id="li_filled" fill="#606f4a">
    <path d="M244.126,0H29.814C13.416,0,0,13.416,0,29.814v214.312c0,16.397,13.416,29.814,29.814,29.814h214.312c16.397,0,29.813-13.416,29.813-29.814V29.814c0-16.397-13.416-29.814-29.813-29.814ZM77.917,239.452h-41.425V97.675h41.425v141.777ZM57.205,78.218c-12.076,0-21.866-9.79-21.866-21.866s9.79-21.866,21.866-21.866,21.866,9.79,21.866,21.866-9.79,21.866-21.866,21.866ZM238.6,239.348h-37.132l-.484-84.177c-.128-22.19-33.182-27.308-44.996-11.779-1.794,2.358-3.077,6.839-3.077,9.801,0,17.21,0,86.155,0,86.155h-39.988l.381-141.672h35.003l.336,13.862s16.54-19.205,55.748-10.623c18.709,4.095,34.208,20.572,34.208,38.78v99.654Z"/>
  </g>
</svg>