<svg xmlns="http://www.w3.org/2000/svg" viewBox="0 0 163.1 370.369">
    <g id="lightbulb_icon" fill="#606f4a">
        <path class="cls-1" d="M104.391,313.099h-52.41l-2.224-5.419c-1.227-2.991-30.153-73.494-37.756-93.349C-4.569,171.063,2.263,134.492,30.747,113.996c14.196-10.217,32.723-15.417,52.16-14.645,19.336.768,37.46,7.348,51.035,18.529,26.866,22.129,31.758,57.691,13.423,97.565-16.49,35.86-34.485,91.066-34.665,91.619l-1.961,6.036h-6.347ZM63.699,295.629h34.381c5.194-15.527,19.577-57.396,33.412-87.483,14.979-32.576,11.904-59.844-8.658-76.781-22.191-18.278-58.922-19.709-81.883-3.188-21.858,15.729-26.345,44.107-12.635,79.907,6.318,16.496,28.294,70.237,35.383,87.546Z"/>
        <path class="cls-1" d="M57.542,333.13h47.848c9.368,0,9.383-14.558,0-14.558h-47.848c-9.368,0-9.383,14.558,0,14.558h0Z"/>
        <path class="cls-1" d="M66.668,370.369h28.041c9.368,0,9.383-14.558,0-14.558h-28.041c-9.368,0-9.383,14.558,0,14.558h0Z"/>
        <path class="cls-1" d="M61.698,352.12h37.981c9.368,0,9.383-14.558,0-14.558h-37.981c-9.368,0-9.383,14.558,0,14.558h0Z"/>
        <path class="cls-1" d="M85.583,141.22c.484.019.964.079,1.447.112,2.023.138-.905-.191.132.003.754.141,1.513.248,2.266.398,4.375.873,8.006,2.134,11.012,3.725,10.851,5.744,15.54,16.372,15.252,29.208-.21,9.372,14.348,9.369,14.558,0,.375-16.732-6.289-32.457-21.135-41.045-6.986-4.041-15.425-6.648-23.532-6.96-9.369-.36-9.354,14.199,0,14.558h0Z"/>
        <path class="cls-1" d="M73.41,7.031v56.972c0,9.368,14.558,9.383,14.558,0V7.031c0-9.368-14.558-9.383-14.558,0h0Z"/>
        <path class="cls-1" d="M149.683,31.844c-7.259,14.441-14.518,28.882-21.777,43.323-4.197,8.349,8.358,15.729,12.571,7.348,7.259-14.441,14.518-28.882,21.777-43.323,4.197-8.349-8.358-15.729-12.571-7.348h0Z"/>
        <path class="cls-1" d="M.848,39.191c7.259,14.441,14.518,28.882,21.777,43.323,4.209,8.372,16.772,1.009,12.571-7.348-7.259-14.441-14.518-28.882-21.777-43.323-4.209-8.372-16.772-1.009-12.571,7.348h0Z"/>
      </g>
</svg>