
<svg xmlns="http://www.w3.org/2000/svg" viewBox="0 0 71.801 108.3">
    <g id="location" fill="#606f4a">
        <path d="m35.888,57.858c-12.101,0-21.946-9.845-21.946-21.946s9.845-21.945,21.946-21.945,21.945,9.845,21.945,21.945-9.845,21.946-21.945,21.946Zm0-39.524c-9.693,0-17.578,7.886-17.578,17.578s7.886,17.578,17.578,17.578,17.578-7.886,17.578-17.578-7.886-17.578-17.578-17.578Z"/>
        <path d="m35.837,108.3c-1.079,0-2.101-.463-2.814-1.277C25.666,98.625,1.541,68.882.046,38.771-.462,28.54,3.256,18.45,10.245,11.088,17.011,3.961,26.087.023,35.801,0h.088c9.578,0,18.581,3.722,25.363,10.488,6.802,6.787,10.549,15.816,10.549,25.424,0,28.868-27.53,64.207-33.049,70.998-.7.862-1.737,1.368-2.845,1.389-.023,0-.047,0-.07,0Zm.47-4.157s.001.001.002.002h0s-.001-.001-.002-.002Zm-.419-99.776h-.077c-8.508.02-16.463,3.475-22.399,9.728-6.171,6.5-9.453,15.415-9.004,24.459,1.42,28.598,25.394,58.062,31.415,65.032,6.267-7.798,31.61-40.994,31.61-67.674,0-8.44-3.291-16.371-9.266-22.333-5.957-5.942-13.866-9.212-22.278-9.212Z"/>
    </g>
</svg>