<svg xmlns="http://www.w3.org/2000/svg" viewBox="0 0 161.213 242.591">
  <g id="location_filled" fill="#606f4a">
    <path d="M137.528,23.55C122.254,8.313,101.917-.044,80.384,0c-21.811.052-42.189,8.894-57.382,24.897C7.309,41.427-1.037,64.081.103,87.049c3.321,66.917,56.935,133.51,73.287,152.325,1.781,2.05,4.342,3.216,7.049,3.216.057,0,.114,0,.17-.001,2.78-.05,5.378-1.323,7.129-3.491,17.236-21.352,73.474-95.881,73.474-158.462,0-21.575-8.411-41.848-23.686-57.086ZM80.938,232.815s0,0-.002-.002c0,0,.002.002.002.003h0ZM80.578,120.778c-23.301,0-42.191-18.889-42.191-42.191s18.889-42.191,42.191-42.191,42.191,18.889,42.191,42.191-18.889,42.191-42.191,42.191Z"/>
  </g>
</svg>