<svg xmlns="http://www.w3.org/2000/svg" viewBox="0 0 185.311 273.548">
    <g id="location" fill="#606f4a">
      <path id="circle" d="M92.701,142.665c-27.021,0-49.005-21.984-49.005-49.005s21.984-49.004,49.005-49.004,49.005,21.983,49.005,49.004-21.984,49.005-49.005,49.005ZM92.701,63.267c-16.759,0-30.393,13.634-30.393,30.393s13.634,30.394,30.393,30.394,30.393-13.635,30.393-30.394-13.634-30.393-30.393-30.393Z"/>
      <path id="point" d="M92.784,273.496l-.28.002c-4.308,0-8.408-1.86-11.248-5.104C63.159,247.742,3.826,174.551.118,99.884c-1.306-26.326,8.265-52.295,26.26-71.25C43.852,10.229,67.299.06,92.402,0h.226c24.714,0,47.961,9.613,65.458,27.069,17.556,17.515,27.225,40.818,27.225,65.617,0,70.4-65.101,155.333-80.354,174.258,0,0-5.829,7.288-12.174,6.553ZM92.662,246.376c19.003-24.653,70.265-96.475,70.265-153.691,0-18.809-7.334-36.485-20.651-49.771-13.271-13.239-30.903-20.53-49.649-20.53h-.187c-18.909.044-36.609,7.737-49.828,21.661-13.801,14.539-20.138,34.462-20.138,54.729,0,71.543,70.187,147.602,70.187,147.602Z"/>
  </g>
</svg>