<svg xmlns="http://www.w3.org/2000/svg" viewBox="0 0 347.864 255.965">
    <g id="mail_icon" fill="#606f4a">
      <path id="envelope" class="cls-1" d="M317.258,255.965H30.605c-16.876,0-30.605-13.729-30.605-30.605V30.605C0,13.729,13.729,0,30.605,0h286.653c16.876,0,30.605,13.729,30.605,30.605v194.756c0,16.875-13.729,30.605-30.605,30.605ZM30.605,22.536c-4.449,0-8.069,3.62-8.069,8.069v194.756c0,4.449,3.619,8.069,8.069,8.069h286.653c4.449,0,8.069-3.619,8.069-8.069V30.605c0-4.449-3.62-8.069-8.069-8.069H30.605Z"/>
      <path id="line" class="cls-1" d="M176.815,135.751c-1.125,0-2.292-.167-3.488-.573-3.569-1.21-113.611-44.094-113.611-44.094-5.218-2.025-7.987-7.196-6.585-12.297.746-2.714,2.765-5.128,5.403-6.455,2.456-1.237,5.138-1.401,7.554-.463l110.759,42.992,104.845-42.957c2.386-.978,5.058-.849,7.522.362,2.701,1.327,4.766,3.765,5.524,6.52,1.396,5.081-1.277,10.123-6.498,12.262,0,0-20.849,8.554-30.912,12.671,0,0-71.743,29.421-72.3,29.68-2.223,1.034-5.052,2.349-8.212,2.35Z"/>
    </g>
</svg>