<svg xmlns="http://www.w3.org/2000/svg" viewBox="0 0 327.299 234.844">
  <g id="mail_filled" fill="#606f4a">
    <path d="M307.845,0H19.454C8.71,0,0,8.71,0,19.454v195.936c0,10.744,8.71,19.454,19.454,19.454h288.391c10.744,0,19.454-8.71,19.454-19.454V19.454c0-10.744-8.71-19.454-19.454-19.454ZM285.413,76.665l-110.529,45.287c-1.147.472-2.702,1.112-4.689,1.112-.876,0-1.836-.125-2.883-.443-3.325-1.012-112.163-45.958-112.163-45.958-5.178-2.123-7.827-7.119-6.445-12.151.751-2.732,2.798-5.147,5.476-6.462,2.439-1.2,5.082-1.328,7.443-.359l108.63,44.532,108.69-44.533c2.358-.968,5.004-.839,7.442.36,2.679,1.317,4.726,3.733,5.475,6.464,1.383,5.032-1.268,10.029-6.446,12.151Z"/>
  </g>
</svg>