<svg xmlns="http://www.w3.org/2000/svg" viewBox="0 0 137.302 99.93">
      <g id="envelope" fill="#606f4a">
        <path d="m126.938,99.93H10.364c-5.714,0-10.364-4.649-10.364-10.364V10.364C0,4.649,4.649,0,10.364,0h116.575c5.715,0,10.364,4.649,10.364,10.364v79.202c0,5.715-4.649,10.364-10.364,10.364ZM10.364,5c-2.958,0-5.364,2.406-5.364,5.364v79.202c0,2.958,2.406,5.364,5.364,5.364h116.575c2.958,0,5.364-2.406,5.364-5.364V10.364c0-2.958-2.406-5.364-5.364-5.364H10.364Z"/>
        <path d="m12.611,30.3c6.208,2.41,12.416,4.819,18.624,7.229l30.343,11.778c2.521.979,5.028,2.078,7.59,2.946,1.631.553,3.374-.587,4.859-1.195,9.251-3.79,18.502-7.581,27.753-11.371,7.514-3.079,15.033-6.146,22.543-9.236.123-.051.246-.101.369-.151,1.249-.512,2.135-1.662,1.746-3.075-.325-1.182-1.818-2.261-3.075-1.746-6.064,2.485-12.129,4.969-18.193,7.454-9.67,3.962-19.34,7.924-29.01,11.886-2.225.912-4.451,1.823-6.676,2.735h1.329c-6.392-2.481-12.783-4.962-19.175-7.443-10.23-3.971-20.459-7.941-30.689-11.912-2.336-.907-4.672-1.814-7.009-2.72-1.259-.489-2.743.538-3.075,1.746-.388,1.414.482,2.585,1.746,3.075h0Z"/>
      </g>
</svg>