<svg xmlns="http://www.w3.org/2000/svg" viewBox="0 0 136.317 97.81">
    <g id="mail_filled" fill= "#606f4a">
      <rect id="envelope" width="136.317" height="97.81" rx="8.102" ry="8.102"/>
        <path fill="#fff" d="m13.552,28.571c6.289,2.578,12.578,5.156,18.867,7.734,9.977,4.09,19.954,8.18,29.932,12.27,2.17.89,4.367,2.028,6.614,2.711.892.271,1.443.012,2.197-.297l3.445-1.412c9.526-3.903,19.053-7.806,28.579-11.709,7.437-3.047,14.879-6.084,22.312-9.142.127-.052.254-.104.381-.156,1.249-.512,2.135-1.662,1.746-3.075-.325-1.182-1.818-2.261-3.075-1.746-6.256,2.563-12.511,5.126-18.767,7.689-9.967,4.084-19.934,8.167-29.9,12.251-2.282.935-4.564,1.87-6.847,2.805h1.329c-6.252-2.563-12.505-5.126-18.757-7.689-9.961-4.084-19.923-8.167-29.884-12.251-2.281-.935-4.562-1.87-6.843-2.805-1.25-.512-2.748.556-3.075,1.746-.394,1.434.492,2.561,1.746,3.075h0Z"/>
      </g>
</svg>