<svg xmlns="http://www.w3.org/2000/svg" viewBox="0 0 254.184 263.996">
    <g id="phone_icon" fill="#606f4a">
      <path class="cls-1" d="M194.734,263.996c-9.521,0-20.251-3.193-32.095-9.571-14.714-7.924-31.603-20.995-50.195-38.85-20.949-20.117-43.804-45.994-66.095-74.833-.477-.617-.814-1.055-1.003-1.294C11.789,101.601-3.268,70.086.591,45.776c2.309-14.541,10.682-21.669,13.819-23.874C18.689,17.901,38.855,0,57.097,0c.12,0,.239,0,.358.002,33.326.431,44.243,33.181,47.83,43.943,7.42,22.257-5.636,32.377-18.521,40.76,17.214,18.408,60.021,64.185,76.922,82.255,14.043-15.157,28.004-17.834,37.833-17.117,22.711,1.661,41.399,22.506,48.419,36.113,9.231,17.891,1.873,32.54-7.453,45.706-4.082,5.763-10.208,12.107-18.206,18.855-5.969,5.036-9.271,7.546-11.435,8.793l.013.021c-5.432,3.109-11.484,4.663-18.124,4.663ZM58.694,127.37c.397.423,45.896,55.707,66.218,75.221,36.04,34.61,63.939,49.258,78.656,41.314,2.322-1.676,17.052-12.513,24.23-22.646,8.912-12.582,10.348-18.901,6.145-27.047-5.332-10.334-19.322-25.36-33.735-26.414-9.957-.727-22.788,12.984-33.489,26.742L60.874,80.257s30.788-11.374,29.412-26.966c-2.01-22.781-18.865-35.106-33.063-35.29-9.573-.09-30.575,17.118-30.575,17.118,0,0-7.828,7.86-8.384,15.198-.805,10.607,2.03,33.702,40.43,77.054Z"/>
    </g>
</svg>