<svg id="Lager_2" data-name="Lager 2" xmlns="http://www.w3.org/2000/svg" viewBox="0 0 148.42 157.725">
    <g id="profile_icon" fill="#606f4a">
        <path d="m74.21,75.689c-20.868,0-37.845-16.977-37.845-37.845S53.342,0,74.21,0s37.845,16.977,37.845,37.845-16.977,37.845-37.845,37.845Zm0-70.689c-18.111,0-32.845,14.734-32.845,32.845s14.734,32.845,32.845,32.845,32.845-14.734,32.845-32.845S92.321,5,74.21,5Z"/>
        <path d="m5,155.31c0-14.337,4.355-28.29,12.581-40.044,7.987-11.413,19.56-20.4,32.635-25.226,13.706-5.06,28.822-5.68,42.878-1.67,13.618,3.885,25.767,12.011,34.748,22.938,9.037,10.995,14.529,24.876,15.434,39.078.104,1.64.144,3.281.144,4.924,0,3.217,5,3.223,5,0,0-15.209-4.595-30.241-13.358-42.703-8.749-12.442-21.108-22.031-35.371-27.331-14.531-5.4-30.793-5.979-45.694-1.728-14.491,4.134-27.647,12.793-37.163,24.479C7.067,120.022,1.175,134.762.156,150.212c-.112,1.698-.156,3.397-.156,5.098,0,3.217,5,3.223,5,0h0Z"/>
      </g>
</svg>