<svg xmlns="http://www.w3.org/2000/svg" viewBox="0 0 217.38 240.993">
    <g id="profile_filled_icon" fill="#606f4a">
      <path d="M208.406,240.993c-5.035,0-8.979-3.891-8.979-8.858,0-2.365-.062-4.491-.19-6.498-1.184-18.587-8.365-36.769-20.221-51.195-11.837-14.402-28.024-25.092-45.578-30.1-18.287-5.217-38.249-4.438-56.209,2.193-17.072,6.302-32.264,18.046-42.778,33.071-10.794,15.425-16.5,33.589-16.5,52.528,0,4.967-3.942,8.858-8.974,8.858s-8.979-3.891-8.979-8.858c0-2.683.075-5.12.229-7.451,1.492-22.627,9.934-43.987,24.414-61.768,13.904-17.075,33.235-29.808,54.432-35.855,21.942-6.259,45.723-5.357,66.963,2.537,20.937,7.78,38.838,21.61,51.767,39.996,12.624,17.952,19.576,40.164,19.576,62.542,0,4.967-3.942,8.858-8.974,8.858Z"/>
      <path d="M108.69,112.485c-31.012,0-56.242-25.23-56.242-56.243S77.678,0,108.69,0s56.243,25.23,56.243,56.242-25.23,56.243-56.243,56.243ZM108.69,17c-21.638,0-39.242,17.604-39.242,39.242s17.604,39.243,39.242,39.243,39.243-17.604,39.243-39.243-17.604-39.242-39.243-39.242Z"/>
      <circle cx="108.69" cy="56.242" r="28.756"/>
    </g>
</svg>