<svg xmlns="http://www.w3.org/2000/svg" viewBox="0 0 204.167 226.345">
    <g id="profile_icon" fill="#606f4a">
      <path d="M195.738,226.345c-4.729,0-8.433-3.655-8.433-8.32,0-2.221-.058-4.218-.178-6.103-1.112-17.458-7.856-34.534-18.992-48.083-11.117-13.527-26.32-23.567-42.808-28.27-17.176-4.9-35.924-4.168-52.792,2.06-16.035,5.919-30.303,16.949-40.178,31.061-10.138,14.488-15.497,31.548-15.497,49.335,0,4.665-3.702,8.32-8.429,8.32s-8.433-3.655-8.433-8.32c0-2.52.07-4.808.215-6.998,1.401-21.252,9.33-41.313,22.93-58.013,13.059-16.037,31.215-27.996,51.123-33.676,20.608-5.878,42.943-5.032,62.893,2.382,19.664,7.307,36.477,20.297,48.62,37.565,11.856,16.861,18.386,37.722,18.386,58.74,0,4.665-3.702,8.32-8.429,8.32Z"/>
      <path d="M102.083,105.647c-29.127,0-52.823-23.697-52.823-52.824S72.956,0,102.083,0s52.824,23.696,52.824,52.823-23.697,52.824-52.824,52.824ZM102.083,15.967c-20.323,0-36.857,16.534-36.857,36.857s16.534,36.857,36.857,36.857,36.857-16.534,36.857-36.857S122.407,15.967,102.083,15.967Z"/>
    </g>
</svg>