<svg xmlns="http://www.w3.org/2000/svg" viewBox="0 0 344.913 329.756">
     <g id="recycle_filled_icon">
        <path fill="#9daf88" d="M87.477,113.018l30.847,76.193-20.104-7.904-18.993,42.1-64.323-29.762c-7.393-2.364-11.083-10.635-7.904-17.716l14.952-33.303L0,132.643l87.477-19.624Z"/>
        <path fill="#606f4a" d="M139.028,241.29l-1.792,85.229-34.48-13.08c-25.602-11.763-44.266-33.401-56.434-55.775L10.033,190.941s99.932,46.198,128.995,50.349Z"/>
        <path fill="#9daf88" d="M175.045,261.782l52.737-63.053,2.478,21.459,46.086-3.036,3.981,70.763c1.39,7.636-4.174,14.782-11.918,15.306l-36.423,2.465,1.513,24.07-58.455-67.973Z"/>
        <path fill="#606f4a" d="M264.007,155.967l76.06-38.497,4.671,36.581c1.658,28.127-8.662,54.773-22.685,76.033l-41.821,63.402s-6.222-109.918-16.224-137.519Z"/>
        <path fill="#9daf88" d="M277.673,99.146l-81.969,6.168,13.653-16.74-34.312-30.916L222.989,5.46c4.504-6.321,13.506-7.316,19.281-2.131l27.165,24.388,16.198-17.868-7.96,89.297Z"/>
        <path fill="#606f4a" d="M139.793,109.166l-80.631-27.673,22.963-28.856c19.004-20.801,45.299-31.985,70.317-36.759L227.049,1.643s-74.447,81.107-87.256,107.523Z"/>
      </g>
</svg>