<svg xmlns="http://www.w3.org/2000/svg" viewBox="0 0 228.255 232.678">
    <g id="search_icon" fill="#606f4a">
      <path d="M82.532,165.063C37.023,165.063,0,128.04,0,82.532S37.023,0,82.532,0s82.532,37.023,82.532,82.532-37.023,82.532-82.532,82.532ZM82.532,15.848C45.762,15.848,15.848,45.762,15.848,82.532s29.915,66.684,66.684,66.684,66.685-29.915,66.685-66.684S119.302,15.848,82.532,15.848Z"/>
      <path d="M220.199,232.678c-1.972,0-3.932-.782-5.486-2.349l-82.232-82.925c-2.025-2.042,9.985-12.437,12.003-10.401l81.459,82.144c3.135,3.162,3.074,7.95-.141,11.139-1.608,1.594-3.612,2.392-5.604,2.392Z"/>
    </g>
</svg>