<svg  xmlns="http://www.w3.org/2000/svg" viewBox="0 0 184.891 240.144">
    <g id="shop_bag_filled" fill="#606f4a">
      <path d="M184.514,208.529l-22.499-153.236c-.681-4.625-4.719-8.112-9.394-8.112h-10.104v57.159c0,4.35-3.341,7.629-7.772,7.629s-7.778-3.28-7.778-7.629v-57.159H57.91v57.159c0,4.35-3.341,7.629-7.772,7.629s-7.778-3.28-7.778-7.629v-57.159h-10.077c-5.345,0-9.943,3.99-10.696,9.282L.296,206.201c-1.212,8.541,1.334,17.176,6.989,23.691,5.655,6.515,13.845,10.252,22.472,10.252h127.954c8.018,0,15.582-3.512,20.756-9.636,5.172-6.124,7.371-14.169,6.047-21.98Z"/>
      <path d="M42.192,48.404v-3.516c0-.599.018-2.698.042-5.521.05-5.807.125-14.582.125-19.747,0-7.799,4.036-14.575,10.533-17.682C56.894.026,60.762.032,64.495.036h.566c6.457,0,12.914-.009,19.37-.018,12.707-.017,25.845-.036,38.772.019,9.218.039,16.959,5.993,18.826,14.478.46,2.091.531,10.484.506,26.262l-.004,7.512-15.564-.065v-27.811c0-3.054-.694-3.912-1.528-4.383-4.587-.683-39.25-.541-56.068-.471l-7.47.028c-1.168.004-3.896.332-3.994,3.293-.038,1.152-.024,9.294-.012,16.479.006,3.513.012,6.925.012,9.491v3.484l-15.715.07Z"/>
    </g>
</svg>