<svg xmlns="http://www.w3.org/2000/svg" viewBox="0 0 180.989 230.722">
    <g id="shop_bag" fill="#606f4a">
      <path d="M152.029,230.722H31.382c-9.098,0-17.736-3.941-23.699-10.812-5.963-6.871-8.649-15.977-7.37-24.985L20.387,53.739c.942-6.618,6.692-11.608,13.376-11.608h113.467c6.043,0,11.264,4.509,12.145,10.488l21.214,144.487c1.406,8.289-.94,16.827-6.451,23.352-5.511,6.523-13.57,10.265-22.11,10.265ZM34.805,56.84L14.877,196.996c-.681,4.785.746,9.622,3.915,13.273,3.168,3.65,7.757,5.744,12.59,5.744h120.647c4.199,0,8.162-1.84,10.872-5.048,2.71-3.208,3.862-7.423,3.161-11.562l-20.935-142.562H34.805Z"/>
      <path d="M130.339,105.606c-4.195,0-7.358-3.103-7.358-7.218V19.271c0-3.179-.798-3.822-1.687-4.245-.862-.41-2.499-.36-3.944-.314-.521.017-1.03.032-1.516.032-6.022,0-12.044-.006-18.066-.013-11.837-.012-24.077-.025-36.112.013-1.095.003-3.651.31-3.742,3.082-.035,1.048-.023,2.106-.011,3.226.006.574.013,1.147.013,1.719v75.617c0,4.115-3.161,7.218-7.352,7.218s-7.358-3.103-7.358-7.218V18.525c0-7.364,3.811-13.76,9.945-16.693C56.928.025,60.578.021,64.099.035h.535c6.088,0,12.176-.008,18.264-.017C94.878,0,107.267-.017,119.456.035c8.702.037,16.011,5.659,17.774,13.67.503,2.288.485,4.475.467,6.591l-.006,1.112v76.981c0,4.115-3.161,7.218-7.352,7.218Z"/>
    </g>
</svg>