<svg xmlns="http://www.w3.org/2000/svg" viewBox="0 0 108.122 138.972">
    <g id="shop_bag" fill= "#606f4a">
        <path class="cls-1" d="m92.228,138.972H17.402c-5.045,0-9.835-2.185-13.142-5.995S-.536,124.117.173,119.122L12.623,31.557c.44-3.095,3.129-5.428,6.255-5.428h70.373c2.733,0,5.095,2.039,5.493,4.744l13.157,89.611c.774,4.567-.512,9.272-3.536,12.854-3.025,3.581-7.449,5.635-12.138,5.635ZM18.878,31.129c-.651,0-1.213.487-1.304,1.132L5.124,119.826c-.507,3.56.555,7.158,2.912,9.874,2.356,2.715,5.77,4.272,9.365,4.272h74.826c3.213,0,6.244-1.408,8.317-3.862s2.955-5.678,2.418-8.846l-13.166-89.664c-.039-.268-.274-.471-.546-.471H18.878Z"/>
        <path class="cls-1" d="m31.796,58.959V12.061c0-1.043-.034-2.092,0-3.135.082-2.497,2.025-3.898,4.375-3.905,11.203-.035,22.406,0,33.608,0,1.359,0,3.029-.217,4.273.375,1.875.892,2.222,2.652,2.222,4.494v14.188c0,11.395,0,22.789,0,34.184v.697c0,3.217,5,3.223,5,0V11.215c0-1.446.076-2.911-.237-4.334C80.108,2.663,76.18.039,72.017.021,60.687-.027,49.355.021,38.025.021c-2.158,0-4.208-.056-6.233.912-3.3,1.578-4.996,4.947-4.996,8.494v13.506c0,11.765,0,23.531,0,35.296v.73c0,3.217,5,3.223,5,0h0Z"/>
    </g>
</svg>