<svg  xmlns="http://www.w3.org/2000/svg" viewBox="0 0 97.691 125.564">
    <g id="shop_bag_filled" fill= "#606f4a">
      <path d="m83.33,125.564H15.723c-4.558,0-8.886-1.974-11.874-5.417S-.484,112.142.156,107.63L11.405,28.513c.398-2.796,2.827-4.905,5.651-4.905h63.584c2.47,0,4.603,1.842,4.963,4.286l11.888,80.965c.7,4.127-.462,8.378-3.195,11.613-2.734,3.236-6.731,5.091-10.967,5.091Z"/>
      <path fill="#fff" d="m28.748,53.81V11.436c0-.942-.031-1.89,0-2.832.074-2.256,1.83-3.522,3.953-3.529,10.122-.032,20.244,0,30.366,0,1.228,0,2.737-.196,3.86.339,1.694.806,2.008,2.396,2.008,4.061v12.819c0,10.295,0,20.591,0,30.886v.63c0,2.907,4.518,2.912,4.518,0V10.672c0-1.307.068-2.63-.214-3.916-.839-3.811-4.387-6.182-8.149-6.198-10.237-.044-20.475,0-30.712,0-1.95,0-3.802-.05-5.632.824-2.982,1.426-4.514,4.469-4.514,7.674v12.203c0,10.63,0,21.26,0,31.891v.659c0,2.907,4.518,2.912,4.518,0h0Z"/>
      <path d="m73.453,23.608c0-4.492.068-16.105-.214-17.391C72.399,2.406,68.851.035,65.089.019,54.852-.024,44.614.019,34.376.019c-1.95,0-3.802-.05-5.632.824-2.982,1.426-4.514,4.469-4.514,7.674v15.09s4.518,0,4.518,0c0-4.237-.031-14.601,0-15.543.074-2.256,1.83-3.522,3.953-3.529,10.122-.032,33.103-.196,34.226.339,1.694.806,2.008,2.396,2.008,4.061v14.672h4.518Z"/>
    </g>
</svg>