<svg  xmlns="http://www.w3.org/2000/svg" viewBox="0 0 158.978 340.079">
    <g id="tree_icon" fill="#606f4a">
      <path d="M83.485,263.047h-8.066C28.898,263.047,0,234.149,0,187.628c0-22.725,7.097-67.604,20.659-109.412C37.496,26.316,57.289,0,79.489,0s41.053,25.308,57.387,77.37c12.354,39.374,19.968,84.414,21.815,109.601,1.596,21.75-3.474,39.376-15.068,52.388-12.817,14.386-33.548,22.575-59.949,23.682l-.188.008ZM79.489,18c-9.849,0-25.978,17.278-41.709,65.771-12.848,39.604-19.78,83.068-19.78,103.857,0,51.824,40.154,57.419,57.419,57.419h7.686c14.919-.648,35.126-4.248,47.08-17.664,8.229-9.235,11.781-22.39,10.556-39.097-1.831-24.952-9.646-69.213-21.039-105.529C100.85,22.67,84.156,18,79.489,18Z"/>
      <path d="M89.002,330.434v-188.994c0-12.411-19.289-12.432-19.289,0v188.994c0,12.411,19.289,12.432,19.289,0h0Z"/>
      <path d="M45.514,120.454c10.668,9.923,21.336,19.846,32.004,29.769,5.381,5.006,13.483-3.059,8.083-8.083-10.668-9.923-21.336-19.846-32.004-29.769-5.381-5.006-13.483,3.059-8.083,8.083h0Z"/>
      <path d="M43.313,200.008c10.668,9.923,21.336,19.846,32.004,29.769,5.381,5.006,13.483-3.059,8.083-8.083-10.668-9.923-21.336-19.846-32.004-29.769-5.381-5.006-13.483,3.059-8.083,8.083h0Z"/>
      <path d="M40.416,157.86c10.668,9.923,21.336,19.846,32.004,29.769,5.381,5.006,13.483-3.059,8.083-8.083-10.668-9.923-21.336-19.846-32.004-29.769-5.381-5.006-13.483,3.059-8.083,8.083h0Z"/>
      <path d="M104.771,112.371c-10.668,9.923-21.336,19.846-32.004,29.769-5.398,5.021,2.699,13.09,8.083,8.083,10.668-9.923,21.336-19.846,32.004-29.769,5.398-5.021-2.699-13.09-8.083-8.083h0Z"/>
      <path d="M106.972,191.926c-10.668,9.923-21.336,19.846-32.004,29.769-5.398,5.021,2.699,13.09,8.083,8.083,10.668-9.923,21.336-19.846,32.004-29.769,5.398-5.021-2.699-13.09-8.083-8.083h0Z"/>
      <path d="M109.869,149.778c-10.668,9.923-21.336,19.846-32.004,29.769-5.398,5.021,2.699,13.09,8.083,8.083,10.668-9.923,21.336-19.846,32.004-29.769,5.398-5.021-2.699-13.09-8.083-8.083h0Z"/>
      <path d="M73.643,94.606v43.708c0,7.355,11.43,7.367,11.43,0v-43.708c0-7.355-11.43-7.367-11.43,0h0Z"/>
      <path d="M48.561,340.079h61.593c12.411,0,12.432-19.289,0-19.289h-61.593c-12.411,0-12.432,19.289,0,19.289h0Z"/>
      </g>
</svg>