<svg xmlns="http://www.w3.org/2000/svg" viewBox="0 0 275.149 279.448">
    <g id="yt_filled" fill="#606f4a">
      <path d="M246.356,0H28.793C12.957,0,0,12.957,0,28.793v221.863c0,15.836,12.957,28.793,28.793,28.793h217.564c15.836,0,28.793-12.957,28.793-28.793V28.793c0-15.836-12.957-28.793-28.793-28.793ZM245.087,185.881c0,14.516-11.877,26.393-26.393,26.393H61.492c-14.516,0-26.393-11.877-26.393-26.393v-92.314c0-14.516,11.877-26.393,26.393-26.393h157.203c14.516,0,26.393,11.877,26.393,26.393v92.314Z"/>
      <path d="M115.001,105.883v67.682c0,.561.562.932,1.051.694l67.421-32.713c.56-.271.57-1.094.017-1.38l-67.421-34.969c-.491-.255-1.069.116-1.069.686Z"/>
    </g>
</svg>