<svg xmlns="http://www.w3.org/2000/svg" viewBox="0 0 267.102 270.979">
    <g id="yt_inverted" fill="#606f4a">
       <path d="M231.64,270.979H35.462c-19.554,0-35.462-15.908-35.462-35.462V35.462C0,15.908,15.908,0,35.462,0h196.177c19.554,0,35.462,15.908,35.462,35.462v200.054c0,19.554-15.908,35.462-35.462,35.462ZM35.462,19c-9.078,0-16.462,7.385-16.462,16.462v200.054c0,9.078,7.385,16.462,16.462,16.462h196.177c9.078,0,16.462-7.385,16.462-16.462V35.462c0-9.078-7.385-16.462-16.462-16.462H35.462Z"/>
      <path d="M206.126,66.719H60.976c-13.403,0-24.369,10.966-24.369,24.369v85.237c0,13.403,10.966,24.369,24.369,24.369h145.15c13.403,0,24.369-10.966,24.369-24.369v-85.237c0-13.403-10.966-24.369-24.369-24.369ZM177.579,137.176l-62.38,30.267c-.453.22-.973-.123-.973-.643v-62.622c0-.527.534-.87.989-.634l62.38,32.355c.511.265.502,1.026-.016,1.277Z"/>
    </g>
</svg>